<svg width="48" height="48" viewBox="0 0 48 48" fill="none" xmlns="http://www.w3.org/2000/svg">
<g id="touch_app_24px">
<path id="icon/action/touch_app_24px" fill-rule="evenodd" clip-rule="evenodd" d="M36.5275 25.88L30.0475 22.64C32.6275 20.64 34.2875 17.52 34.2875 14C34.2875 7.94 29.3475 3 23.2875 3C17.2275 3 12.2875 7.94 12.2875 14C12.2875 18.26 14.7275 21.96 18.2875 23.78V30.3L14.6075 29.52L14.4075 29.48C14.2075 29.44 14.0075 29.42 13.7675 29.42C12.7075 29.42 11.7075 29.84 10.9475 30.6L8.14746 33.44L18.3275 43.62C19.1875 44.5 20.3875 45 21.6275 45H34.2275C36.1875 45 37.8475 43.6 38.1675 41.66L39.7675 32.24C40.2075 29.64 38.9075 27.08 36.5275 25.88ZM35.8275 31.58L34.2275 41H21.6275C21.4475 41 21.2875 40.92 21.1475 40.8L13.7875 33.44L22.2875 35.22V14C22.2875 13.44 22.7275 13 23.2875 13C23.8475 13 24.2875 13.44 24.2875 14V26H27.8075L34.7275 29.46C35.5275 29.86 35.9675 30.72 35.8275 31.58ZM23.2875 7.00001C19.4275 7.00001 16.2875 10.14 16.2875 14C16.2875 15.9 17.0475 17.62 18.2875 18.88V14C18.2875 11.24 20.5275 9.00001 23.2875 9.00001C26.0475 9.00001 28.2875 11.24 28.2875 14V18.88C29.5275 17.62 30.2875 15.9 30.2875 14C30.2875 10.14 27.1475 7.00001 23.2875 7.00001Z" fill="#333333"/>
</g>
</svg>
