<svg width="38" height="38" viewBox="0 0 38 38" fill="none" xmlns="http://www.w3.org/2000/svg">
<g id="hdr_strong_24px">
<path id="icon/image/hdr_strong_24px" fill-rule="evenodd" clip-rule="evenodd" d="M26.9171 9.5C21.6763 9.5 17.4171 13.7592 17.4171 19C17.4171 24.2408 21.6763 28.5 26.9171 28.5C32.1579 28.5 36.4171 24.2408 36.4171 19C36.4171 13.7592 32.1579 9.5 26.9171 9.5ZM7.91732 12.6666C4.41815 12.6666 1.58398 15.5008 1.58398 19C1.58398 22.4991 4.41815 25.3333 7.91732 25.3333C11.4165 25.3333 14.2507 22.4991 14.2507 19C14.2507 15.5008 11.4165 12.6666 7.91732 12.6666ZM4.75088 19C4.75088 20.7417 6.17588 22.1667 7.91754 22.1667C9.65921 22.1667 11.0842 20.7417 11.0842 19C11.0842 17.2584 9.65921 15.8334 7.91754 15.8334C6.17588 15.8334 4.75088 17.2584 4.75088 19Z" fill="#333333"/>
</g>
</svg>
