<svg width="24" height="23" viewBox="0 0 24 23" fill="none" xmlns="http://www.w3.org/2000/svg">
<path d="M21.805 5.09503H21.5064V2.19504C21.5064 0.984725 20.5217 0 19.3113 0H3.39063C1.63377 0 0.185231 1.3438 0.0180168 3.05745C-0.00752012 3.17854 0.00157327 2.09958 0.00157327 18.8113C0.00157327 20.68 1.52187 22.2003 3.39058 22.2003H21.8049C23.0153 22.2003 24 21.2156 24 20.0053V7.29007C24 6.07976 23.0153 5.09503 21.805 5.09503ZM3.39063 1.50776H19.3113C19.6903 1.50776 19.9986 1.81609 19.9986 2.19509V5.09508H3.39063C2.38267 5.09508 1.55753 4.2982 1.51155 3.30142C1.55749 2.30459 2.38263 1.50776 3.39063 1.50776ZM21.805 20.6926H3.39063C2.35327 20.6926 1.50933 19.8487 1.50933 18.8113V6.03141C2.04792 6.39218 2.6951 6.60274 3.39063 6.60274H21.805C22.184 6.60274 22.4923 6.91107 22.4923 7.29007V10.3463H16.8192C14.8871 10.3463 13.3152 11.9181 13.3152 13.8502C13.3152 15.7823 14.8871 17.3541 16.8192 17.3541H22.4923V20.0053C22.4923 20.3843 22.184 20.6926 21.805 20.6926ZM22.4923 15.8465H16.8192C15.7184 15.8465 14.8229 14.951 14.8229 13.8503C14.8229 12.7495 15.7184 11.8541 16.8192 11.8541H22.4923V15.8465Z" fill="#F2F2F2"/>
</svg>
