<svg width="18" height="18" viewBox="0 0 18 18" fill="none" xmlns="http://www.w3.org/2000/svg">
<path fill-rule="evenodd" clip-rule="evenodd" d="M5.00832 2.06322L5.02707 2.06442C5.39604 2.09484 5.7165 2.27724 6.00904 2.56155C6.56496 3.10164 7.75871 4.67769 7.84884 5.1066C7.94858 5.58509 7.84194 5.89587 7.52401 6.44562L7.44695 6.5811C7.30105 6.84616 7.27875 6.9556 7.32392 7.08092C8.01809 8.77085 9.20265 9.94898 10.8821 10.6313C11.0412 10.6886 11.1613 10.6558 11.4974 10.464L11.6728 10.3653C12.1454 10.1075 12.4449 10.026 12.8865 10.1175C13.3162 10.207 14.9015 11.3952 15.4436 11.9475C15.7291 12.2382 15.9128 12.5576 15.9448 12.9488C15.9786 13.8996 14.8122 15.2383 14.1007 15.6409C13.2916 16.2166 12.2647 16.2071 11.1134 15.6741C8.1027 14.4279 3.49733 9.87607 2.27003 6.88492L2.19656 6.71761C1.73054 5.60966 1.74063 4.65246 2.27467 3.93082C2.76197 3.12811 4.07579 2.02032 5.00832 2.06322ZM4.95139 3.08762L4.8893 3.09079C4.41068 3.15404 3.45085 3.97601 3.13121 4.49882L3.07598 4.58056C2.80062 5.02684 2.83254 5.63971 3.21591 6.47887L3.28918 6.64947C4.52557 9.40969 8.80643 13.6089 11.5285 14.736L11.6784 14.8024C12.466 15.1344 13.0622 15.1197 13.5449 14.7792L13.5806 14.7564C13.7299 14.6532 14.0744 14.3419 14.3396 14.0374C14.7123 13.6097 14.9233 13.2178 14.9165 13.0092C14.9091 12.9199 14.8399 12.7996 14.7065 12.6638C14.3035 12.2533 12.8378 11.1547 12.6758 11.1209C12.5226 11.0892 12.3969 11.1319 12.0531 11.3286L11.8801 11.4252C11.3736 11.697 11.0165 11.77 10.5121 11.5878C8.55697 10.794 7.16897 9.41359 6.36254 7.44923C6.17152 6.92401 6.27435 6.55241 6.60653 5.97652L6.68567 5.83801C6.83657 5.56698 6.86851 5.45199 6.84007 5.31558C6.80603 5.15357 5.70236 3.69644 5.28907 3.29493C5.15221 3.16192 5.03196 3.09348 4.94197 3.08606L4.95139 3.08762Z" fill="white"/>
</svg>
