<?xml version="1.0" encoding="utf-8"?><svg version="1.1" id="Layer_1" xmlns="http://www.w3.org/2000/svg" xmlns:xlink="http://www.w3.org/1999/xlink" x="0px" y="0px" viewBox="0 0 122.88 98.188" enable-background="new 0 0 122.88 98.188" xml:space="preserve"><g><path d="M106.512,65.303c0.729-0.078,1.377,0.442,1.463,1.17c0.178,1.568,0.377,3.979,0.363,6.133 c-0.008,1.598-0.143,3.074-0.492,4.023c-0.25,0.685-1.014,1.041-1.697,0.784c-0.686-0.25-1.041-1.013-0.785-1.697 c0.242-0.649,0.328-1.812,0.342-3.124c0-1.997-0.199-4.308-0.363-5.827C105.264,66.037,105.787,65.388,106.512,65.303 L106.512,65.303z M100.482,10.179c1.227-0.136,2.383-0.171,3.459-0.086c1.035,0.079,1.99,0.271,2.846,0.592 c0.686,0.25,1.447-0.1,1.697-0.784c0.25-0.685-0.1-1.448-0.783-1.698c-1.092-0.399-2.283-0.642-3.553-0.742 c-1.24-0.107-2.568-0.072-3.959,0.085C98.473,7.732,98.736,10.366,100.482,10.179L100.482,10.179z M67.262,10.179 c-1.227-0.136-2.383-0.171-3.459-0.086c-1.035,0.079-1.991,0.271-2.846,0.592c-0.685,0.25-1.448-0.1-1.698-0.784 c-0.25-0.685,0.1-1.448,0.785-1.698c1.091-0.399,2.283-0.642,3.552-0.742c1.24-0.107,2.566-0.072,3.957,0.085 C69.27,7.732,69.008,10.366,67.262,10.179L67.262,10.179z M59.738,55.871h48.401v2.797H59.738V55.871L59.738,55.871z M59.738,37.529h48.401v2.797H59.738V37.529L59.738,37.529z M107.695,44.103l-0.146,1.94l-1.754-0.08h-0.16l-0.066,3.762 l0.107,2.792h-2.66l0.133-2.526l-0.066-4.028h-0.172l-1.768,0.08l-0.16-0.186l0.146-1.941h6.42L107.695,44.103L107.695,44.103z M100.021,49.713l0.107,2.805H97.23l-2.42-4.6h-0.16l-0.012,1.489l0.105,3.111h-2.42l0.133-2.526l-0.133-6.075h2.898l2.42,4.6h0.16 l-0.08-4.507l2.445-0.146L100.021,49.713L100.021,49.713z M91.299,50.391l0.145,0.186l-0.158,1.941h-6.063l0.133-2.526 l-0.133-6.075h6.168l0.146,0.187l-0.172,1.94l-2.115-0.08h-1.369l-0.025,1.21h1.314l1.383-0.04l0.146,0.186l-0.16,1.94 l-1.541-0.039h-1.197l-0.012,0.505l0.025,0.744h1.277L91.299,50.391L91.299,50.391z M84.09,52.518h-2.34l-0.066-2.605l-0.146-2.167 h-0.16l-1.383,3.961h-2.006l-1.145-3.961h-0.16l-0.186,1.914l-0.133,2.858h-2.221l0.838-8.602h3.07l0.254,1.223l0.758,3.124h0.158 l0.838-3.031l0.307-1.316h3.031L84.09,52.518L84.09,52.518z M73.57,50.391l0.146,0.186l-0.16,1.941h-6.061l0.131-2.526 l-0.131-6.075h6.168l0.146,0.187l-0.174,1.94l-2.113-0.08h-1.369l-0.027,1.21h1.316l1.383-0.04l0.146,0.186l-0.16,1.94 l-1.541-0.039h-1.197l-0.014,0.505l0.027,0.744h1.275L73.57,50.391L73.57,50.391z M64.635,43.77c0.762,0,1.479,0.12,2.152,0.359 l-0.451,2.114l-0.174,0.106c-0.23-0.124-0.496-0.224-0.797-0.299s-0.582-0.113-0.838-0.113c-0.541,0-0.932,0.157-1.17,0.472 s-0.359,0.839-0.359,1.576c0,0.859,0.139,1.486,0.412,1.881c0.275,0.395,0.705,0.592,1.289,0.592c0.248,0,0.525-0.024,0.832-0.073 c0.305-0.049,0.574-0.117,0.805-0.206l0.211,0.133l-0.211,2.101c-0.533,0.168-1.148,0.253-1.848,0.253 c-1.428,0-2.502-0.373-3.225-1.117c-0.723-0.744-1.083-1.83-1.083-3.257c0-1.436,0.388-2.548,1.163-3.337 C62.119,44.165,63.215,43.77,64.635,43.77L64.635,43.77z M2.676,62.438h12.085V14.409c-2.316-1.154-3.911-3.542-3.911-6.291V7.012 C10.851,3.157,14.008,0,17.871,0l0,0c3.863,0,7.012,3.157,7.012,7.012v1.114c0,2.749-1.603,5.137-3.911,6.292v48.028h12.31 c1.354,0,2.46,1.105,2.46,2.46v15.411c0,9.825-8.038,17.871-17.871,17.871l0,0C8.046,98.188,0,90.149,0,80.316V65.122 C0,63.647,1.202,62.438,2.676,62.438L2.676,62.438L2.676,62.438z M53.979,43.479c-0.283-6.195-0.739-10.255-0.957-11.764 c-0.757-5.214-0.672-8.739-0.451-15.208c0.028-0.834,0.107-1.469,0.171-1.947c0.328-2.589,0.356-2.803-2.924-3.688 c-1.191-0.321-2.068-0.777-2.425-1.555c-0.357-0.785-0.321-1.968,0.256-3.745c1.198-0.085,2.546,0,3.916,0.093 c1.854,0.121,3.745,0.243,5.57-0.015c2.518-0.356,5.235-0.806,8.052-1.269c3.496-0.578,7.154-0.361,10.77-0.846 c7.375-0.984,4.799-1.027,11.674-0.428c6.932,0.606,14,1.045,22.045,2.686c0.094,0.021,0.186,0.029,0.271,0.029l10.021-0.136 c0.299,1.355,0.348,2.382,0.113,3.16c-0.25,0.82-0.906,1.427-2.025,1.933l-0.158,0.071c-2.01,0.92-2.816,1.284-3.244,2.304 c-0.277,0.656-0.236,1.241-0.164,2.211c0.051,0.692,0.129,1.641,0.094,2.924c-0.137,5.321-0.281,9.038-1.215,14.359 c-0.188,1.127-0.592,3.275-0.957,9.585c-0.326,5.668-0.342,2.799-0.055,8.064c0.34,6.204,0.816,10.068,1.012,11.237 c0.934,5.321,1.078,11.305,1.215,16.625c0.035,1.284-0.043,2.232-0.094,2.925c-0.072,0.97-0.113,1.555,0.164,2.211 c0.428,1.02,1.234,1.383,3.244,2.304l0.158,0.07c1.119,0.507,1.775,1.113,2.025,1.934c0.234,0.777,0.186,1.804-0.113,3.159 l-10.021-0.136c-0.086,0-0.178,0.008-0.271,0.028c-8.045,1.641-15.113,2.285-22.045,2.891c-6.875,0.6-4.299,0.557-11.674-0.428 c-3.615-0.485-7.273-0.473-10.77-1.051c-2.816-0.463-5.534-0.912-8.052-1.269c-1.826-0.257-3.716-0.136-5.57-0.015 c-1.369,0.093-2.717,0.178-3.916,0.093c-0.578-1.776-0.613-2.96-0.256-3.744c0.356-0.777,1.234-1.234,2.425-1.555 c3.28-0.885,3.252-1.099,2.924-3.688c-0.064-0.479-0.143-1.113-0.171-1.947c-0.221-6.469-0.306-12.261,0.451-17.474 c0.211-1.468,0.614-5.876,0.917-12.22C54.167,45.513,54.182,47.913,53.979,43.479L53.979,43.479z M115.016,42.24 c0.297-6.181,0.797-8.096,0.971-9.092c0.861-5.842,1.104-8.881,1.25-14.808c0.035-1.477-0.035-2.46-0.094-3.181 c-0.041-0.571-0.07-0.92-0.041-0.978c0.035-0.078,0.57-0.321,1.91-0.935l0.158-0.071c1.846-0.841,2.959-1.961,3.451-3.573 c0.449-1.476,0.299-3.273-0.342-5.613c-0.158-0.564-0.678-0.977-1.291-0.97l-10.928,0.15c-8.123-1.647-15.248-2.101-22.195-2.708 c-7.039-0.621-4.641-0.563-12.242,0.449c-3.717,0.492-7.369,0.275-10.855,0.854c-2.782,0.463-5.464,0.905-7.996,1.262 c-1.555,0.222-3.316,0.107-5.042-0.007c-1.818-0.121-3.602-0.235-5.242,0.014l0,0c-0.463,0.071-0.87,0.378-1.048,0.849 c-1.098,2.931-1.148,5.007-0.449,6.526c0.742,1.634,2.225,2.503,4.137,3.017c1.055,0.285,1.048,0.321,0.984,0.799 c-0.071,0.542-0.157,1.248-0.192,2.197c-0.228,6.647-0.298,10.322,0.472,15.664c0.204,1.406,0.783,5.27,0.97,11.414 c0.086,2.824,0.045,3.871-0.038,6.712c-0.183,6.284-0.734,10.52-0.932,11.888c-0.77,5.342-0.7,11.283-0.472,17.931 c0.036,0.948,0.122,1.654,0.192,2.196c0.064,0.479,0.071,0.514-0.984,0.799c-1.912,0.514-3.395,1.384-4.137,3.018 c-0.699,1.519-0.649,3.594,0.449,6.525c0.178,0.471,0.585,0.777,1.048,0.849l0,0c1.641,0.249,3.424,0.136,5.242,0.015 c1.726-0.114,3.488-0.229,5.042-0.008c2.532,0.356,5.214,0.799,7.996,1.263c3.486,0.578,7.139,0.565,10.855,1.058 c7.602,1.013,5.203,1.069,12.242,0.449c6.947-0.606,14.072-1.265,22.195-2.912l10.928,0.15c0.613,0.007,1.133-0.407,1.291-0.971 c0.641-2.339,0.791-4.137,0.342-5.612c-0.492-1.612-1.605-2.732-3.451-3.573l-0.158-0.071c-1.34-0.614-1.875-0.856-1.91-0.935 c-0.029-0.057,0-0.406,0.041-0.978c0.059-0.72,0.129-1.704,0.094-3.181c-0.146-5.928-0.389-11.232-1.25-17.074 c-0.182-1.039-0.758-4.777-1.035-10.833C114.791,46.702,114.846,45.782,115.016,42.24L115.016,42.24z M59.651,67.963 c0.728,0.078,1.248,0.734,1.17,1.462c-0.135,1.227-0.171,2.382-0.086,3.459c0.079,1.034,0.271,1.99,0.592,2.846 c0.25,0.685-0.1,1.448-0.785,1.698c-0.685,0.249-1.447-0.101-1.697-0.785c-0.399-1.091-0.642-2.282-0.742-3.552 c-0.107-1.241-0.072-2.567,0.086-3.958C58.267,68.407,58.928,67.885,59.651,67.963L59.651,67.963z"/></g></svg>