<svg width="56" height="50" viewBox="0 0 56 50" fill="none" xmlns="http://www.w3.org/2000/svg">
<rect x="0.613281" width="55.0667" height="50" rx="24" fill="#01304E"/>
<path d="M34.581 25.8122C34.6833 25.974 34.8321 26.1006 35.004 26.1848C36.2894 26.8147 37.1763 28.1521 37.1763 29.7V32.1C37.1763 32.5971 37.5726 33 38.0615 33C38.5504 33 38.9467 32.5971 38.9467 32.1V29.7C38.9467 26.552 36.4367 24 33.3406 24C33.2112 24 33.1523 24.1664 33.2495 24.2519C33.7632 24.7036 34.2124 25.2291 34.581 25.8122Z" fill="white"/>
<path fill-rule="evenodd" clip-rule="evenodd" d="M22.4628 25.8C20.3784 25.8 18.6886 27.5461 18.6886 29.7V32.1C18.6886 32.5971 18.2986 33 17.8176 33C17.3366 33 16.9467 32.5971 16.9467 32.1V29.7C16.9467 26.552 19.4163 24 22.4628 24H29.4305C32.477 24 34.9467 26.552 34.9467 29.7V32.1C34.9467 32.5971 34.5567 33 34.0757 33C33.5947 33 33.2047 32.5971 33.2047 32.1V29.7C33.2047 27.5461 31.515 25.8 29.4305 25.8H22.4628Z" fill="white"/>
<path d="M31.9689 20.4009C32.0612 20.195 32.2187 20.0264 32.4005 19.8927C33.0751 19.397 33.5245 18.5107 33.5245 17.5C33.5245 16.4893 33.0751 15.603 32.4005 15.1073C32.2187 14.9736 32.0612 14.805 31.9689 14.5991C31.732 14.0705 31.4324 13.5875 31.0819 13.1642C31.0281 13.0992 31.0698 13 31.1541 13C33.2487 13 34.9467 15.0147 34.9467 17.5C34.9467 19.9853 33.2487 22 31.1541 22C31.0698 22 31.0281 21.9008 31.0819 21.8358C31.4324 21.4125 31.732 20.9295 31.9689 20.4009Z" fill="white"/>
<path fill-rule="evenodd" clip-rule="evenodd" d="M25.9467 20.3125C27.6725 20.3125 29.0717 19.0533 29.0717 17.5C29.0717 15.9467 27.6725 14.6875 25.9467 14.6875C24.2208 14.6875 22.8217 15.9467 22.8217 17.5C22.8217 19.0533 24.2208 20.3125 25.9467 20.3125ZM25.9467 22C28.7081 22 30.9467 19.9853 30.9467 17.5C30.9467 15.0147 28.7081 13 25.9467 13C23.1852 13 20.9467 15.0147 20.9467 17.5C20.9467 19.9853 23.1852 22 25.9467 22Z" fill="white"/>
</svg>
