<svg width="58" height="52" viewBox="0 0 58 52" fill="none" xmlns="http://www.w3.org/2000/svg">
<rect width="57.9467" height="51.7874" rx="25.8937" fill="#01304E"/>
<path fill-rule="evenodd" clip-rule="evenodd" d="M28.2321 14.253C28.668 13.95 29.2784 13.95 29.7144 14.253L40.5794 21.8054C40.8734 22.0098 41.0454 22.3241 41.0454 22.657V34.5249C41.0454 35.3834 40.6639 36.2066 39.9847 36.8136C39.3055 37.4206 38.3843 37.7617 37.4238 37.7617H20.5227C19.5621 37.7617 18.641 37.4206 17.9618 36.8136C17.2826 36.2066 16.901 35.3834 16.901 34.5249V22.657C16.901 22.3241 17.073 22.0098 17.3671 21.8054L28.2321 14.253ZM19.3154 23.1847V34.5249C19.3154 34.8111 19.4426 35.0855 19.669 35.2878C19.8954 35.4902 20.2025 35.6038 20.5227 35.6038H37.4238C37.7439 35.6038 38.051 35.4902 38.2774 35.2878C38.5038 35.0855 38.631 34.8111 38.631 34.5249V23.1847L28.9732 16.4715L19.3154 23.1847Z" fill="white"/>
<path fill-rule="evenodd" clip-rule="evenodd" d="M24.1443 25.8937C24.1443 25.2978 24.6848 24.8148 25.3516 24.8148H32.5949C33.2616 24.8148 33.8021 25.2978 33.8021 25.8937V36.6828C33.8021 37.2786 33.2616 37.7617 32.5949 37.7617C31.9282 37.7617 31.3877 37.2786 31.3877 36.6828V26.9726H26.5588V36.6828C26.5588 37.2786 26.0183 37.7617 25.3516 37.7617C24.6848 37.7617 24.1443 37.2786 24.1443 36.6828V25.8937Z" fill="white"/>
</svg>
