<svg width="18" height="18" viewBox="0 0 18 18" fill="none" xmlns="http://www.w3.org/2000/svg">
<path fill-rule="evenodd" clip-rule="evenodd" d="M12.0898 2.76273L5.70257 2.7627C3.47031 2.7627 1.85986 4.5572 1.85986 6.86728V11.2683C1.85986 13.5784 3.47031 15.3729 5.70257 15.3729H12.0838C13.1561 15.3609 14.1709 14.9119 14.898 14.1305C15.6251 13.349 16.0009 12.3032 15.938 11.2367L15.9389 6.86728C16.0009 5.83237 15.6251 4.78659 14.898 4.00511C14.1709 3.22362 13.1561 2.77464 12.0898 2.76273ZM5.70258 3.83346L12.0779 3.83342C12.8519 3.84207 13.5885 4.16797 14.1163 4.73522C14.644 5.30247 14.9168 6.06156 14.8712 6.8357L14.8702 11.2683C14.9168 12.074 14.644 12.8331 14.1163 13.4003C13.5885 13.9676 12.8519 14.2935 12.0779 14.3021L5.70258 14.3021C4.08738 14.3021 2.92858 13.0109 2.92858 11.2683V6.86728C2.92858 5.12468 4.08738 3.83346 5.70258 3.83346ZM13.1453 6.71273C12.9609 6.48189 12.6246 6.44455 12.3942 6.62932L9.50718 8.94465L9.42444 9.00249C9.08403 9.21458 8.63703 9.19499 8.31097 8.94036L5.40281 6.62793L5.33736 6.5833C5.1118 6.45276 4.81885 6.50393 4.65207 6.71448C4.46862 6.94609 4.50729 7.28285 4.73846 7.46666L7.6503 9.78199L7.7639 9.8647C8.49639 10.3609 9.46708 10.3335 10.1696 9.78489L13.0621 7.46527L13.1201 7.4113C13.2974 7.22012 13.313 6.92259 13.1453 6.71273Z" fill="white"/>
</svg>
