<svg width="35" height="35" viewBox="0 0 35 35" fill="none" xmlns="http://www.w3.org/2000/svg">
<path fill-rule="evenodd" clip-rule="evenodd" d="M12.3959 9.47917H8.02092V13.8542H5.10425V9.47917H0.729248V6.5625H5.10425V2.1875H8.02092V6.5625H12.3959V9.47917ZM26.7313 9.47917H31.3542C32.9584 9.47917 34.2709 10.7917 34.2709 12.3958V29.8958C34.2709 31.5 32.9584 32.8125 31.3542 32.8125H8.02091C6.41675 32.8125 5.10425 31.5 5.10425 29.8958V16.7708H8.02091V29.8958H31.3542V12.3958H25.448L22.7792 9.47917H15.3126V6.5625H24.0626L26.7313 9.47917ZM19.6876 28.4375C15.6626 28.4375 12.3959 25.1708 12.3959 21.1458C12.3959 17.1208 15.6626 13.8542 19.6876 13.8542C23.7126 13.8542 26.9793 17.1208 26.9793 21.1458C26.9793 25.1708 23.7126 28.4375 19.6876 28.4375ZM19.6876 16.7708C22.0938 16.7708 24.0626 18.7396 24.0626 21.1458C24.0626 23.5521 22.0938 25.5208 19.6876 25.5208C17.2813 25.5208 15.3126 23.5521 15.3126 21.1458C15.3126 18.7396 17.2813 16.7708 19.6876 16.7708Z" fill="#01304E"/>
</svg>
