<svg width="57" height="50" viewBox="0 0 57 50" fill="none" xmlns="http://www.w3.org/2000/svg">
<rect x="0.946655" width="55.0667" height="50" rx="24" fill="#01304E"/>
<path d="M37.9346 18.8196H37.6608V16.0764C37.6608 14.9315 36.7582 14 35.6487 14H21.0547C19.4443 14 18.1165 15.2711 17.9632 16.8921C17.9398 17.0067 17.9481 15.9861 17.9481 31.7942C17.9481 33.5619 19.3417 35 21.0547 35H37.9345C39.044 35 39.9467 34.0686 39.9467 32.9236V20.8959C39.9467 19.751 39.0441 18.8196 37.9346 18.8196ZM21.0547 15.4262H35.6487C35.9961 15.4262 36.2788 15.7179 36.2788 16.0764V18.8196H21.0547C20.1308 18.8196 19.3744 18.0658 19.3322 17.1229C19.3744 16.18 20.1307 15.4262 21.0547 15.4262ZM37.9346 33.5738H21.0547C20.1038 33.5738 19.3302 32.7755 19.3302 31.7942V19.7053C19.8239 20.0466 20.4172 20.2458 21.0547 20.2458H37.9346C38.282 20.2458 38.5646 20.5374 38.5646 20.8959V23.7869H33.3642C31.5932 23.7869 30.1523 25.2738 30.1523 27.1014C30.1523 28.929 31.5932 30.4159 33.3642 30.4159H38.5646V32.9236C38.5646 33.2821 38.282 33.5738 37.9346 33.5738ZM38.5646 28.9897H33.3642C32.3552 28.9897 31.5343 28.1426 31.5343 27.1014C31.5343 26.0602 32.3552 25.2131 33.3642 25.2131H38.5646V28.9897Z" fill="white"/>
</svg>
