<svg width="21" height="22" viewBox="0 0 21 22" fill="none" xmlns="http://www.w3.org/2000/svg">
<path d="M20.9765 22H16.9565C16.6765 22 16.4515 21.93 16.2815 21.79C16.1215 21.65 15.9915 21.49 15.8915 21.31L10.8665 12.985C10.7865 13.235 10.6915 13.45 10.5815 13.63L5.76652 21.31C5.64652 21.48 5.50652 21.64 5.34652 21.79C5.19652 21.93 4.99652 22 4.74652 22H0.981523L8.18152 10.84L1.26652 0.309999H5.28652C5.56652 0.309999 5.76652 0.349999 5.88652 0.429999C6.01652 0.499998 6.13652 0.619999 6.24652 0.789999L11.1815 8.74C11.2815 8.49 11.4015 8.24 11.5415 7.99L16.0715 0.864999C16.1815 0.674999 16.3015 0.534999 16.4315 0.444999C16.5615 0.354999 16.7265 0.309999 16.9265 0.309999H20.7815L13.8065 10.675L20.9765 22Z" fill="#3284B8"/>
</svg>
