<svg width="57" height="42" viewBox="0 0 57 42" fill="none" xmlns="http://www.w3.org/2000/svg">
<path d="M35.6104 0.000186973C34.5004 0.00816025 33.3984 0.0619804 32.2344 0.372938C30.9663 0.715999 29.7631 1.26341 28.6724 1.99351C27.1404 1.09651 25.6564 0.358984 24.2344 0.185565C22.4684 -0.0317063 20.8284 0.0859001 18.9224 0.125766C16.6624 0.171613 15.1884 1.32176 12.7964 2.24267C10.4064 3.1596 7.32837 4.04862 2.98438 4.04862H0.984375V23.2343L2.11037 23.7944L5.79638 25.6024L18.9224 40.1775L18.9844 40.2393C20.4844 41.7184 22.5084 42.0851 24.2964 41.9835C26.0864 41.8838 27.7664 41.3615 29.1084 40.5523C32.0624 38.7762 40.1084 33.2009 40.1084 33.2009L40.2964 33.0753L40.4224 32.9517C41.3744 32.0089 41.8524 30.8588 42.1724 29.6508L49.8584 25.7878L55.6084 23.8582L56.9844 23.4197V4.04862H54.9844C51.6224 4.07153 48.2887 3.43627 45.1724 2.17888C42.7804 1.24801 41.3284 0.10982 39.0444 0.0619801C37.8244 0.0380603 36.7164 -0.0077863 35.6084 0.000186973H35.6104ZM35.6704 3.98682C36.5704 3.97885 37.6104 4.02669 38.9224 4.04862C39.1324 4.05659 41.0544 4.87385 43.7344 5.91835C46.0004 6.80538 49.1484 7.59274 52.9844 7.84788V20.5553L48.3584 22.1141H48.2344L48.1084 22.1739L42.0484 25.2276C41.7267 24.3026 41.2159 23.4542 40.5484 22.736L40.4224 22.5486L31.9224 12.1475L30.6724 10.5887L29.1084 11.8345L23.7344 16.1959C21.9304 17.4417 20.4684 17.0829 18.9844 16.3833C18.5544 16.18 18.5784 16.1182 18.2344 15.8849L27.3604 8.34621L27.4844 8.22263C30.1944 5.54361 31.8604 4.61671 33.2964 4.23599C34.0164 4.04064 34.7744 3.9948 35.6724 3.98682H35.6704ZM21.7364 4.04862C22.4037 4.02355 23.0719 4.0442 23.7364 4.11041C24.2604 4.1722 24.8544 4.61671 25.3624 4.79611C25.1584 4.98348 25.0104 5.09112 24.7984 5.29444L24.6744 5.42002L13.7364 14.4498L12.0484 15.8212L13.5484 17.3779C13.5484 17.3779 14.9944 18.9367 17.2364 19.9952C19.4784 21.0536 22.9404 21.6536 26.0484 19.4968L26.1744 19.3713L30.0484 16.1959L37.4244 25.2276L37.4864 25.3532L37.5484 25.413C38.8684 26.7146 38.8384 28.7618 37.5484 30.0873C37.5324 30.1013 37.5644 30.1332 37.5484 30.1471C37.5324 30.1571 37.2684 30.3126 37.2364 30.3365L34.6104 26.7844L31.3604 29.1525L33.9244 32.577C32.8844 33.2786 32.4164 33.6454 31.2984 34.3849L28.6124 30.771L25.3604 33.1391L27.9244 36.5636C27.6964 36.7032 27.2284 37.0161 27.0484 37.1257C26.4164 37.5065 25.1964 37.935 24.1104 37.9968C23.0884 38.0526 22.3064 37.8174 21.9244 37.4985L21.8624 37.4367L8.48637 22.6742L8.23637 22.3612L4.98438 20.7427V7.84788C8.80437 7.59872 11.9764 6.84325 14.2344 5.98014C16.9064 4.95956 18.8144 4.11838 19.0464 4.11041L21.7344 4.04862H21.7364Z" fill="white"/>
</svg>
