<svg width="485" height="291" viewBox="0 0 485 291" fill="none" xmlns="http://www.w3.org/2000/svg">
<g clip-path="url(#clip0)">
<path d="M30.5089 60.9956C24.4748 60.9956 18.5762 59.207 13.5591 55.8558C8.54191 52.5047 4.63151 47.7416 2.32236 42.1688C0.0132191 36.5961 -0.590958 30.464 0.586233 24.548C1.76342 18.632 4.66912 13.1978 8.93586 8.93262C13.2026 4.66742 18.6388 1.76279 24.5569 0.586021C30.475 -0.590744 36.6093 0.0132143 42.1841 2.32152C47.7589 4.62983 52.5237 8.53881 55.8761 13.5542C59.2284 18.5695 61.0177 24.4659 61.0177 30.4978C61.0086 38.5835 57.7913 46.3355 52.0718 52.0529C46.3523 57.7704 38.5975 60.9865 30.5089 60.9956ZM30.5089 1.27076C24.7262 1.27076 19.0734 2.9849 14.2653 6.19641C9.4572 9.40792 5.70973 13.9726 3.4968 19.3131C1.28387 24.6537 0.704873 30.5303 1.83301 36.1997C2.96116 41.8692 5.74577 47.077 9.83473 51.1645C13.9237 55.252 19.1333 58.0356 24.8049 59.1633C30.4764 60.291 36.3552 59.7122 41.6977 57.5001C47.0401 55.288 51.6064 51.5419 54.8191 46.7355C58.0318 41.9292 59.7465 36.2784 59.7465 30.4978C59.7378 22.749 56.6546 15.3201 51.1733 9.84087C45.6921 4.36164 38.2605 1.27954 30.5089 1.27076Z" fill="#F2F2F2"/>
<path d="M237.714 43.2053C234.697 43.2053 231.748 42.311 229.239 40.6354C226.731 38.9599 224.776 36.5783 223.621 33.7919C222.467 31.0056 222.164 27.9395 222.753 24.9815C223.342 22.0235 224.795 19.3064 226.928 17.1738C229.061 15.0412 231.779 13.5889 234.738 13.0005C237.697 12.4121 240.765 12.7141 243.552 13.8683C246.339 15.0224 248.722 16.9769 250.398 19.4846C252.074 21.9923 252.969 24.9405 252.969 27.9564C252.964 31.9993 251.356 35.8752 248.496 38.734C245.636 41.5927 241.759 43.2007 237.714 43.2053ZM237.714 13.9783C234.949 13.9783 232.245 14.7981 229.946 16.334C227.646 17.87 225.854 20.053 224.796 22.6072C223.737 25.1614 223.46 27.9719 224 30.6834C224.539 33.3949 225.871 35.8856 227.827 37.8405C229.782 39.7954 232.274 41.1267 234.986 41.666C237.699 42.2054 240.51 41.9286 243.066 40.8706C245.621 39.8126 247.805 38.021 249.341 35.7223C250.878 33.4236 251.698 30.7211 251.698 27.9564C251.693 24.2505 250.219 20.6975 247.597 18.077C244.976 15.4565 241.422 13.9825 237.714 13.9783Z" fill="#F2F2F2"/>
<path d="M345.132 117.544C341.738 117.544 338.42 116.538 335.598 114.653C332.776 112.768 330.576 110.088 329.277 106.954C327.978 103.819 327.638 100.37 328.3 97.0419C328.963 93.7141 330.597 90.6574 332.997 88.2582C335.397 85.8591 338.455 84.2252 341.784 83.5633C345.113 82.9013 348.563 83.2411 351.699 84.5395C354.835 85.8379 357.515 88.0367 359.401 90.8578C361.287 93.679 362.293 96.9957 362.293 100.389C362.288 104.937 360.478 109.297 357.261 112.513C354.044 115.729 349.682 117.539 345.132 117.544ZM345.132 84.5044C341.989 84.5044 338.917 85.436 336.304 87.1814C333.691 88.9268 331.654 91.4075 330.451 94.31C329.249 97.2125 328.934 100.406 329.547 103.488C330.16 106.569 331.674 109.399 333.896 111.621C336.118 113.842 338.95 115.355 342.032 115.968C345.114 116.581 348.309 116.266 351.213 115.064C354.116 113.862 356.598 111.826 358.344 109.213C360.09 106.601 361.022 103.53 361.022 100.389C361.017 96.1773 359.342 92.1399 356.363 89.162C353.384 86.1842 349.345 84.5091 345.132 84.5044Z" fill="#F2F2F2"/>
<path d="M484.365 291H341.354C341.186 291 341.024 290.933 340.905 290.814C340.786 290.695 340.719 290.533 340.719 290.365C340.719 290.196 340.786 290.035 340.905 289.915C341.024 289.796 341.186 289.729 341.354 289.729H484.365C484.533 289.729 484.695 289.796 484.814 289.915C484.933 290.035 485 290.196 485 290.365C485 290.533 484.933 290.695 484.814 290.814C484.695 290.933 484.533 291 484.365 291Z" fill="#CCCCCC"/>
<path d="M407.368 97.3687C415.99 97.3687 422.979 90.3819 422.979 81.7633C422.979 73.1447 415.99 66.158 407.368 66.158C398.746 66.158 391.757 73.1447 391.757 81.7633C391.757 90.3819 398.746 97.3687 407.368 97.3687Z" fill="#FFB8B8"/>
<path d="M408.987 267.074L401.609 269.579L388.431 242.322L399.32 238.625L408.987 267.074Z" fill="#FFB8B8"/>
<path d="M395.623 269.261L409.853 264.429L412.896 273.385L389.707 281.259C389.308 280.083 389.144 278.839 389.225 277.6C389.306 276.36 389.63 275.149 390.18 274.035C390.729 272.921 391.492 271.926 392.427 271.107C393.361 270.287 394.447 269.66 395.623 269.261Z" fill="#2F2E41"/>
<path d="M425.658 282.47L417.876 282.861L412.663 253.04L424.15 252.462L425.658 282.47Z" fill="#FFB8B8"/>
<path d="M412.205 280.917L427.214 280.163L427.689 289.61L403.23 290.839C403.167 289.598 403.35 288.358 403.767 287.188C404.185 286.018 404.828 284.941 405.662 284.02C406.495 283.099 407.502 282.35 408.625 281.818C409.747 281.286 410.964 280.98 412.205 280.917Z" fill="#2F2E41"/>
<path d="M379.345 183.387C380.043 182.766 380.597 181.999 380.966 181.142C381.335 180.284 381.512 179.355 381.484 178.421C381.455 177.488 381.223 176.572 380.802 175.738C380.381 174.904 379.782 174.172 379.048 173.595L386.468 152.135L375.033 155.057L369.74 174.987C368.851 176.284 368.469 177.863 368.666 179.423C368.863 180.983 369.626 182.417 370.81 183.452C371.994 184.487 373.517 185.053 375.09 185.041C376.663 185.029 378.177 184.44 379.345 183.387Z" fill="#FFB8B8"/>
<path d="M424.931 273.479C424.831 273.479 424.73 273.473 424.63 273.463L414.066 272.345C413.417 272.279 412.81 271.993 412.347 271.533C411.885 271.073 411.594 270.468 411.525 269.82L403.36 197.064L397.453 216.973L408.467 256.101C408.579 256.5 408.603 256.918 408.538 257.326C408.473 257.735 408.319 258.125 408.089 258.469C407.858 258.812 407.555 259.102 407.202 259.317C406.848 259.533 406.452 259.669 406.04 259.716L395.332 260.946C394.65 261.022 393.964 260.851 393.397 260.465C392.83 260.078 392.42 259.502 392.241 258.84L380.54 214.807C380.444 214.445 380.42 214.068 380.47 213.696L385.728 174.177L424.954 177.321L427.79 270.532C427.802 270.915 427.737 271.296 427.598 271.653C427.46 272.01 427.251 272.335 426.984 272.61C426.718 272.885 426.399 273.104 426.046 273.253C425.693 273.402 425.314 273.479 424.931 273.479V273.479Z" fill="#2F2E41"/>
<path d="M411.372 184.079C398.231 184.079 383.352 179.003 382.451 178.691L382.19 178.601L397.016 102.557L397.288 102.568C403.164 102.807 419.197 102.929 419.359 102.93L419.646 102.932L425.826 170.039L426.93 179.855L426.795 179.964C423.015 183.02 417.375 184.079 411.372 184.079Z" fill="#3284B8"/>
<path d="M387.63 177.507L378.357 173.773L383.084 116.626C383.198 115.217 383.626 113.851 384.339 112.63C385.051 111.409 386.028 110.364 387.199 109.571L392.078 106.251C391.94 105.782 391.916 105.287 392.006 104.806C392.097 104.325 392.3 103.873 392.6 103.486C392.899 103.099 393.286 102.788 393.729 102.58C394.171 102.371 394.657 102.271 395.147 102.287L396.544 102.332C396.81 102.153 397.123 102.058 397.444 102.06C397.764 102.063 398.076 102.162 398.339 102.344C398.602 102.527 398.804 102.785 398.918 103.085C399.031 103.384 399.052 103.711 398.977 104.022L398.67 110.077L387.63 177.507Z" fill="#2F2E41"/>
<path d="M382.952 167.262L370.845 166.752L374.767 141.533L378.017 117.803C378.081 116.951 378.336 116.124 378.765 115.385C379.193 114.645 379.784 114.012 380.491 113.533C381.199 113.053 382.006 112.74 382.852 112.616C383.697 112.492 384.56 112.561 385.376 112.818C386.646 113.216 387.735 114.049 388.452 115.169C389.17 116.29 389.47 117.628 389.3 118.947L386.008 144.659L382.952 167.262Z" fill="#2F2E41"/>
<path d="M402.123 178.381L402.04 178.126C401.984 177.952 396.528 160.456 405.658 139.577L410.236 116.815L414.149 102.522C414.222 102.266 414.354 102.032 414.534 101.836C414.714 101.641 414.937 101.49 415.186 101.395C415.478 101.294 415.793 101.281 416.092 101.358C416.392 101.435 416.662 101.598 416.869 101.828C419.596 101.028 422.528 101.321 425.043 102.645L430.537 105.538C431.759 106.182 432.733 107.212 433.306 108.468C433.879 109.724 434.019 111.134 433.704 112.478L426.194 144.516L429.844 174.44L402.123 178.381Z" fill="#2F2E41"/>
<path d="M410.118 166.046C411.047 166.147 411.987 166.043 412.872 165.742C413.756 165.44 414.563 164.949 415.237 164.301C415.911 163.654 416.434 162.867 416.771 161.996C417.107 161.124 417.249 160.19 417.185 159.258L434.191 146.665L428.247 143.847L409.909 153.29C408.35 153.501 406.922 154.276 405.897 155.469C404.872 156.662 404.32 158.189 404.346 159.761C404.371 161.334 404.973 162.842 406.037 164C407.101 165.159 408.553 165.887 410.118 166.046V166.046Z" fill="#FFB8B8"/>
<path d="M420.78 160.409L415.036 149.691L429.202 140.371L422.289 115.586C422.012 114.593 421.943 113.555 422.086 112.534C422.228 111.514 422.58 110.534 423.119 109.656C423.657 108.777 424.371 108.019 425.216 107.429C426.061 106.839 427.018 106.429 428.028 106.226C429.814 105.87 431.668 106.174 433.246 107.081C434.824 107.989 436.019 109.437 436.609 111.159L445.936 138.566C446.129 139.131 446.139 139.741 445.967 140.312C445.795 140.883 445.448 141.386 444.976 141.751L420.78 160.409Z" fill="#2F2E41"/>
<path d="M408.473 85.0733C406.602 85.3167 405.19 83.4027 404.535 81.6334C403.881 79.8641 403.382 77.8043 401.755 76.8486C399.532 75.5429 396.688 77.1133 394.146 76.6825C391.275 76.196 389.409 73.1548 389.263 70.2479C389.116 67.341 390.273 64.5452 391.409 61.8651L391.805 65.1958C391.752 64.0669 391.99 62.9433 392.496 61.9325C393.001 60.9217 393.758 60.0574 394.693 59.4224L394.182 64.3098C394.291 63.6355 394.531 62.9893 394.891 62.4083C395.25 61.8273 395.72 61.3229 396.275 60.9241C396.83 60.5253 397.458 60.2399 398.123 60.0843C398.788 59.9287 399.478 59.906 400.152 60.0175L400.071 62.9296C403.387 62.5355 406.732 62.1408 410.057 62.4411C413.382 62.7413 416.731 63.7931 419.251 65.9824C423.022 69.2572 424.399 74.6495 423.936 79.6208C423.474 84.5922 421.421 89.2624 419.281 93.7738C418.743 94.9089 417.999 96.1898 416.75 96.3344C415.629 96.4643 414.602 95.5271 414.254 94.4535C413.985 93.352 413.995 92.2009 414.284 91.1045C414.599 89.4288 414.997 87.7161 414.7 86.037C414.404 84.3579 413.196 82.6986 411.502 82.4928C409.809 82.2871 408.076 84.2218 408.891 85.7202L408.473 85.0733Z" fill="#2F2E41"/>
<path d="M204.226 256.421L198.149 253.864L193.98 223.411H138.467L133.948 253.739L128.511 256.456C128.251 256.586 128.043 256.8 127.92 257.064C127.796 257.327 127.766 257.624 127.832 257.907C127.899 258.19 128.06 258.442 128.288 258.623C128.516 258.803 128.798 258.901 129.089 258.901H203.725C204.023 258.901 204.312 258.798 204.542 258.61C204.773 258.421 204.931 258.158 204.99 257.866C205.049 257.574 205.005 257.271 204.866 257.007C204.727 256.744 204.5 256.537 204.226 256.421Z" fill="#E6E6E6"/>
<path d="M302.876 227.463H30.1786C28.7478 227.46 27.3768 226.889 26.3662 225.877C25.3556 224.864 24.7881 223.493 24.7881 222.062V183.622H308.266V222.062C308.266 223.493 307.699 224.864 306.688 225.877C305.678 226.889 304.306 227.46 302.876 227.463Z" fill="#CCCCCC"/>
<path d="M308.552 201.79H24.54V37.3134C24.542 35.5873 25.2289 33.9325 26.4499 32.7119C27.6709 31.4914 29.3263 30.8049 31.0531 30.803H302.039C303.766 30.8049 305.421 31.4915 306.642 32.712C307.863 33.9325 308.55 35.5873 308.552 37.3134V201.79Z" fill="#3F3D56"/>
<path d="M291.589 189.852H41.5025C40.1713 189.851 38.895 189.321 37.9537 188.381C37.0124 187.44 36.4829 186.164 36.4814 184.833V47.7598C36.4829 46.4291 37.0124 45.1533 37.9537 44.2123C38.895 43.2713 40.1713 42.742 41.5025 42.7405H291.589C292.92 42.742 294.196 43.2713 295.138 44.2123C296.079 45.1533 296.608 46.4291 296.61 47.7598V184.833C296.608 186.164 296.079 187.44 295.138 188.381C294.196 189.321 292.92 189.851 291.589 189.852Z" fill="white"/>
<path d="M289.235 259.219H47.0711C46.9026 259.219 46.7409 259.152 46.6217 259.033C46.5025 258.914 46.4355 258.752 46.4355 258.584C46.4355 258.415 46.5025 258.253 46.6217 258.134C46.7409 258.015 46.9026 257.948 47.0711 257.948H289.235C289.404 257.948 289.566 258.015 289.685 258.134C289.804 258.253 289.871 258.415 289.871 258.584C289.871 258.752 289.804 258.914 289.685 259.033C289.566 259.152 289.404 259.219 289.235 259.219Z" fill="#CCCCCC"/>
<path d="M268.094 172.821H64.9969C64.8284 172.821 64.6667 172.754 64.5475 172.635C64.4283 172.516 64.3613 172.354 64.3613 172.186V74.8763C64.3613 74.7078 64.4283 74.5462 64.5475 74.4271C64.6667 74.3079 64.8284 74.241 64.9969 74.241C65.1655 74.241 65.3272 74.3079 65.4464 74.4271C65.5656 74.5462 65.6325 74.7078 65.6325 74.8763V171.55H268.094C268.263 171.55 268.424 171.617 268.544 171.736C268.663 171.855 268.73 172.017 268.73 172.186C268.73 172.354 268.663 172.516 268.544 172.635C268.424 172.754 268.263 172.821 268.094 172.821Z" fill="#3F3D56"/>
<path d="M108.39 165.832H89.9171C89.4169 165.831 88.9373 165.632 88.5836 165.279C88.2299 164.925 88.0309 164.446 88.0303 163.946V138.491C88.0309 137.991 88.2299 137.511 88.5836 137.158C88.9373 136.804 89.4169 136.605 89.9171 136.605H108.39C108.89 136.605 109.369 136.804 109.723 137.158C110.077 137.511 110.276 137.991 110.276 138.491V163.946C110.276 164.446 110.077 164.925 109.723 165.279C109.369 165.632 108.89 165.831 108.39 165.832Z" fill="#3284B8"/>
<path d="M142.077 165.832H123.605C123.104 165.831 122.625 165.632 122.271 165.279C121.917 164.925 121.718 164.446 121.718 163.946V114.347C121.718 113.847 121.917 113.367 122.271 113.014C122.625 112.66 123.104 112.461 123.605 112.461H142.077C142.577 112.461 143.057 112.66 143.411 113.014C143.764 113.367 143.963 113.847 143.964 114.347V163.946C143.963 164.446 143.764 164.925 143.411 165.279C143.057 165.632 142.577 165.831 142.077 165.832Z" fill="#3284B8"/>
<path d="M175.764 165.832H157.291C156.791 165.831 156.311 165.632 155.958 165.279C155.604 164.925 155.405 164.446 155.404 163.946V138.491C155.405 137.991 155.604 137.511 155.958 137.158C156.311 136.804 156.791 136.605 157.291 136.605H175.764C176.264 136.605 176.743 136.804 177.097 137.158C177.451 137.511 177.65 137.991 177.65 138.491V163.946C177.65 164.446 177.451 164.925 177.097 165.279C176.743 165.632 176.264 165.831 175.764 165.832Z" fill="#3284B8"/>
<path d="M209.451 165.832H190.979C190.49 165.842 190.017 165.659 189.663 165.321C189.309 164.984 189.104 164.52 189.092 164.031V104.731C189.104 104.242 189.309 103.778 189.663 103.441C190.017 103.103 190.49 102.92 190.979 102.93H209.451C209.94 102.92 210.413 103.103 210.767 103.441C211.12 103.778 211.326 104.242 211.338 104.731V164.031C211.326 164.52 211.12 164.984 210.767 165.321C210.413 165.659 209.94 165.842 209.451 165.832Z" fill="#3284B8"/>
<path d="M243.138 165.832H224.665C224.165 165.831 223.685 165.632 223.332 165.279C222.978 164.925 222.779 164.446 222.778 163.946V87.6611C222.779 87.1611 222.978 86.6817 223.332 86.3281C223.685 85.9746 224.165 85.7757 224.665 85.7751H243.138C243.638 85.7757 244.117 85.9746 244.471 86.3281C244.825 86.6817 245.024 87.1611 245.024 87.6611V163.946C245.024 164.446 244.825 164.925 244.471 165.279C244.117 165.632 243.638 165.831 243.138 165.832Z" fill="#3284B8"/>
<path d="M99.1535 128.98C101.26 128.98 102.967 127.274 102.967 125.168C102.967 123.063 101.26 121.356 99.1535 121.356C97.0473 121.356 95.3398 123.063 95.3398 125.168C95.3398 127.274 97.0473 128.98 99.1535 128.98Z" fill="#3F3D56"/>
<path d="M132.841 104.201C134.947 104.201 136.655 102.494 136.655 100.389C136.655 98.2832 134.947 96.5764 132.841 96.5764C130.735 96.5764 129.027 98.2832 129.027 100.389C129.027 102.494 130.735 104.201 132.841 104.201Z" fill="#3F3D56"/>
<path d="M166.527 128.98C168.634 128.98 170.341 127.274 170.341 125.168C170.341 123.063 168.634 121.356 166.527 121.356C164.421 121.356 162.714 123.063 162.714 125.168C162.714 127.274 164.421 128.98 166.527 128.98Z" fill="#3F3D56"/>
<path d="M200.214 92.1288C202.32 92.1288 204.028 90.4221 204.028 88.3166C204.028 86.2112 202.32 84.5044 200.214 84.5044C198.108 84.5044 196.4 86.2112 196.4 88.3166C196.4 90.4221 198.108 92.1288 200.214 92.1288Z" fill="#3F3D56"/>
<path d="M233.901 78.1506C236.008 78.1506 237.715 76.4438 237.715 74.3384C237.715 72.2329 236.008 70.5261 233.901 70.5261C231.795 70.5261 230.088 72.2329 230.088 74.3384C230.088 76.4438 231.795 78.1506 233.901 78.1506Z" fill="#3F3D56"/>
<path d="M166.608 126.022L132.841 100.739L99.5352 125.676L98.7725 124.66L132.841 99.1515L166.447 124.314L199.843 87.7815L199.977 87.7269L233.664 74.1592L234.139 75.3378L200.586 88.8515L166.608 126.022Z" fill="#3F3D56"/>
</g>
<defs>
<clipPath id="clip0">
<rect width="485" height="291" fill="white"/>
</clipPath>
</defs>
</svg>
