<svg width="523" height="474" viewBox="0 0 523 474" fill="none" xmlns="http://www.w3.org/2000/svg">
<g clip-path="url(#clip0)">
<path opacity="0.1" d="M616.062 136.729C615.953 137.238 615.85 137.747 615.73 138.25C611.981 155.555 605.854 172.231 596.744 187.545C596.441 188.054 596.138 188.563 595.829 189.072C589.822 198.926 582.634 208.007 574.425 216.114C569.887 220.599 564.937 224.861 559.05 227.933C550.803 232.246 541.161 233.997 531.685 235.427C521.843 236.92 511.864 238.167 501.913 239.511C498.377 239.98 494.862 240.478 491.368 241.004C481.755 242.429 472.21 244.076 462.894 246.262C451.377 248.956 440.215 252.486 429.67 257.451C428.828 257.833 427.995 258.237 427.172 258.664C426.349 259.076 425.52 259.493 424.709 259.917C423.897 260.34 423.097 260.763 422.303 261.198C421.891 261.421 421.48 261.644 421.074 261.879C420.668 262.113 420.268 262.319 419.874 262.548C418.685 263.212 417.519 263.893 416.353 264.579L416.307 264.608C415.536 265.06 414.775 265.523 414.021 265.986C409.712 268.606 405.494 271.341 401.276 274.093L398.624 275.809L394.514 278.469C393.714 278.989 392.897 279.51 392.091 280.025C391.519 280.402 390.948 280.78 390.325 281.169C387.33 283.057 384.295 284.91 381.18 286.678C380.443 287.101 379.7 287.525 378.951 287.936C372.658 291.451 366.076 294.421 359.279 296.815L359.187 296.849C355.767 298.043 352.278 299.029 348.739 299.801C346.699 300.247 344.653 300.613 342.584 300.894C337.053 301.678 331.445 301.757 325.895 301.128C314.995 299.864 304.782 295.676 293.888 294.263C271.461 291.403 249.679 300.619 228.589 307.839C223.404 309.612 218.18 311.273 212.918 312.821C209.42 313.857 205.911 314.835 202.373 315.779C180.697 321.511 158.576 325.394 136.245 327.386C126.91 328.301 117.52 328.51 108.154 328.009C104.593 327.792 101.072 327.437 97.6144 326.865C85.7834 325.035 74.7526 321.196 65.848 314.165C58.5551 308.393 53.3369 300.871 49.3647 292.999C45.2984 284.967 42.4275 276.383 40.8429 267.52C40.6258 266.312 40.4314 265.1 40.2714 263.887C39.9856 261.812 39.7723 259.726 39.6313 257.629C38.8623 246.448 40.1961 235.223 43.5635 224.535C47.3357 212.567 53.6227 201.08 56.3889 189.021C56.5033 188.51 56.6118 188.001 56.7147 187.494C57.0925 185.662 57.373 183.812 57.5549 181.95C58.9666 167.134 53.5541 152.689 49.3075 138.199C49.1589 137.696 49.0103 137.186 48.8674 136.677C48.4102 135.068 47.972 133.46 47.5529 131.855C43.6206 116.535 42.529 100.134 46.0326 84.8426C46.1412 84.3335 46.2726 83.8243 46.3984 83.3209C48.7439 73.6551 53.1546 64.613 59.3267 56.8172C65.888 48.5795 74.5012 41.7205 83.703 35.6967C88.1877 32.7601 92.8248 30.0161 97.6144 27.4647C101.044 25.6341 104.557 23.9007 108.154 22.2646C136.988 9.10718 169.88 2.68291 202.407 4.10163C204.122 4.176 205.836 4.26753 207.551 4.39338C209.265 4.51923 211.14 4.66797 212.935 4.83387C233.888 6.87041 254.275 11.7844 274.519 17.1561C281.303 18.9581 288.076 20.8059 294.843 22.6193C297.855 23.4202 300.861 24.2211 303.873 24.9991C318.625 28.8148 333.593 32.27 348.751 34.85C352.26 35.4564 355.773 36.0094 359.29 36.509C371.501 38.3052 383.81 39.3502 396.149 39.6382C400.946 39.7335 405.745 39.6916 410.546 39.5123C412.969 39.4246 415.395 39.293 417.822 39.1176C442.884 37.3499 467.106 31.4348 491.368 25.9087C494.877 25.1078 498.392 24.3183 501.913 23.5403C506.531 22.5221 511.149 21.5381 515.79 20.6285C544.67 14.9479 570.413 18.2144 597.264 29.936C603.368 32.5961 609.466 35.8111 613.204 40.8052C616.942 45.7993 617.879 51.9318 618.577 57.8527C619.565 66.2849 620.211 74.8258 620.457 83.4124C620.457 83.9159 620.457 84.425 620.491 84.9341C620.88 102.279 619.588 119.79 616.062 136.729Z" fill="#3284B8"/>
<path opacity="0.1" d="M424.49 187.545H422.604V188.22V189.073H424.742L424.49 187.545ZM403.097 187.545C403.095 187.558 403.095 187.572 403.097 187.585C403.046 188.003 402.989 188.42 402.932 188.844V188.958V189.073H419.278V188.981L420.421 187.545H403.097ZM359.289 187.545V138.251H378.092C377.892 138.119 377.687 137.982 377.475 137.856L377.201 137.678L376.846 137.461C376.641 137.341 376.435 137.221 376.218 137.106C376.001 136.992 375.869 136.912 375.686 136.815L375.56 136.746H375.532H359.289V134.029L358.848 134.2L358.386 134.418H358.351L358.254 134.469L357.963 134.624L357.671 134.778C357.385 134.933 357.1 135.104 356.814 135.281L356.539 135.465L355.968 135.831C355.231 136.323 354.505 136.838 353.756 137.318C353.567 137.438 353.379 137.558 353.185 137.667C352.779 137.907 352.361 138.136 351.933 138.342C351.75 138.434 351.573 138.514 351.361 138.588L351.053 138.708L350.767 138.805C350.096 139.039 349.408 139.219 348.709 139.343V187.534H320.515C320.515 187.591 320.555 187.637 320.572 187.694C320.727 188.152 320.881 188.604 321.029 189.061H348.749V241.897C348.894 241.897 349.037 241.897 349.178 241.897L349.675 241.925L350.573 241.977L352.007 242.149L352.664 242.212L353.379 242.286H353.487L354.751 242.44L355.019 242.475L355.631 242.56L356.505 242.686L358.603 242.595L358.889 242.646C359.003 242.646 359.123 242.681 359.243 242.704V189.073H402.875V188.958V188.844C402.932 188.42 402.989 188.003 403.04 187.585C403.038 187.572 403.038 187.558 403.04 187.545H359.289ZM424.49 187.545H422.604V188.22V189.073H424.742L424.49 187.545ZM401.92 187.545C401.851 188.054 401.789 188.563 401.72 189.073H419.947L421.187 187.545H401.92ZM359.289 187.545V138.251H378.092C377.892 138.119 377.687 137.982 377.475 137.856L377.201 137.678L376.846 137.461C376.641 137.341 376.435 137.221 376.218 137.106C376.001 136.992 375.869 136.912 375.686 136.815L375.56 136.746H375.52H359.289V134.029L358.848 134.2L358.386 134.418H358.351L358.254 134.469L357.963 134.624L357.671 134.778C357.385 134.933 357.1 135.104 356.814 135.281L356.539 135.465L355.968 135.831C355.231 136.323 354.505 136.838 353.756 137.318C353.567 137.438 353.379 137.558 353.185 137.667C352.779 137.907 352.361 138.136 351.933 138.342C351.75 138.434 351.573 138.514 351.361 138.588L351.053 138.708L350.767 138.805C350.096 139.039 349.408 139.219 348.709 139.343V187.534H320.515C320.515 187.591 320.555 187.637 320.572 187.694C320.727 188.146 320.887 188.604 321.035 189.061H348.749V241.891H349.178L349.675 241.92L350.573 241.971L352.007 242.149L352.664 242.212L353.379 242.286H353.487L354.751 242.44L355.019 242.475L355.631 242.56L356.505 242.686L358.603 242.595L358.889 242.646C359.003 242.646 359.123 242.681 359.243 242.704V189.073H401.731C401.8 188.563 401.863 188.054 401.931 187.545H359.289ZM501.912 84.8942H620.49C620.49 84.385 620.49 83.8759 620.455 83.3725H501.912V23.5233C498.391 24.286 494.876 25.0755 491.367 25.8916V83.3725H362.404L362.078 83.0807L362.569 82.646L410.539 39.501C405.738 39.684 400.939 39.726 396.142 39.6268L359.283 72.7722V36.5091C355.762 36.0095 352.249 35.4565 348.744 34.8501V71.1017L294.853 22.6194C288.086 20.806 281.313 18.9582 274.529 17.1562L347.818 83.0807L347.492 83.3725H212.951V4.88544C211.156 4.71763 209.361 4.5708 207.567 4.44495C205.852 4.3191 204.137 4.22757 202.423 4.1532V83.3725H108.152V22.3162C104.594 23.9485 101.08 25.6818 97.6131 27.5163V83.3725H46.397C46.2713 83.8759 46.1398 84.385 46.0312 84.8942H97.6131V136.729H48.8661C49.009 137.238 49.1576 137.747 49.3062 138.251H97.6131V187.545H56.7134C56.6105 188.052 56.5019 188.562 56.3876 189.073H97.6131V326.9C101.042 327.432 104.592 327.804 108.152 328.044V189.073H202.406V315.802C205.943 314.858 209.453 313.88 212.951 312.844V189.073H348.749V299.795C352.288 299.023 355.777 298.038 359.197 296.844L359.289 296.809V189.073H491.367V241.004C494.872 240.49 498.387 239.996 501.912 239.523V189.073H595.828C596.136 188.563 596.439 188.054 596.742 187.545H501.912V138.251H615.729C615.849 137.747 615.952 137.238 616.06 136.729H501.912V84.8942ZM108.152 84.8942H202.406V136.729H108.152V84.8942ZM108.152 187.545V138.251H202.406V187.545H108.152ZM212.951 84.8942H348.749V136.729H212.951V84.8942ZM212.951 187.545V138.251H348.749V187.545H212.951ZM491.367 187.545H359.289V138.251H491.367V187.545ZM491.367 136.729H359.289V86.2843L361.14 84.8942H491.367V136.729ZM403.097 187.545C403.095 187.558 403.095 187.572 403.097 187.585C403.046 188.003 402.989 188.42 402.932 188.844V188.958V189.073H419.278V188.981L420.421 187.545H403.097ZM424.49 187.545H422.604V188.22V189.073H424.742L424.49 187.545ZM359.289 187.545V138.251H378.092C377.892 138.119 377.687 137.982 377.475 137.856L377.201 137.678L376.846 137.461C376.641 137.341 376.435 137.221 376.218 137.106C376.001 136.992 375.869 136.912 375.686 136.815L375.56 136.746H375.532H359.289V134.029L358.848 134.2L358.386 134.418H358.351L358.254 134.469L357.963 134.624L357.671 134.778C357.385 134.933 357.1 135.104 356.814 135.281L356.539 135.465L355.968 135.831C355.231 136.323 354.505 136.838 353.756 137.318C353.567 137.438 353.379 137.558 353.185 137.667C352.779 137.907 352.361 138.136 351.933 138.342C351.75 138.434 351.573 138.514 351.361 138.588L351.053 138.708L350.767 138.805C350.096 139.039 349.408 139.219 348.709 139.343V187.534H320.515C320.515 187.591 320.555 187.637 320.572 187.694C320.727 188.152 320.881 188.604 321.029 189.061H348.749V241.897C348.894 241.897 349.037 241.897 349.178 241.897L349.675 241.925L350.573 241.977L352.007 242.149L352.664 242.212L353.379 242.286H353.487L354.751 242.44L355.019 242.475L355.631 242.56L356.505 242.686L358.603 242.595L358.889 242.646C359.003 242.646 359.123 242.681 359.243 242.704V189.073H402.875V188.958V188.844C402.932 188.42 402.989 188.003 403.04 187.585C403.038 187.572 403.038 187.558 403.04 187.545H359.289Z" fill="#3284B8"/>
<path opacity="0.1" d="M153.471 49.2089H154.288C154.019 49.0949 153.784 48.9115 153.609 48.6773C153.433 48.4432 153.322 48.1668 153.288 47.876C153.288 46.8234 154.86 45.9653 156.78 45.9653H181.219C183.14 45.9653 184.706 46.8234 184.706 47.876C184.706 48.9229 183.14 49.7867 181.219 49.7867H180.402C180.672 49.8988 180.906 50.0809 181.082 50.3142C181.258 50.5475 181.369 50.8236 181.402 51.1139C181.402 52.012 180.259 52.7672 178.733 52.9674H185.769C187.683 52.9674 189.255 53.8255 189.255 54.8781C189.255 55.9307 187.683 56.7888 185.769 56.7888H161.324C159.409 56.7888 157.837 55.9249 157.837 54.8781C157.837 53.9799 158.98 53.2305 160.506 53.0246H153.471C151.55 53.0246 149.984 52.1665 149.984 51.1139C149.984 50.0613 151.55 49.2089 153.471 49.2089Z" fill="#3284B8"/>
<path opacity="0.1" d="M418.348 67.3832H419.165C418.897 67.2684 418.663 67.0846 418.489 66.8506C418.314 66.6165 418.204 66.3405 418.171 66.0503C418.171 64.9977 419.737 64.1396 421.657 64.1396H446.096C448.017 64.1396 449.588 64.9977 449.588 66.0503C449.588 67.0972 448.017 67.9553 446.096 67.9553H445.285C445.553 68.0702 445.786 68.2539 445.961 68.488C446.136 68.722 446.245 68.9981 446.279 69.2882C446.279 70.1864 445.136 70.9415 443.61 71.1417H450.646C452.566 71.1417 454.132 71.9998 454.132 73.0524C454.132 74.105 452.566 74.9631 450.646 74.9631H426.207C424.286 74.9631 422.714 74.0993 422.714 73.0524C422.714 72.1542 423.857 71.3991 425.383 71.1989H418.348C416.433 71.1989 414.861 70.3408 414.861 69.2882C414.861 68.2356 416.433 67.3832 418.348 67.3832Z" fill="#3284B8"/>
<path opacity="0.1" d="M115.961 145.161H116.772C116.504 145.047 116.27 144.863 116.096 144.629C115.921 144.395 115.811 144.118 115.778 143.828C115.778 142.781 117.35 141.917 119.264 141.917H143.709C145.624 141.917 147.196 142.781 147.196 143.828C147.196 144.881 145.624 145.739 143.709 145.739H142.892C143.161 145.851 143.395 146.034 143.57 146.267C143.745 146.5 143.854 146.776 143.886 147.066C143.886 147.964 142.743 148.719 141.217 148.92H148.253C150.173 148.92 151.745 149.783 151.745 150.83C151.745 151.877 150.173 152.741 148.253 152.741H123.837C121.916 152.741 120.35 151.883 120.35 150.83C120.35 149.938 121.493 149.183 123.019 148.977H115.961C114.04 148.977 112.469 148.119 112.469 147.066C112.469 146.013 114.063 145.161 115.961 145.161Z" fill="#3284B8"/>
<path opacity="0.1" d="M576.14 349.018C580.246 328.91 529.98 301.647 463.869 288.124C397.758 274.601 340.836 279.939 336.731 300.047C332.625 320.155 382.891 347.419 449.002 360.941C515.113 374.464 572.035 369.126 576.14 349.018Z" fill="#3284B8"/>
<path d="M442.633 220.176C442.633 220.176 449.131 188.249 473.942 191.206C473.942 191.206 491.088 192.385 494.615 203.62V228.453L442.633 220.176Z" fill="#3A3768"/>
<path d="M578.505 232.006L357.563 213.671L329.209 219.586L330.981 259.202L332.913 259.436L335.113 318.925L551.917 357.946L574.961 338.432V273.944L577.911 272.21L578.505 232.006Z" fill="#D48A9B"/>
<path opacity="0.05" d="M333.211 261.805L553.872 288.755L553.987 283.64L333.045 259.791L333.211 261.805Z" fill="black"/>
<path d="M328.912 219.586L357.266 213.671L578.208 232.006L553.397 241.462L328.912 219.586Z" fill="#EFC6CD"/>
<path opacity="0.1" d="M507.805 227.801L518.647 228.516L500.678 233.899L491.527 233.236L507.805 227.801Z" fill="black"/>
<path d="M507.805 227.332L518.647 228.042L500.678 233.425L491.527 232.767L507.805 227.332Z" fill="white"/>
<path d="M506.508 228.551C506.936 228.368 507.388 228.711 507.845 228.802C508.108 228.848 508.377 228.802 508.64 228.848C509.171 228.922 509.697 229.277 510.206 229.1" fill="#D3DAE1"/>
<path d="M505.947 228.877C506.37 228.694 506.827 229.037 507.285 229.123C507.548 229.174 507.816 229.123 508.079 229.174C508.611 229.249 509.136 229.603 509.645 229.42" fill="#D3DAE1"/>
<path d="M504.656 229.523C505.085 229.34 505.542 229.689 505.999 229.775C506.257 229.826 506.531 229.775 506.788 229.826C507.325 229.895 507.851 230.255 508.354 230.072" fill="#D3DAE1"/>
<path opacity="0.1" d="M530.283 230.473L541.131 231.182L523.162 236.571L514.006 235.907L530.283 230.473Z" fill="black"/>
<path d="M530.283 230.004L541.131 230.713L523.162 236.096L514.006 235.433L530.283 230.004Z" fill="white"/>
<path opacity="0.1" d="M284.812 452.719C348.726 452.719 400.538 442.044 400.538 428.876C400.538 415.707 348.726 405.032 284.812 405.032C220.898 405.032 169.086 415.707 169.086 428.876C169.086 442.044 220.898 452.719 284.812 452.719Z" fill="#3284B8"/>
<path d="M411.54 233.619C410.306 222.761 405.419 212.401 405.419 212.401L405.791 208.74C405.791 208.74 405.871 206.909 405.751 204.164C405.764 202.449 405.988 200.743 406.419 199.084C407.42 195.909 405.168 192.007 404.916 191.647C404.665 191.286 405.042 184.324 402.79 180.909C400.538 177.494 385.541 171.144 385.541 171.144C385.541 171.144 384.735 169.456 383.598 167.483L383.701 167.283C382.77 165.593 381.617 164.036 380.271 162.655C379.351 161.671 378.465 161.11 377.751 161.385C377.46 160.435 377.239 159.466 377.088 158.484C377.236 158.524 377.391 158.564 377.539 158.593C378.158 158.737 378.8 158.752 379.425 158.639C380.82 158.324 381.746 157.071 382.523 155.893C386.398 150.001 389.736 143.536 390.416 136.563C390.599 135.14 390.531 133.695 390.216 132.295C389.895 131.207 389.446 130.16 388.879 129.177C387.877 127.161 386.608 125.289 385.107 123.611C382.437 120.797 378.757 119.075 374.973 118.057C370.711 116.909 366.27 116.577 361.885 117.078C360.742 117.21 359.599 117.399 358.456 117.473C357.006 117.537 355.553 117.512 354.106 117.399L346.625 116.964L346.59 116.85L345.344 116.775C344.853 117.753 345.344 118.915 345.956 119.83C346.567 120.745 347.27 121.701 347.219 122.782C347.168 123.863 346.385 124.733 345.773 125.642C345.161 126.552 344.698 127.742 345.31 128.634C345.396 128.757 345.498 128.869 345.613 128.966C346.259 129.635 347.385 129.709 348.362 129.698H348.533C346.072 132.943 344.741 136.905 344.744 140.979C344.761 144.461 345.734 147.87 347.558 150.835C349.382 153.799 351.985 156.204 355.083 157.786C355.192 158.158 355.301 158.541 355.403 158.93C356.536 162.949 356.943 167.137 356.604 171.298L356.472 171.585L356.392 171.281C356.392 171.281 347.579 177.265 344.961 178.85C342.344 180.434 339.715 185.806 339.589 187.27C339.463 188.735 335.337 210.822 335.337 210.822C334.498 213.047 333.807 215.325 333.268 217.641L328.004 222.269C328.004 222.269 317.144 223.248 314.001 222.515L314.092 223.122C311.32 222.488 308.497 222.105 305.656 221.978C304.105 221.778 302.528 221.989 301.084 222.59L300.975 222.641L300.89 222.681C299.235 222.908 297.619 223.362 296.089 224.031C295.906 224.106 295.74 224.18 295.58 224.254L295.614 223.505L283.863 222.899L277.862 221.68C277.862 221.68 275.736 219.964 274.484 220.216C273.233 220.467 270.609 218.751 270.609 218.751C270.011 218.282 269.363 217.879 268.677 217.55C268.477 216.165 268.352 215.324 268.352 215.324C268.352 215.324 263.682 196.778 260.184 185.875C257.841 178.592 254.469 175.005 252.48 173.444C251.594 171.899 251.011 170.904 251.011 170.904C250.628 169.565 248.525 166.55 247.988 166.476C247.902 166.339 247.839 166.27 247.805 166.27C247.69 166.258 247.573 166.275 247.467 166.322C246.484 161.425 245.913 155.286 247.416 149.938C249.474 148.245 251.132 146.118 252.272 143.709C253.412 141.3 254.006 138.668 254.012 136.002C254.012 135.922 254.012 135.842 254.012 135.762C254.012 135.682 254.012 135.596 254.012 135.516C254.01 131.265 252.506 127.151 249.765 123.903L249.571 123.686C249.623 123.649 249.672 123.609 249.719 123.566C250.149 123.217 250.476 122.758 250.666 122.239C250.856 121.719 250.902 121.158 250.8 120.614C250.542 119.515 249.685 118.652 249.245 117.61C248.981 116.809 248.769 115.991 248.61 115.162C248.274 113.984 247.656 112.907 246.81 112.021L246.896 112.25C244.655 109.727 240.803 108.475 237.334 109.035C234.756 109.447 232.356 110.648 229.767 111.02C227.909 111.283 226.017 111.112 224.148 111.301C222.414 111.479 220.726 111.967 219.165 112.742C218.757 112.916 218.395 113.182 218.107 113.52C217.841 113.973 217.663 114.472 217.581 114.99C216.947 117.307 214.935 118.96 213.478 120.894C211.813 123.103 210.849 125.762 210.711 128.525C210.655 129.228 210.722 129.935 210.911 130.613C211.037 131.02 211.232 131.403 211.323 131.815C211.609 133.073 210.951 134.326 210.631 135.573C210.228 137.164 210.371 138.844 211.037 140.344C213.295 145.401 220.708 147.089 222.251 152.398C223.432 152.941 224.679 153.325 225.96 153.542C226.063 154.068 226.155 154.6 226.229 155.138C226.194 155.152 226.161 155.172 226.132 155.195C224.131 157.146 223.634 160.916 223.634 160.916L223.394 161.11C222.577 161.785 219.782 164.05 217.256 165.795C214.255 167.872 209.254 174.828 205.756 176.905C202.258 178.981 199.378 191.778 200.132 196.429C200.887 201.08 204.007 214.123 202.756 218.883C201.504 223.642 204.63 245.363 204.63 245.363C206.728 245.763 208.781 246.373 210.757 247.183L210.694 248.132L210.506 250.993C210.506 250.993 204.842 271.495 207.008 287.279C209.174 303.062 206.008 304.686 206.008 304.686C206.008 304.686 206.671 311.683 205.007 314.125C203.344 316.568 203.007 321.934 203.007 321.934C203.007 321.934 202.841 333.976 203.173 337.38C203.504 340.784 203.67 346.985 202.504 348.449C201.338 349.914 199.172 359.507 199.338 362.436C199.503 365.365 195.171 372.041 197.503 380.662C199.835 389.283 190.645 389.449 190.645 389.449C190.645 389.449 191.816 402.606 194.314 406.371L194.68 406.908C194.617 407.126 194.554 407.355 194.485 407.601C193.542 411.033 192.251 416.45 193.148 417.76C194.48 419.717 195.148 419.385 195.148 419.385L195.646 428.172C195.646 428.172 205.648 436.633 213.318 436.312C220.988 435.992 219.485 428.172 219.485 428.172L212.952 411.216L212.729 410.644L219.988 396.914C219.988 396.914 221.988 390.896 222.485 388.78C222.982 386.663 225.697 379.163 225.697 379.163C225.697 379.163 232.556 362.894 232.699 360.937C232.842 358.981 233.367 348.415 234.699 346.293C236.031 344.17 239.7 331.991 239.7 331.991L239.792 332.071C240.414 332.683 240.859 333.453 241.078 334.298C241.298 335.144 241.284 336.033 241.038 336.871C240.197 339.96 240.7 346.304 240.7 346.304C240.7 346.304 240.369 351.676 239.7 354.444C239.031 357.213 238.871 379.827 240.037 385.193C240.969 389.489 240.94 397.532 240.895 400.576C240.112 403.808 239.426 407.824 240.7 408.298C242.872 409.117 253.874 408.951 253.874 408.951C253.874 408.951 258.538 407.32 264.877 413.018C271.215 418.716 290.71 411.393 290.71 411.393C290.71 411.393 296.712 409.763 284.875 405.049C276.616 401.76 271.284 399.569 267.797 397.223C267.877 397.069 267.963 396.914 268.037 396.749C268.037 396.749 263.202 392.172 267.203 384.06C271.204 375.948 271.038 369.089 271.038 369.089L271.707 341.75L269.706 305.459L268.157 267.371L268.432 267.279C268.695 274.281 270.061 290.951 277.211 287.719C286.212 283.652 278.542 273.074 278.542 273.074L274.501 265.191L275.707 264.779L271.186 250.157C270.753 247.304 270.695 244.405 271.015 241.536C271.104 239.858 271.07 238.175 270.912 236.502C276.833 235.467 282.503 234.368 283.52 234.62C284.721 234.912 291.436 234.969 294.077 234.981C293.214 235.656 292.522 236.325 292.522 236.325L303.273 243.567C303.273 243.567 306.919 241.571 307.68 239.454C308.428 239.265 309.118 238.896 309.691 238.379C309.806 240.879 310.469 243.584 312.778 243.647C313.355 243.659 313.928 243.546 314.458 243.316L332.039 239.832L330.53 249.265L331.582 251.136C331.05 259.093 330.438 267.542 329.901 274.973L329.655 276.598L329.781 276.627C328.947 288.068 328.278 296.735 328.278 296.735C329.263 294.857 330.791 293.32 332.662 292.324L332.776 309.303C332.776 309.303 333.656 336.15 333.656 339.811C333.656 343.472 333.776 351.647 333.776 351.647C333.776 351.647 335.657 361.652 336.777 364.948C337.897 368.243 338.777 383.254 338.777 383.254C338.777 383.254 341.406 387.401 340.28 388.974C339.154 390.547 344.658 393.974 344.658 393.974C344.658 393.974 341.155 398.734 340.903 401.909C340.875 402.275 341.235 402.664 341.886 403.053C341.681 403.219 341.469 403.384 341.235 403.545C339.612 404.632 337.234 405.387 333.656 405.078C323.9 404.22 317.024 413.253 323.025 415.083C329.027 416.914 347.03 417.28 347.03 417.28C347.03 417.28 352.483 413.876 356.747 415.409C356.684 418.99 356.861 422.274 356.889 422.709L356.838 422.749C354.289 425.037 349.408 428.973 344.641 430.58C337.783 432.897 336.262 442.296 345.139 443.515C354.015 444.733 367.017 442.05 367.017 442.05C367.017 442.05 373.767 437.05 378.894 435.952C384.021 434.854 388.399 432.411 387.524 429.482C386.953 427.611 385.484 422.709 384.489 419.414C384.432 419.215 384.375 419.025 384.318 418.842C384.472 418.498 384.626 418.144 384.769 417.778C384.769 417.778 382.146 404.111 384.272 400.696C386.398 397.281 385.272 363.105 385.272 363.105C385.272 363.105 381.643 354.444 383.523 349.199C385.404 343.953 380.523 336.505 380.523 336.505C380.523 336.505 381.054 321.579 382.483 313.262C382.548 312.907 382.611 312.564 382.672 312.232C385.064 311.521 387.396 310.62 389.645 309.538C389.645 309.538 390.896 290.74 391.645 286.472C391.719 286.071 391.822 285.425 391.948 284.584L392.52 281.569L393.194 278.137L395.48 266.438L399.607 261.095L410.237 250.226C410.237 250.226 412.792 244.483 411.54 233.619ZM247.599 166.499L247.519 166.556C247.507 166.515 247.497 166.473 247.49 166.43C247.523 166.458 247.56 166.481 247.599 166.499ZM352.631 179.822L352.22 180.72L353.723 179.222L351.683 181.51L352.369 180.068L352.631 179.822ZM342.481 200.817C342.087 201.864 341.664 202.996 341.223 204.175L342.029 201.767L342.481 200.817Z" fill="url(#paint0_linear)"/>
<path d="M309.679 235.044C309.679 235.044 308.279 244.374 312.48 244.494C316.681 244.614 319.487 237.298 319.487 237.298L317.772 231.445L309.679 235.044Z" fill="#585B8A"/>
<path opacity="0.2" d="M309.679 235.044C309.679 235.044 308.279 244.374 312.48 244.494C316.681 244.614 319.487 237.298 319.487 237.298L317.772 231.445L309.679 235.044Z" fill="black"/>
<path d="M215.587 437.005C208.112 437.331 198.361 428.876 198.361 428.876L197.875 420.094C197.875 420.094 197.229 420.42 195.926 418.47C195.052 417.16 196.309 411.731 197.229 408.316C197.675 406.645 198.041 405.455 198.041 405.455L214.444 409.849L215.227 411.925L221.594 428.87C221.594 428.87 223.057 436.678 215.587 437.005Z" fill="#636992"/>
<path d="M290.955 412.131C290.955 412.131 271.951 419.448 265.807 413.756C259.663 408.064 255.085 409.689 255.085 409.689C255.085 409.689 244.363 409.855 242.248 409.037C241.002 408.562 241.677 404.494 242.454 401.256C242.98 399.02 243.551 397.172 243.551 397.172C243.551 397.172 262.229 390.828 265.156 394.729C266.035 395.876 267.085 396.879 268.271 397.704C271.654 400.152 276.941 402.372 285.303 405.787C296.802 410.501 290.955 412.131 290.955 412.131Z" fill="#636992"/>
<path d="M273.901 263.515L279.097 273.921C279.097 273.921 286.572 284.493 277.799 288.554C269.026 292.616 269.192 265.146 269.192 265.146L273.901 263.515Z" fill="#FFD6D6"/>
<path d="M252.131 173.278C252.131 173.278 257.818 175.881 261.23 186.773C264.642 197.665 269.191 216.205 269.191 216.205C269.191 216.205 272.278 237.177 271.786 242.383C271.474 245.25 271.529 248.145 271.952 250.998L276.336 265.632L267.563 268.721L254.08 217.018L252.131 173.278Z" fill="#DCE6F2"/>
<path opacity="0.05" d="M252.131 173.278C252.131 173.278 257.818 175.881 261.23 186.773C264.642 197.665 269.191 216.205 269.191 216.205C269.191 216.205 272.278 237.177 271.786 242.383C271.474 245.25 271.529 248.145 271.952 250.998L276.336 265.632L267.563 268.721L254.08 217.018L252.131 173.278Z" fill="black"/>
<path opacity="0.1" d="M214.443 409.855L215.226 411.931L214.266 413.767C210.528 415.392 201.269 414.094 201.269 414.094C201.269 414.094 199.554 411.914 197.211 408.327C197.657 406.657 198.023 405.467 198.023 405.467L214.443 409.855Z" fill="black"/>
<path opacity="0.1" d="M268.865 398.471C264.127 409.214 248.021 405.227 243.545 403.882C242.808 403.659 242.402 403.51 242.402 403.51C242.402 403.51 242.431 402.635 242.442 401.256C242.968 399.02 243.54 397.172 243.54 397.172C243.54 397.172 262.218 390.828 265.144 394.729C266.023 395.876 267.074 396.879 268.259 397.704C268.438 397.977 268.641 398.233 268.865 398.471Z" fill="black"/>
<path d="M268.048 384.815C264.15 392.939 268.865 397.498 268.865 397.498C264.127 408.236 248.021 404.254 243.546 402.904C242.808 402.687 242.403 402.538 242.403 402.538C242.403 402.538 242.728 391.314 241.591 385.948C240.454 380.582 240.614 357.986 241.265 355.223C241.917 352.459 242.237 347.088 242.237 347.088C242.237 347.088 241.751 340.749 242.563 337.66C242.807 336.826 242.823 335.941 242.61 335.098C242.397 334.255 241.962 333.484 241.351 332.866L241.265 332.781C241.265 332.781 237.693 344.977 236.39 347.082C235.087 349.187 234.607 359.765 234.441 361.715C234.275 363.666 227.617 379.93 227.617 379.93C227.617 379.93 225.022 387.407 224.536 389.518C224.05 391.629 222.096 397.652 222.096 397.652L214.265 412.778C210.528 414.402 201.269 413.104 201.269 413.104C201.269 413.104 199.485 410.816 197.045 407.086C194.604 403.356 193.473 390.181 193.473 390.181C193.473 390.181 202.406 390.015 200.131 381.4C197.856 372.785 202.08 366.115 201.92 363.186C201.76 360.257 203.869 350.669 205.006 349.204C206.144 347.74 205.978 341.562 205.652 338.146C205.326 334.731 205.492 322.701 205.492 322.701C205.492 322.701 205.818 317.335 207.441 314.898C209.064 312.461 208.419 305.465 208.419 305.465C208.419 305.465 211.499 303.84 209.39 288.068C207.281 272.296 212.819 251.811 212.819 251.811L213.008 248.95L213.305 244.317C213.305 244.317 259.766 241.388 263.504 244.963C264.481 245.956 265.283 247.106 265.876 248.367C267.155 251.119 268.058 254.03 268.562 257.022L270.511 306.288L272.46 342.546L271.808 369.862C271.808 369.862 271.951 376.681 268.048 384.815Z" fill="#565988"/>
<path opacity="0.1" d="M254.274 287.582L249.398 393.265L243.546 402.898C242.808 402.681 242.403 402.532 242.403 402.532C242.403 402.532 242.728 391.308 241.591 385.942C240.454 380.576 240.614 357.98 241.265 355.217C241.917 352.454 242.237 347.082 242.237 347.082C242.237 347.082 241.751 340.744 242.563 337.654C242.807 336.82 242.823 335.935 242.61 335.092C242.397 334.249 241.962 333.479 241.351 332.861L241.431 332.289L254.274 287.582Z" fill="black"/>
<path opacity="0.1" d="M201.771 401.073C201.771 401.073 214.442 396.034 216.391 397.641C218.34 399.249 201.451 401.703 201.451 401.703L201.771 401.073Z" fill="black"/>
<path opacity="0.1" d="M264.317 387.739C263.831 387.904 251.485 392.315 252.623 397.006C253.76 401.697 264.317 387.739 264.317 387.739Z" fill="black"/>
<path d="M225.736 147.186C225.736 147.186 229.874 157.186 227.685 162.311C225.496 167.437 251.319 176.213 251.319 176.213C251.319 176.213 243.769 156.7 251.079 145.722C258.389 134.744 225.736 147.186 225.736 147.186Z" fill="#FFD6D6"/>
<path d="M376.933 436.679C371.938 437.777 365.359 442.777 365.359 442.777C365.359 442.777 352.688 445.46 344.035 444.241C335.382 443.023 336.851 433.629 343.549 431.313C348.196 429.711 352.957 425.758 355.443 423.493C356.54 422.48 357.192 421.776 357.192 421.776L381.442 416.897C381.442 416.897 381.837 418.252 382.386 420.123C383.357 423.424 384.792 428.321 385.34 430.186C386.192 433.143 381.928 435.58 376.933 436.679Z" fill="#505484"/>
<path d="M370.72 417.898C370.72 417.898 360.484 418.996 356.22 416.559C351.957 414.122 345.864 418.024 345.864 418.024C345.864 418.024 328.318 417.657 322.471 415.827C316.624 413.996 323.322 404.958 332.827 405.827C336.291 406.142 338.634 405.381 340.217 404.294C341.871 403.159 343.024 401.43 343.435 399.466L364.011 400.684L366.868 407.984L370.72 417.898Z" fill="#505484"/>
<path opacity="0.1" d="M367.182 411.313C367.182 411.313 343.269 407.4 340.217 404.294C341.871 403.159 343.023 401.43 343.435 399.466L364.01 400.684L366.868 407.984L367.182 411.313Z" fill="black"/>
<path d="M331.73 274.373L331.976 310.098C331.976 310.098 332.828 336.928 332.828 340.589C332.828 344.25 332.948 352.414 332.948 352.414C332.948 352.414 334.777 362.413 335.874 365.709C336.972 369.004 337.823 384.015 337.823 384.015C337.823 384.015 340.384 388.162 339.286 389.735C338.189 391.308 343.55 394.735 343.55 394.735C343.55 394.735 340.121 399.495 339.898 402.664C339.675 405.833 367.183 410.335 367.183 410.335L356.467 300.345L347.934 272.788L331.73 274.373Z" fill="#575988"/>
<path opacity="0.1" d="M331.73 274.373L331.976 310.098C331.976 310.098 332.828 336.928 332.828 340.589C332.828 344.25 332.948 352.414 332.948 352.414C332.948 352.414 334.777 362.413 335.874 365.709C336.972 369.004 337.823 384.015 337.823 384.015C337.823 384.015 340.384 388.162 339.286 389.735C338.189 391.308 343.55 394.735 343.55 394.735C343.55 394.735 340.121 399.495 339.898 402.664C339.675 405.833 367.183 410.335 367.183 410.335L356.467 300.345L347.934 272.788L331.73 274.373Z" fill="black"/>
<path opacity="0.1" d="M382.386 420.152C374.424 439.15 355.489 424.488 355.489 424.488C355.489 424.488 355.489 424.122 355.443 423.493C356.541 422.48 357.192 421.776 357.192 421.776L381.443 416.897C381.443 416.897 381.837 418.281 382.386 420.152Z" fill="black"/>
<path d="M382.659 418.51C374.858 438.532 355.488 423.51 355.488 423.51C355.488 423.51 354.877 413.144 356.1 408.39C357.323 403.636 354.757 389.363 354.757 389.363C354.757 389.363 353.293 376.681 351.956 373.757C350.619 370.834 350.739 364.976 350.739 364.49C350.739 364.004 351.224 360.097 350.127 357.414C349.03 354.731 348.412 348.146 348.412 348.146C348.412 348.146 348.412 338.879 347.315 333.393L343.537 314.515L336.713 275.855L338.845 275.488L377.041 268.784C377.041 268.784 384.231 305.396 381.791 309.149C381.265 309.972 380.802 311.774 380.419 314.097C379.024 322.403 378.504 337.317 378.504 337.317C378.504 337.317 383.254 344.754 381.43 350C379.607 355.245 383.145 363.901 383.145 363.901C383.145 363.901 384.243 398.047 382.168 401.462C380.093 404.878 382.659 418.51 382.659 418.51Z" fill="#575988"/>
<path d="M379.002 168.89C379.002 168.89 344.401 193.277 352.197 181.081C356.398 174.514 355.626 166.15 353.98 159.834C353.148 156.622 351.999 153.501 350.551 150.516C350.551 150.516 379.951 137.999 376.053 149.217C375.14 151.83 374.751 154.599 374.91 157.363C375.143 161.518 376.564 165.519 379.002 168.89Z" fill="#D28690"/>
<path d="M316.703 224.741C316.703 224.741 302.083 220.513 299.648 224.661C297.213 228.808 300.38 237.91 304.792 239.374C309.204 240.839 319.332 234.414 319.332 234.414L316.703 224.741Z" fill="#D28690"/>
<path d="M333.439 217.55L327.346 223.162C327.346 223.162 316.744 224.134 313.698 223.402C313.698 223.402 316.504 242.183 312.48 244.5L337.091 239.5L333.439 217.55Z" fill="#585B8A"/>
<path opacity="0.1" d="M333.439 217.55L327.346 223.162C327.346 223.162 316.744 224.134 313.698 223.402C313.698 223.402 316.504 242.183 312.48 244.5L337.091 239.5L333.439 217.55Z" fill="black"/>
<path opacity="0.1" d="M255.218 136.94C255.218 141.795 253.291 146.452 249.861 149.885C246.431 153.318 241.779 155.246 236.929 155.246C227.544 150.733 218.639 147.06 218.639 136.94C218.542 134.477 218.943 132.02 219.817 129.716C220.692 127.412 222.022 125.308 223.729 123.531C225.435 121.754 227.483 120.34 229.749 119.374C232.014 118.409 234.452 117.911 236.914 117.911C239.377 117.911 241.814 118.409 244.08 119.374C246.346 120.34 248.393 121.754 250.1 123.531C251.807 125.308 253.137 127.412 254.012 129.716C254.886 132.02 255.287 134.477 255.189 136.94H255.218Z" fill="black"/>
<path d="M255.217 136.448C255.22 140.754 253.704 144.922 250.936 148.217C248.168 151.513 244.327 153.724 240.089 154.462C235.852 155.199 231.49 154.415 227.773 152.248C224.057 150.081 221.224 146.67 219.775 142.617C218.325 138.563 218.352 134.128 219.851 130.093C221.35 126.057 224.225 122.681 227.968 120.56C231.711 118.439 236.082 117.709 240.31 118.498C244.538 119.288 248.352 121.546 251.079 124.876C253.75 128.141 255.212 132.229 255.217 136.448Z" fill="#FFD6D6"/>
<path opacity="0.1" d="M265.876 248.384C264.066 249.509 262.173 250.492 260.212 251.324C260.212 251.324 250.953 249.98 249.615 251.565C248.278 253.149 236.47 253.761 236.47 253.761C236.47 253.761 218.438 252.909 215.757 250.592C214.928 249.92 214.006 249.373 213.02 248.968L213.317 244.334C213.317 244.334 259.778 241.405 263.515 244.98C264.488 245.973 265.286 247.124 265.876 248.384Z" fill="black"/>
<path d="M268.134 245.106C267.768 247.177 260.212 250.346 260.212 250.346C260.212 250.346 250.953 249.008 249.616 250.592C248.278 252.177 236.47 252.789 236.47 252.789C236.47 252.789 218.438 251.931 215.758 249.614C213.077 247.297 207.104 246.182 207.104 246.182C207.104 246.182 204.058 224.478 205.281 219.724C206.504 214.97 203.452 201.915 202.721 197.282C201.989 192.648 204.79 179.845 208.202 177.774C211.614 175.703 216.489 168.747 219.41 166.676C221.873 164.932 224.594 162.672 225.388 161.991L225.622 161.797C225.622 161.797 226.114 158.015 228.063 156.076C230.012 154.137 247.918 168.392 247.918 168.392C247.918 168.392 248.044 169.491 249.261 167.42C249.536 166.957 251.896 170.366 252.308 171.808C252.308 171.808 262.053 188.884 262.664 192.402C263.276 195.92 265.83 207.401 266.316 210.205C266.442 210.925 266.648 213.454 266.888 216.841C266.934 217.504 266.974 218.208 267.025 218.94C267.385 224.558 267.774 231.731 268.008 237.154C268.008 237.772 268.06 238.367 268.077 238.939C268.2 240.993 268.219 243.051 268.134 245.106Z" fill="#DCE6F2"/>
<path opacity="0.1" d="M206.264 201.08C206.264 201.08 212.962 209.249 215.157 209.249C217.352 209.249 206.264 201.08 206.264 201.08Z" fill="black"/>
<path opacity="0.1" d="M220.375 218.643C220.375 218.643 209.408 230.593 210.871 232.79C212.334 234.986 220.375 218.643 220.375 218.643Z" fill="black"/>
<path opacity="0.1" d="M212.334 242.423C212.334 242.423 224.908 228.642 225.48 223.888L212.334 242.423Z" fill="black"/>
<path opacity="0.1" d="M228.172 243.396C228.172 243.396 242.672 235.713 243.889 229.615C245.107 223.516 228.172 243.396 228.172 243.396Z" fill="black"/>
<path opacity="0.1" d="M246.57 169.256L244.559 174.13L247.908 175.715L251.2 184.925C251.2 184.925 260.276 203.094 259.91 212.544C259.544 221.995 261.556 236.199 261.556 236.199L266.792 235.227L264.323 207.43C263.938 203.126 262.861 198.913 261.133 194.953C256.95 185.366 249.165 167.666 248.674 167.666C248.005 167.666 248.474 167.912 248.474 167.912L246.57 169.256Z" fill="black"/>
<path d="M247.055 168.764L245.043 173.644L248.398 175.229L251.684 184.439C251.684 184.439 260.76 202.608 260.395 212.058C260.029 221.509 262.041 235.713 262.041 235.713L267.282 234.74L264.807 206.944C264.427 202.64 263.352 198.426 261.623 194.467C257.44 184.874 249.655 167.18 249.17 167.18C248.495 167.18 248.964 167.426 248.964 167.426L247.055 168.764Z" fill="#575989"/>
<path d="M306.388 240.432C303.839 240.238 297.723 237.143 295.294 235.856L294.266 235.284L294.391 225.839C294.992 225.485 295.614 225.17 296.255 224.895C299.501 223.476 306.159 221.549 309.497 227.755C314.001 236.079 309.617 240.65 306.388 240.432Z" fill="#FFD6D6"/>
<path opacity="0.1" d="M251.079 124.876C250.817 125.04 250.529 125.158 250.227 125.225C248.107 125.688 245.695 123.863 243.877 125.036C242.768 125.757 242.511 127.25 242.363 128.565C242.103 130.854 241.844 133.127 241.585 135.384C241.531 136.188 241.362 136.98 241.082 137.736C240.185 139.789 237.722 140.756 235.475 140.722C234.596 140.784 233.727 140.497 233.058 139.921C232.663 139.52 232.452 138.96 232.018 138.594C229.16 136.197 228.291 142.072 229.046 143.742C230.257 146.471 234.561 149.102 232.755 152.569C232.451 153.133 231.991 153.596 231.429 153.902C228.707 153.049 226.223 151.571 224.173 149.585C222.124 147.599 220.568 145.162 219.628 142.467C218.687 139.771 218.39 136.894 218.759 134.063C219.129 131.232 220.154 128.527 221.754 126.164C223.354 123.801 225.483 121.845 227.973 120.452C230.463 119.06 233.243 118.27 236.093 118.144C238.942 118.019 241.781 118.563 244.383 119.731C246.985 120.9 249.278 122.662 251.079 124.876Z" fill="black"/>
<path d="M231.531 138.571C231.96 138.931 232.177 139.492 232.572 139.892C233.241 140.467 234.11 140.755 234.989 140.693C237.236 140.728 239.699 139.766 240.59 137.701C240.875 136.949 241.046 136.159 241.099 135.356L241.876 128.537C242.025 127.221 242.277 125.728 243.391 125.007C245.209 123.863 247.62 125.659 249.741 125.196C250.505 125.002 251.167 124.523 251.592 123.858C252.016 123.193 252.172 122.391 252.027 121.615C251.781 120.522 250.947 119.658 250.518 118.617C250.258 117.817 250.05 117.001 249.895 116.175C248.712 111.735 243.505 109.241 238.979 109.985C236.464 110.402 234.126 111.604 231.606 111.97C229.8 112.233 227.954 112.061 226.13 112.256C224.436 112.431 222.789 112.918 221.272 113.692C220.874 113.868 220.522 114.135 220.243 114.47C219.985 114.923 219.81 115.419 219.729 115.934C219.118 118.223 217.151 119.91 215.728 121.838C214.101 124.056 213.159 126.704 213.019 129.452C212.963 130.154 213.029 130.861 213.214 131.54C213.334 131.941 213.522 132.33 213.614 132.742C213.894 133.994 213.254 135.247 212.939 136.494C212.549 138.086 212.689 139.761 213.339 141.265C215.534 146.317 222.764 148.004 224.267 153.307C225.602 153.948 227.044 154.336 228.519 154.451C229.994 154.48 231.583 153.845 232.269 152.535C234.069 149.103 229.771 146.437 228.559 143.714C227.799 142.038 228.651 136.168 231.531 138.571Z" fill="#353045"/>
<path opacity="0.1" d="M376.082 149.217C375.169 151.83 374.78 154.599 374.939 157.363C374.059 158.113 373.099 155.87 372.081 156.448C369.292 158.061 366.069 161.9 362.617 161.9C359.623 161.902 356.671 161.194 354.003 159.834C353.171 156.622 352.023 153.501 350.574 150.516C350.574 150.516 379.98 137.999 376.082 149.217Z" fill="black"/>
<path d="M381.603 141.9C381.603 145.663 380.488 149.342 378.399 152.471C376.311 155.6 373.342 158.039 369.868 159.479C366.395 160.919 362.572 161.296 358.885 160.561C355.197 159.827 351.81 158.015 349.152 155.354C346.493 152.693 344.683 149.303 343.949 145.612C343.216 141.921 343.592 138.096 345.031 134.619C346.47 131.142 348.906 128.171 352.032 126.08C355.158 123.989 358.834 122.873 362.594 122.873C365.09 122.873 367.562 123.364 369.869 124.32C372.176 125.276 374.272 126.678 376.037 128.445C377.802 130.212 379.202 132.309 380.158 134.618C381.113 136.927 381.604 139.401 381.603 141.9Z" fill="#D28690"/>
<path d="M380.79 173.118C380.79 173.118 377.212 177.019 376.726 177.34C376.241 177.66 365.867 221.388 365.684 221.898C365.501 222.407 353.333 261.891 353.333 261.891L333.838 271.484L335.467 223.19L349.755 183.363C349.755 183.363 354.471 177.997 355.928 176.047C357.385 174.096 375.583 162.386 375.583 162.386L378.693 168.799L380.79 173.118Z" fill="#F0F3F7"/>
<path opacity="0.1" d="M378.213 169.777L355.798 185.84L355.438 177.019C356.901 175.068 375.093 163.364 375.093 163.364L378.213 169.777Z" fill="black"/>
<path d="M378.7 168.799L356.284 184.862L355.936 176.047C357.399 174.09 375.591 162.386 375.591 162.386L378.7 168.799Z" fill="#F0F3F7"/>
<path d="M355.186 172.122L355.934 176.047L350.922 181.144L354.923 172.18C354.923 172.18 346.349 178.158 343.777 179.742C341.206 181.327 338.634 186.693 338.536 188.157C338.439 189.622 334.393 211.692 334.393 211.692C334.393 211.692 331.346 219.861 332.204 222.178C333.061 224.495 327.574 297.541 327.574 297.541C328.308 296.123 329.345 294.883 330.611 293.911C331.877 292.94 333.342 292.259 334.901 291.918L332.947 248.75C332.947 248.75 335.324 220.033 335.444 219.666C335.564 219.3 340.988 202.653 340.988 202.653L355.186 172.122Z" fill="#585B8A"/>
<path opacity="0.1" d="M356.426 176.533L356.037 184.542C356.037 184.542 350.613 201.675 348.79 204.478C346.967 207.281 341.417 223.991 341.417 223.991L338.291 253.018L332.93 255.461L330.289 250.592L334.679 222.561C334.679 222.561 342.96 198.906 344.183 196.464L350.293 183.581L356.426 176.533Z" fill="black"/>
<path d="M355.935 176.047L355.552 184.056C355.552 184.056 350.128 201.189 348.299 203.992C346.47 206.795 340.932 223.505 340.932 223.505L337.823 252.526L332.462 254.963L329.781 250.089L334.171 222.058C334.171 222.058 342.452 198.397 343.67 195.96L349.825 183.095L355.935 176.047Z" fill="#663D5C"/>
<path d="M292.744 237.177L303.221 244.437C303.221 244.437 310.611 240.289 306.307 237.606C302.003 234.923 298.185 234.517 296.802 234.517C295.419 234.517 292.744 237.177 292.744 237.177Z" fill="#D28690"/>
<path d="M300.569 223.757C300.335 223.902 300.142 224.106 300.009 224.347C299.876 224.588 299.807 224.86 299.809 225.135C299.809 227.361 300.06 233.253 301.923 230.593C304.209 227.338 303.792 224.415 307.284 226.526C309.455 227.878 311.354 229.624 312.885 231.674L311.914 224.683C311.914 224.683 304.735 221.137 300.569 223.757Z" fill="#D28690"/>
<path opacity="0.1" d="M381.802 309.126C381.277 309.95 380.814 311.752 380.431 314.074C359.066 320.487 343.435 306.929 343.435 306.929C341.543 300.514 339.998 294.002 338.805 287.422C338.422 285.168 338.508 280.797 338.862 275.466L377.059 268.761C377.059 268.761 384.243 305.344 381.802 309.126Z" fill="black"/>
<path d="M403.734 199.982C402.762 203.157 403.128 209.615 403.128 209.615L394.355 251.079C394.355 251.079 390.091 283.028 389.359 287.296C388.628 291.563 387.41 310.344 387.41 310.344C362.554 322.541 343.401 305.957 343.401 305.957C341.511 299.54 339.965 293.026 338.772 286.443C337.549 279.201 341.15 250.186 342.853 237.298C343.361 233.482 343.704 231.079 343.704 231.079L350.1 207.299C350.1 207.299 357.959 187.236 360.885 181.384C363.811 175.532 375.562 162.386 375.562 162.386C377.02 161.459 379.352 164.731 381.083 167.712C382.392 169.966 383.369 172.059 383.369 172.059C383.369 172.059 397.99 178.398 400.179 181.785C402.368 185.171 402.008 192.15 402.253 192.516C402.499 192.883 404.711 196.813 403.734 199.982Z" fill="#585B8A"/>
<path opacity="0.1" d="M369.258 185.228C369.258 185.228 370.355 191.693 367.543 193.643C364.828 195.531 344.619 235.307 343.361 237.789C343.87 233.968 344.213 231.565 344.213 231.565L350.608 207.79C350.608 207.79 358.473 187.728 361.394 181.87C364.314 176.012 376.076 162.872 376.076 162.872C377.534 161.945 379.86 165.218 381.592 168.198C378.98 173.627 373.533 183.89 369.258 185.228Z" fill="black"/>
<path d="M368.771 184.742C368.771 184.742 369.863 191.206 367.057 193.157C364.25 195.108 344.138 234.815 342.863 237.298C343.372 233.482 343.715 231.079 343.715 231.079L350.11 207.299C350.11 207.299 357.969 187.236 360.895 181.384C363.822 175.532 375.573 162.386 375.573 162.386C377.03 161.459 379.362 164.731 381.094 167.712C378.493 173.135 373.041 183.403 368.771 184.742Z" fill="#585B8A"/>
<path d="M397.766 243.155L390.891 278.961V278.967L390.233 282.393V282.399L388.753 290.105L382.438 288.766L379.494 288.142L338.76 279.504L335.765 278.869L328.93 277.422L330.267 268.532L330.821 264.837L335.754 232.057L397.766 243.155Z" fill="#3284B8"/>
<path d="M359.753 272.422C359.753 272.422 343.55 278.274 347.082 285.225C350.614 292.175 373.276 279.859 373.276 279.859L359.753 272.422Z" fill="#D28690"/>
<path opacity="0.1" d="M371.326 322.295C371.326 322.781 371.938 329.005 374.373 331.196C376.807 333.387 371.326 322.295 371.326 322.295Z" fill="black"/>
<path opacity="0.1" d="M355.004 344.365C355.004 344.365 357.924 352.414 369.498 355.709C381.072 359.004 355.004 344.365 355.004 344.365Z" fill="black"/>
<path opacity="0.1" d="M381.602 141.9C381.603 145.245 380.723 148.531 379.05 151.427C377.377 154.322 374.971 156.725 372.075 158.393C370.983 157.781 370.014 156.973 369.217 156.007C368.388 155.001 367.743 153.628 368.24 152.426C368.64 151.459 369.697 150.847 369.954 149.846C370.076 149.234 370.044 148.601 369.863 148.004C369.651 147.06 369.451 146.116 369.246 145.178C369.068 144.377 368.754 143.433 367.96 143.239C367.165 143.044 366.502 143.708 365.879 144.2C364.353 145.407 361.427 146.225 359.592 145.235C357.758 144.246 358.272 140.933 357.975 139.143C357.971 138.987 357.933 138.835 357.864 138.695C357.795 138.556 357.696 138.433 357.575 138.336C357.308 138.248 357.023 138.228 356.746 138.279C355.757 138.279 354.963 137.392 354.677 136.443C354.475 135.473 354.364 134.487 354.346 133.497C354.237 132.507 353.877 131.46 353.031 130.951C352.355 130.636 351.606 130.513 350.865 130.596L347.281 130.636C349.659 127.419 352.989 125.034 356.798 123.821C360.607 122.607 364.702 122.626 368.5 123.875C372.298 125.125 375.605 127.541 377.952 130.78C380.3 134.019 381.567 137.916 381.574 141.917L381.602 141.9Z" fill="black"/>
<path d="M366.387 144.2C367.01 143.708 367.696 143.056 368.468 143.245C369.239 143.433 369.571 144.389 369.748 145.178L370.365 147.998C370.548 148.597 370.581 149.232 370.463 149.846C370.171 150.853 369.119 151.459 368.714 152.426C368.216 153.628 368.868 155.001 369.691 156.002C371.192 157.813 373.268 159.054 375.572 159.52C376.174 159.664 376.799 159.678 377.407 159.56C378.767 159.245 379.693 157.992 380.425 156.82C384.202 150.927 387.455 144.469 388.118 137.501C388.299 136.08 388.234 134.638 387.923 133.239C387.614 132.152 387.176 131.106 386.62 130.122C385.647 128.111 384.411 126.239 382.945 124.555C380.345 121.752 376.755 120.03 373.069 119.012C368.922 117.86 364.593 117.521 360.318 118.011C359.175 118.143 358.077 118.331 356.951 118.406C355.538 118.471 354.121 118.449 352.71 118.337L344.297 117.834C343.817 118.812 344.297 119.973 344.869 120.888C345.44 121.804 346.149 122.753 346.103 123.84C346.058 124.927 345.286 125.785 344.692 126.701C344.097 127.616 343.646 128.8 344.24 129.692C344.835 130.585 346.046 130.642 347.098 130.631L351.339 130.585C352.077 130.509 352.823 130.637 353.493 130.957C354.339 131.466 354.699 132.518 354.808 133.502C354.832 134.492 354.943 135.478 355.139 136.449C355.431 137.398 356.22 138.296 357.208 138.285C357.485 138.23 357.772 138.251 358.037 138.348C358.159 138.444 358.257 138.565 358.327 138.704C358.396 138.842 358.434 138.994 358.437 139.149C358.735 140.939 358.186 144.246 360.055 145.241C361.924 146.237 364.861 145.407 366.387 144.2Z" fill="#663D5C"/>
<path opacity="0.1" d="M390.546 181.779C388.445 181.555 386.33 182.054 384.549 183.192C382.768 184.33 381.426 186.041 380.744 188.043C378.458 194.559 374.646 206.315 375.601 210.96C376.944 217.544 378.527 228.522 378.527 228.522C378.527 228.522 385.471 232.526 381.956 236.565C378.441 240.604 377.447 246.325 377.447 246.325C377.447 246.325 372.937 248.275 371.966 252.423C370.994 256.57 364.41 262.297 364.41 262.297L354.545 272.176C354.545 272.176 370.868 288.766 374.16 289.613L384.271 277.782L396.21 261.93L406.567 251.061C406.567 251.061 409.002 245.341 407.784 234.471C406.567 223.602 401.812 213.254 401.812 213.254L402.177 209.592C402.177 209.592 403.298 183.363 390.546 181.779Z" fill="black"/>
<path d="M391.519 181.779C389.42 181.558 387.307 182.058 385.529 183.196C383.75 184.334 382.41 186.043 381.729 188.043C379.443 194.559 375.63 206.315 376.585 210.96C377.922 217.544 379.505 228.522 379.505 228.522C379.505 228.522 386.45 232.526 382.935 236.565C379.42 240.604 378.431 246.325 378.431 246.325C378.431 246.325 373.921 248.275 372.944 252.423C371.967 256.57 365.394 262.297 365.394 262.297L355.523 272.176C355.523 272.176 371.847 288.766 375.139 289.613L385.249 277.782L397.16 261.931L407.517 251.061C407.517 251.061 409.957 245.341 408.734 234.471C407.511 223.602 402.767 213.254 402.767 213.254L403.133 209.592C403.133 209.592 404.27 183.363 391.519 181.779Z" fill="#585B8A"/>
<path opacity="0.1" d="M381.316 218.888C381.316 218.888 391.673 231.565 396.062 228.762C400.452 225.959 381.316 218.888 381.316 218.888Z" fill="black"/>
<path opacity="0.1" d="M385.215 209.129C386.312 209.495 395.331 222.058 399.961 220.57C404.59 219.083 385.215 209.129 385.215 209.129Z" fill="black"/>
<path opacity="0.1" d="M387.775 230.707C387.775 230.707 388.387 237.904 395.817 236.926C403.247 235.947 387.775 230.707 387.775 230.707Z" fill="black"/>
<path opacity="0.1" d="M354.94 172.666L350.922 181.63L355.94 176.533L354.94 172.666Z" fill="black"/>
<path d="M354.94 172.18L350.922 181.144L355.94 176.047L354.94 172.18Z" fill="#F0F3F7"/>
<path opacity="0.3" d="M338.759 279.504L335.764 278.869L330.266 268.532L330.82 264.837L338.759 279.504Z" fill="black"/>
<path opacity="0.3" d="M390.891 278.967L390.233 282.393V282.399L382.438 288.766L379.494 288.142L390.891 278.967Z" fill="black"/>
<path opacity="0.1" d="M268.06 238.962C266.551 239.214 265.088 239.443 263.751 239.614C256.321 240.593 238.649 231.811 238.649 231.811C238.649 231.811 217.084 213.763 210.871 196.692C204.659 179.622 218.302 177.059 218.302 177.059C223.445 174.13 234.631 182.299 236.214 183.644C237.797 184.988 239.14 188.398 239.014 190.594C238.889 192.791 242.672 195.594 242.672 195.594C242.672 195.594 249.131 206.812 250.714 208.031C252.297 209.249 252.663 210.348 253.149 212.424C253.634 214.501 257.898 216.205 259.727 216.08C261.556 215.954 263.728 216.692 263.728 217.664C263.728 218.448 265.517 218.837 266.986 218.963C267.42 225.215 267.849 233.407 268.06 238.962Z" fill="black"/>
<path opacity="0.1" d="M267.991 237.177C266.848 237.36 265.75 237.526 264.722 237.664C257.292 238.642 239.625 229.861 239.625 229.861C239.625 229.861 218.061 211.812 211.848 194.742C205.635 177.671 219.278 175.109 219.278 175.109C224.422 172.18 235.601 180.349 237.185 181.693C238.768 183.037 240.111 186.447 239.991 188.644C239.871 190.84 243.643 193.643 243.643 193.643C243.643 193.643 250.102 204.862 251.685 206.08C253.268 207.299 253.634 208.397 254.125 210.473C254.617 212.55 258.875 214.249 260.704 214.129C262.533 214.009 264.704 214.741 264.704 215.714C264.704 216.286 265.722 216.669 266.853 216.858C266.899 217.521 266.939 218.225 266.991 218.957C267.368 224.581 267.757 231.754 267.991 237.177Z" fill="black"/>
<path opacity="0.1" d="M296.255 224.895L295.792 235.856H295.294L294.266 235.284L294.391 225.839C294.992 225.486 295.614 225.17 296.255 224.895Z" fill="black"/>
<path d="M218.302 176.081C218.302 176.081 204.659 178.644 210.871 195.714C217.084 212.785 238.649 230.839 238.649 230.839C238.649 230.839 256.315 239.614 263.751 238.642C271.186 237.669 282.509 235.106 283.972 235.473C285.435 235.839 295.306 235.839 295.306 235.839L295.791 224.397L284.361 223.785L278.514 222.567C278.514 222.567 276.439 220.851 275.222 221.102C274.004 221.354 271.449 219.638 271.449 219.638C271.449 219.638 269.495 218.053 268.02 218.053C266.546 218.053 263.756 217.687 263.756 216.715C263.756 215.742 261.562 214.998 259.756 215.13C257.95 215.262 253.634 213.545 253.131 211.446C252.628 209.346 252.28 208.277 250.697 207.058C249.113 205.84 242.655 194.616 242.655 194.616C242.655 194.616 238.877 191.813 238.997 189.622C239.117 187.431 237.78 184.01 236.197 182.665C234.613 181.321 223.411 173.158 218.302 176.081Z" fill="#DCE6F2"/>
<path opacity="0.1" d="M253.394 215.347C253.394 215.347 248.153 220.593 249.49 221.566L253.394 215.347Z" fill="black"/>
<path opacity="0.1" d="M258.994 219.495C258.994 219.495 252.17 224.741 253.999 225.107C255.828 225.473 258.994 219.495 258.994 219.495Z" fill="black"/>
<path opacity="0.1" d="M247.416 227.275C248.393 227.767 262.888 236.428 268.375 236.302L247.416 227.275Z" fill="black"/>
<path opacity="0.1" d="M248.399 169.376C248.399 169.376 245.839 177.792 244.862 177.792C244.096 177.792 231.236 167.368 225.869 162.986L226.103 162.792C226.103 162.792 226.589 159.011 228.538 157.071C230.487 155.132 248.399 169.376 248.399 169.376Z" fill="black"/>
<path d="M247.907 168.398C247.907 168.398 245.352 176.813 244.375 176.813C243.603 176.813 230.744 166.39 225.377 162.008L225.611 161.814C225.611 161.814 226.103 158.032 228.052 156.093C230.001 154.154 247.907 168.398 247.907 168.398Z" fill="#DCE6F2"/>
<g opacity="0.15">
<path opacity="0.15" d="M213.402 141.202C215.117 145.121 219.838 147.02 222.576 150.144C220.947 146.305 216.186 144.423 213.402 141.202Z" fill="black"/>
<path opacity="0.15" d="M230.875 150.23C230.195 151.54 228.589 152.175 227.126 152.146C225.825 152.053 224.552 151.727 223.365 151.185C223.796 151.82 224.123 152.519 224.337 153.256C225.671 153.898 227.113 154.286 228.589 154.4C230.069 154.434 231.658 153.799 232.338 152.484C233.43 150.396 232.293 148.611 230.961 146.923C231.209 147.442 231.331 148.012 231.316 148.587C231.301 149.162 231.15 149.725 230.875 150.23Z" fill="black"/>
<path opacity="0.15" d="M252.084 121.558C251.839 120.459 251.004 119.596 250.575 118.56C250.313 117.759 250.105 116.941 249.952 116.112C249.628 114.939 249.026 113.862 248.198 112.971C248.313 113.253 248.41 113.541 248.489 113.835C248.649 114.668 248.863 115.489 249.129 116.295C249.558 117.33 250.393 118.194 250.638 119.292C250.783 120.068 250.627 120.87 250.203 121.535C249.778 122.201 249.116 122.679 248.352 122.873C246.237 123.337 243.825 121.506 242.008 122.685C240.893 123.4 240.636 124.893 240.488 126.209C240.232 128.497 239.973 130.772 239.71 133.033C239.659 133.836 239.489 134.626 239.207 135.379C238.31 137.438 235.847 138.405 233.601 138.371C232.723 138.429 231.857 138.142 231.189 137.57C230.864 137.109 230.515 136.666 230.143 136.243C227.285 133.84 226.416 139.715 227.171 141.391C227.548 142.145 228.017 142.85 228.565 143.491C227.937 141.603 228.817 136.168 231.606 138.497C231.978 138.919 232.325 139.362 232.646 139.824C233.317 140.395 234.184 140.682 235.064 140.625C237.31 140.659 239.773 139.692 240.671 137.633C240.953 136.878 241.122 136.086 241.174 135.282C241.433 132.993 241.692 130.72 241.951 128.463C242.099 127.147 242.357 125.654 243.465 124.939C245.289 123.76 247.701 125.591 249.815 125.122C250.574 124.925 251.229 124.448 251.65 123.787C252.071 123.125 252.226 122.329 252.084 121.558Z" fill="black"/>
</g>
<path opacity="0.1" d="M378.626 158.101C378.018 158.214 377.393 158.199 376.791 158.055C374.489 157.59 372.416 156.35 370.916 154.543C370.087 153.536 369.435 152.163 369.938 150.962C370.338 149.995 371.39 149.388 371.653 148.382C371.772 147.767 371.738 147.133 371.556 146.534L370.938 143.714C370.761 142.913 370.453 141.969 369.658 141.78C368.864 141.591 368.201 142.243 367.578 142.735C366.052 143.942 363.12 144.766 361.291 143.771C359.462 142.775 359.97 139.469 359.673 137.678C359.668 137.524 359.63 137.372 359.561 137.234C359.492 137.096 359.394 136.974 359.273 136.877C359.005 136.784 358.718 136.762 358.439 136.815C357.45 136.815 356.661 135.928 356.37 134.978C356.172 134.008 356.063 133.022 356.044 132.032C355.93 131.048 355.575 129.996 354.724 129.486C354.052 129.17 353.308 129.041 352.569 129.115L348.328 129.16C347.282 129.16 346.042 129.092 345.47 128.222C344.899 127.353 345.322 126.117 345.922 125.23C346.522 124.344 347.282 123.463 347.334 122.37C347.385 121.277 346.676 120.333 346.099 119.418C345.768 118.918 345.525 118.364 345.379 117.782L344.162 117.708C343.687 118.68 344.162 119.841 344.733 120.762C345.305 121.683 346.019 122.627 345.968 123.709C345.916 124.79 345.156 125.659 344.556 126.569C343.956 127.478 343.516 128.668 344.11 129.561C344.704 130.453 345.91 130.516 346.968 130.505L351.209 130.453C351.948 130.382 352.693 130.512 353.363 130.831C354.215 131.34 354.575 132.392 354.684 133.376C354.702 134.367 354.813 135.353 355.015 136.323C355.301 137.266 356.095 138.17 357.084 138.153C357.361 138.104 357.646 138.126 357.913 138.216C358.034 138.314 358.132 138.436 358.201 138.575C358.27 138.715 358.309 138.867 358.313 139.023C358.61 140.808 358.061 144.12 359.93 145.115C361.799 146.111 364.714 145.287 366.217 144.08C366.84 143.588 367.532 142.936 368.304 143.119C369.075 143.302 369.407 144.263 369.578 145.052L370.201 147.878C370.382 148.477 370.413 149.112 370.293 149.726C370.007 150.727 368.949 151.339 368.549 152.3C368.052 153.502 368.698 154.88 369.527 155.881C371.037 157.697 373.126 158.937 375.442 159.394C376.044 159.537 376.669 159.553 377.277 159.44C378.259 159.14 379.102 158.499 379.654 157.632C379.342 157.849 378.994 158.007 378.626 158.101Z" fill="black"/>
<path opacity="0.1" d="M116.418 410.747C124.047 410.747 130.232 409.797 130.232 408.625C130.232 407.452 124.047 406.502 116.418 406.502C108.788 406.502 102.604 407.452 102.604 408.625C102.604 409.797 108.788 410.747 116.418 410.747Z" fill="#3284B8"/>
<path opacity="0.1" d="M457.92 445.111C480.016 445.111 497.928 442.36 497.928 438.967C497.928 435.574 480.016 432.823 457.92 432.823C435.824 432.823 417.912 435.574 417.912 438.967C417.912 442.36 435.824 445.111 457.92 445.111Z" fill="#3284B8"/>
<path opacity="0.1" d="M566.515 468.834C595.741 468.834 619.434 465.195 619.434 460.705C619.434 456.216 595.741 452.576 566.515 452.576C537.288 452.576 513.596 456.216 513.596 460.705C513.596 465.195 537.288 468.834 566.515 468.834Z" fill="#3284B8"/>
<path opacity="0.1" d="M57.2913 474C79.3871 474 97.2993 471.249 97.2993 467.856C97.2993 464.463 79.3871 461.712 57.2913 461.712C35.1954 461.712 17.2832 464.463 17.2832 467.856C17.2832 471.249 35.1954 474 57.2913 474Z" fill="#3284B8"/>
<path d="M117.046 341.03C117.046 341.03 118.612 343.078 116.326 346.178C114.04 349.279 112.154 351.899 112.897 353.809C112.897 353.809 116.326 348.089 119.184 347.986C122.042 347.883 120.138 344.485 117.046 341.03Z" fill="#3284B8"/>
<path opacity="0.1" d="M117.046 341.03C117.186 341.225 117.294 341.441 117.366 341.67C120.11 344.897 121.567 347.9 118.932 347.963C116.48 348.032 113.537 352.425 112.834 353.535C112.855 353.62 112.882 353.704 112.914 353.787C112.914 353.787 116.343 348.066 119.201 347.963C122.059 347.86 120.138 344.485 117.046 341.03Z" fill="black"/>
<path d="M119.961 343.638C119.961 344.359 119.876 344.943 119.779 344.943C119.681 344.943 119.596 344.371 119.596 343.638C119.596 342.906 119.699 343.261 119.796 343.261C119.893 343.261 119.961 342.917 119.961 343.638Z" fill="#FFD037"/>
<path d="M120.956 344.502C120.328 344.845 119.773 345.074 119.728 344.965C119.682 344.857 120.151 344.531 120.785 344.182C121.419 343.833 121.168 344.09 121.214 344.182C121.259 344.273 121.591 344.153 120.956 344.502Z" fill="#FFD037"/>
<path d="M108.782 341.03C108.782 341.03 107.216 343.078 109.502 346.178C111.789 349.279 113.68 351.899 112.932 353.809C112.932 353.809 109.502 348.089 106.673 347.986C103.844 347.883 105.673 344.485 108.782 341.03Z" fill="#3284B8"/>
<path opacity="0.1" d="M108.783 341.03C108.646 341.227 108.538 341.443 108.463 341.67C105.719 344.897 104.262 347.9 106.897 347.963C109.349 348.032 112.292 352.425 113.001 353.535C112.977 353.62 112.949 353.705 112.915 353.787C112.915 353.787 109.486 348.066 106.657 347.963C103.828 347.86 105.674 344.485 108.783 341.03Z" fill="black"/>
<path d="M105.873 343.638C105.873 344.359 105.953 344.943 106.05 344.943C106.147 344.943 106.233 344.371 106.233 343.638C106.233 342.906 106.13 343.261 106.033 343.261C105.936 343.261 105.873 342.917 105.873 343.638Z" fill="#FFD037"/>
<path d="M104.873 344.502C105.507 344.845 106.056 345.074 106.107 344.965C106.159 344.857 105.679 344.531 105.044 344.182C104.41 343.833 104.661 344.09 104.615 344.182C104.57 344.273 104.238 344.153 104.873 344.502Z" fill="#FFD037"/>
<path opacity="0.1" d="M112.914 369.473C121.951 369.473 129.277 368.348 129.277 366.961C129.277 365.574 121.951 364.45 112.914 364.45C103.877 364.45 96.5508 365.574 96.5508 366.961C96.5508 368.348 103.877 369.473 112.914 369.473Z" fill="#3284B8"/>
<path d="M121.339 351.041L121.259 351.681L121.15 352.585L121.105 352.963L120.996 353.867L120.944 354.244L120.836 355.148L119.584 365.445C119.476 366.361 117.978 367.076 116.155 367.076H109.674C107.868 367.076 106.37 366.361 106.244 365.445L104.993 355.148L104.884 354.244L104.838 353.867L104.724 352.963L104.678 352.585L104.57 351.681L104.49 351.041C104.427 350.52 105.238 350.085 106.262 350.085H119.573C120.59 350.085 121.402 350.52 121.339 351.041Z" fill="#65617D"/>
<path d="M121.259 351.682L121.151 352.585H104.679L104.57 351.682H121.259Z" fill="#9D9CB5"/>
<path d="M121.105 352.963L120.996 353.867H104.839L104.725 352.963H121.105Z" fill="#9D9CB5"/>
<path d="M120.951 354.244L120.837 355.148H104.993L104.885 354.244H120.951Z" fill="#9D9CB5"/>
<path d="M79.6673 400.701C79.1202 401.456 78.6816 402.284 78.3642 403.161C78.2842 403.373 78.2042 403.619 78.1242 403.854C77.9792 403.786 77.8279 403.732 77.6726 403.693C77.0065 403.525 76.3172 403.467 75.6322 403.522C75.6322 403.253 75.6665 402.95 75.6722 402.681C75.758 399.666 75.4036 395.467 72.5288 397.246C69.7739 398.962 71.74 401.823 73.5175 403.653C73.6718 403.814 73.8262 403.962 73.9748 404.105C72.3516 405.249 72.0429 407.955 71.7743 410.764C71.5057 413.573 69.1224 416.645 67.5392 418.39C67.3791 418.567 67.2363 418.727 67.0934 418.876C66.4534 418.365 65.7126 417.995 64.9196 417.791C64.1266 417.587 63.2994 417.553 62.4924 417.692C62.4296 417.446 62.3553 417.188 62.281 416.919C61.0007 412.292 58.343 404.277 54.9538 402.521L55.3996 401.949C56.8399 400.067 58.4631 397.263 56.0683 396.548C53.6735 395.833 53.4563 398.974 53.5878 401.331C53.6106 401.628 53.6335 401.909 53.6564 402.172C53.1776 402.194 52.7085 402.313 52.2779 402.524C51.8473 402.735 51.4644 403.031 51.153 403.396L50.7815 402.955C48.8383 400.667 45.2775 397.023 44.1973 399.775C43.1914 402.338 46.3292 405.667 48.5353 407.595L48.6725 407.715C47.1922 413.727 53.6564 418.63 57.1371 420.775L57.5886 421.05C52.7876 426.713 49.8213 437.331 49.8213 437.331L63.264 439.733C63.264 439.733 72.1801 432.033 71.037 424.803H71.1285C80.0388 423.018 82.0621 413.51 80.6733 407.864L80.8333 407.801C82.4567 407.136 83.879 406.06 84.9598 404.677C87.4518 401.216 82.2393 397.303 79.6673 400.701Z" fill="#3284B8"/>
<path opacity="0.1" d="M79.6673 400.701C79.1202 401.456 78.6816 402.284 78.3642 403.161C78.2842 403.373 78.2042 403.619 78.1242 403.854C77.9792 403.786 77.8279 403.732 77.6726 403.693C77.0065 403.525 76.3172 403.467 75.6322 403.522C75.6322 403.253 75.6665 402.95 75.6722 402.681C75.758 399.666 75.4036 395.467 72.5288 397.246C69.7739 398.962 71.74 401.823 73.5175 403.653C73.6718 403.814 73.8262 403.962 73.9748 404.105C72.3516 405.249 72.0429 407.955 71.7743 410.764C71.5057 413.573 69.1224 416.645 67.5392 418.39C67.3791 418.567 67.2363 418.727 67.0934 418.876C66.4534 418.365 65.7126 417.995 64.9196 417.791C64.1266 417.587 63.2994 417.553 62.4924 417.692C62.4296 417.446 62.3553 417.188 62.281 416.919C61.0007 412.292 58.343 404.277 54.9538 402.521L55.3996 401.949C56.8399 400.067 58.4631 397.263 56.0683 396.548C53.6735 395.833 53.4563 398.974 53.5878 401.331C53.6106 401.628 53.6335 401.909 53.6564 402.172C53.1776 402.194 52.7085 402.313 52.2779 402.524C51.8473 402.735 51.4644 403.031 51.153 403.396L50.7815 402.955C48.8383 400.667 45.2775 397.023 44.1973 399.775C43.1914 402.338 46.3292 405.667 48.5353 407.595L48.6725 407.715C47.1922 413.727 53.6564 418.63 57.1371 420.775L57.5886 421.05C52.7876 426.713 49.8213 437.331 49.8213 437.331L63.264 439.733C63.264 439.733 72.1801 432.033 71.037 424.803H71.1285C80.0388 423.018 82.0621 413.51 80.6733 407.864L80.8333 407.801C82.4567 407.136 83.879 406.06 84.9598 404.677C87.4518 401.216 82.2393 397.303 79.6673 400.701Z" fill="black"/>
<path d="M52.9069 404.614L51.3351 409.191C51.3351 409.191 50.4607 408.573 49.3576 407.601C47.1514 405.673 44.0137 402.343 45.0196 399.781C46.0998 397.029 49.6605 400.661 51.6038 402.961C52.3868 403.876 52.9069 404.614 52.9069 404.614Z" fill="#3284B8"/>
<path d="M56.2227 401.954C55.7452 402.584 55.2339 403.188 54.6909 403.762C54.5568 402.959 54.4633 402.149 54.4109 401.337C54.2794 398.98 54.5309 395.851 56.8914 396.554C59.2518 397.258 57.663 400.072 56.2227 401.954Z" fill="#3284B8"/>
<path d="M76.524 402.681C76.4783 404.197 76.3297 405.41 76.3297 405.41C75.6383 404.868 74.9834 404.281 74.3693 403.653C72.5918 401.806 70.6257 398.957 73.3805 397.246C76.2268 395.461 76.5812 399.666 76.524 402.681Z" fill="#3284B8"/>
<path d="M85.7834 404.666C84.7025 406.048 83.2802 407.125 81.6568 407.789C81.2062 407.985 80.7443 408.153 80.2737 408.293L78.4219 405.69C78.6163 404.83 78.8723 403.985 79.1877 403.161C79.5051 402.284 79.9437 401.456 80.4909 400.701C83.0514 397.303 88.2753 401.216 85.7834 404.666Z" fill="#3284B8"/>
<path opacity="0.1" d="M51.6055 402.961C52.3886 403.876 52.9087 404.586 52.9087 404.586L51.3369 409.162C51.3369 409.162 50.4625 408.545 49.3594 407.572C49.6045 406.097 50.2135 404.707 51.1312 403.528C51.2855 403.339 51.4512 403.144 51.6055 402.961Z" fill="black"/>
<path opacity="0.1" d="M56.2219 401.954C55.7445 402.584 55.2332 403.188 54.6902 403.762C54.556 402.959 54.4626 402.149 54.4102 401.337C55.0634 401.35 55.6963 401.566 56.2219 401.954Z" fill="black"/>
<path d="M63.9498 420.238L60.0404 421.954C60.0404 421.954 59.1888 421.542 57.96 420.775C53.8506 418.247 45.5918 411.88 51.1015 404.374C56.6111 396.869 61.2578 410.329 63.1039 416.914C63.6583 418.916 63.9498 420.238 63.9498 420.238Z" fill="#3284B8"/>
<path opacity="0.1" d="M74.3398 403.653C74.9085 403.067 75.6789 402.719 76.4946 402.681C76.4488 404.197 76.3002 405.41 76.3002 405.41C75.6089 404.868 74.954 404.281 74.3398 403.653Z" fill="black"/>
<path opacity="0.1" d="M81.6685 407.789C81.2179 407.984 80.756 408.153 80.2854 408.293L78.4336 405.69C78.628 404.83 78.884 403.985 79.1995 403.161C80.3826 403.859 81.2627 405.598 81.6685 407.789Z" fill="black"/>
<path d="M71.9518 424.791C71.7403 424.837 71.5174 424.877 71.2945 424.911C58.189 426.902 66.9736 419.826 66.9736 419.826C66.9736 419.826 67.5452 419.254 68.3625 418.39C69.9457 416.645 72.3233 413.59 72.5976 410.764C73.0091 406.514 73.4835 402.526 78.4959 403.693C83.4169 404.849 84.36 422.303 71.9518 424.791Z" fill="#3284B8"/>
<path d="M71.7053 457.45H46.666V464.04H71.7053V457.45Z" fill="#D4DFEC"/>
<path d="M75.4046 436.032H42.6895V459.029H75.4046V436.032Z" fill="#D4DFEC"/>
<path opacity="0.1" d="M71.7053 457.45H46.666V464.04H71.7053V457.45Z" fill="black"/>
<path opacity="0.1" d="M75.4046 436.032H42.6895V459.029H75.4046V436.032Z" fill="black"/>
<path d="M73.3518 457.45H48.3125V464.04H73.3518V457.45Z" fill="#D4DFEC"/>
<path opacity="0.1" d="M63.1048 416.92C63.6764 418.887 63.9507 420.237 63.9507 420.237L60.0414 421.954C60.0414 421.954 59.1898 421.542 57.9609 420.775C59.4927 418.836 61.2187 417.371 63.1048 416.92Z" fill="black"/>
<path opacity="0.1" d="M71.9518 424.791C71.7403 424.837 71.5174 424.877 71.2945 424.911C58.189 426.902 66.9736 419.826 66.9736 419.826C66.9736 419.826 67.5452 419.254 68.3625 418.39C70.8087 420.352 71.8203 422.56 71.9518 424.791Z" fill="black"/>
<path d="M50.6445 437.336C50.6445 437.336 57.9832 411.022 68.2767 419.139C78.5702 427.257 64.0872 439.733 64.0872 439.733L50.6445 437.336Z" fill="#3284B8"/>
<path opacity="0.1" d="M54.3484 409.323C54.803 409.323 55.1714 408.954 55.1714 408.499C55.1714 408.044 54.803 407.675 54.3484 407.675C53.8939 407.675 53.5254 408.044 53.5254 408.499C53.5254 408.954 53.8939 409.323 54.3484 409.323Z" fill="black"/>
<path opacity="0.1" d="M54.2801 413.167C54.7346 413.167 55.1031 412.798 55.1031 412.343C55.1031 411.888 54.7346 411.519 54.2801 411.519C53.8255 411.519 53.457 411.888 53.457 412.343C53.457 412.798 53.8255 413.167 54.2801 413.167Z" fill="black"/>
<path opacity="0.1" d="M78.1531 410.078C78.6076 410.078 78.9761 409.709 78.9761 409.254C78.9761 408.799 78.6076 408.43 78.1531 408.43C77.6986 408.43 77.3301 408.799 77.3301 409.254C77.3301 409.709 77.6986 410.078 78.1531 410.078Z" fill="black"/>
<path opacity="0.1" d="M58.95 429.785C59.4045 429.785 59.773 429.416 59.773 428.961C59.773 428.507 59.4045 428.138 58.95 428.138C58.4954 428.138 58.127 428.507 58.127 428.961C58.127 429.416 58.4954 429.785 58.95 429.785Z" fill="black"/>
<path opacity="0.1" d="M76.4383 416.462C76.8928 416.462 77.2613 416.093 77.2613 415.638C77.2613 415.183 76.8928 414.814 76.4383 414.814C75.9837 414.814 75.6152 415.183 75.6152 415.638C75.6152 416.093 75.9837 416.462 76.4383 416.462Z" fill="black"/>
<path opacity="0.1" d="M67.9344 424.98C68.3889 424.98 68.7574 424.611 68.7574 424.156C68.7574 423.701 68.3889 423.332 67.9344 423.332C67.4798 423.332 67.1113 423.701 67.1113 424.156C67.1113 424.611 67.4798 424.98 67.9344 424.98Z" fill="black"/>
<path opacity="0.1" d="M57.1609 410.97C57.6155 410.97 57.9839 410.601 57.9839 410.146C57.9839 409.691 57.6155 409.323 57.1609 409.323C56.7064 409.323 56.3379 409.691 56.3379 410.146C56.3379 410.601 56.7064 410.97 57.1609 410.97Z" fill="black"/>
<path opacity="0.1" d="M75.8894 412.549C76.344 412.549 76.7124 412.18 76.7124 411.725C76.7124 411.27 76.344 410.901 75.8894 410.901C75.4349 410.901 75.0664 411.27 75.0664 411.725C75.0664 412.18 75.4349 412.549 75.8894 412.549Z" fill="black"/>
<path opacity="0.1" d="M73.0769 418.933C73.5315 418.933 73.8999 418.564 73.8999 418.109C73.8999 417.654 73.5315 417.286 73.0769 417.286C72.6224 417.286 72.2539 417.654 72.2539 418.109C72.2539 418.564 72.6224 418.933 73.0769 418.933Z" fill="black"/>
<path opacity="0.1" d="M64.4363 429.167C64.8908 429.167 65.2593 428.799 65.2593 428.344C65.2593 427.889 64.8908 427.52 64.4363 427.52C63.9818 427.52 63.6133 427.889 63.6133 428.344C63.6133 428.799 63.9818 429.167 64.4363 429.167Z" fill="black"/>
<path opacity="0.1" d="M62.6531 425.117C63.1076 425.117 63.4761 424.748 63.4761 424.293C63.4761 423.838 63.1076 423.47 62.6531 423.47C62.1986 423.47 61.8301 423.838 61.8301 424.293C61.8301 424.748 62.1986 425.117 62.6531 425.117Z" fill="black"/>
<path opacity="0.1" d="M58.3953 415.981C58.8498 415.981 59.2183 415.613 59.2183 415.158C59.2183 414.703 58.8498 414.334 58.3953 414.334C57.9407 414.334 57.5723 414.703 57.5723 415.158C57.5723 415.613 57.9407 415.981 58.3953 415.981Z" fill="black"/>
<path opacity="0.1" d="M73.3518 457.45H48.3125V459.859H73.3518V457.45Z" fill="black"/>
<path d="M77.0491 436.032H44.334V459.029H77.0491V436.032Z" fill="#D4DFEC"/>
<path opacity="0.1" d="M65.534 432.874C65.9885 432.874 66.357 432.506 66.357 432.051C66.357 431.596 65.9885 431.227 65.534 431.227C65.0794 431.227 64.7109 431.596 64.7109 432.051C64.7109 432.506 65.0794 432.874 65.534 432.874Z" fill="black"/>
<path opacity="0.1" d="M60.5945 433.904C61.0491 433.904 61.4175 433.535 61.4175 433.08C61.4175 432.625 61.0491 432.257 60.5945 432.257C60.14 432.257 59.7715 432.625 59.7715 433.08C59.7715 433.535 60.14 433.904 60.5945 433.904Z" fill="black"/>
<path opacity="0.1" d="M28.578 35.7311C31.8797 35.7311 34.5563 33.0521 34.5563 29.7473C34.5563 26.4426 31.8797 23.7635 28.578 23.7635C25.2762 23.7635 22.5996 26.4426 22.5996 29.7473C22.5996 33.0521 25.2762 35.7311 28.578 35.7311Z" fill="#3284B8"/>
<path opacity="0.1" d="M38.8649 16.0178C43.2841 16.0178 46.8665 12.4321 46.8665 8.00888C46.8665 3.5857 43.2841 0 38.8649 0C34.4457 0 30.8633 3.5857 30.8633 8.00888C30.8633 12.4321 34.4457 16.0178 38.8649 16.0178Z" fill="#3284B8"/>
<path opacity="0.1" d="M8.00161 52.6298C12.4208 52.6298 16.0032 49.0441 16.0032 44.6209C16.0032 40.1978 12.4208 36.6121 8.00161 36.6121C3.58244 36.6121 0 40.1978 0 44.6209C0 49.0441 3.58244 52.6298 8.00161 52.6298Z" fill="#3284B8"/>
</g>
<defs>
<linearGradient id="paint0_linear" x1="301.278" y1="443.835" x2="301.278" y2="108.892" gradientUnits="userSpaceOnUse">
<stop stop-color="#808080" stop-opacity="0.25"/>
<stop offset="0.54" stop-color="#808080" stop-opacity="0.12"/>
<stop offset="1" stop-color="#808080" stop-opacity="0.1"/>
</linearGradient>
<clipPath id="clip0">
<rect width="624" height="474" fill="white"/>
</clipPath>
</defs>
</svg>
