<svg width="682" height="466" viewBox="0 0 682 466" fill="none" xmlns="http://www.w3.org/2000/svg">
<g clip-path="url(#clip0)">
<path d="M557.039 292.25H117.791C114.792 292.247 111.917 291.085 109.797 289.018C107.677 286.952 106.484 284.151 106.481 281.229V17.2953C106.483 15.1547 107.357 13.1025 108.91 11.5888C110.464 10.0751 112.57 9.22365 114.766 9.22119H559.919C562.154 9.22367 564.297 10.0898 565.877 11.6297C567.457 13.1695 568.346 15.2573 568.348 17.4349V281.229C568.345 284.151 567.152 286.952 565.032 289.018C562.912 291.085 560.037 292.247 557.039 292.25Z" fill="#F2F2F2"/>
<path d="M541.015 276.643H131.648C125.647 276.643 120.765 272.188 120.765 266.712V36.8748C120.765 32.8137 124.382 29.5096 128.829 29.5096H543.7C548.221 29.5096 551.898 32.8682 551.898 36.9961V266.712C551.898 272.188 547.016 276.643 541.015 276.643Z" fill="white"/>
<path d="M568.191 16.6649H106.322V11.0541C106.327 8.12246 107.524 5.31224 109.652 3.23992C111.78 1.1676 114.665 0.002422 117.673 0H556.84C559.848 0.00240788 562.733 1.16758 564.861 3.2399C566.989 5.31222 568.186 8.12245 568.191 11.0541V16.6649Z" fill="#CCCCCC"/>
<path d="M126.951 11.2101C128.572 11.2101 129.887 9.92914 129.887 8.34905C129.887 6.76896 128.572 5.48804 126.951 5.48804C125.329 5.48804 124.015 6.76896 124.015 8.34905C124.015 9.92914 125.329 11.2101 126.951 11.2101Z" fill="white"/>
<path d="M138.095 11.2101C139.716 11.2101 141.031 9.92914 141.031 8.34905C141.031 6.76896 139.716 5.48804 138.095 5.48804C136.473 5.48804 135.159 6.76896 135.159 8.34905C135.159 9.92914 136.473 11.2101 138.095 11.2101Z" fill="white"/>
<path d="M149.239 11.2101C150.861 11.2101 152.175 9.92914 152.175 8.34905C152.175 6.76896 150.861 5.48804 149.239 5.48804C147.618 5.48804 146.303 6.76896 146.303 8.34905C146.303 9.92914 147.618 11.2101 149.239 11.2101Z" fill="white"/>
<path d="M495.956 238.095H178.714C175.534 238.092 172.485 236.859 170.236 234.668C167.988 232.477 166.723 229.506 166.719 226.407V77.3561C166.722 75.0384 167.668 72.8164 169.35 71.1775C171.031 69.5386 173.312 68.6167 175.69 68.614H498.837C501.253 68.6167 503.57 69.5533 505.279 71.2184C506.987 72.8834 507.949 75.141 507.951 77.4957V226.407C507.948 229.506 506.683 232.477 504.434 234.668C502.185 236.859 499.136 238.092 495.956 238.095ZM175.69 69.9499C173.675 69.9521 171.743 70.7331 170.319 72.1216C168.894 73.5101 168.092 75.3926 168.09 77.3561V226.407C168.093 229.151 169.214 231.783 171.205 233.724C173.197 235.665 175.897 236.756 178.714 236.759H495.956C498.773 236.756 501.473 235.665 503.465 233.724C505.457 231.783 506.577 229.151 506.58 226.407V77.4957C506.578 75.4951 505.762 73.5771 504.31 72.1625C502.858 70.7479 500.89 69.9521 498.837 69.9499H175.69Z" fill="#CCCCCC"/>
<path d="M189.681 226.407H484.99C487.898 226.407 490.688 225.281 492.744 223.277C494.801 221.272 495.956 218.554 495.956 215.72V91.1195C495.956 88.2851 494.801 85.5669 492.744 83.5627C490.688 81.5586 487.898 80.4326 484.99 80.4326H189.681C186.773 80.4326 183.983 81.5586 181.926 83.5627C179.87 85.5669 178.714 88.2851 178.714 91.1195V215.72C178.714 218.554 179.87 221.272 181.926 223.277C183.983 225.281 186.773 226.407 189.681 226.407Z" fill="#F2F2F2"/>
<path d="M223.212 116.684C226.619 116.684 229.381 113.992 229.381 110.672C229.381 107.352 226.619 104.661 223.212 104.661C219.805 104.661 217.043 107.352 217.043 110.672C217.043 113.992 219.805 116.684 223.212 116.684Z" fill="#CCCCCC"/>
<path d="M223.212 139.393C226.619 139.393 229.381 136.702 229.381 133.382C229.381 130.062 226.619 127.37 223.212 127.37C219.805 127.37 217.043 130.062 217.043 133.382C217.043 136.702 219.805 139.393 223.212 139.393Z" fill="#CCCCCC"/>
<path d="M223.212 162.103C226.619 162.103 229.381 159.411 229.381 156.091C229.381 152.771 226.619 150.08 223.212 150.08C219.805 150.08 217.043 152.771 217.043 156.091C217.043 159.411 219.805 162.103 223.212 162.103Z" fill="#CCCCCC"/>
<path d="M223.212 184.812C226.619 184.812 229.381 182.121 229.381 178.801C229.381 175.481 226.619 172.79 223.212 172.79C219.805 172.79 217.043 175.481 217.043 178.801C217.043 182.121 219.805 184.812 223.212 184.812Z" fill="#CCCCCC"/>
<path d="M456.942 111.34H254.056C253.874 111.34 253.7 111.27 253.571 111.145C253.443 111.019 253.371 110.849 253.371 110.672C253.371 110.495 253.443 110.325 253.571 110.2C253.7 110.075 253.874 110.004 254.056 110.004H456.942C457.124 110.004 457.299 110.075 457.427 110.2C457.556 110.325 457.628 110.495 457.628 110.672C457.628 110.849 457.556 111.019 457.427 111.145C457.299 111.27 457.124 111.34 456.942 111.34Z" fill="#CCCCCC"/>
<path d="M456.942 134.05H254.056C253.874 134.05 253.7 133.979 253.571 133.854C253.443 133.729 253.371 133.559 253.371 133.382C253.371 133.205 253.443 133.035 253.571 132.91C253.7 132.784 253.874 132.714 254.056 132.714H456.942C457.124 132.714 457.299 132.784 457.427 132.91C457.556 133.035 457.628 133.205 457.628 133.382C457.628 133.559 457.556 133.729 457.427 133.854C457.299 133.979 457.124 134.05 456.942 134.05Z" fill="#CCCCCC"/>
<path d="M456.942 156.759H254.056C253.874 156.759 253.7 156.689 253.571 156.564C253.443 156.438 253.371 156.268 253.371 156.091C253.371 155.914 253.443 155.744 253.571 155.619C253.7 155.494 253.874 155.423 254.056 155.423H456.942C457.124 155.423 457.299 155.494 457.427 155.619C457.556 155.744 457.628 155.914 457.628 156.091C457.628 156.268 457.556 156.438 457.427 156.564C457.299 156.689 457.124 156.759 456.942 156.759Z" fill="#CCCCCC"/>
<path d="M456.942 179.469H254.056C253.874 179.469 253.7 179.398 253.571 179.273C253.443 179.148 253.371 178.978 253.371 178.801C253.371 178.624 253.443 178.454 253.571 178.329C253.7 178.203 253.874 178.133 254.056 178.133H456.942C457.124 178.133 457.299 178.203 457.427 178.329C457.556 178.454 457.628 178.624 457.628 178.801C457.628 178.978 457.556 179.148 457.427 179.273C457.299 179.398 457.124 179.469 456.942 179.469Z" fill="#CCCCCC"/>
<path d="M292.44 202.178H272.562C271.654 202.177 270.783 201.825 270.14 201.199C269.498 200.573 269.136 199.724 269.135 198.839V180.805C269.136 179.919 269.498 179.07 270.14 178.444C270.783 177.818 271.654 177.466 272.562 177.465H292.44C293.348 177.466 294.219 177.818 294.862 178.444C295.504 179.07 295.866 179.919 295.867 180.805V198.839C295.866 199.724 295.504 200.573 294.862 201.199C294.219 201.825 293.348 202.177 292.44 202.178Z" fill="#3284B8"/>
<path d="M336.993 202.178H317.115C316.207 202.177 315.335 201.825 314.693 201.199C314.05 200.573 313.689 199.724 313.688 198.839V158.095C313.689 157.21 314.05 156.361 314.693 155.735C315.335 155.109 316.207 154.757 317.115 154.755H336.993C337.901 154.757 338.772 155.109 339.415 155.735C340.057 156.361 340.419 157.21 340.42 158.095V198.839C340.419 199.724 340.057 200.573 339.415 201.199C338.772 201.825 337.901 202.177 336.993 202.178Z" fill="#3284B8"/>
<path d="M382.231 202.178H362.353C361.445 202.177 360.574 201.825 359.931 201.199C359.289 200.573 358.927 199.724 358.926 198.839V135.386C358.927 134.5 359.289 133.651 359.931 133.025C360.574 132.399 361.445 132.047 362.353 132.046H382.231C383.139 132.047 384.01 132.399 384.653 133.025C385.295 133.651 385.657 134.5 385.658 135.386V198.839C385.657 199.724 385.295 200.573 384.653 201.199C384.01 201.825 383.139 202.177 382.231 202.178Z" fill="#3284B8"/>
<path d="M428.84 202.178H408.963C408.054 202.177 407.183 201.825 406.541 201.199C405.898 200.573 405.537 199.724 405.536 198.839V113.344C405.537 112.459 405.898 111.61 406.541 110.984C407.183 110.358 408.054 110.005 408.963 110.004H428.84C429.749 110.005 430.62 110.358 431.262 110.984C431.905 111.61 432.266 112.459 432.267 113.344V198.839C432.266 199.724 431.905 200.573 431.262 201.199C430.62 201.825 429.749 202.177 428.84 202.178Z" fill="#3284B8"/>
<path d="M456.942 202.178H254.056C253.874 202.178 253.7 202.108 253.571 201.983C253.443 201.857 253.371 201.687 253.371 201.51C253.371 201.333 253.443 201.163 253.571 201.038C253.7 200.913 253.874 200.842 254.056 200.842H456.942C457.124 200.842 457.299 200.913 457.427 201.038C457.556 201.163 457.628 201.333 457.628 201.51C457.628 201.687 457.556 201.857 457.427 201.983C457.299 202.108 457.124 202.178 456.942 202.178Z" fill="#3F3D56"/>
<path d="M546.081 326.778C546.636 325.959 547.369 325.269 548.228 324.755C549.087 324.242 550.051 323.918 551.052 323.807C552.054 323.696 553.068 323.801 554.023 324.113C554.978 324.425 555.852 324.937 556.582 325.614L578.348 314.668L576.994 327L556.533 335.505C555.285 336.624 553.658 337.259 551.962 337.289C550.266 337.319 548.618 336.741 547.329 335.665C546.041 334.59 545.202 333.091 544.972 331.453C544.742 329.815 545.137 328.152 546.081 326.778Z" fill="#FFB8B8"/>
<path d="M564.809 331.378C564.315 331 563.95 330.485 563.764 329.901L562.033 324.451C561.847 323.861 561.852 323.229 562.046 322.641C562.241 322.053 562.616 321.537 563.121 321.164L580.762 308.179L599.868 273.639C600.669 272.635 601.664 271.794 602.798 271.164C603.932 270.535 605.182 270.129 606.476 269.97C607.771 269.812 609.085 269.903 610.344 270.239C611.602 270.575 612.78 271.15 613.811 271.929C614.842 272.709 615.705 273.679 616.351 274.784C616.997 275.889 617.413 277.107 617.576 278.369C617.738 279.63 617.645 280.911 617.3 282.137C616.955 283.364 616.365 284.512 615.565 285.516L604.695 307.872C601.397 314.657 595.682 320.045 588.613 323.031L567.938 331.77C567.541 331.938 567.111 332.022 566.678 332.017C566.245 332.013 565.817 331.92 565.424 331.743C565.205 331.646 564.998 331.523 564.809 331.378Z" fill="#3F3D56"/>
<path d="M616.045 259.224C625.342 259.224 632.88 251.879 632.88 242.819C632.88 233.759 625.342 226.414 616.045 226.414C606.747 226.414 599.21 233.759 599.21 242.819C599.21 251.879 606.747 259.224 616.045 259.224Z" fill="#FFB8B8"/>
<path d="M609.216 458.022L600.813 458.022L596.816 426.437L609.219 426.437L609.216 458.022Z" fill="#FFB8B8"/>
<path d="M594.81 455.682H611.016V465.625H584.606C584.606 464.319 584.87 463.026 585.383 461.82C585.896 460.613 586.648 459.517 587.595 458.594C588.543 457.671 589.667 456.938 590.905 456.439C592.143 455.939 593.47 455.682 594.81 455.682Z" fill="#2F2E41"/>
<path d="M636.633 458.024L628.23 458.023L624.233 426.437L636.636 426.439L636.633 458.024Z" fill="#FFB8B8"/>
<path d="M622.228 455.683H638.434V465.626H612.024C612.024 464.32 612.288 463.027 612.801 461.821C613.313 460.615 614.065 459.519 615.013 458.595C615.96 457.672 617.085 456.939 618.323 456.44C619.561 455.94 620.888 455.683 622.228 455.683Z" fill="#2F2E41"/>
<path d="M637.247 450.009L627.399 450.008C626.721 450.007 626.063 449.789 625.524 449.387C624.986 448.985 624.599 448.422 624.422 447.785L610.247 396.554C610.225 396.474 610.173 396.405 610.102 396.36C610.031 396.315 609.945 396.298 609.861 396.311C609.777 396.325 609.702 396.368 609.649 396.432C609.596 396.497 609.569 396.578 609.574 396.661L612.437 445.247C612.463 445.677 612.393 446.107 612.233 446.508C612.073 446.909 611.827 447.272 611.511 447.572C611.195 447.873 610.816 448.103 610.4 448.249C609.985 448.394 609.542 448.451 609.102 448.415L598.034 447.515C597.324 447.456 596.658 447.16 596.147 446.678C595.635 446.196 595.31 445.556 595.226 444.868L585.143 342.845L589.044 345.126L625.597 339.079L640.305 446.606C640.363 447.031 640.327 447.462 640.2 447.872C640.073 448.282 639.857 448.661 639.568 448.983C639.278 449.305 638.921 449.563 638.521 449.74C638.121 449.917 637.687 450.009 637.247 450.009H637.247Z" fill="#2F2E41"/>
<path d="M597.368 353.614C593.335 353.582 589.385 352.499 585.927 350.476C585.394 350.168 584.97 349.711 584.708 349.164C584.447 348.617 584.361 348.006 584.463 347.411C585.748 339.739 592.471 300.383 598.588 278.928C601.08 270.19 606.588 265.484 614.961 264.94C627.208 264.157 638.094 273.494 639.228 285.779C641.227 307.452 633.104 338.245 629.519 350.478C629.38 350.951 629.124 351.383 628.774 351.736C628.424 352.09 627.99 352.354 627.51 352.507C627.031 352.659 626.52 352.694 626.023 352.609C625.527 352.524 625.059 352.321 624.661 352.019L617.354 346.479C616.904 346.144 616.348 345.974 615.783 345.997C615.217 346.02 614.678 346.235 614.258 346.605C608.099 351.959 602.248 353.614 597.368 353.614Z" fill="#3F3D56"/>
<path opacity="0.2" d="M621.536 296.385L627.704 321.766L618.792 343.139L624.963 322.434L621.536 296.385Z" fill="black"/>
<path d="M625.651 256.309C627.149 256.337 628.637 256.074 630.03 255.538C630.642 255.307 631.279 255.118 631.89 254.888C637.293 252.854 640.852 247.248 640.979 241.606C641.107 235.963 638.109 230.487 633.657 226.878C629.204 223.269 623.437 221.415 617.662 220.987C611.442 220.525 604.438 222.062 600.962 227.11C600.036 228.453 599.389 230.084 599.937 231.706C600.101 232.196 600.395 232.635 600.788 232.979C602.34 234.325 603.887 233.313 605.47 233.224C607.645 233.101 609.598 234.817 610.3 236.826C611.002 238.836 610.693 241.049 610.126 243.099C609.694 244.332 609.422 245.613 609.316 246.913C609.27 247.564 609.396 248.216 609.681 248.807C609.966 249.398 610.401 249.908 610.946 250.289C612.305 251.089 614.09 250.626 615.45 249.827C616.81 249.028 617.985 247.917 619.454 247.328C620.923 246.74 622.896 246.871 623.751 248.175C624.023 248.65 624.207 249.167 624.294 249.704C625.061 253.107 624.885 252.906 625.651 256.309Z" fill="#2F2E41"/>
<path d="M599.557 435.109L494.142 399.334C492.333 398.718 490.849 397.428 490.015 395.747C489.181 394.066 489.065 392.131 489.693 390.367L517.087 313.716C517.55 312.425 518.52 311.366 519.784 310.77C521.048 310.175 522.502 310.092 523.829 310.541L632.808 347.525C634.156 347.984 635.262 348.945 635.884 350.198C636.505 351.451 636.591 352.893 636.123 354.208L608.76 430.774C608.128 432.537 606.804 433.983 605.079 434.796C603.353 435.608 601.368 435.721 599.557 435.109Z" fill="#E6E6E6"/>
<path d="M503.138 394.929L595.316 426.212C597.072 426.807 598.998 426.699 600.672 425.911C602.345 425.123 603.629 423.719 604.24 422.008L626.36 360.114C626.971 358.403 626.86 356.526 626.051 354.895C625.242 353.265 623.802 352.014 622.046 351.418L529.868 320.136C528.112 319.54 526.186 319.648 524.512 320.436C522.839 321.225 521.555 322.628 520.944 324.339L498.824 386.234C498.521 387.081 498.393 387.977 498.446 388.873C498.499 389.768 498.732 390.645 499.133 391.452C499.533 392.259 500.093 392.982 500.78 393.579C501.467 394.175 502.268 394.634 503.138 394.929Z" fill="white"/>
<path d="M526.285 351.443L521.719 349.893C521.472 349.809 521.269 349.633 521.155 349.403C521.041 349.173 521.025 348.908 521.111 348.667L522.701 344.218C522.787 343.977 522.968 343.779 523.204 343.668C523.44 343.557 523.712 343.541 523.96 343.625L528.525 345.174C528.772 345.259 528.975 345.435 529.089 345.665C529.203 345.895 529.219 346.16 529.133 346.401L527.544 350.85C527.457 351.091 527.276 351.289 527.04 351.4C526.804 351.511 526.532 351.526 526.285 351.443Z" fill="#6C63FF"/>
<path d="M522.165 362.969L517.6 361.419C517.353 361.335 517.15 361.158 517.036 360.928C516.922 360.698 516.906 360.434 516.992 360.192L518.582 355.744C518.668 355.503 518.849 355.305 519.085 355.194C519.321 355.083 519.593 355.067 519.841 355.151L524.406 356.7C524.653 356.784 524.856 356.961 524.97 357.191C525.084 357.421 525.1 357.686 525.014 357.927L523.424 362.375C523.338 362.617 523.157 362.815 522.921 362.926C522.685 363.037 522.413 363.052 522.165 362.969Z" fill="#3F3D56"/>
<path d="M518.046 374.494L513.481 372.945C513.234 372.861 513.031 372.684 512.917 372.454C512.802 372.224 512.787 371.96 512.873 371.718L514.462 367.27C514.549 367.029 514.73 366.831 514.966 366.72C515.202 366.608 515.474 366.593 515.721 366.677L520.287 368.226C520.534 368.31 520.737 368.487 520.851 368.717C520.965 368.947 520.981 369.211 520.895 369.453L519.305 373.901C519.219 374.143 519.038 374.34 518.802 374.452C518.566 374.563 518.294 374.578 518.046 374.494Z" fill="#CCCCCC"/>
<path d="M556.961 359.359L534.965 351.894C534.842 351.853 534.729 351.788 534.631 351.704C534.534 351.62 534.455 351.518 534.398 351.404C534.341 351.29 534.308 351.166 534.301 351.04C534.293 350.913 534.311 350.786 534.354 350.667C534.397 350.547 534.463 350.437 534.55 350.342C534.636 350.248 534.741 350.171 534.858 350.116C534.976 350.061 535.103 350.029 535.233 350.022C535.363 350.014 535.493 350.032 535.615 350.074L557.611 357.539C557.734 357.58 557.847 357.645 557.945 357.729C558.042 357.813 558.121 357.915 558.178 358.029C558.235 358.143 558.268 358.267 558.275 358.394C558.283 358.52 558.265 358.647 558.222 358.767C558.179 358.886 558.113 358.997 558.026 359.091C557.939 359.186 557.835 359.263 557.717 359.318C557.6 359.373 557.473 359.405 557.343 359.412C557.213 359.419 557.083 359.401 556.961 359.359Z" fill="#CCCCCC"/>
<path d="M552.841 370.885L530.846 363.42C530.598 363.336 530.395 363.16 530.281 362.93C530.167 362.7 530.151 362.435 530.237 362.193C530.323 361.952 530.504 361.754 530.741 361.643C530.977 361.532 531.248 361.516 531.496 361.6L553.492 369.065C553.615 369.106 553.728 369.171 553.825 369.255C553.922 369.339 554.002 369.441 554.058 369.555C554.115 369.669 554.148 369.793 554.156 369.92C554.163 370.046 554.145 370.173 554.102 370.292C554.06 370.412 553.993 370.522 553.906 370.617C553.82 370.712 553.715 370.788 553.598 370.844C553.481 370.899 553.354 370.931 553.224 370.938C553.094 370.945 552.964 370.927 552.841 370.885Z" fill="#CCCCCC"/>
<path d="M548.722 382.411L526.727 374.946C526.479 374.862 526.276 374.686 526.162 374.456C526.047 374.225 526.032 373.961 526.118 373.719C526.204 373.478 526.385 373.28 526.621 373.169C526.858 373.057 527.129 373.042 527.377 373.126L549.373 380.591C549.62 380.675 549.823 380.851 549.938 381.081C550.052 381.311 550.067 381.576 549.981 381.818C549.895 382.059 549.714 382.257 549.478 382.368C549.242 382.479 548.97 382.495 548.722 382.411Z" fill="#CCCCCC"/>
<path d="M607.257 388.655C607.417 388.281 607.568 387.9 607.707 387.512C609.515 382.453 609.186 376.902 606.794 372.079C604.402 367.257 600.141 363.557 594.95 361.796L587.72 382.025L607.257 388.655Z" fill="#3284B8"/>
<path d="M585.618 383.256L592.847 363.027C589.027 361.73 584.9 361.551 580.976 362.512C577.053 363.474 573.504 365.533 570.766 368.436C568.029 371.34 566.224 374.96 565.574 378.851C564.923 382.743 565.455 386.734 567.104 390.334C568.754 393.934 571.449 396.985 574.856 399.111C578.264 401.236 582.235 402.343 586.28 402.296C590.326 402.248 594.269 401.048 597.623 398.842C600.976 396.637 603.595 393.524 605.154 389.886L585.618 383.256Z" fill="#3F3D56"/>
<path d="M611.5 354.237C611.418 353.258 611.558 352.274 611.909 351.354C612.259 350.433 612.813 349.599 613.531 348.909C614.248 348.22 615.112 347.692 616.061 347.363C617.011 347.034 618.023 346.912 619.026 347.006L629.22 325.303L635.966 335.821L625.251 354.818C624.978 356.45 624.1 357.927 622.784 358.971C621.468 360.014 619.805 360.551 618.111 360.479C616.416 360.407 614.807 359.732 613.588 358.582C612.37 357.431 611.627 355.885 611.5 354.237Z" fill="#FFB8B8"/>
<path d="M629.15 346.594C628.522 346.594 627.909 346.408 627.392 346.06L622.579 342.812C622.058 342.46 621.662 341.96 621.443 341.38C621.223 340.801 621.192 340.169 621.353 339.572L627.011 318.746L620.172 280.077C620.164 278.805 620.413 277.543 620.906 276.365C621.399 275.187 622.125 274.114 623.044 273.21C623.962 272.305 625.054 271.586 626.258 271.093C627.462 270.6 628.754 270.343 630.06 270.337C631.365 270.33 632.66 270.575 633.868 271.057C635.077 271.538 636.177 272.247 637.104 273.143C638.031 274.039 638.768 275.105 639.273 276.278C639.777 277.452 640.039 278.711 640.044 279.984L645.649 304.112C647.351 311.434 646.265 319.11 642.594 325.711L631.86 345.02C631.654 345.391 631.369 345.716 631.025 345.973C630.682 346.23 630.286 346.413 629.865 346.512C629.631 346.567 629.391 346.594 629.15 346.594Z" fill="#3F3D56"/>
<path d="M681.315 466H551.083C550.902 466 550.727 465.93 550.599 465.804C550.47 465.679 550.398 465.509 550.398 465.332C550.398 465.155 550.47 464.985 550.599 464.86C550.727 464.735 550.902 464.664 551.083 464.664H681.315C681.496 464.664 681.671 464.735 681.799 464.86C681.928 464.985 682 465.155 682 465.332C682 465.509 681.928 465.679 681.799 465.804C681.671 465.93 681.496 466 681.315 466Z" fill="#CCCCCC"/>
<path d="M336.23 457.69L344.633 457.689L348.631 426.105H336.229L336.23 457.69Z" fill="#A0616A"/>
<path d="M334.087 455.016L350.636 455.016H350.636C352.021 455.016 353.393 455.281 354.672 455.798C355.952 456.314 357.114 457.071 358.094 458.026C359.073 458.98 359.85 460.113 360.38 461.36C360.91 462.607 361.183 463.943 361.183 465.293V465.626L334.087 465.627L334.087 455.016Z" fill="#2F2E41"/>
<path d="M302.644 457.69L311.048 457.689L315.045 426.105H302.643L302.644 457.69Z" fill="#A0616A"/>
<path d="M300.501 455.016L317.05 455.016H317.05C318.435 455.016 319.807 455.281 321.086 455.798C322.366 456.314 323.529 457.071 324.508 458.026C325.487 458.98 326.264 460.113 326.794 461.36C327.324 462.607 327.597 463.943 327.597 465.293V465.626L300.501 465.627L300.501 455.016Z" fill="#2F2E41"/>
<path d="M337.908 239.023C347.205 239.023 354.742 231.678 354.742 222.618C354.742 213.558 347.205 206.213 337.908 206.213C328.61 206.213 321.073 213.558 321.073 222.618C321.073 231.678 328.61 239.023 337.908 239.023Z" fill="#A0616A"/>
<path d="M349.228 450.873H333.634C333.226 450.873 332.822 450.794 332.445 450.64C332.069 450.487 331.727 450.262 331.44 449.979C331.153 449.696 330.927 449.361 330.774 448.992C330.621 448.623 330.545 448.228 330.55 447.831L331.456 375.674C331.459 375.417 331.362 375.169 331.183 374.981C331.005 374.793 330.759 374.678 330.497 374.661C330.234 374.644 329.975 374.726 329.773 374.889C329.57 375.052 329.439 375.285 329.407 375.54L320.332 448.23C320.24 448.959 319.878 449.63 319.314 450.116C318.75 450.603 318.023 450.872 317.27 450.873H301.526C301.101 450.873 300.68 450.787 300.291 450.621C299.901 450.455 299.551 450.212 299.262 449.908C298.973 449.604 298.752 449.245 298.612 448.853C298.473 448.462 298.418 448.046 298.451 447.633L308.847 318.005L309.13 317.975L358.912 312.736L352.309 448.01C352.272 448.782 351.932 449.51 351.358 450.043C350.784 450.577 350.021 450.874 349.228 450.873Z" fill="#2F2E41"/>
<path d="M309.454 325.963C308.654 325.961 307.886 325.656 307.313 325.113C306.739 324.57 306.405 323.83 306.38 323.051C306.108 314.855 305.643 286.494 311.056 265.673C312.534 259.985 315.85 254.911 320.515 251.202C325.18 247.493 330.946 245.344 336.96 245.075C342.88 244.76 348.752 246.269 353.742 249.389C358.732 252.509 362.587 257.081 364.76 262.457C373.86 284.968 382.457 312.716 371.739 317.067C357.691 322.771 320.658 325.314 309.643 325.957C309.579 325.961 309.516 325.963 309.454 325.963Z" fill="#3F3D56"/>
<path d="M373.796 206.037C374.06 206.302 374.346 206.546 374.65 206.768L372.882 239.847L365.532 243.515L369.761 255.048L383.422 249.788C384.525 249.364 385.458 248.601 386.079 247.616C386.7 246.631 386.976 245.476 386.867 244.324L383.288 206.801C384.459 205.949 385.336 204.771 385.803 203.421C386.27 202.072 386.304 200.617 385.901 199.248C385.499 197.879 384.678 196.663 383.548 195.76C382.418 194.857 381.033 194.311 379.577 194.194C378.121 194.076 376.663 194.394 375.396 195.104C374.13 195.815 373.115 196.884 372.488 198.169C371.86 199.455 371.649 200.897 371.883 202.302C372.116 203.708 372.784 205.01 373.796 206.037Z" fill="#A0616A"/>
<path d="M373.022 241.079L378.193 255.398C378.34 255.806 378.395 256.239 378.355 256.669C378.315 257.1 378.18 257.516 377.959 257.891C377.739 258.266 377.438 258.59 377.077 258.841C376.717 259.092 376.305 259.265 375.87 259.347L360.622 262.224C358.479 262.946 356.129 262.81 354.088 261.846C352.047 260.883 350.482 259.169 349.735 257.083C348.989 254.996 349.122 252.705 350.106 250.714C351.089 248.723 352.843 247.193 354.983 246.46L368.673 239.418C369.065 239.216 369.497 239.1 369.94 239.075C370.382 239.051 370.825 239.12 371.238 239.278C371.65 239.436 372.023 239.678 372.331 239.989C372.639 240.3 372.875 240.671 373.022 241.079V241.079Z" fill="#3F3D56"/>
<path d="M300.875 206.037C300.611 206.302 300.325 206.546 300.021 206.768L301.788 239.847L309.139 243.515L304.909 255.048L291.249 249.788C290.146 249.364 289.213 248.601 288.592 247.616C287.971 246.631 287.694 245.476 287.804 244.324L291.383 206.801C290.212 205.949 289.335 204.771 288.868 203.421C288.401 202.072 288.367 200.617 288.77 199.248C289.172 197.879 289.993 196.663 291.123 195.76C292.253 194.857 293.638 194.311 295.094 194.194C296.55 194.076 298.008 194.394 299.275 195.104C300.541 195.815 301.555 196.884 302.183 198.169C302.811 199.455 303.022 200.897 302.788 202.302C302.554 203.708 301.887 205.01 300.875 206.037H300.875Z" fill="#A0616A"/>
<path d="M303.433 239.278C303.846 239.12 304.289 239.051 304.731 239.075C305.174 239.099 305.606 239.216 305.998 239.418L319.688 246.46C321.828 247.193 323.582 248.723 324.565 250.714C325.549 252.705 325.682 254.996 324.936 257.083C324.189 259.169 322.624 260.883 320.583 261.846C318.542 262.81 316.192 262.946 314.049 262.224L298.801 259.347C298.366 259.265 297.954 259.092 297.593 258.841C297.233 258.59 296.932 258.266 296.712 257.891C296.491 257.516 296.356 257.1 296.316 256.67C296.276 256.239 296.331 255.806 296.478 255.398L301.649 241.079C301.796 240.671 302.032 240.299 302.339 239.989C302.647 239.678 303.02 239.435 303.433 239.278Z" fill="#3F3D56"/>
<path d="M344.446 225.414C344.358 223.322 344.897 221.249 345.997 219.45C347.097 217.651 348.712 216.203 350.643 215.284C355.76 212.709 358.975 207.218 357.566 202.204C355.763 195.786 346.799 191.624 339.536 193.832C337.57 194.512 335.674 195.37 333.874 196.396L329.128 198.875C327.101 199.864 325.147 200.988 323.279 202.24C320.481 204.249 318.288 206.953 316.929 210.07C315.57 213.187 315.095 216.603 315.554 219.96C316.488 226.485 320.873 232.469 326.876 236.565C329.171 238.237 331.822 239.385 334.634 239.926C337.511 240.388 340.714 239.863 342.817 238.119C346.105 235.394 345.765 230.832 344.702 227.021C344.561 226.495 344.476 225.957 344.446 225.414Z" fill="#2F2E41"/>
<path d="M401.66 466H271.429C271.247 466 271.073 465.93 270.944 465.804C270.816 465.679 270.744 465.509 270.744 465.332C270.744 465.155 270.816 464.985 270.944 464.86C271.073 464.735 271.247 464.664 271.429 464.664H401.66C401.842 464.664 402.016 464.735 402.145 464.86C402.273 464.985 402.346 465.155 402.346 465.332C402.346 465.509 402.273 465.679 402.145 465.804C402.016 465.93 401.842 466 401.66 466Z" fill="#CCCCCC"/>
<path d="M189.116 344.152L81.6564 387.111C79.8109 387.846 77.7414 387.838 75.902 387.089C74.0625 386.339 72.6033 384.909 71.8444 383.112L38.9495 304.976C38.3966 303.659 38.4025 302.181 38.9661 300.868C39.5296 299.555 40.6047 298.513 41.9555 297.971L153.048 253.56C154.423 253.012 155.965 253.018 157.336 253.576C158.707 254.135 159.795 255.201 160.36 256.54L193.219 334.59C193.974 336.389 193.966 338.405 193.196 340.198C192.427 341.99 190.96 343.412 189.116 344.152Z" fill="#E6E6E6"/>
<path d="M85.5491 377.634L179.515 340.069C181.304 339.354 182.729 337.975 183.475 336.236C184.221 334.497 184.228 332.541 183.494 330.797L156.931 267.703C156.568 266.839 156.033 266.054 155.358 265.392C154.684 264.73 153.882 264.204 152.998 263.844C152.114 263.484 151.167 263.297 150.209 263.294C149.252 263.291 148.303 263.471 147.417 263.825L53.4509 301.39C52.5649 301.745 51.7592 302.265 51.0797 302.923C50.4002 303.581 49.8604 304.362 49.4909 305.223C49.1214 306.084 48.9296 307.008 48.9263 307.941C48.9231 308.874 49.1085 309.799 49.472 310.662L76.0344 373.756C76.3979 374.62 76.9323 375.405 77.6072 376.067C78.2821 376.729 79.0842 377.255 79.9677 377.615C80.8512 377.975 81.7988 378.162 82.7565 378.166C83.7141 378.169 84.6631 377.988 85.5491 377.634Z" fill="white"/>
<path d="M156.412 284.91L155.031 285.462L155.125 285.686L156.507 285.134L156.412 284.91Z" fill="#E6E6E6"/>
<path d="M152.334 286.802L149.543 287.918L149.449 287.693L152.24 286.578L152.334 286.802ZM146.753 289.033L143.962 290.149L143.867 289.925L146.658 288.809L146.753 289.033ZM141.171 291.265L138.38 292.381L138.285 292.156L141.076 291.041L141.171 291.265ZM135.589 293.496L132.798 294.612L132.704 294.388L135.494 293.272L135.589 293.496ZM130.007 295.728L127.216 296.844L127.122 296.619L129.913 295.503L130.007 295.728ZM124.425 297.959L121.635 299.075L121.54 298.851L124.331 297.735L124.425 297.959ZM118.844 300.191L116.053 301.306L115.958 301.082L118.749 299.966L118.844 300.191ZM113.262 302.422L110.471 303.538L110.377 303.313L113.167 302.198L113.262 302.422ZM107.68 304.654L104.889 305.769L104.795 305.545L107.586 304.429L107.68 304.654ZM102.098 306.885L99.3074 308.001L99.2129 307.776L102.004 306.661L102.098 306.885ZM96.5165 309.116L93.7256 310.232L93.6311 310.008L96.422 308.892L96.5165 309.116ZM90.9347 311.348L88.1438 312.464L88.0494 312.239L90.8402 311.124L90.9347 311.348ZM85.3529 313.579L82.562 314.695L82.4676 314.471L85.2584 313.355L85.3529 313.579ZM79.7711 315.811L76.9802 316.927L76.8857 316.702L79.6767 315.586L79.7711 315.811ZM74.1893 318.042L71.3985 319.158L71.304 318.934L74.0949 317.818L74.1893 318.042ZM68.6075 320.274L65.8166 321.389L65.7222 321.165L68.5131 320.049L68.6075 320.274Z" fill="#E6E6E6"/>
<path d="M62.9313 322.281L61.5498 322.833L61.6443 323.057L63.0258 322.505L62.9313 322.281Z" fill="#E6E6E6"/>
<path d="M119.838 323.909L118.457 324.462L118.551 324.686L119.933 324.134L119.838 323.909Z" fill="#E6E6E6"/>
<path d="M115.801 325.785L113.052 326.884L112.957 326.66L115.707 325.561L115.801 325.785ZM110.302 327.983L107.553 329.082L107.459 328.858L110.208 327.759L110.302 327.983ZM104.804 330.182L102.054 331.281L101.96 331.056L104.709 329.957L104.804 330.182ZM99.3047 332.38L96.5553 333.479L96.4609 333.255L99.2103 332.156L99.3047 332.38ZM93.8059 334.578L91.0564 335.677L90.9619 335.453L93.7114 334.354L93.8059 334.578ZM88.307 336.777L85.5575 337.876L85.4631 337.651L88.2125 336.552L88.307 336.777ZM82.8081 338.975L80.0587 340.074L79.9642 339.85L82.7136 338.751L82.8081 338.975ZM77.3092 341.173L74.5598 342.272L74.4653 342.048L77.2148 340.949L77.3092 341.173Z" fill="#E6E6E6"/>
<path d="M71.716 343.147L70.3345 343.699L70.4289 343.924L71.8104 343.371L71.716 343.147Z" fill="#E6E6E6"/>
<path d="M97.0548 344.551L95.6733 345.103L95.7678 345.328L97.1493 344.775L97.0548 344.551Z" fill="#E6E6E6"/>
<path d="M92.939 346.459L90.1102 347.589L90.0158 347.365L92.8445 346.234L92.939 346.459ZM87.2814 348.72L84.4527 349.851L84.3582 349.627L87.187 348.496L87.2814 348.72ZM81.6239 350.982L78.7951 352.113L78.7007 351.889L81.5294 350.758L81.6239 350.982Z" fill="#E6E6E6"/>
<path d="M75.8722 353.019L74.4907 353.572L74.5852 353.796L75.9667 353.244L75.8722 353.019Z" fill="#E6E6E6"/>
<path d="M104.148 361.398L102.766 361.951L102.861 362.175L104.242 361.623L104.148 361.398Z" fill="#E6E6E6"/>
<path d="M100.032 363.306L97.203 364.437L97.1085 364.212L99.9373 363.082L100.032 363.306ZM94.3742 365.568L91.5454 366.699L91.451 366.474L94.2797 365.343L94.3742 365.568ZM88.7167 367.829L85.8879 368.96L85.7935 368.736L88.6222 367.605L88.7167 367.829Z" fill="#E6E6E6"/>
<path d="M82.9645 369.867L81.583 370.419L81.6775 370.643L83.059 370.091L82.9645 369.867Z" fill="#E6E6E6"/>
<path d="M89.5391 367.702L169.169 335.868C171.096 335.095 172.63 333.609 173.434 331.735C174.238 329.862 174.246 327.754 173.457 325.874L157.369 287.658L157.213 287.726L137.672 333.256L123.179 327.352C122.912 327.242 122.622 327.194 122.332 327.212C122.042 327.229 121.761 327.312 121.51 327.453C121.132 327.675 120.84 328.011 120.679 328.41L110.438 352.27L99.8411 347.953C99.6124 347.86 99.3671 347.812 99.1193 347.811C98.8714 347.81 98.6258 347.857 98.3965 347.948C98.1671 348.04 97.9586 348.175 97.7828 348.345C97.6069 348.515 97.4672 348.718 97.3717 348.941C97.3039 349.103 90.7701 364.724 89.5391 367.702Z" fill="#3284B8"/>
<path d="M89.294 368.062L89.0645 367.968L97.2584 348.874C97.4754 348.37 97.8886 347.971 98.4075 347.763C98.9264 347.556 99.5085 347.558 100.026 347.768L110.413 352.001L120.596 328.273C120.813 327.769 121.226 327.369 121.745 327.162C122.264 326.954 122.846 326.956 123.364 327.166L137.648 332.987L157.289 287.219L157.519 287.312L137.781 333.305L123.268 327.39C123.042 327.298 122.799 327.25 122.554 327.249C122.309 327.248 122.066 327.295 121.839 327.385C121.613 327.476 121.406 327.609 121.233 327.778C121.059 327.946 120.92 328.146 120.826 328.366L110.547 352.318L99.9301 347.992C99.4734 347.806 98.9598 347.805 98.502 347.988C98.0441 348.171 97.6795 348.523 97.488 348.968L89.294 368.062Z" fill="#3F3D56"/>
<path d="M97.102 346.361C98.0641 346.361 98.844 345.601 98.844 344.663C98.844 343.726 98.0641 342.966 97.102 342.966C96.1398 342.966 95.3599 343.726 95.3599 344.663C95.3599 345.601 96.1398 346.361 97.102 346.361Z" fill="#3F3D56"/>
<path d="M119.885 325.719C120.847 325.719 121.627 324.959 121.627 324.021C121.627 323.084 120.847 322.324 119.885 322.324C118.923 322.324 118.143 323.084 118.143 324.021C118.143 324.959 118.923 325.719 119.885 325.719Z" fill="#3F3D56"/>
<path d="M155.36 286.659C156.322 286.659 157.102 285.899 157.102 284.962C157.102 284.024 156.322 283.264 155.36 283.264C154.398 283.264 153.618 284.024 153.618 284.962C153.618 285.899 154.398 286.659 155.36 286.659Z" fill="#3F3D56"/>
<path d="M57.8509 342.737C58.7565 342.298 59.5523 341.67 60.1822 340.899C60.8121 340.128 61.2609 339.231 61.4968 338.273C61.7327 337.314 61.75 336.317 61.5476 335.351C61.3452 334.385 60.9279 333.475 60.3252 332.683L65.4992 283.387H54.3177L50.2057 331.522C48.9081 332.597 48.0601 334.098 47.8225 335.741C47.5848 337.385 47.9741 339.056 48.9165 340.438C49.8588 341.821 51.2888 342.818 52.9355 343.242C54.5822 343.666 56.3311 343.486 57.8509 342.737Z" fill="#FFB8B8"/>
<path d="M68.1176 256.182C76.8545 256.182 83.9373 249.28 83.9373 240.766C83.9373 232.252 76.8545 225.35 68.1176 225.35C59.3806 225.35 52.2979 232.252 52.2979 240.766C52.2979 249.28 59.3806 256.182 68.1176 256.182Z" fill="#FFB8B8"/>
<path d="M71.0958 312.095C70.4625 312.095 69.8468 311.893 69.3431 311.519C68.8395 311.145 68.4756 310.62 68.3074 310.025C67.04 305.538 63.7424 297.951 58.5066 287.474C57.3252 285.105 56.671 282.52 56.5869 279.888C56.5028 277.256 56.9908 274.637 58.0187 272.201C59.0466 269.766 60.5913 267.57 62.5515 265.757C64.5116 263.944 66.8429 262.556 69.3925 261.683C71.8085 260.852 74.3711 260.501 76.9287 260.652C79.4863 260.803 81.9868 261.452 84.2825 262.561C86.5781 263.67 88.6222 265.216 90.2937 267.108C91.9653 269.001 93.2304 271.2 94.0142 273.578C98.0726 285.976 97.8766 299.257 97.604 304.391C97.5701 305.01 97.3292 305.6 96.9181 306.072C96.5069 306.544 95.9483 306.872 95.3278 307.006L71.7174 312.03C71.5132 312.074 71.3048 312.096 71.0958 312.095Z" fill="#FF6584"/>
<path d="M93.9599 458.482H101.856L105.613 428.801L93.9585 428.802L93.9599 458.482Z" fill="#FFB8B8"/>
<path d="M117.085 465.626L92.2679 465.627L92.2675 456.284L107.496 456.283C108.756 456.283 110.002 456.524 111.166 456.994C112.329 457.463 113.386 458.152 114.277 459.019C115.167 459.887 115.873 460.917 116.355 462.051C116.837 463.184 117.085 464.399 117.085 465.626Z" fill="#2F2E41"/>
<path d="M14.9985 448.51L21.9186 452.217L39.885 427.972L29.6728 422.501L14.9985 448.51Z" fill="#FFB8B8"/>
<path d="M31.731 465.627L9.98337 453.976L14.6028 445.788L27.948 452.938C30.1764 454.132 31.8269 456.139 32.5364 458.519C33.2458 460.899 32.9561 463.456 31.731 465.627Z" fill="#2F2E41"/>
<path d="M93.5906 442.008C92.8869 442.007 92.2075 441.757 91.6791 441.304C91.1507 440.852 90.8095 440.227 90.719 439.547L80.8435 365.391C80.7999 365.063 80.651 364.757 80.4181 364.516C80.1852 364.275 79.8803 364.113 79.5468 364.051C79.2133 363.989 78.8684 364.032 78.5612 364.173C78.2541 364.313 78.0005 364.545 77.8365 364.835L36.6796 437.599C36.34 438.193 35.7929 438.649 35.1377 438.883C34.4826 439.117 33.7629 439.115 33.1095 438.876L24.1385 435.545C23.7777 435.411 23.448 435.208 23.1687 434.948C22.8895 434.689 22.6663 434.377 22.5123 434.032C22.3584 433.687 22.2767 433.315 22.2722 432.939C22.2676 432.563 22.3403 432.19 22.4859 431.841L50.9963 363.592C51.0685 363.418 51.1174 363.237 51.1419 363.051C55.0035 333.926 64.8287 319.115 67.7479 315.269C67.9611 314.987 68.1014 314.658 68.157 314.312C68.2126 313.965 68.1818 313.61 68.0673 313.278L67.666 312.105C67.5057 311.639 67.4728 311.141 67.5707 310.659C67.6685 310.177 67.8936 309.729 68.2238 309.357C78.7427 297.682 97.0768 304.053 97.2608 304.119L97.3527 304.152L97.4102 304.228C117.968 331.702 110.367 420.937 108.635 438.546C108.57 439.208 108.267 439.826 107.78 440.291C107.293 440.756 106.652 441.039 105.972 441.088L93.8157 442C93.7401 442.006 93.6651 442.008 93.5906 442.008Z" fill="#2F2E41"/>
<path d="M129.619 258.673C129.54 259.012 129.488 259.356 129.465 259.703L101.796 275.257L95.0705 271.484L87.9009 280.631L99.1406 288.437C100.049 289.068 101.142 289.394 102.257 289.368C103.372 289.341 104.447 288.963 105.323 288.29L133.854 266.356C135.142 266.821 136.544 266.892 137.874 266.561C139.204 266.23 140.4 265.512 141.301 264.503C142.203 263.494 142.767 262.241 142.92 260.912C143.073 259.582 142.807 258.238 142.157 257.06C141.508 255.881 140.505 254.923 139.283 254.313C138.061 253.704 136.677 253.471 135.316 253.646C133.955 253.821 132.681 254.396 131.663 255.294C130.645 256.192 129.932 257.371 129.619 258.673Z" fill="#FFB8B8"/>
<path d="M100.871 275.994L91.9282 287.288C91.6738 287.609 91.3512 287.873 90.9826 288.062C90.614 288.251 90.2079 288.36 89.792 288.382C89.3761 288.405 88.9602 288.339 88.5726 288.191C88.185 288.042 87.8348 287.814 87.5458 287.522L77.4223 277.278C75.7426 276 74.6513 274.125 74.3879 272.064C74.1245 270.003 74.7104 267.925 76.0172 266.285C77.3239 264.644 79.2448 263.576 81.3588 263.313C83.4728 263.051 85.6072 263.616 87.2942 264.885L99.9912 271.804C100.355 272.002 100.67 272.274 100.916 272.602C101.162 272.929 101.332 273.305 101.416 273.702C101.499 274.1 101.494 274.511 101.4 274.906C101.305 275.301 101.125 275.672 100.871 275.994Z" fill="#FF6584"/>
<path d="M66.2106 295.615L51.8048 293.081C51.3949 293.009 51.0058 292.851 50.6639 292.619C50.3221 292.387 50.0355 292.087 49.8238 291.737C49.6121 291.387 49.4801 290.998 49.437 290.594C49.3938 290.19 49.4405 289.782 49.5737 289.398L54.2438 275.924C54.6342 273.882 55.8396 272.075 57.5955 270.898C59.3514 269.721 61.5146 269.271 63.6107 269.646C65.7068 270.021 67.5647 271.19 68.7771 272.898C69.9895 274.606 70.4574 276.713 70.0782 278.756L69.6226 292.925C69.6094 293.331 69.5066 293.729 69.3213 294.093C69.136 294.456 68.8725 294.776 68.5487 295.032C68.2249 295.287 67.8484 295.471 67.4449 295.572C67.0415 295.673 66.6204 295.688 66.2106 295.615H66.2106Z" fill="#FF6584"/>
<path d="M70.6212 237.22C74.6872 239.932 80.0259 242.72 84.1787 239.832C85.4777 238.868 86.4214 237.52 86.8685 235.989C87.3156 234.459 87.2421 232.829 86.6589 231.343C84.6704 225.802 79.207 223.362 73.9827 221.492C67.1911 219.061 59.796 217.127 52.7847 218.868C45.7735 220.609 39.5771 227.224 40.8428 234.166C41.8606 239.748 47.2644 244.393 46.4973 250.014C45.7252 255.67 39.1972 258.648 33.434 259.659C27.6708 260.67 21.2217 260.994 17.0799 265.028C11.7963 270.174 13.1157 279.372 18.0874 284.805C23.059 290.239 30.5615 292.701 37.8314 294.376C47.4636 296.594 57.8815 297.76 67.0297 294.078C76.1779 290.397 83.2968 280.487 80.6467 271.194C79.5274 267.269 76.8904 263.952 74.342 260.722C71.7935 257.493 69.213 254.115 68.2408 250.153C67.4307 246.851 68.0303 243.018 70.2774 240.541C70.686 240.107 70.9433 239.559 71.012 238.974C71.0808 238.389 70.9576 237.798 70.6602 237.285L70.6212 237.22Z" fill="#2F2E41"/>
<path d="M130.917 466H0.685427C0.503641 466 0.329299 465.93 0.200756 465.804C0.0722139 465.679 0 465.509 0 465.332C0 465.155 0.0722139 464.985 0.200756 464.86C0.329299 464.735 0.503641 464.664 0.685427 464.664H130.917C131.098 464.664 131.273 464.735 131.401 464.86C131.53 464.985 131.602 465.155 131.602 465.332C131.602 465.509 131.53 465.679 131.401 465.804C131.273 465.93 131.098 466 130.917 466Z" fill="#CCCCCC"/>
</g>
<defs>
<clipPath id="clip0">
<rect width="682" height="466" fill="white"/>
</clipPath>
</defs>
</svg>
