<svg width="510" height="373" viewBox="0 0 510 373" fill="none" xmlns="http://www.w3.org/2000/svg">
<g clip-path="url(#clip0)">
<path d="M220.285 348.834C316.632 348.834 394.737 270.745 394.737 174.417C394.737 78.0892 316.632 0 220.285 0C123.939 0 45.834 78.0892 45.834 174.417C45.834 270.745 123.939 348.834 220.285 348.834Z" fill="#F2F2F2"/>
<path d="M69.2193 373C107.448 373 138.439 368.042 138.439 361.927C138.439 355.812 107.448 350.854 69.2193 350.854C30.9905 350.854 0 355.812 0 361.927C0 368.042 30.9905 373 69.2193 373Z" fill="#F2F2F2"/>
<path d="M406.898 361.744C466.049 361.744 514.001 354.073 514.001 344.611C514.001 335.149 466.049 327.478 406.898 327.478C347.746 327.478 299.795 335.149 299.795 344.611C299.795 354.073 347.746 361.744 406.898 361.744Z" fill="#F2F2F2"/>
<path d="M383.101 179.928C383.101 179.928 384.013 182.967 378.846 185.702C373.679 188.437 372.159 198.769 378.238 201.808C384.317 204.846 386.14 208.797 383.101 211.532C380.061 214.267 374.59 221.56 381.885 223.383C389.18 225.207 390.092 228.853 387.964 230.373C385.836 231.892 392.827 227.638 392.827 227.638C392.827 227.638 394.043 234.931 400.426 233.108C406.809 231.285 424.742 196.641 415.623 191.779C406.505 186.917 383.101 179.928 383.101 179.928Z" fill="#2F2E41"/>
<path d="M394.118 209.271C394.118 209.271 397.271 220.304 391.753 221.092C388.329 221.625 385.085 222.977 382.295 225.032L392.542 238.429H411.459L423.282 226.608C423.282 226.608 407.518 214.787 410.671 207.695C413.823 200.602 394.118 209.271 394.118 209.271Z" fill="#FFB9B9"/>
<path opacity="0.1" d="M394.118 209.271C394.118 209.271 397.271 220.304 391.753 221.092C388.329 221.625 385.085 222.977 382.295 225.032L392.542 238.429H411.459L423.282 226.608C423.282 226.608 407.518 214.787 410.671 207.695C413.823 200.602 394.118 209.271 394.118 209.271Z" fill="black"/>
<path d="M398.848 346.392L416.977 352.697L429.588 353.485L428.799 342.452L402.788 334.761L398.848 346.392Z" fill="#FFB9B9"/>
<path d="M422.1 344.028C422.1 344.028 422.1 355.061 423.676 355.061C425.252 355.061 446.534 352.697 452.84 355.061C459.146 357.425 468.604 348.757 463.875 344.028C459.146 339.3 451.431 332.207 446.618 333.784C441.805 335.36 422.1 339.3 422.1 339.3V344.028Z" fill="#575A89"/>
<path d="M364.166 333.783C364.166 333.783 354.708 352.697 361.013 354.273C367.319 355.849 374.413 353.485 375.201 352.696C375.989 351.908 387.024 348.756 388.601 350.332C390.177 351.908 390.177 344.028 390.177 344.028L364.166 333.783Z" fill="#575A89"/>
<path d="M372.048 307.777C372.048 307.777 357.072 328.267 368.107 333.783C379.142 339.3 431.952 339.3 435.893 333.783C439.834 328.267 441.411 310.93 435.893 309.353C430.376 307.777 372.048 307.777 372.048 307.777Z" fill="#2F2E41"/>
<path opacity="0.2" d="M372.048 307.777C372.048 307.777 357.072 328.267 368.107 333.783C379.142 339.3 431.952 339.3 435.893 333.783C439.834 328.267 441.411 310.93 435.893 309.353C430.376 307.777 372.048 307.777 372.048 307.777Z" fill="black"/>
<path d="M400.424 214.787C410.436 214.787 418.553 206.672 418.553 196.662C418.553 186.652 410.436 178.537 400.424 178.537C390.411 178.537 382.295 186.652 382.295 196.662C382.295 206.672 390.411 214.787 400.424 214.787Z" fill="#FFB9B9"/>
<path d="M372.047 225.032L387.811 221.88C387.811 221.88 391.752 234.489 404.363 232.125C416.975 229.76 420.128 221.88 420.128 221.88C420.128 221.88 429.586 225.82 430.374 225.82C431.163 225.82 441.409 229.76 441.409 232.125C441.409 234.489 429.586 258.13 429.586 258.13L431.163 300.685L372.835 299.109L376.776 257.342L372.047 225.032Z" fill="#3284B8"/>
<path d="M363.377 245.521C363.377 245.521 358.648 287.288 361.801 290.441C364.953 293.593 377.565 302.261 377.565 302.261V292.805L371.259 280.984L377.565 253.402L363.377 245.521Z" fill="#FFB9B9"/>
<path d="M444.957 244.339C444.957 244.339 442.198 287.288 442.198 288.864C442.198 290.441 435.105 295.957 432.74 295.957C430.375 295.957 428.799 292.017 428.799 292.017L434.316 285.712L430.375 253.402L444.957 244.339Z" fill="#FFB9B9"/>
<path d="M437.469 304.625C437.469 304.625 472.938 284.924 473.726 304.625C474.514 324.327 455.597 332.207 455.597 332.207C455.597 332.207 406.728 346.858 404.758 341.503C402.787 336.147 398.846 327.479 401.999 326.691C405.152 325.903 409.093 324.327 410.669 325.903C412.246 327.479 431.951 314.082 431.951 314.082L437.469 304.625Z" fill="#2F2E41"/>
<path opacity="0.2" d="M454.021 302.261C454.021 302.261 446.927 305.413 444.563 307.778C442.198 310.142 431.951 314.082 431.951 314.082" stroke="black" stroke-width="2" stroke-miterlimit="10"/>
<path d="M376.777 226.608L372.048 225.032C372.048 225.032 354.707 243.158 360.225 247.886C365.742 252.614 368.895 254.19 370.471 255.766C372.048 257.343 379.93 258.131 379.93 258.131L376.777 226.608Z" fill="#3284B8"/>
<path d="M434.316 230.548L441.41 232.124C441.41 232.124 446.927 243.945 448.504 245.521C450.08 247.097 446.139 246.309 443.775 249.462C441.41 252.614 439.045 258.13 434.316 258.13C429.587 258.13 423.281 250.25 423.281 250.25L434.316 230.548Z" fill="#3284B8"/>
<path d="M373.624 311.718C373.624 311.718 343.672 290.441 333.425 306.202C323.178 321.963 377.565 343.24 385.447 346.392C393.329 349.545 400.423 352.697 400.423 352.697C400.423 352.697 407.517 335.36 407.517 332.207C407.517 329.055 401.999 329.055 400.423 329.055C398.846 329.055 391.752 327.479 390.176 325.115C388.599 322.751 373.624 311.718 373.624 311.718Z" fill="#2F2E41"/>
<path opacity="0.2" d="M357.072 306.202C357.072 306.202 364.954 312.506 372.048 314.082C379.142 315.658 381.507 319.599 381.507 319.599" stroke="black" stroke-width="2" stroke-miterlimit="10"/>
<path d="M368.186 276.571L368.816 309.937C368.837 311.039 369.292 312.089 370.084 312.856C370.875 313.624 371.938 314.048 373.04 314.035L435.145 313.338C436.204 313.326 437.218 312.913 437.983 312.182C438.749 311.451 439.208 310.458 439.269 309.401L441.155 276.733C441.187 276.165 441.104 275.596 440.909 275.062C440.714 274.527 440.412 274.038 440.022 273.625C439.631 273.211 439.16 272.882 438.638 272.656C438.115 272.431 437.553 272.315 436.984 272.315H372.363C371.808 272.315 371.258 272.426 370.746 272.64C370.234 272.855 369.77 273.17 369.381 273.566C368.993 273.963 368.687 274.432 368.481 274.948C368.276 275.464 368.176 276.016 368.186 276.571Z" fill="#575A89"/>
<path d="M401.393 173.893C401.393 173.893 402.403 177.26 396.679 180.289C390.955 183.319 389.271 194.765 396.005 198.132C402.74 201.498 404.76 205.874 401.393 208.904C398.026 211.934 391.965 220.013 400.046 222.033C408.127 224.053 409.137 228.093 406.78 229.776C404.423 231.459 412.168 226.746 412.168 226.746C412.168 226.746 413.514 234.826 420.585 232.806C427.656 230.786 434.711 194.07 426.829 184.613C419.5 175.82 401.393 173.893 401.393 173.893Z" fill="#2F2E41"/>
<path d="M399.242 170.428C399.244 165.496 414.002 169.04 420.33 175.926C424.712 180.695 431.367 187.869 425.79 192.926C420.213 197.983 435.349 204.612 439.409 206.622C443.468 208.632 451.483 214.779 444.246 218.902C437.009 223.026 437.126 227.188 439.85 228.174C442.573 229.159 433.845 226.708 433.845 226.708C433.845 226.708 434.726 234.852 427.373 234.813C420.019 234.774 398.921 194.367 403.961 183.136C408.648 172.693 399.242 170.428 399.242 170.428Z" fill="#2F2E41"/>
<path d="M402.437 169.347C382.701 168.159 380.721 183.012 380.721 183.012C380.857 191.607 394.51 187.419 398.302 188.701C402.876 185.41 411.694 179.185 418.001 174.742C413.422 171.519 408.029 169.649 402.437 169.347Z" fill="#2F2E41"/>
<path d="M396.815 264.126C396.815 264.126 379.112 181.173 268.305 120.998" stroke="#3F3D56" stroke-width="2" stroke-miterlimit="10"/>
<path d="M272.869 119.188L273.09 120.098L268.608 121.185L270.02 125.575L269.129 125.861L267.41 120.513L272.869 119.188Z" fill="#3F3D56"/>
<path d="M32.0256 348.886C32.0256 359.393 25.7788 363.061 18.0724 363.061C17.8939 363.061 17.7156 363.059 17.5377 363.055C17.1806 363.048 16.8269 363.031 16.4775 363.007C9.5226 362.515 4.11914 358.657 4.11914 348.886C4.11914 338.774 17.0437 326.015 18.0146 325.07L18.0163 325.069C18.0537 325.032 18.0724 325.014 18.0724 325.014C18.0724 325.014 32.0256 338.38 32.0256 348.886Z" fill="#3284B8"/>
<path d="M17.5634 361.453L22.6668 354.324L17.5507 362.236L17.5371 363.055C17.18 363.047 16.8263 363.03 16.4769 363.006L17.027 352.495L17.0227 352.413L17.0321 352.398L17.0839 351.405L11.9551 343.473L17.1001 350.661L17.112 350.871L17.5277 342.929L13.1368 334.733L17.5813 341.535L18.014 325.07L18.0157 325.014V325.068L17.9434 338.052L22.3148 332.905L17.9256 339.171L17.81 346.282L21.8915 339.457L17.793 347.328L17.7284 351.281L23.6538 341.783L17.7062 352.661L17.5634 361.453Z" fill="#3F3D56"/>
<path d="M98.5779 346.164L101.563 343.947C101.563 343.947 103.538 354.981 101.334 356.634C99.1291 358.288 90.8616 361.043 90.8616 364.349C90.8616 367.655 72.122 372.064 71.5709 367.104C71.0197 362.145 73.2244 359.39 73.2244 359.39C73.2244 359.39 82.043 350.573 83.1453 348.92C84.2476 347.266 87.0035 343.96 87.0035 343.96L98.5779 346.164Z" fill="#2F2E41"/>
<path d="M54.4844 208.952C54.4844 208.952 54.5671 209.436 54.7103 210.324C54.8427 211.112 55.0245 212.225 55.245 213.597C57.5599 227.72 64.3117 269.298 63.8542 270.67C63.303 272.323 59.4449 278.384 63.8542 280.038C64.2786 280.197 64.736 280.715 65.2266 281.531C66.1733 283.288 66.9539 285.129 67.558 287.031C70.187 294.657 72.998 306.863 74.6239 315.316C75.3349 319.03 75.8199 322.017 75.9632 323.582C76.013 323.944 76.0186 324.31 75.9798 324.673C75.4286 326.877 79.2867 334.592 80.9402 336.796C82.5937 339.001 85.3496 341.205 84.7984 343.409C84.2472 345.613 98.5775 351.675 100.231 347.817C101.884 343.96 101.884 341.756 102.436 340.654C102.987 339.552 103.538 331.837 100.782 330.735C98.0263 329.633 99.6798 310.346 96.924 306.488C96.0036 305.204 94.5981 300.856 93.1265 295.627C92.5478 293.577 91.9635 291.395 91.3903 289.207C89.0644 280.242 87.003 271.221 87.003 271.221L87.5542 206.747L57.2402 202.89L56.4631 204.604L54.9143 208.004L54.4844 208.952Z" fill="#2F2E41"/>
<path d="M52.8313 314.754C52.8313 314.754 48.422 310.346 46.2173 314.754C44.0127 319.163 41.808 336.245 37.9498 340.103C34.0917 343.96 29.1312 363.247 34.6429 364.349C40.1545 365.451 46.2173 362.696 46.7685 359.39C47.3196 356.083 58.894 339.001 58.894 337.347C58.894 335.694 51.1777 329.633 51.1777 329.633L52.8313 314.754Z" fill="#2F2E41"/>
<path d="M120.624 178.643C120.624 178.643 113.459 243.117 111.805 249.178C110.152 255.24 101.333 278.384 98.5772 282.242C95.8214 286.099 78.1842 317.509 75.9795 319.162C73.7749 320.816 69.3655 325.224 69.3655 325.224C69.3655 325.224 61.0981 333.49 59.9958 335.143C58.8934 336.796 49.5236 331.837 48.9725 328.53C48.4213 325.224 49.5236 319.714 50.0748 317.509C50.626 315.305 48.9725 311.999 50.626 310.346C52.2795 308.692 60.5469 300.427 60.5469 296.569C60.5469 292.712 74.8772 270.119 80.3888 265.159C85.9004 260.2 84.7981 251.934 84.7981 251.934V218.319L54.4841 208.951C54.4841 208.951 56.1376 182.501 59.9958 182.501C63.8539 182.501 114.561 173.684 120.624 178.643Z" fill="#2F2E41"/>
<path d="M75.9794 86.617C86.0246 86.617 94.1678 78.4754 94.1678 68.4321C94.1678 58.3889 86.0246 50.2473 75.9794 50.2473C65.9342 50.2473 57.791 58.3889 57.791 68.4321C57.791 78.4754 65.9342 86.617 75.9794 86.617Z" fill="#9F616A"/>
<path d="M82.0422 82.7597C82.0422 82.7597 84.2469 91.0255 87.0027 93.2297C89.7585 95.434 79.8376 104.802 79.8376 104.802L61.098 105.904L57.791 95.4339C57.791 95.4339 63.8538 83.3107 62.2003 75.596C60.5468 67.8812 82.0422 82.7597 82.0422 82.7597Z" fill="#9F616A"/>
<path d="M89.7589 92.1277C89.7589 92.1277 84.7984 92.6787 83.6961 94.3319C82.5937 95.9851 74.8774 100.945 68.8146 99.8425C62.7518 98.7404 58.8937 97.0872 57.7914 97.6382C56.689 98.1893 54.4844 109.761 54.4844 109.761L60.5472 127.395L59.4449 175.888L57.7914 189.113C57.7914 189.113 54.4844 184.705 67.7123 187.46C80.9402 190.216 98.0263 185.256 103.538 184.705C109.05 184.154 118.419 182.501 118.971 179.194C119.522 175.888 117.317 163.765 117.317 163.765L108.498 126.844L102.987 107.006L89.7589 92.1277Z" fill="#3284B8"/>
<path d="M84.5469 89.6406C84.5469 89.6406 89.2091 87.1682 90.8626 89.3724C92.5161 91.5767 113.46 94.883 113.46 96.5361C113.46 98.1893 117.87 142.825 116.767 146.682C115.665 150.54 118.972 154.948 118.972 154.948L122.83 171.48C122.83 171.48 133.302 202.89 128.893 203.992C124.484 205.094 120.625 203.992 118.972 203.992C117.318 203.992 117.87 183.052 113.46 177.541C109.051 172.031 102.988 158.254 101.886 155.499C100.784 152.744 87.0045 114.721 87.5556 110.313C88.1068 105.904 84.5469 89.6406 84.5469 89.6406Z" fill="#D0CDE1"/>
<path d="M61.6508 92.1277C61.6508 92.1277 57.2415 92.1277 56.6903 93.2298C56.1392 94.3319 50.6275 101.496 48.4229 103.149C46.2182 104.802 38.502 111.966 38.502 113.619C38.502 115.272 54.4857 127.395 54.4857 127.395C54.4857 127.395 61.0997 159.907 57.7927 170.929C54.4857 181.95 49.5252 208.4 51.7299 210.053C53.9345 211.707 58.895 212.258 58.895 210.053C58.895 207.849 62.202 184.154 64.9578 179.194C67.7136 174.235 75.9811 142.825 72.6741 134.008C69.3671 125.191 61.6508 92.1277 61.6508 92.1277Z" fill="#D0CDE1"/>
<path d="M134.404 146.682C134.404 146.682 134.955 163.765 128.892 172.582C122.83 181.399 118.972 191.318 118.972 191.318C118.972 191.318 109.051 188.562 107.397 185.256C105.744 181.95 95.2715 184.705 95.2715 183.603C95.2715 182.501 107.948 176.99 109.051 175.888C110.153 174.786 114.011 174.786 116.216 172.582C118.42 170.378 118.972 165.418 118.972 165.418L121.176 151.091L134.404 146.682Z" fill="#9F616A"/>
<path d="M88.5079 57.22C89.9072 57.0929 91.3503 56.9531 92.587 56.2863C95.3579 54.7923 96.0927 50.5376 93.9833 48.2011C93.4017 47.6066 92.7512 47.0836 92.0455 46.6433L87.856 43.7922C86.003 42.5313 84.1063 41.2496 81.9451 40.6552C79.9904 40.1175 77.9259 40.1728 75.9025 40.2985C71.9745 40.5426 68.0221 41.0468 64.3276 42.4028C60.633 43.7587 57.1867 46.0271 54.9491 49.2641C51.4018 54.3957 51.3531 61.3166 53.3068 67.2407C55.2605 73.1649 58.9717 78.3236 62.6285 83.3778L64.5259 74.1216C64.6949 73.2972 64.9135 72.3936 65.5993 71.9057C67.3038 70.693 69.3889 73.1829 71.4809 73.1668C72.8251 73.1564 73.9537 72.051 74.4631 70.8073C74.9725 69.5636 75.006 68.1862 75.1239 66.8474C75.3735 64.0118 76.3648 60.0662 79.0508 58.5023C81.5536 57.045 85.6947 57.4755 88.5079 57.22Z" fill="#2F2E41"/>
<path opacity="0.1" d="M87.487 209.396C87.487 209.396 85.6255 263.23 84.5231 264.884C83.4208 266.537 84.5231 209.227 84.5231 209.227L87.487 209.396Z" fill="black"/>
<path d="M109.051 96.5361H113.46C113.46 96.5361 132.2 121.885 129.995 123.538C127.79 125.191 129.995 129.599 129.995 129.599L134.404 137.865C134.404 137.865 139.916 142.825 138.262 143.927C136.609 145.029 134.404 149.437 134.404 149.437C134.404 149.437 123.381 147.784 120.074 154.397L112.926 145.374L109.051 96.5361Z" fill="#D0CDE1"/>
<path d="M110.609 104.69L95.4785 110.936L107.122 139.126L122.252 132.88L110.609 104.69Z" fill="#2F2E41"/>
<path d="M108.836 121.223C110.507 120.533 111.348 118.729 110.714 117.194C110.08 115.659 108.211 114.974 106.54 115.664C104.868 116.354 104.028 118.158 104.662 119.693C105.296 121.228 107.164 121.913 108.836 121.223Z" fill="#3284B8"/>
<path d="M98.0276 140.621C98.0276 140.621 58.3439 173.684 51.7299 163.214C45.1159 152.744 58.895 143.927 58.895 143.927C58.895 143.927 71.0206 144.478 84.7997 135.661L98.5788 129.599C98.5788 129.599 111.158 111.644 115.445 118.481C119.731 125.318 108.127 137.218 98.0276 140.621Z" fill="#9F616A"/>
<path d="M44.5643 111.415L38.5015 113.619V130.15L36.2969 133.457C36.2969 133.457 36.848 140.069 38.5015 141.723C40.155 143.376 43.462 142.825 42.3597 146.682C41.6972 149.197 41.5102 151.813 41.8085 154.397C41.8085 154.397 51.7295 167.071 52.2806 165.418C52.8318 163.765 60.5481 143.376 61.6504 143.376C62.7527 143.376 50.6271 111.415 50.6271 111.415H44.5643Z" fill="#D0CDE1"/>
<path d="M117.042 194.9C117.042 194.9 122.741 189.389 119.891 189.114C117.042 188.838 107.121 183.327 105.467 186.083C103.814 188.838 117.042 194.9 117.042 194.9Z" fill="#2F2E41"/>
<path d="M225.429 89.7804C229.821 89.7804 233.38 87.8962 233.38 85.572C233.38 83.2477 229.821 81.3635 225.429 81.3635C221.038 81.3635 217.479 83.2477 217.479 85.572C217.479 87.8962 221.038 89.7804 225.429 89.7804Z" fill="#57B894"/>
<path d="M255.832 99.6003C237.904 92.8305 219.975 92.8305 202.047 99.6003V77.6229C219.585 72.3318 238.294 72.3318 255.832 77.6229V99.6003Z" stroke="#3F3D56" stroke-width="2" stroke-miterlimit="10"/>
<path d="M248.348 95.055C235.409 90.1689 222.469 90.1689 209.529 95.055V79.193C222.187 75.3742 235.69 75.3742 248.348 79.193V95.055Z" stroke="#3F3D56" stroke-width="2" stroke-miterlimit="10"/>
<path d="M228.236 87.9101C232.627 87.9101 236.187 86.0259 236.187 83.7016C236.187 81.3774 232.627 79.4932 228.236 79.4932C223.845 79.4932 220.285 81.3774 220.285 83.7016C220.285 86.0259 223.845 87.9101 228.236 87.9101Z" stroke="#3F3D56" stroke-width="2" stroke-miterlimit="10"/>
<path d="M231.276 116.136C235.579 115.259 238.69 112.701 238.225 110.423C237.76 108.146 233.895 107.012 229.593 107.89C225.291 108.768 222.18 111.325 222.644 113.603C223.109 115.88 226.974 117.014 231.276 116.136Z" fill="#57B894"/>
<path d="M263.026 119.68C244.106 116.631 226.54 120.216 210.327 130.433L205.932 108.9C222.057 100.209 240.389 96.4682 258.63 98.146L263.026 119.68Z" stroke="#3F3D56" stroke-width="2" stroke-miterlimit="10"/>
<path d="M254.786 116.723C241.13 114.522 228.452 117.109 216.751 124.484L213.578 108.942C225.216 102.67 238.447 99.97 251.613 101.181L254.786 116.723Z" stroke="#3F3D56" stroke-width="2" stroke-miterlimit="10"/>
<path d="M233.652 113.743C237.954 112.865 241.065 110.307 240.6 108.03C240.135 105.752 236.27 104.618 231.968 105.496C227.666 106.374 224.555 108.932 225.019 111.209C225.484 113.486 229.349 114.621 233.652 113.743Z" stroke="#3F3D56" stroke-width="2" stroke-miterlimit="10"/>
<path d="M236.718 138.722C236.879 136.404 233.459 134.277 229.079 133.972C224.698 133.668 221.016 135.3 220.855 137.619C220.693 139.937 224.114 142.064 228.494 142.369C232.875 142.674 236.557 141.041 236.718 138.722Z" fill="#57B894"/>
<path d="M258.14 154.275C240.725 146.277 222.84 145.033 204.484 150.542L206.01 128.617C223.873 124.556 242.538 125.855 259.666 132.35L258.14 154.275Z" stroke="#3F3D56" stroke-width="2" stroke-miterlimit="10"/>
<path d="M250.989 149.221C238.42 143.449 225.511 142.551 212.264 146.527L213.365 130.703C226.257 127.772 239.728 128.71 252.09 133.398L250.989 149.221Z" stroke="#3F3D56" stroke-width="2" stroke-miterlimit="10"/>
<path d="M239.646 137.051C239.807 134.733 236.387 132.606 232.006 132.301C227.626 131.996 223.944 133.629 223.782 135.948C223.621 138.266 227.041 140.393 231.422 140.698C235.802 141.003 239.484 139.37 239.646 137.051Z" stroke="#3F3D56" stroke-width="2" stroke-miterlimit="10"/>
<path d="M194.058 100.111C194.058 100.111 159.684 95.4089 135.137 109.792" stroke="#3F3D56" stroke-width="2" stroke-miterlimit="10"/>
<path d="M135.964 104.958L136.857 105.241L135.461 109.636L139.948 110.706L139.73 111.616L134.266 110.311L135.964 104.958Z" fill="#3F3D56"/>
</g>
<defs>
<clipPath id="clip0">
<rect width="514" height="373" fill="white"/>
</clipPath>
</defs>
</svg>
