<svg width="579" height="512" viewBox="0 0 579 512" fill="none" xmlns="http://www.w3.org/2000/svg">
<g opacity="0.5">
<path opacity="0.5" d="M503.654 426.539C503.654 426.539 505.598 367.244 536.754 333.739C549.832 319.68 558.421 301.824 560.694 282.499C561.757 273.328 562.002 264.077 561.425 254.86" stroke="#535461" stroke-width="2" stroke-miterlimit="10"/>
<path opacity="0.5" d="M580.94 233.637C578.808 240.26 560.983 255.472 560.983 255.472C560.983 255.472 555.522 232.297 557.654 225.679C558.161 224.105 558.965 222.649 560.018 221.394C561.072 220.14 562.355 219.111 563.795 218.367C565.235 217.623 566.803 217.178 568.409 217.058C570.016 216.938 571.63 217.145 573.159 217.667C574.688 218.189 576.102 219.016 577.32 220.101C578.539 221.186 579.538 222.507 580.261 223.99C580.983 225.472 581.415 227.086 581.532 228.741C581.648 230.395 581.447 232.057 580.94 233.631V233.637Z" fill="#01304E"/>
<path opacity="0.5" d="M588.368 276.883C583.067 281.25 560.093 284.052 560.093 284.052C560.093 284.052 567.751 261.544 573.052 257.183C574.299 256.065 575.753 255.219 577.325 254.694C578.898 254.17 580.558 253.978 582.204 254.131C583.851 254.283 585.45 254.777 586.906 255.582C588.363 256.387 589.646 257.487 590.679 258.816C591.712 260.145 592.474 261.675 592.918 263.315C593.362 264.954 593.48 266.669 593.264 268.357C593.048 270.044 592.503 271.67 591.662 273.135C590.821 274.6 589.7 275.875 588.368 276.883Z" fill="#01304E"/>
<path opacity="0.5" d="M567.351 339.259C560.647 340.278 539.423 330.767 539.423 330.767C539.423 330.767 557.06 315.313 563.763 314.294C565.357 314.051 566.981 314.134 568.544 314.538C570.106 314.942 571.576 315.659 572.87 316.648C574.163 317.636 575.255 318.878 576.082 320.301C576.91 321.724 577.457 323.301 577.692 324.942C577.928 326.582 577.847 328.255 577.455 329.864C577.063 331.473 576.367 332.986 575.406 334.318C574.446 335.649 573.24 336.773 571.858 337.625C570.476 338.477 568.945 339.041 567.351 339.283V339.259Z" fill="#01304E"/>
<path opacity="0.5" d="M541.119 382.772C534.68 384.943 512.195 379.242 512.195 379.242C512.195 379.242 527.046 360.943 533.485 358.771C536.576 357.726 539.944 357.987 542.847 359.498C545.751 361.009 547.953 363.646 548.968 366.829C549.984 370.012 549.73 373.479 548.262 376.469C546.795 379.459 544.234 381.726 541.143 382.772H541.119Z" fill="#01304E"/>
<path opacity="0.5" d="M535.228 276.986C538.356 283.173 558.326 295.285 558.326 295.285C558.326 295.285 560.14 271.515 557.012 265.322C556.269 263.851 555.251 262.545 554.018 261.479C552.784 260.413 551.359 259.607 549.823 259.108C548.287 258.609 546.67 258.427 545.066 258.571C543.461 258.715 541.9 259.183 540.471 259.949C539.042 260.714 537.774 261.762 536.738 263.032C535.703 264.302 534.92 265.77 534.436 267.351C533.951 268.933 533.774 270.597 533.914 272.249C534.054 273.901 534.508 275.509 535.252 276.98L535.228 276.986Z" fill="#01304E"/>
<path opacity="0.5" d="M505.18 328.269C509.963 333.212 532.513 338.622 532.513 338.622C532.513 338.622 527.335 315.38 522.557 310.436C520.262 308.064 517.144 306.727 513.891 306.721C510.639 306.715 507.517 308.039 505.212 310.403C502.908 312.767 501.61 315.977 501.604 319.326C501.597 322.675 502.884 325.89 505.18 328.262V328.269Z" fill="#01304E"/>
<path opacity="0.5" d="M482.618 382.244C486.518 387.946 507.86 397.207 507.86 397.207C507.86 397.207 506.576 373.401 502.671 367.693C501.767 366.278 500.596 365.065 499.228 364.125C497.86 363.186 496.322 362.539 494.706 362.224C493.09 361.909 491.429 361.931 489.822 362.29C488.214 362.65 486.694 363.338 485.35 364.315C484.006 365.291 482.867 366.536 482 367.975C481.133 369.414 480.556 371.018 480.304 372.691C480.051 374.365 480.128 376.073 480.53 377.715C480.931 379.358 481.65 380.9 482.642 382.25L482.618 382.244Z" fill="#01304E"/>
<path opacity="0.5" d="M510.499 401.999C510.499 401.999 492.827 375.53 495.926 350.625C497.291 340.188 495.332 329.577 490.341 320.384C487.938 316.039 485.154 311.929 482.023 308.107" stroke="#535461" stroke-width="2" stroke-miterlimit="10"/>
<path opacity="0.5" d="M483.891 292.398C485.028 295.989 482.023 308.52 482.023 308.52C482.023 308.52 472.404 300.235 471.267 296.65C470.72 294.926 470.86 293.05 471.658 291.433C472.455 289.816 473.843 288.591 475.517 288.028C477.191 287.465 479.014 287.61 480.584 288.431C482.154 289.251 483.344 290.681 483.891 292.404V292.398Z" fill="#01304E"/>
<path opacity="0.5" d="M500.638 308.768C499.702 312.408 490.559 321.257 490.559 321.257C490.559 321.257 486.86 308.92 487.796 305.269C488.247 303.515 489.356 302.018 490.879 301.106C492.402 300.195 494.214 299.943 495.917 300.407C497.62 300.871 499.074 302.013 499.959 303.581C500.845 305.149 501.089 307.015 500.638 308.768Z" fill="#01304E"/>
<path opacity="0.5" d="M510.97 342.892C508.373 345.555 496.149 348.436 496.149 348.436C496.149 348.436 499.001 335.862 501.604 333.2C502.223 332.566 502.957 332.065 503.764 331.724C504.571 331.383 505.436 331.208 506.308 331.211C507.181 331.214 508.044 331.394 508.849 331.74C509.654 332.087 510.385 332.593 511 333.23C511.615 333.867 512.102 334.623 512.433 335.454C512.765 336.285 512.934 337.175 512.931 338.073C512.928 338.972 512.754 339.861 512.417 340.69C512.081 341.518 511.589 342.271 510.97 342.904V342.892Z" fill="#01304E"/>
<path opacity="0.5" d="M513.143 370.532C511.017 373.607 499.418 378.562 499.418 378.562C499.418 378.562 500.166 365.674 502.293 362.598C502.798 361.866 503.438 361.244 504.177 360.767C504.916 360.29 505.738 359.967 506.598 359.817C507.458 359.667 508.338 359.693 509.188 359.894C510.039 360.094 510.842 360.465 511.553 360.985C512.264 361.505 512.868 362.164 513.332 362.925C513.795 363.686 514.109 364.533 514.254 365.418C514.4 366.304 514.375 367.21 514.18 368.085C513.985 368.96 513.625 369.788 513.12 370.52L513.143 370.532Z" fill="#01304E"/>
<path opacity="0.5" d="M477.529 326.401C480.822 328.062 493.292 326.728 493.292 326.728C493.292 326.728 486.654 315.774 483.361 314.118C481.779 313.322 479.954 313.205 478.289 313.794C476.624 314.383 475.254 315.628 474.48 317.257C473.707 318.886 473.594 320.764 474.165 322.479C474.737 324.194 475.947 325.604 477.529 326.401Z" fill="#01304E"/>
<path opacity="0.5" d="M480.467 358.698C484.096 359.269 495.607 354.155 495.607 354.155C495.607 354.155 486.087 345.749 482.464 345.203C480.723 344.93 478.948 345.381 477.53 346.456C476.111 347.531 475.166 349.142 474.901 350.935C474.636 352.728 475.074 354.555 476.118 356.016C477.162 357.476 478.726 358.45 480.467 358.723V358.698Z" fill="#01304E"/>
<path opacity="0.5" d="M487.502 389.674C490.983 390.887 503.171 387.854 503.171 387.854C503.171 387.854 495.172 377.913 491.69 376.718C490.019 376.147 488.195 376.282 486.62 377.095C485.045 377.907 483.848 379.331 483.293 381.052C482.737 382.773 482.869 384.651 483.658 386.273C484.448 387.894 485.83 389.126 487.502 389.698V389.674Z" fill="#01304E"/>
<path opacity="0.5" d="M483.891 292.398C485.028 295.989 482.023 308.52 482.023 308.52C482.023 308.52 472.404 300.235 471.267 296.65C470.72 294.926 470.86 293.05 471.658 291.433C472.455 289.816 473.843 288.591 475.517 288.028C477.191 287.465 479.014 287.61 480.584 288.431C482.154 289.251 483.344 290.681 483.891 292.404V292.398Z" fill="white"/>
<path opacity="0.5" d="M500.638 308.768C499.702 312.408 490.559 321.257 490.559 321.257C490.559 321.257 486.86 308.92 487.796 305.269C488.247 303.515 489.356 302.018 490.879 301.106C492.402 300.195 494.214 299.943 495.917 300.407C497.62 300.871 499.074 302.013 499.959 303.581C500.845 305.149 501.089 307.015 500.638 308.768Z" fill="white"/>
<path opacity="0.5" d="M510.97 342.892C508.373 345.555 496.149 348.436 496.149 348.436C496.149 348.436 499.001 335.862 501.604 333.2C502.223 332.566 502.957 332.065 503.764 331.724C504.571 331.383 505.436 331.208 506.308 331.211C507.181 331.214 508.044 331.394 508.849 331.74C509.654 332.087 510.385 332.593 511 333.23C511.615 333.867 512.102 334.623 512.433 335.454C512.765 336.285 512.934 337.175 512.931 338.073C512.928 338.972 512.754 339.861 512.417 340.69C512.081 341.518 511.589 342.271 510.97 342.904V342.892Z" fill="white"/>
<path opacity="0.5" d="M513.143 370.532C511.017 373.607 499.418 378.562 499.418 378.562C499.418 378.562 500.166 365.674 502.293 362.598C502.798 361.866 503.438 361.244 504.177 360.767C504.916 360.29 505.738 359.967 506.598 359.817C507.458 359.667 508.338 359.693 509.188 359.894C510.039 360.094 510.842 360.465 511.553 360.985C512.264 361.505 512.868 362.164 513.332 362.925C513.795 363.686 514.109 364.533 514.254 365.418C514.4 366.304 514.375 367.21 514.18 368.085C513.985 368.96 513.625 369.788 513.12 370.52L513.143 370.532Z" fill="white"/>
<path opacity="0.5" d="M477.529 326.401C480.822 328.062 493.292 326.728 493.292 326.728C493.292 326.728 486.654 315.774 483.361 314.118C481.779 313.322 479.954 313.205 478.289 313.794C476.624 314.383 475.254 315.628 474.48 317.257C473.707 318.886 473.594 320.764 474.165 322.479C474.737 324.194 475.947 325.604 477.529 326.401Z" fill="white"/>
<path opacity="0.5" d="M480.467 358.698C484.096 359.269 495.607 354.155 495.607 354.155C495.607 354.155 486.087 345.749 482.464 345.203C480.723 344.93 478.948 345.381 477.53 346.456C476.111 347.531 475.166 349.142 474.901 350.935C474.636 352.728 475.074 354.555 476.118 356.016C477.162 357.476 478.726 358.45 480.467 358.723V358.698Z" fill="white"/>
<path opacity="0.5" d="M487.502 389.674C490.983 390.887 503.171 387.854 503.171 387.854C503.171 387.854 495.172 377.913 491.69 376.718C490.019 376.147 488.195 376.282 486.62 377.095C485.045 377.907 483.848 379.331 483.293 381.052C482.737 382.773 482.869 384.651 483.658 386.273C484.448 387.894 485.83 389.126 487.502 389.698V389.674Z" fill="white"/>
<path opacity="0.5" d="M477.799 473.77H528.065L540.636 394.842H465.234L477.799 473.77Z" fill="#474059"/>
<path opacity="0.1" d="M474.854 394.842L486.594 468.596H528.89L528.065 473.77H477.799L465.234 394.842H474.854Z" fill="black"/>
</g>
<path d="M487.33 23.8308H118.569V481.946H487.33V23.8308Z" fill="url(#paint0_linear)"/>
<path d="M482.617 29.6899H123.281V476.099H482.617V29.6899Z" fill="white"/>
<path d="M407.805 80.0322H262.893V87.3106H407.805V80.0322Z" fill="#C0BCCF"/>
<path d="M407.805 103.081H262.893V110.359H407.805V103.081Z" fill="#C0BCCF"/>
<path d="M373.049 126.129H297.647V133.407H373.049V126.129Z" fill="#01304E"/>
<path opacity="0.5" d="M407.805 226.207H262.893V233.485H407.805V226.207Z" fill="#C0BCCF"/>
<path opacity="0.5" d="M407.805 249.255H262.893V256.534H407.805V249.255Z" fill="#C0BCCF"/>
<path opacity="0.5" d="M373.049 272.304H297.647V279.582H373.049V272.304Z" fill="#01304E"/>
<path opacity="0.5" d="M407.805 372.382H262.893V379.66H407.805V372.382Z" fill="#C0BCCF"/>
<path opacity="0.5" d="M407.805 395.43H262.893V402.709H407.805V395.43Z" fill="#C0BCCF"/>
<path opacity="0.5" d="M373.049 418.479H297.647V425.757H373.049V418.479Z" fill="#01304E"/>
<g opacity="0.5">
<path opacity="0.5" d="M211.872 266.802L208.833 265.395C208.879 264.92 208.899 264.442 208.892 263.964C208.913 263.56 208.913 263.155 208.892 262.751C208.591 259.56 206.618 256.782 205.222 253.865C203.943 251.202 203.132 248.327 202.824 245.374C202.453 241.734 202.824 237.962 201.528 234.541C200.474 231.781 198.388 229.476 196.156 227.438C193.65 225.017 190.722 223.105 187.526 221.804C184.262 220.591 180.51 220.281 177.246 221.519C174.301 222.635 172.033 224.861 169.842 227.026C168.251 228.469 166.845 230.116 165.659 231.927C164.322 234.183 163.751 236.779 163.303 239.338C162.6 243.436 162.116 247.571 161.854 251.724C161.624 255.187 161.265 259.118 158.39 261.24C156.988 262.278 155.015 262.86 154.373 264.431C154.191 264.902 154.118 265.411 154.161 265.917C154.143 266.337 154.173 266.759 154.249 267.172C154.29 267.415 154.337 267.652 154.396 267.894C153.571 270.006 152.879 272.169 152.323 274.372C151.893 276.01 151.498 277.617 151.145 279.176H152.099H152.605L158.096 279.309H158.172L164.063 279.449H164.092L169.583 279.582H169.718L171.303 279.697H171.821L193.776 280.219H193.894L195.355 280.255H195.867L200.262 280.358L206.741 280.51H206.789L211.666 280.631H212.184H213.186L212.927 275.367C213.999 267.306 211.872 266.802 211.872 266.802ZM187.208 266.159C187.208 270.624 182.566 276.088 182.566 276.088L177.894 269.538L178.065 269.283L182.566 275.591C182.566 275.591 187.208 270.132 187.208 265.662C187.316 265.435 187.44 265.216 187.579 265.007L187.685 265.347C187.507 265.605 187.347 265.877 187.208 266.159ZM194.347 283.676C194.347 283.452 194.347 283.221 194.306 282.997C194.265 282.772 194.271 282.572 194.241 282.354C194.212 282.136 194.188 281.923 194.159 281.705C194.129 281.487 194.088 281.274 194.047 281.056C194.006 280.838 193.964 280.625 193.917 280.407C193.917 280.334 193.888 280.267 193.87 280.189C193.805 279.904 193.735 279.618 193.658 279.333C193.582 279.048 193.534 278.872 193.464 278.648C193.464 278.545 193.405 278.442 193.369 278.345C193.334 278.248 193.269 278.017 193.216 277.853L193.11 277.538C193.063 277.399 193.016 277.253 192.963 277.113C192.875 276.859 192.78 276.61 192.686 276.355C192.592 276.101 192.492 275.852 192.392 275.603C192.191 275.094 191.973 274.59 191.755 274.081C190.901 272.116 189.941 270.181 189.057 268.264C188.584 267.261 188.163 266.233 187.797 265.183L187.685 265.335C187.506 265.595 187.347 265.869 187.208 266.153C187.208 270.617 182.566 276.082 182.566 276.082L177.894 269.532L173.806 275.597C173.217 275.9 172.628 276.931 172.169 278.399C172.039 278.794 171.915 279.23 171.797 279.685C171.715 279.995 171.638 280.292 171.568 280.637C171.527 280.801 171.491 280.965 171.456 281.135L171.35 281.65V281.729C171.279 282.081 171.208 282.445 171.144 282.815C171.079 283.185 171.002 283.609 170.937 284.028C170.89 284.291 170.849 284.552 170.814 284.81C170.731 285.314 170.661 285.823 170.59 286.333C170.549 286.63 170.507 286.939 170.472 287.212L170.331 288.34C170.631 289.268 170.967 290.16 171.314 291.094C171.535 291.585 171.665 292.113 171.697 292.653C178.944 294.642 186.57 294.642 193.817 292.653C193.815 292.635 193.815 292.616 193.817 292.598C193.709 292.091 193.661 291.571 193.676 291.052C193.795 289.594 193.991 288.144 194.265 286.709C194.352 286.001 194.389 285.287 194.377 284.574V284.319C194.359 284.089 194.353 283.882 194.347 283.682V283.676ZM194.347 283.676C194.347 283.452 194.347 283.221 194.306 282.997C194.265 282.772 194.271 282.572 194.241 282.354C194.212 282.136 194.188 281.923 194.159 281.705C194.129 281.487 194.088 281.274 194.047 281.056C194.006 280.838 193.964 280.625 193.917 280.407C193.917 280.334 193.888 280.267 193.87 280.189C193.805 279.904 193.735 279.618 193.658 279.333C193.582 279.048 193.534 278.872 193.464 278.648C193.464 278.545 193.405 278.442 193.369 278.345C193.334 278.248 193.269 278.017 193.216 277.853L193.11 277.538C193.063 277.399 193.016 277.253 192.963 277.113C192.875 276.859 192.78 276.61 192.686 276.355C192.592 276.101 192.492 275.852 192.392 275.603C192.191 275.094 191.973 274.59 191.755 274.081C190.901 272.116 189.941 270.181 189.057 268.264C188.584 267.261 188.163 266.233 187.797 265.183L187.685 265.335C187.506 265.595 187.347 265.869 187.208 266.153C187.208 270.617 182.566 276.082 182.566 276.082L177.894 269.532L173.806 275.597C173.217 275.9 172.628 276.931 172.169 278.399C172.039 278.794 171.915 279.23 171.797 279.685C171.715 279.995 171.638 280.292 171.568 280.637C171.527 280.801 171.491 280.965 171.456 281.135L171.35 281.65V281.729C171.279 282.081 171.208 282.445 171.144 282.815C171.079 283.185 171.002 283.609 170.937 284.028C170.89 284.291 170.849 284.552 170.814 284.81C170.731 285.314 170.661 285.823 170.59 286.333C170.549 286.63 170.507 286.939 170.472 287.212L170.331 288.34C170.631 289.268 170.967 290.16 171.314 291.094C171.535 291.585 171.665 292.113 171.697 292.653C178.944 294.642 186.57 294.642 193.817 292.653C193.815 292.635 193.815 292.616 193.817 292.598C193.709 292.091 193.661 291.571 193.676 291.052C193.795 289.594 193.991 288.144 194.265 286.709C194.352 286.001 194.389 285.287 194.377 284.574V284.319C194.359 284.089 194.353 283.882 194.347 283.682V283.676ZM194.347 283.676C194.347 283.452 194.347 283.221 194.306 282.997C194.265 282.772 194.271 282.572 194.241 282.354C194.212 282.136 194.188 281.923 194.159 281.705C194.129 281.487 194.088 281.274 194.047 281.056C194.006 280.838 193.964 280.625 193.917 280.407C193.917 280.334 193.888 280.267 193.87 280.189C193.805 279.904 193.735 279.618 193.658 279.333C193.582 279.048 193.534 278.872 193.464 278.648C193.464 278.545 193.405 278.442 193.369 278.345C193.334 278.248 193.269 278.017 193.216 277.853L193.11 277.538C193.063 277.399 193.016 277.253 192.963 277.113C192.875 276.859 192.78 276.61 192.686 276.355C192.592 276.101 192.492 275.852 192.392 275.603C192.191 275.094 191.973 274.59 191.755 274.081C190.901 272.116 189.941 270.181 189.057 268.264C188.584 267.261 188.163 266.233 187.797 265.183L187.685 265.335C187.506 265.595 187.347 265.869 187.208 266.153C187.208 270.617 182.566 276.082 182.566 276.082L177.894 269.532L173.806 275.597C173.217 275.9 172.628 276.931 172.169 278.399C172.039 278.794 171.915 279.23 171.797 279.685C171.715 279.995 171.638 280.292 171.568 280.637C171.527 280.801 171.491 280.965 171.456 281.135L171.35 281.65V281.729C171.279 282.081 171.208 282.445 171.144 282.815C171.079 283.185 171.002 283.609 170.937 284.028C170.89 284.291 170.849 284.552 170.814 284.81C170.731 285.314 170.661 285.823 170.59 286.333C170.549 286.63 170.507 286.939 170.472 287.212L170.331 288.34C170.631 289.268 170.967 290.16 171.314 291.094C171.535 291.585 171.665 292.113 171.697 292.653C178.944 294.642 186.57 294.642 193.817 292.653C193.815 292.635 193.815 292.616 193.817 292.598C193.709 292.091 193.661 291.571 193.676 291.052C193.795 289.594 193.991 288.144 194.265 286.709C194.352 286.001 194.389 285.287 194.377 284.574V284.319C194.359 284.089 194.353 283.882 194.347 283.682V283.676ZM194.347 283.676C194.347 283.452 194.347 283.221 194.306 282.997C194.265 282.772 194.271 282.572 194.241 282.354C194.212 282.136 194.188 281.923 194.159 281.705C194.129 281.487 194.088 281.274 194.047 281.056C194.006 280.838 193.964 280.625 193.917 280.407C193.917 280.334 193.888 280.267 193.87 280.189C193.805 279.904 193.735 279.618 193.658 279.333C193.582 279.048 193.534 278.872 193.464 278.648C193.464 278.545 193.405 278.442 193.369 278.345C193.334 278.248 193.269 278.017 193.216 277.853L193.11 277.538C193.063 277.399 193.016 277.253 192.963 277.113C192.875 276.859 192.78 276.61 192.686 276.355C192.592 276.101 192.492 275.852 192.392 275.603C192.191 275.094 191.973 274.59 191.755 274.081C190.901 272.116 189.941 270.181 189.057 268.264C188.584 267.261 188.163 266.233 187.797 265.183L187.685 265.335C187.506 265.595 187.347 265.869 187.208 266.153C187.208 270.617 182.566 276.082 182.566 276.082L177.894 269.532L173.806 275.597C173.217 275.9 172.628 276.931 172.169 278.399C172.039 278.794 171.915 279.23 171.797 279.685C171.715 279.995 171.638 280.292 171.568 280.637C171.527 280.801 171.491 280.965 171.456 281.135L171.35 281.65V281.729C171.279 282.081 171.208 282.445 171.144 282.815C171.079 283.185 171.002 283.609 170.937 284.028C170.89 284.291 170.849 284.552 170.814 284.81C170.731 285.314 170.661 285.823 170.59 286.333C170.549 286.63 170.507 286.939 170.472 287.212L170.331 288.34C170.631 289.268 170.967 290.16 171.314 291.094C171.535 291.585 171.665 292.113 171.697 292.653C178.944 294.642 186.57 294.642 193.817 292.653C193.815 292.635 193.815 292.616 193.817 292.598C193.709 292.091 193.661 291.571 193.676 291.052C193.795 289.594 193.991 288.144 194.265 286.709C194.352 286.001 194.389 285.287 194.377 284.574V284.319C194.359 284.089 194.353 283.882 194.347 283.682V283.676Z" fill="url(#paint1_linear)"/>
<path opacity="0.5" d="M194.559 241.37H167.462V260.173H194.559V241.37Z" fill="#493545"/>
<path opacity="0.5" d="M199.06 262.108L187.72 278.557L175.868 277.496C175.868 277.496 160.405 278.551 170.714 266.354C175.668 260.488 177.288 255.6 177.635 252.112C178.012 248.34 176.899 246.192 176.899 246.192L189.782 244.603C189.201 246.391 189.127 248.312 189.57 250.141C191.184 257.031 199.06 262.108 199.06 262.108Z" fill="#C77485"/>
<path opacity="0.1" d="M189.564 250.123C187.883 251.433 185.916 252.298 183.836 252.643C181.755 252.988 179.623 252.801 177.629 252.1C178.006 248.327 176.893 246.18 176.893 246.18L189.776 244.591C189.195 246.377 189.122 248.296 189.564 250.123Z" fill="black"/>
<path opacity="0.5" d="M181.794 252.282C188.909 252.282 194.677 246.343 194.677 239.017C194.677 231.691 188.909 225.752 181.794 225.752C174.679 225.752 168.911 231.691 168.911 239.017C168.911 246.343 174.679 252.282 181.794 252.282Z" fill="#C77485"/>
<path opacity="0.1" d="M198.589 262.787L198.288 261.574L198.029 260.507L197.646 258.93L197.576 258.639L197.517 258.396C197.517 258.396 197.823 257.444 195.802 257.753L195.425 257.82C195.107 257.886 194.736 257.977 194.312 258.099L193.929 258.22L193.423 258.384C191.819 258.921 190.356 259.83 189.146 261.04C188.603 261.575 188.122 262.174 187.714 262.824C187.673 262.884 187.644 262.939 187.608 262.987C187.469 263.213 187.345 263.448 187.237 263.691C187.237 268.47 182.595 274.305 182.595 274.305L178.065 267.567L177.977 267.433L176.899 265.82L176.516 265.298L176.387 265.116L174.03 261.859L173.441 261.046L173.247 260.774L172.958 260.379L172.281 259.451L169.63 261.046L166.095 263.169L164.034 276.968V277.35L164.098 278.49L164.528 285.987V286.09L163.774 289.196L163.886 289.256C165.666 290.245 167.517 291.088 169.424 291.78L169.924 291.962C170.513 292.162 171.067 292.344 171.644 292.52C171.666 292.609 171.682 292.701 171.692 292.792C171.692 292.708 171.692 292.617 171.692 292.532C178.92 294.659 186.583 294.659 193.811 292.532L193.947 292.489C194.283 292.392 194.624 292.289 194.954 292.174L195.49 291.998C196.944 291.497 198.368 290.91 199.755 290.239L200.25 279.382L200.603 271.552V271.103L198.589 262.787Z" fill="black"/>
<path opacity="0.5" d="M194.348 282.954C194.348 282.712 194.348 282.469 194.306 282.226C194.265 281.984 194.271 281.772 194.242 281.541C194.212 281.311 194.189 281.08 194.159 280.85C194.13 280.619 194.088 280.389 194.047 280.158C194.006 279.928 193.965 279.697 193.918 279.467C193.918 279.388 193.888 279.315 193.871 279.236C193.806 278.933 193.735 278.63 193.658 278.32C193.582 278.011 193.535 277.829 193.464 277.586C193.464 277.477 193.405 277.368 193.37 277.265C193.334 277.162 193.27 276.913 193.217 276.737L193.111 276.398C193.064 276.246 193.016 276.094 192.963 275.943C192.875 275.67 192.781 275.403 192.687 275.13C192.592 274.857 192.492 274.59 192.392 274.323C192.192 273.777 191.974 273.238 191.756 272.698C190.902 270.599 189.941 268.531 189.058 266.481C188.583 265.406 188.162 264.307 187.797 263.187L187.685 263.351C187.506 263.63 187.347 263.922 187.208 264.224C187.208 268.998 182.566 274.839 182.566 274.839L177.895 267.833L173.807 274.305C173.218 274.627 172.628 275.73 172.169 277.301C172.039 277.726 171.916 278.187 171.798 278.678C171.715 279.006 171.639 279.351 171.568 279.697C171.527 279.873 171.492 280.049 171.456 280.231L171.35 280.783V280.868C171.28 281.244 171.209 281.632 171.144 282.026C171.079 282.421 171.003 282.875 170.938 283.306C170.891 283.585 170.849 283.864 170.814 284.143C170.732 284.683 170.661 285.229 170.59 285.769C170.549 286.084 170.508 286.375 170.472 286.709L170.331 287.922C170.632 288.917 170.967 289.899 171.315 290.863C171.537 291.392 171.667 291.957 171.698 292.531C178.926 294.658 186.589 294.658 193.818 292.531C193.815 292.511 193.815 292.491 193.818 292.471C193.709 291.926 193.661 291.371 193.676 290.815C193.795 289.259 193.992 287.71 194.265 286.175C194.352 285.418 194.39 284.656 194.377 283.894V283.621C194.359 283.391 194.354 283.173 194.348 282.954ZM194.348 282.954C194.348 282.712 194.348 282.469 194.306 282.226C194.265 281.984 194.271 281.772 194.242 281.541C194.212 281.311 194.189 281.08 194.159 280.85C194.13 280.619 194.088 280.389 194.047 280.158C194.006 279.928 193.965 279.697 193.918 279.467C193.918 279.388 193.888 279.315 193.871 279.236C193.806 278.933 193.735 278.63 193.658 278.32C193.582 278.011 193.535 277.829 193.464 277.586C193.464 277.477 193.405 277.368 193.37 277.265C193.334 277.162 193.27 276.913 193.217 276.737L193.111 276.398C193.064 276.246 193.016 276.094 192.963 275.943C192.875 275.67 192.781 275.403 192.687 275.13C192.592 274.857 192.492 274.59 192.392 274.323C192.192 273.777 191.974 273.238 191.756 272.698C190.902 270.599 189.941 268.531 189.058 266.481C188.583 265.406 188.162 264.307 187.797 263.187L187.685 263.351C187.506 263.63 187.347 263.922 187.208 264.224C187.208 268.998 182.566 274.839 182.566 274.839L177.895 267.833L173.807 274.305C173.218 274.627 172.628 275.73 172.169 277.301C172.039 277.726 171.916 278.187 171.798 278.678C171.715 279.006 171.639 279.351 171.568 279.697C171.527 279.873 171.492 280.049 171.456 280.231L171.35 280.783V280.868C171.28 281.244 171.209 281.632 171.144 282.026C171.079 282.421 171.003 282.875 170.938 283.306C170.891 283.585 170.849 283.864 170.814 284.143C170.732 284.683 170.661 285.229 170.59 285.769C170.549 286.084 170.508 286.375 170.472 286.709L170.331 287.922C170.632 288.917 170.967 289.899 171.315 290.863C171.537 291.392 171.667 291.957 171.698 292.531C178.926 294.658 186.589 294.658 193.818 292.531C193.815 292.511 193.815 292.491 193.818 292.471C193.709 291.926 193.661 291.371 193.676 290.815C193.795 289.259 193.992 287.71 194.265 286.175C194.352 285.418 194.39 284.656 194.377 283.894V283.621C194.359 283.391 194.354 283.173 194.348 282.954ZM194.348 282.954C194.348 282.712 194.348 282.469 194.306 282.226C194.265 281.984 194.271 281.772 194.242 281.541C194.212 281.311 194.189 281.08 194.159 280.85C194.13 280.619 194.088 280.389 194.047 280.158C194.006 279.928 193.965 279.697 193.918 279.467C193.918 279.388 193.888 279.315 193.871 279.236C193.806 278.933 193.735 278.63 193.658 278.32C193.582 278.011 193.535 277.829 193.464 277.586C193.464 277.477 193.405 277.368 193.37 277.265C193.334 277.162 193.27 276.913 193.217 276.737L193.111 276.398C193.064 276.246 193.016 276.094 192.963 275.943C192.875 275.67 192.781 275.403 192.687 275.13C192.592 274.857 192.492 274.59 192.392 274.323C192.192 273.777 191.974 273.238 191.756 272.698C190.902 270.599 189.941 268.531 189.058 266.481C188.583 265.406 188.162 264.307 187.797 263.187L187.685 263.351C187.506 263.63 187.347 263.922 187.208 264.224C187.208 268.998 182.566 274.839 182.566 274.839L177.895 267.833L173.807 274.305C173.218 274.627 172.628 275.73 172.169 277.301C172.039 277.726 171.916 278.187 171.798 278.678C171.715 279.006 171.639 279.351 171.568 279.697C171.527 279.873 171.492 280.049 171.456 280.231L171.35 280.783V280.868C171.28 281.244 171.209 281.632 171.144 282.026C171.079 282.421 171.003 282.875 170.938 283.306C170.891 283.585 170.849 283.864 170.814 284.143C170.732 284.683 170.661 285.229 170.59 285.769C170.549 286.084 170.508 286.375 170.472 286.709L170.331 287.922C170.632 288.917 170.967 289.899 171.315 290.863C171.537 291.392 171.667 291.957 171.698 292.531C178.926 294.658 186.589 294.658 193.818 292.531C193.815 292.511 193.815 292.491 193.818 292.471C193.709 291.926 193.661 291.371 193.676 290.815C193.795 289.259 193.992 287.71 194.265 286.175C194.352 285.418 194.39 284.656 194.377 283.894V283.621C194.359 283.391 194.354 283.173 194.348 282.954ZM200.592 271.57L198.489 262.926L198.13 261.447L198.029 261.04L197.517 258.929C197.518 258.911 197.518 258.893 197.517 258.875C197.529 258.782 197.515 258.687 197.476 258.602C197.399 258.444 197.205 258.28 196.751 258.238C196.579 258.225 196.405 258.225 196.233 258.238C195.721 258.29 195.214 258.388 194.719 258.529C194.477 258.596 194.218 258.669 193.941 258.76L193.435 258.923H193.388C192.031 259.382 190.771 260.102 189.676 261.046C188.953 261.667 188.318 262.39 187.791 263.193L187.679 263.357C187.5 263.636 187.341 263.928 187.202 264.231C187.202 269.004 182.56 274.845 182.56 274.845L177.889 267.839L177.624 267.445L177.577 267.378L176.899 266.353L176.387 265.65L176.251 265.468L173.836 262.15L173.07 261.077V261.04L172.805 260.67L172.299 259.979L170.531 261.04L166.113 263.691L164.075 277.344V277.489L164.134 278.484L164.57 286.084V286.515L163.904 289.25C165.683 290.238 167.535 291.082 169.442 291.773L169.942 291.955C170.531 292.155 171.085 292.337 171.662 292.513C171.684 292.603 171.7 292.694 171.71 292.786C171.71 292.701 171.71 292.61 171.71 292.525C178.938 294.652 186.601 294.652 193.829 292.525L193.965 292.483C194.301 292.386 194.642 292.283 194.972 292.168L195.508 291.992C196.962 291.491 198.386 290.904 199.773 290.233L200.262 279.388L200.615 271.642L200.592 271.57ZM171.621 292.513C171.643 292.603 171.658 292.694 171.668 292.786C171.668 292.701 171.668 292.61 171.668 292.525L171.621 292.513ZM194.348 282.954C194.348 282.712 194.348 282.469 194.306 282.226C194.265 281.984 194.271 281.772 194.242 281.541C194.212 281.311 194.189 281.08 194.159 280.85C194.13 280.619 194.088 280.389 194.047 280.158C194.006 279.928 193.965 279.697 193.918 279.467C193.918 279.388 193.888 279.315 193.871 279.236C193.806 278.933 193.735 278.63 193.658 278.32C193.582 278.011 193.535 277.829 193.464 277.586C193.464 277.477 193.405 277.368 193.37 277.265C193.334 277.162 193.27 276.913 193.217 276.737L193.111 276.398C193.064 276.246 193.016 276.094 192.963 275.943C192.875 275.67 192.781 275.403 192.687 275.13C192.592 274.857 192.492 274.59 192.392 274.323C192.192 273.777 191.974 273.238 191.756 272.698C190.902 270.599 189.941 268.531 189.058 266.481C188.583 265.406 188.162 264.307 187.797 263.187L187.685 263.351C187.506 263.63 187.347 263.922 187.208 264.224C187.208 268.998 182.566 274.839 182.566 274.839L177.895 267.833L173.807 274.305C173.218 274.627 172.628 275.73 172.169 277.301C172.039 277.726 171.916 278.187 171.798 278.678C171.715 279.006 171.639 279.351 171.568 279.697C171.527 279.873 171.492 280.049 171.456 280.231L171.35 280.783V280.868C171.28 281.244 171.209 281.632 171.144 282.026C171.079 282.421 171.003 282.875 170.938 283.306C170.891 283.585 170.849 283.864 170.814 284.143C170.732 284.683 170.661 285.229 170.59 285.769C170.549 286.084 170.508 286.375 170.472 286.709L170.331 287.922C170.632 288.917 170.967 289.899 171.315 290.863C171.537 291.392 171.667 291.957 171.698 292.531C178.926 294.658 186.589 294.658 193.818 292.531C193.815 292.511 193.815 292.491 193.818 292.471C193.709 291.926 193.661 291.371 193.676 290.815C193.795 289.259 193.992 287.71 194.265 286.175C194.352 285.418 194.39 284.656 194.377 283.894V283.621C194.359 283.391 194.354 283.173 194.348 282.954ZM194.348 282.954C194.348 282.712 194.348 282.469 194.306 282.226C194.265 281.984 194.271 281.772 194.242 281.541C194.212 281.311 194.189 281.08 194.159 280.85C194.13 280.619 194.088 280.389 194.047 280.158C194.006 279.928 193.965 279.697 193.918 279.467C193.918 279.388 193.888 279.315 193.871 279.236C193.806 278.933 193.735 278.63 193.658 278.32C193.582 278.011 193.535 277.829 193.464 277.586C193.464 277.477 193.405 277.368 193.37 277.265C193.334 277.162 193.27 276.913 193.217 276.737L193.111 276.398C193.064 276.246 193.016 276.094 192.963 275.943C192.875 275.67 192.781 275.403 192.687 275.13C192.592 274.857 192.492 274.59 192.392 274.323C192.192 273.777 191.974 273.238 191.756 272.698C190.902 270.599 189.941 268.531 189.058 266.481C188.583 265.406 188.162 264.307 187.797 263.187L187.685 263.351C187.506 263.63 187.347 263.922 187.208 264.224C187.208 268.998 182.566 274.839 182.566 274.839L177.895 267.833L173.807 274.305C173.218 274.627 172.628 275.73 172.169 277.301C172.039 277.726 171.916 278.187 171.798 278.678C171.715 279.006 171.639 279.351 171.568 279.697C171.527 279.873 171.492 280.049 171.456 280.231L171.35 280.783V280.868C171.28 281.244 171.209 281.632 171.144 282.026C171.079 282.421 171.003 282.875 170.938 283.306C170.891 283.585 170.849 283.864 170.814 284.143C170.732 284.683 170.661 285.229 170.59 285.769C170.549 286.084 170.508 286.375 170.472 286.709L170.331 287.922C170.632 288.917 170.967 289.899 171.315 290.863C171.537 291.392 171.667 291.957 171.698 292.531C178.926 294.658 186.589 294.658 193.818 292.531C193.815 292.511 193.815 292.491 193.818 292.471C193.709 291.926 193.661 291.371 193.676 290.815C193.795 289.259 193.992 287.71 194.265 286.175C194.352 285.418 194.39 284.656 194.377 283.894V283.621C194.359 283.391 194.354 283.173 194.348 282.954ZM194.348 282.954C194.348 282.712 194.348 282.469 194.306 282.226C194.265 281.984 194.271 281.772 194.242 281.541C194.212 281.311 194.189 281.08 194.159 280.85C194.13 280.619 194.088 280.389 194.047 280.158C194.006 279.928 193.965 279.697 193.918 279.467C193.918 279.388 193.888 279.315 193.871 279.236C193.806 278.933 193.735 278.63 193.658 278.32C193.582 278.011 193.535 277.829 193.464 277.586C193.464 277.477 193.405 277.368 193.37 277.265C193.334 277.162 193.27 276.913 193.217 276.737L193.111 276.398C193.064 276.246 193.016 276.094 192.963 275.943C192.875 275.67 192.781 275.403 192.687 275.13C192.592 274.857 192.492 274.59 192.392 274.323C192.192 273.777 191.974 273.238 191.756 272.698C190.902 270.599 189.941 268.531 189.058 266.481C188.583 265.406 188.162 264.307 187.797 263.187L187.685 263.351C187.506 263.63 187.347 263.922 187.208 264.224C187.208 268.998 182.566 274.839 182.566 274.839L177.895 267.833L173.807 274.305C173.218 274.627 172.628 275.73 172.169 277.301C172.039 277.726 171.916 278.187 171.798 278.678C171.715 279.006 171.639 279.351 171.568 279.697C171.527 279.873 171.492 280.049 171.456 280.231L171.35 280.783V280.868C171.28 281.244 171.209 281.632 171.144 282.026C171.079 282.421 171.003 282.875 170.938 283.306C170.891 283.585 170.849 283.864 170.814 284.143C170.732 284.683 170.661 285.229 170.59 285.769C170.549 286.084 170.508 286.375 170.472 286.709L170.331 287.922C170.632 288.917 170.967 289.899 171.315 290.863C171.537 291.392 171.667 291.957 171.698 292.531C178.926 294.658 186.589 294.658 193.818 292.531C193.815 292.511 193.815 292.491 193.818 292.471C193.709 291.926 193.661 291.371 193.676 290.815C193.795 289.259 193.992 287.71 194.265 286.175C194.352 285.418 194.39 284.656 194.377 283.894V283.621C194.359 283.391 194.354 283.173 194.348 282.954ZM194.348 282.954C194.348 282.712 194.348 282.469 194.306 282.226C194.265 281.984 194.271 281.772 194.242 281.541C194.212 281.311 194.189 281.08 194.159 280.85C194.13 280.619 194.088 280.389 194.047 280.158C194.006 279.928 193.965 279.697 193.918 279.467C193.918 279.388 193.888 279.315 193.871 279.236C193.806 278.933 193.735 278.63 193.658 278.32C193.582 278.011 193.535 277.829 193.464 277.586C193.464 277.477 193.405 277.368 193.37 277.265C193.334 277.162 193.27 276.913 193.217 276.737L193.111 276.398C193.064 276.246 193.016 276.094 192.963 275.943C192.875 275.67 192.781 275.403 192.687 275.13C192.592 274.857 192.492 274.59 192.392 274.323C192.192 273.777 191.974 273.238 191.756 272.698C190.902 270.599 189.941 268.531 189.058 266.481C188.583 265.406 188.162 264.307 187.797 263.187L187.685 263.351C187.506 263.63 187.347 263.922 187.208 264.224C187.208 268.998 182.566 274.839 182.566 274.839L177.895 267.833L173.807 274.305C173.218 274.627 172.628 275.73 172.169 277.301C172.039 277.726 171.916 278.187 171.798 278.678C171.715 279.006 171.639 279.351 171.568 279.697C171.527 279.873 171.492 280.049 171.456 280.231L171.35 280.783V280.868C171.28 281.244 171.209 281.632 171.144 282.026C171.079 282.421 171.003 282.875 170.938 283.306C170.891 283.585 170.849 283.864 170.814 284.143C170.732 284.683 170.661 285.229 170.59 285.769C170.549 286.084 170.508 286.375 170.472 286.709L170.331 287.922C170.632 288.917 170.967 289.899 171.315 290.863C171.537 291.392 171.667 291.957 171.698 292.531C178.926 294.658 186.589 294.658 193.818 292.531C193.815 292.511 193.815 292.491 193.818 292.471C193.709 291.926 193.661 291.371 193.676 290.815C193.795 289.259 193.992 287.71 194.265 286.175C194.352 285.418 194.39 284.656 194.377 283.894V283.621C194.359 283.391 194.354 283.173 194.348 282.954ZM194.348 282.954C194.348 282.712 194.348 282.469 194.306 282.226C194.265 281.984 194.271 281.772 194.242 281.541C194.212 281.311 194.189 281.08 194.159 280.85C194.13 280.619 194.088 280.389 194.047 280.158C194.006 279.928 193.965 279.697 193.918 279.467C193.918 279.388 193.888 279.315 193.871 279.236C193.806 278.933 193.735 278.63 193.658 278.32C193.582 278.011 193.535 277.829 193.464 277.586C193.464 277.477 193.405 277.368 193.37 277.265C193.334 277.162 193.27 276.913 193.217 276.737L193.111 276.398C193.064 276.246 193.016 276.094 192.963 275.943C192.875 275.67 192.781 275.403 192.687 275.13C192.592 274.857 192.492 274.59 192.392 274.323C192.192 273.777 191.974 273.238 191.756 272.698C190.902 270.599 189.941 268.531 189.058 266.481C188.583 265.406 188.162 264.307 187.797 263.187L187.685 263.351C187.506 263.63 187.347 263.922 187.208 264.224C187.208 268.998 182.566 274.839 182.566 274.839L177.895 267.833L173.807 274.305C173.218 274.627 172.628 275.73 172.169 277.301C172.039 277.726 171.916 278.187 171.798 278.678C171.715 279.006 171.639 279.351 171.568 279.697C171.527 279.873 171.492 280.049 171.456 280.231L171.35 280.783V280.868C171.28 281.244 171.209 281.632 171.144 282.026C171.079 282.421 171.003 282.875 170.938 283.306C170.891 283.585 170.849 283.864 170.814 284.143C170.732 284.683 170.661 285.229 170.59 285.769C170.549 286.084 170.508 286.375 170.472 286.709L170.331 287.922C170.632 288.917 170.967 289.899 171.315 290.863C171.537 291.392 171.667 291.957 171.698 292.531C178.926 294.658 186.589 294.658 193.818 292.531C193.815 292.511 193.815 292.491 193.818 292.471C193.709 291.926 193.661 291.371 193.676 290.815C193.795 289.259 193.992 287.71 194.265 286.175C194.352 285.418 194.39 284.656 194.377 283.894V283.621C194.359 283.391 194.354 283.173 194.348 282.954ZM194.348 282.954C194.348 282.712 194.348 282.469 194.306 282.226C194.265 281.984 194.271 281.772 194.242 281.541C194.212 281.311 194.189 281.08 194.159 280.85C194.13 280.619 194.088 280.389 194.047 280.158C194.006 279.928 193.965 279.697 193.918 279.467C193.918 279.388 193.888 279.315 193.871 279.236C193.806 278.933 193.735 278.63 193.658 278.32C193.582 278.011 193.535 277.829 193.464 277.586C193.464 277.477 193.405 277.368 193.37 277.265C193.334 277.162 193.27 276.913 193.217 276.737L193.111 276.398C193.064 276.246 193.016 276.094 192.963 275.943C192.875 275.67 192.781 275.403 192.687 275.13C192.592 274.857 192.492 274.59 192.392 274.323C192.192 273.777 191.974 273.238 191.756 272.698C190.902 270.599 189.941 268.531 189.058 266.481C188.583 265.406 188.162 264.307 187.797 263.187L187.685 263.351C187.506 263.63 187.347 263.922 187.208 264.224C187.208 268.998 182.566 274.839 182.566 274.839L177.895 267.833L173.807 274.305C173.218 274.627 172.628 275.73 172.169 277.301C172.039 277.726 171.916 278.187 171.798 278.678C171.715 279.006 171.639 279.351 171.568 279.697C171.527 279.873 171.492 280.049 171.456 280.231L171.35 280.783V280.868C171.28 281.244 171.209 281.632 171.144 282.026C171.079 282.421 171.003 282.875 170.938 283.306C170.891 283.585 170.849 283.864 170.814 284.143C170.732 284.683 170.661 285.229 170.59 285.769C170.549 286.084 170.508 286.375 170.472 286.709L170.331 287.922C170.632 288.917 170.967 289.899 171.315 290.863C171.537 291.392 171.667 291.957 171.698 292.531C178.926 294.658 186.589 294.658 193.818 292.531C193.815 292.511 193.815 292.491 193.818 292.471C193.709 291.926 193.661 291.371 193.676 290.815C193.795 289.259 193.992 287.71 194.265 286.175C194.352 285.418 194.39 284.656 194.377 283.894V283.621C194.359 283.391 194.354 283.173 194.348 282.954ZM194.348 282.954C194.348 282.712 194.348 282.469 194.306 282.226C194.265 281.984 194.271 281.772 194.242 281.541C194.212 281.311 194.189 281.08 194.159 280.85C194.13 280.619 194.088 280.389 194.047 280.158C194.006 279.928 193.965 279.697 193.918 279.467C193.918 279.388 193.888 279.315 193.871 279.236C193.806 278.933 193.735 278.63 193.658 278.32C193.582 278.011 193.535 277.829 193.464 277.586C193.464 277.477 193.405 277.368 193.37 277.265C193.334 277.162 193.27 276.913 193.217 276.737L193.111 276.398C193.064 276.246 193.016 276.094 192.963 275.943C192.875 275.67 192.781 275.403 192.687 275.13C192.592 274.857 192.492 274.59 192.392 274.323C192.192 273.777 191.974 273.238 191.756 272.698C190.902 270.599 189.941 268.531 189.058 266.481C188.583 265.406 188.162 264.307 187.797 263.187L187.685 263.351C187.506 263.63 187.347 263.922 187.208 264.224C187.208 268.998 182.566 274.839 182.566 274.839L177.895 267.833L173.807 274.305C173.218 274.627 172.628 275.73 172.169 277.301C172.039 277.726 171.916 278.187 171.798 278.678C171.715 279.006 171.639 279.351 171.568 279.697C171.527 279.873 171.492 280.049 171.456 280.231L171.35 280.783V280.868C171.28 281.244 171.209 281.632 171.144 282.026C171.079 282.421 171.003 282.875 170.938 283.306C170.891 283.585 170.849 283.864 170.814 284.143C170.732 284.683 170.661 285.229 170.59 285.769C170.549 286.084 170.508 286.375 170.472 286.709L170.331 287.922C170.632 288.917 170.967 289.899 171.315 290.863C171.537 291.392 171.667 291.957 171.698 292.531C178.926 294.658 186.589 294.658 193.818 292.531C193.815 292.511 193.815 292.491 193.818 292.471C193.709 291.926 193.661 291.371 193.676 290.815C193.795 289.259 193.992 287.71 194.265 286.175C194.352 285.418 194.39 284.656 194.377 283.894V283.621C194.359 283.391 194.354 283.173 194.348 282.954ZM194.348 282.954C194.348 282.712 194.348 282.469 194.306 282.226C194.265 281.984 194.271 281.772 194.242 281.541C194.212 281.311 194.189 281.08 194.159 280.85C194.13 280.619 194.088 280.389 194.047 280.158C194.006 279.928 193.965 279.697 193.918 279.467C193.918 279.388 193.888 279.315 193.871 279.236C193.806 278.933 193.735 278.63 193.658 278.32C193.582 278.011 193.535 277.829 193.464 277.586C193.464 277.477 193.405 277.368 193.37 277.265C193.334 277.162 193.27 276.913 193.217 276.737L193.111 276.398C193.064 276.246 193.016 276.094 192.963 275.943C192.875 275.67 192.781 275.403 192.687 275.13C192.592 274.857 192.492 274.59 192.392 274.323C192.192 273.777 191.974 273.238 191.756 272.698C190.902 270.599 189.941 268.531 189.058 266.481C188.583 265.406 188.162 264.307 187.797 263.187L187.685 263.351C187.506 263.63 187.347 263.922 187.208 264.224C187.208 268.998 182.566 274.839 182.566 274.839L177.895 267.833L173.807 274.305C173.218 274.627 172.628 275.73 172.169 277.301C172.039 277.726 171.916 278.187 171.798 278.678C171.715 279.006 171.639 279.351 171.568 279.697C171.527 279.873 171.492 280.049 171.456 280.231L171.35 280.783V280.868C171.28 281.244 171.209 281.632 171.144 282.026C171.079 282.421 171.003 282.875 170.938 283.306C170.891 283.585 170.849 283.864 170.814 284.143C170.732 284.683 170.661 285.229 170.59 285.769C170.549 286.084 170.508 286.375 170.472 286.709L170.331 287.922C170.632 288.917 170.967 289.899 171.315 290.863C171.537 291.392 171.667 291.957 171.698 292.531C178.926 294.658 186.589 294.658 193.818 292.531C193.815 292.511 193.815 292.491 193.818 292.471C193.709 291.926 193.661 291.371 193.676 290.815C193.795 289.259 193.992 287.71 194.265 286.175C194.352 285.418 194.39 284.656 194.377 283.894V283.621C194.359 283.391 194.354 283.173 194.348 282.954Z" fill="white"/>
<path opacity="0.1" d="M177.977 267.427L177.582 267.373C176.986 267.29 176.396 267.168 175.815 267.009L175.597 266.948C174.159 266.53 172.587 265.777 172.233 264.455C172.128 264.03 172.14 263.582 172.269 263.163C172.466 262.442 172.735 261.743 173.07 261.077V261.04C173.114 260.947 173.163 260.856 173.217 260.767C173.703 259.789 174.438 258.965 175.344 258.384L174.637 258.499L168.652 259.5L159.374 261.04C159.374 261.04 157.724 260.701 155.48 267.069C155.48 267.148 155.427 267.221 155.403 267.306C154.861 268.865 154.29 270.812 153.701 273.244C153.294 274.93 152.923 276.586 152.582 278.193C152.482 278.678 152.381 279.158 152.287 279.631C153.349 280.92 154.493 282.135 155.71 283.27L155.904 283.458C158.288 285.681 160.922 287.601 163.751 289.178L163.862 289.238C165.642 290.226 167.493 291.07 169.4 291.761L169.9 291.943C170.007 290.821 170.124 289.578 170.266 288.304C170.266 288.177 170.266 288.049 170.313 287.922L170.454 286.709C170.49 286.4 170.531 286.102 170.572 285.769C170.643 285.229 170.713 284.683 170.796 284.143C170.831 283.864 170.872 283.585 170.92 283.306C170.984 282.876 171.055 282.445 171.126 282.027C171.196 281.608 171.261 281.244 171.332 280.868V280.783L171.438 280.231C171.473 280.049 171.509 279.873 171.55 279.697C171.621 279.352 171.697 279.006 171.78 278.678C171.897 278.187 172.021 277.726 172.151 277.302C172.622 275.731 173.17 274.627 173.788 274.305L177.877 267.834L178.047 267.561L178.124 267.439L177.977 267.427Z" fill="black"/>
<path opacity="0.1" d="M170.537 224.466C169.947 225.303 169.995 226.456 169.729 227.499C169.099 229.87 166.602 231.356 166.03 233.746C165.694 235.141 166.083 236.621 165.853 238.04C165.435 240.655 163.114 242.426 161.818 244.712C161.161 245.89 160.772 247.206 160.679 248.561C160.586 249.916 160.792 251.275 161.282 252.537C161.585 253.173 161.836 253.834 162.03 254.514C162.179 255.527 162.117 256.56 161.848 257.547C161.406 259.706 160.952 262.083 161.965 264.03C162.82 265.674 164.593 266.639 166.378 266.942C168.18 267.152 170.003 267.066 171.779 266.687C173.729 266.378 175.726 266.02 177.423 264.989L171.043 249.134C170.401 247.533 169.741 245.877 169.747 244.142C169.799 242.863 170.068 241.602 170.542 240.418C171.778 236.987 173.57 233.798 175.844 230.986C176.769 232.09 176.698 233.77 177.47 234.996C178.152 235.901 179.06 236.6 180.097 237.015C183.12 238.534 186.226 239.87 189.399 241.019C189.598 241.044 189.788 241.12 189.951 241.239C190.115 241.359 190.248 241.518 190.338 241.703C190.427 241.888 190.471 242.092 190.466 242.299C190.46 242.505 190.405 242.707 190.306 242.887L187.902 253.101C187.372 255.351 186.907 257.953 188.268 259.773C189.628 261.592 192.698 262.453 192.715 264.801C192.69 265.172 192.69 265.545 192.715 265.917C192.874 267.015 194.141 267.542 195.219 267.597C196.988 267.633 198.713 267.02 200.084 265.868C201.456 264.716 202.385 263.099 202.706 261.307C203.295 257.292 200.715 253.592 199.637 249.68C197.823 243.099 200.226 235.378 196.662 229.597C193.776 224.909 188.515 223.635 183.52 223.053C180.015 222.628 173.005 221.112 170.537 224.466Z" fill="black"/>
<path opacity="0.5" d="M170.537 223.86C169.947 224.697 169.995 225.849 169.729 226.892C169.099 229.264 166.602 230.75 166.03 233.14C165.694 234.535 166.083 236.015 165.853 237.434C165.435 240.048 163.114 241.819 161.818 244.106C161.161 245.284 160.772 246.6 160.679 247.955C160.586 249.31 160.792 250.669 161.282 251.93C161.585 252.566 161.836 253.228 162.03 253.907C162.179 254.92 162.117 255.954 161.848 256.94C161.406 259.099 160.952 261.477 161.965 263.424C162.82 265.068 164.593 266.032 166.378 266.335C168.18 266.545 170.003 266.459 171.779 266.081C173.729 265.771 175.726 265.413 177.423 264.382L171.043 248.527C170.401 246.926 169.741 245.27 169.747 243.536C169.799 242.256 170.068 240.996 170.542 239.812C171.778 236.381 173.57 233.192 175.844 230.38C176.769 231.484 176.698 233.164 177.47 234.389C178.152 235.295 179.06 235.993 180.097 236.409C183.12 237.927 186.226 239.264 189.399 240.412C189.598 240.438 189.788 240.514 189.951 240.633C190.115 240.752 190.248 240.912 190.338 241.096C190.427 241.281 190.471 241.486 190.466 241.692C190.46 241.899 190.405 242.101 190.306 242.28L187.902 252.494C187.372 254.744 186.907 257.346 188.268 259.166C189.628 260.986 192.698 261.847 192.715 264.194C192.69 264.566 192.69 264.939 192.715 265.31C192.874 266.408 194.141 266.936 195.219 266.99C196.988 267.026 198.713 266.414 200.084 265.261C201.456 264.109 202.385 262.493 202.706 260.701C203.295 256.685 200.715 252.986 199.637 249.073C197.823 242.492 200.226 234.771 196.662 228.991C193.776 224.302 188.515 223.029 183.52 222.446C180.015 222.022 173.005 220.506 170.537 223.86Z" fill="#493545"/>
</g>
<g opacity="0.5">
<path opacity="0.5" d="M166.914 386.32C166.967 388.352 165.624 390.087 164.557 391.779C163.491 393.471 162.702 395.782 163.798 397.474C164.157 398.032 164.699 398.463 165.023 399.045C166.16 401.077 164.269 403.412 163.58 405.644C162.784 408.222 163.709 411.103 165.382 413.195C167.055 415.288 169.364 416.701 171.697 417.945C176.602 420.636 181.866 422.565 187.319 423.67C190.17 424.21 193.21 424.453 195.884 423.276C197.74 422.4 199.256 420.907 200.188 419.037C201.121 417.167 201.416 415.028 201.027 412.965C200.35 409.775 198.082 407.209 196.904 404.195C196.629 403.603 196.495 402.952 196.515 402.296C196.615 401.15 197.469 400.252 198.135 399.324C199.804 396.797 200.486 393.715 200.043 390.693C199.578 387.671 198.454 384.797 196.756 382.286C196.149 381.246 195.349 380.339 194.4 379.618C193.116 378.726 191.525 378.471 189.994 378.247C183.596 377.325 176.969 376.318 170.519 375.979C168.481 375.869 166.984 376.282 165.977 378.247C164.44 381.177 166.837 383.378 166.914 386.32Z" fill="#444176"/>
<path opacity="0.5" d="M199.861 406.948L187.72 424.726L175.868 423.664C175.868 423.664 175.479 427.91 170.714 412.522C168.051 403.916 173.465 406.906 174.531 404.522C175.597 402.138 177.476 400.034 177.635 398.275C178.012 394.502 176.899 392.355 176.899 392.355L189.782 390.766C189.201 392.553 189.127 394.475 189.57 396.304C191.184 403.206 199.861 406.948 199.861 406.948Z" fill="#C77485"/>
<path opacity="0.5" d="M181.6 391.791C190.059 391.791 196.916 386.224 196.916 379.357C196.916 372.49 190.059 366.923 181.6 366.923C173.141 366.923 166.284 372.49 166.284 379.357C166.284 386.224 173.141 391.791 181.6 391.791Z" fill="#444176"/>
<path opacity="0.1" d="M189.565 396.297C187.884 397.608 185.917 398.473 183.837 398.818C181.756 399.162 179.624 398.976 177.63 398.275C178.007 394.502 176.894 392.355 176.894 392.355L189.777 390.766C189.196 392.551 189.123 394.47 189.565 396.297Z" fill="black"/>
<path opacity="0.5" d="M181.794 398.457C188.909 398.457 194.677 392.518 194.677 385.192C194.677 377.866 188.909 371.927 181.794 371.927C174.679 371.927 168.911 377.866 168.911 385.192C168.911 392.518 174.679 398.457 181.794 398.457Z" fill="#C77485"/>
<path opacity="0.1" d="M198.589 408.962L198.288 407.749L198.029 406.681L197.646 405.104L197.576 404.813L197.517 404.571C197.517 404.571 197.823 403.618 195.802 403.928L195.425 403.994C195.107 404.061 194.736 404.152 194.312 404.274L193.929 404.395L193.423 404.559C191.819 405.096 190.356 406.005 189.146 407.215C188.603 407.75 188.122 408.349 187.714 408.998C187.673 409.059 187.644 409.114 187.608 409.162C187.469 409.387 187.345 409.623 187.237 409.866C187.237 414.645 182.595 420.48 182.595 420.48L178.065 413.742L177.977 413.608L176.899 411.995L176.516 411.473L176.387 411.291L174.03 408.034L173.441 407.221L173.247 406.948L172.958 406.554L172.281 405.626L169.63 407.221L166.095 409.344L164.034 423.143V423.525L164.098 424.665L164.528 432.162V432.265L163.774 435.371L163.886 435.431C165.666 436.419 167.517 437.263 169.424 437.954L169.924 438.136C170.513 438.336 171.067 438.518 171.644 438.694C171.666 438.784 171.682 438.875 171.692 438.967C171.692 438.882 171.692 438.791 171.692 438.706C178.92 440.833 186.583 440.833 193.811 438.706L193.947 438.664C194.283 438.567 194.624 438.464 194.954 438.349L195.49 438.173C196.944 437.672 198.368 437.085 199.755 436.414L200.25 425.557L200.603 417.726V417.278L198.589 408.962Z" fill="black"/>
<path opacity="0.5" d="M194.348 429.129C194.348 428.887 194.348 428.644 194.306 428.401C194.265 428.159 194.271 427.947 194.242 427.716C194.212 427.486 194.189 427.255 194.159 427.025C194.13 426.794 194.088 426.564 194.047 426.333C194.006 426.103 193.965 425.872 193.918 425.642C193.918 425.563 193.888 425.49 193.871 425.411C193.806 425.108 193.735 424.805 193.658 424.495C193.582 424.186 193.535 424.004 193.464 423.761C193.464 423.652 193.405 423.543 193.37 423.44C193.334 423.337 193.27 423.088 193.217 422.912L193.111 422.573C193.064 422.421 193.016 422.269 192.963 422.118C192.875 421.845 192.781 421.578 192.687 421.305C192.592 421.032 192.492 420.765 192.392 420.498C192.192 419.952 191.974 419.413 191.756 418.873C190.902 416.774 189.941 414.706 189.058 412.656C188.583 411.581 188.162 410.482 187.797 409.362L187.685 409.526C187.506 409.805 187.347 410.097 187.208 410.4C187.208 415.173 182.566 421.014 182.566 421.014L177.895 414.008L173.807 420.48C173.218 420.802 172.628 421.905 172.169 423.476C172.039 423.901 171.916 424.362 171.798 424.853C171.715 425.181 171.639 425.526 171.568 425.872C171.527 426.048 171.492 426.224 171.456 426.406L171.35 426.958V427.043C171.28 427.419 171.209 427.807 171.144 428.201C171.079 428.596 171.003 429.05 170.938 429.481C170.891 429.76 170.849 430.039 170.814 430.318C170.732 430.858 170.661 431.404 170.59 431.944C170.549 432.259 170.508 432.55 170.472 432.884L170.331 434.097C170.632 435.092 170.967 436.074 171.315 437.038C171.537 437.567 171.667 438.132 171.698 438.706C178.926 440.833 186.589 440.833 193.818 438.706C193.815 438.686 193.815 438.666 193.818 438.646C193.709 438.101 193.661 437.546 193.676 436.99C193.795 435.434 193.992 433.885 194.265 432.35C194.352 431.593 194.39 430.831 194.377 430.069V429.796C194.359 429.566 194.354 429.348 194.348 429.129ZM194.348 429.129C194.348 428.887 194.348 428.644 194.306 428.401C194.265 428.159 194.271 427.947 194.242 427.716C194.212 427.486 194.189 427.255 194.159 427.025C194.13 426.794 194.088 426.564 194.047 426.333C194.006 426.103 193.965 425.872 193.918 425.642C193.918 425.563 193.888 425.49 193.871 425.411C193.806 425.108 193.735 424.805 193.658 424.495C193.582 424.186 193.535 424.004 193.464 423.761C193.464 423.652 193.405 423.543 193.37 423.44C193.334 423.337 193.27 423.088 193.217 422.912L193.111 422.573C193.064 422.421 193.016 422.269 192.963 422.118C192.875 421.845 192.781 421.578 192.687 421.305C192.592 421.032 192.492 420.765 192.392 420.498C192.192 419.952 191.974 419.413 191.756 418.873C190.902 416.774 189.941 414.706 189.058 412.656C188.583 411.581 188.162 410.482 187.797 409.362L187.685 409.526C187.506 409.805 187.347 410.097 187.208 410.4C187.208 415.173 182.566 421.014 182.566 421.014L177.895 414.008L173.807 420.48C173.218 420.802 172.628 421.905 172.169 423.476C172.039 423.901 171.916 424.362 171.798 424.853C171.715 425.181 171.639 425.526 171.568 425.872C171.527 426.048 171.492 426.224 171.456 426.406L171.35 426.958V427.043C171.28 427.419 171.209 427.807 171.144 428.201C171.079 428.596 171.003 429.05 170.938 429.481C170.891 429.76 170.849 430.039 170.814 430.318C170.732 430.858 170.661 431.404 170.59 431.944C170.549 432.259 170.508 432.55 170.472 432.884L170.331 434.097C170.632 435.092 170.967 436.074 171.315 437.038C171.537 437.567 171.667 438.132 171.698 438.706C178.926 440.833 186.589 440.833 193.818 438.706C193.815 438.686 193.815 438.666 193.818 438.646C193.709 438.101 193.661 437.546 193.676 436.99C193.795 435.434 193.992 433.885 194.265 432.35C194.352 431.593 194.39 430.831 194.377 430.069V429.796C194.359 429.566 194.354 429.348 194.348 429.129ZM194.348 429.129C194.348 428.887 194.348 428.644 194.306 428.401C194.265 428.159 194.271 427.947 194.242 427.716C194.212 427.486 194.189 427.255 194.159 427.025C194.13 426.794 194.088 426.564 194.047 426.333C194.006 426.103 193.965 425.872 193.918 425.642C193.918 425.563 193.888 425.49 193.871 425.411C193.806 425.108 193.735 424.805 193.658 424.495C193.582 424.186 193.535 424.004 193.464 423.761C193.464 423.652 193.405 423.543 193.37 423.44C193.334 423.337 193.27 423.088 193.217 422.912L193.111 422.573C193.064 422.421 193.016 422.269 192.963 422.118C192.875 421.845 192.781 421.578 192.687 421.305C192.592 421.032 192.492 420.765 192.392 420.498C192.192 419.952 191.974 419.413 191.756 418.873C190.902 416.774 189.941 414.706 189.058 412.656C188.583 411.581 188.162 410.482 187.797 409.362L187.685 409.526C187.506 409.805 187.347 410.097 187.208 410.4C187.208 415.173 182.566 421.014 182.566 421.014L177.895 414.008L173.807 420.48C173.218 420.802 172.628 421.905 172.169 423.476C172.039 423.901 171.916 424.362 171.798 424.853C171.715 425.181 171.639 425.526 171.568 425.872C171.527 426.048 171.492 426.224 171.456 426.406L171.35 426.958V427.043C171.28 427.419 171.209 427.807 171.144 428.201C171.079 428.596 171.003 429.05 170.938 429.481C170.891 429.76 170.849 430.039 170.814 430.318C170.732 430.858 170.661 431.404 170.59 431.944C170.549 432.259 170.508 432.55 170.472 432.884L170.331 434.097C170.632 435.092 170.967 436.074 171.315 437.038C171.537 437.567 171.667 438.132 171.698 438.706C178.926 440.833 186.589 440.833 193.818 438.706C193.815 438.686 193.815 438.666 193.818 438.646C193.709 438.101 193.661 437.546 193.676 436.99C193.795 435.434 193.992 433.885 194.265 432.35C194.352 431.593 194.39 430.831 194.377 430.069V429.796C194.359 429.566 194.354 429.348 194.348 429.129ZM200.592 417.745L198.489 409.102L198.13 407.622L198.029 407.215L197.517 405.104C197.518 405.086 197.518 405.068 197.517 405.05C197.529 404.957 197.515 404.862 197.476 404.777C197.399 404.619 197.205 404.455 196.751 404.413C196.579 404.4 196.405 404.4 196.233 404.413C195.721 404.465 195.214 404.563 194.719 404.704C194.477 404.771 194.218 404.844 193.941 404.935L193.435 405.098H193.388C192.031 405.557 190.771 406.277 189.676 407.221C188.953 407.842 188.318 408.565 187.791 409.368L187.679 409.532C187.5 409.811 187.341 410.103 187.202 410.406C187.202 415.179 182.56 421.02 182.56 421.02L177.889 414.014L177.624 413.62L177.577 413.553L176.899 412.528L176.387 411.825L176.251 411.643L173.836 408.325L173.07 407.252V407.215L172.805 406.845L172.299 406.154L170.531 407.215L166.113 409.866L164.075 423.519V423.664L164.134 424.659L164.57 432.259V432.69L163.904 435.425C165.683 436.413 167.535 437.257 169.442 437.948L169.942 438.13C170.531 438.33 171.085 438.512 171.662 438.688C171.684 438.778 171.7 438.869 171.71 438.961C171.71 438.876 171.71 438.785 171.71 438.7C178.938 440.827 186.601 440.827 193.829 438.7L193.965 438.658C194.301 438.561 194.642 438.458 194.972 438.343L195.508 438.167C196.962 437.666 198.386 437.079 199.773 436.408L200.262 425.563L200.615 417.817L200.592 417.745ZM171.621 438.688C171.643 438.778 171.658 438.869 171.668 438.961C171.668 438.876 171.668 438.785 171.668 438.7L171.621 438.688ZM194.348 429.129C194.348 428.887 194.348 428.644 194.306 428.401C194.265 428.159 194.271 427.947 194.242 427.716C194.212 427.486 194.189 427.255 194.159 427.025C194.13 426.794 194.088 426.564 194.047 426.333C194.006 426.103 193.965 425.872 193.918 425.642C193.918 425.563 193.888 425.49 193.871 425.411C193.806 425.108 193.735 424.805 193.658 424.495C193.582 424.186 193.535 424.004 193.464 423.761C193.464 423.652 193.405 423.543 193.37 423.44C193.334 423.337 193.27 423.088 193.217 422.912L193.111 422.573C193.064 422.421 193.016 422.269 192.963 422.118C192.875 421.845 192.781 421.578 192.687 421.305C192.592 421.032 192.492 420.765 192.392 420.498C192.192 419.952 191.974 419.413 191.756 418.873C190.902 416.774 189.941 414.706 189.058 412.656C188.583 411.581 188.162 410.482 187.797 409.362L187.685 409.526C187.506 409.805 187.347 410.097 187.208 410.4C187.208 415.173 182.566 421.014 182.566 421.014L177.895 414.008L173.807 420.48C173.218 420.802 172.628 421.905 172.169 423.476C172.039 423.901 171.916 424.362 171.798 424.853C171.715 425.181 171.639 425.526 171.568 425.872C171.527 426.048 171.492 426.224 171.456 426.406L171.35 426.958V427.043C171.28 427.419 171.209 427.807 171.144 428.201C171.079 428.596 171.003 429.05 170.938 429.481C170.891 429.76 170.849 430.039 170.814 430.318C170.732 430.858 170.661 431.404 170.59 431.944C170.549 432.259 170.508 432.55 170.472 432.884L170.331 434.097C170.632 435.092 170.967 436.074 171.315 437.038C171.537 437.567 171.667 438.132 171.698 438.706C178.926 440.833 186.589 440.833 193.818 438.706C193.815 438.686 193.815 438.666 193.818 438.646C193.709 438.101 193.661 437.546 193.676 436.99C193.795 435.434 193.992 433.885 194.265 432.35C194.352 431.593 194.39 430.831 194.377 430.069V429.796C194.359 429.566 194.354 429.348 194.348 429.129ZM194.348 429.129C194.348 428.887 194.348 428.644 194.306 428.401C194.265 428.159 194.271 427.947 194.242 427.716C194.212 427.486 194.189 427.255 194.159 427.025C194.13 426.794 194.088 426.564 194.047 426.333C194.006 426.103 193.965 425.872 193.918 425.642C193.918 425.563 193.888 425.49 193.871 425.411C193.806 425.108 193.735 424.805 193.658 424.495C193.582 424.186 193.535 424.004 193.464 423.761C193.464 423.652 193.405 423.543 193.37 423.44C193.334 423.337 193.27 423.088 193.217 422.912L193.111 422.573C193.064 422.421 193.016 422.269 192.963 422.118C192.875 421.845 192.781 421.578 192.687 421.305C192.592 421.032 192.492 420.765 192.392 420.498C192.192 419.952 191.974 419.413 191.756 418.873C190.902 416.774 189.941 414.706 189.058 412.656C188.583 411.581 188.162 410.482 187.797 409.362L187.685 409.526C187.506 409.805 187.347 410.097 187.208 410.4C187.208 415.173 182.566 421.014 182.566 421.014L177.895 414.008L173.807 420.48C173.218 420.802 172.628 421.905 172.169 423.476C172.039 423.901 171.916 424.362 171.798 424.853C171.715 425.181 171.639 425.526 171.568 425.872C171.527 426.048 171.492 426.224 171.456 426.406L171.35 426.958V427.043C171.28 427.419 171.209 427.807 171.144 428.201C171.079 428.596 171.003 429.05 170.938 429.481C170.891 429.76 170.849 430.039 170.814 430.318C170.732 430.858 170.661 431.404 170.59 431.944C170.549 432.259 170.508 432.55 170.472 432.884L170.331 434.097C170.632 435.092 170.967 436.074 171.315 437.038C171.537 437.567 171.667 438.132 171.698 438.706C178.926 440.833 186.589 440.833 193.818 438.706C193.815 438.686 193.815 438.666 193.818 438.646C193.709 438.101 193.661 437.546 193.676 436.99C193.795 435.434 193.992 433.885 194.265 432.35C194.352 431.593 194.39 430.831 194.377 430.069V429.796C194.359 429.566 194.354 429.348 194.348 429.129ZM194.348 429.129C194.348 428.887 194.348 428.644 194.306 428.401C194.265 428.159 194.271 427.947 194.242 427.716C194.212 427.486 194.189 427.255 194.159 427.025C194.13 426.794 194.088 426.564 194.047 426.333C194.006 426.103 193.965 425.872 193.918 425.642C193.918 425.563 193.888 425.49 193.871 425.411C193.806 425.108 193.735 424.805 193.658 424.495C193.582 424.186 193.535 424.004 193.464 423.761C193.464 423.652 193.405 423.543 193.37 423.44C193.334 423.337 193.27 423.088 193.217 422.912L193.111 422.573C193.064 422.421 193.016 422.269 192.963 422.118C192.875 421.845 192.781 421.578 192.687 421.305C192.592 421.032 192.492 420.765 192.392 420.498C192.192 419.952 191.974 419.413 191.756 418.873C190.902 416.774 189.941 414.706 189.058 412.656C188.583 411.581 188.162 410.482 187.797 409.362L187.685 409.526C187.506 409.805 187.347 410.097 187.208 410.4C187.208 415.173 182.566 421.014 182.566 421.014L177.895 414.008L173.807 420.48C173.218 420.802 172.628 421.905 172.169 423.476C172.039 423.901 171.916 424.362 171.798 424.853C171.715 425.181 171.639 425.526 171.568 425.872C171.527 426.048 171.492 426.224 171.456 426.406L171.35 426.958V427.043C171.28 427.419 171.209 427.807 171.144 428.201C171.079 428.596 171.003 429.05 170.938 429.481C170.891 429.76 170.849 430.039 170.814 430.318C170.732 430.858 170.661 431.404 170.59 431.944C170.549 432.259 170.508 432.55 170.472 432.884L170.331 434.097C170.632 435.092 170.967 436.074 171.315 437.038C171.537 437.567 171.667 438.132 171.698 438.706C178.926 440.833 186.589 440.833 193.818 438.706C193.815 438.686 193.815 438.666 193.818 438.646C193.709 438.101 193.661 437.546 193.676 436.99C193.795 435.434 193.992 433.885 194.265 432.35C194.352 431.593 194.39 430.831 194.377 430.069V429.796C194.359 429.566 194.354 429.348 194.348 429.129ZM194.348 429.129C194.348 428.887 194.348 428.644 194.306 428.401C194.265 428.159 194.271 427.947 194.242 427.716C194.212 427.486 194.189 427.255 194.159 427.025C194.13 426.794 194.088 426.564 194.047 426.333C194.006 426.103 193.965 425.872 193.918 425.642C193.918 425.563 193.888 425.49 193.871 425.411C193.806 425.108 193.735 424.805 193.658 424.495C193.582 424.186 193.535 424.004 193.464 423.761C193.464 423.652 193.405 423.543 193.37 423.44C193.334 423.337 193.27 423.088 193.217 422.912L193.111 422.573C193.064 422.421 193.016 422.269 192.963 422.118C192.875 421.845 192.781 421.578 192.687 421.305C192.592 421.032 192.492 420.765 192.392 420.498C192.192 419.952 191.974 419.413 191.756 418.873C190.902 416.774 189.941 414.706 189.058 412.656C188.583 411.581 188.162 410.482 187.797 409.362L187.685 409.526C187.506 409.805 187.347 410.097 187.208 410.4C187.208 415.173 182.566 421.014 182.566 421.014L177.895 414.008L173.807 420.48C173.218 420.802 172.628 421.905 172.169 423.476C172.039 423.901 171.916 424.362 171.798 424.853C171.715 425.181 171.639 425.526 171.568 425.872C171.527 426.048 171.492 426.224 171.456 426.406L171.35 426.958V427.043C171.28 427.419 171.209 427.807 171.144 428.201C171.079 428.596 171.003 429.05 170.938 429.481C170.891 429.76 170.849 430.039 170.814 430.318C170.732 430.858 170.661 431.404 170.59 431.944C170.549 432.259 170.508 432.55 170.472 432.884L170.331 434.097C170.632 435.092 170.967 436.074 171.315 437.038C171.537 437.567 171.667 438.132 171.698 438.706C178.926 440.833 186.589 440.833 193.818 438.706C193.815 438.686 193.815 438.666 193.818 438.646C193.709 438.101 193.661 437.546 193.676 436.99C193.795 435.434 193.992 433.885 194.265 432.35C194.352 431.593 194.39 430.831 194.377 430.069V429.796C194.359 429.566 194.354 429.348 194.348 429.129ZM194.348 429.129C194.348 428.887 194.348 428.644 194.306 428.401C194.265 428.159 194.271 427.947 194.242 427.716C194.212 427.486 194.189 427.255 194.159 427.025C194.13 426.794 194.088 426.564 194.047 426.333C194.006 426.103 193.965 425.872 193.918 425.642C193.918 425.563 193.888 425.49 193.871 425.411C193.806 425.108 193.735 424.805 193.658 424.495C193.582 424.186 193.535 424.004 193.464 423.761C193.464 423.652 193.405 423.543 193.37 423.44C193.334 423.337 193.27 423.088 193.217 422.912L193.111 422.573C193.064 422.421 193.016 422.269 192.963 422.118C192.875 421.845 192.781 421.578 192.687 421.305C192.592 421.032 192.492 420.765 192.392 420.498C192.192 419.952 191.974 419.413 191.756 418.873C190.902 416.774 189.941 414.706 189.058 412.656C188.583 411.581 188.162 410.482 187.797 409.362L187.685 409.526C187.506 409.805 187.347 410.097 187.208 410.4C187.208 415.173 182.566 421.014 182.566 421.014L177.895 414.008L173.807 420.48C173.218 420.802 172.628 421.905 172.169 423.476C172.039 423.901 171.916 424.362 171.798 424.853C171.715 425.181 171.639 425.526 171.568 425.872C171.527 426.048 171.492 426.224 171.456 426.406L171.35 426.958V427.043C171.28 427.419 171.209 427.807 171.144 428.201C171.079 428.596 171.003 429.05 170.938 429.481C170.891 429.76 170.849 430.039 170.814 430.318C170.732 430.858 170.661 431.404 170.59 431.944C170.549 432.259 170.508 432.55 170.472 432.884L170.331 434.097C170.632 435.092 170.967 436.074 171.315 437.038C171.537 437.567 171.667 438.132 171.698 438.706C178.926 440.833 186.589 440.833 193.818 438.706C193.815 438.686 193.815 438.666 193.818 438.646C193.709 438.101 193.661 437.546 193.676 436.99C193.795 435.434 193.992 433.885 194.265 432.35C194.352 431.593 194.39 430.831 194.377 430.069V429.796C194.359 429.566 194.354 429.348 194.348 429.129ZM194.348 429.129C194.348 428.887 194.348 428.644 194.306 428.401C194.265 428.159 194.271 427.947 194.242 427.716C194.212 427.486 194.189 427.255 194.159 427.025C194.13 426.794 194.088 426.564 194.047 426.333C194.006 426.103 193.965 425.872 193.918 425.642C193.918 425.563 193.888 425.49 193.871 425.411C193.806 425.108 193.735 424.805 193.658 424.495C193.582 424.186 193.535 424.004 193.464 423.761C193.464 423.652 193.405 423.543 193.37 423.44C193.334 423.337 193.27 423.088 193.217 422.912L193.111 422.573C193.064 422.421 193.016 422.269 192.963 422.118C192.875 421.845 192.781 421.578 192.687 421.305C192.592 421.032 192.492 420.765 192.392 420.498C192.192 419.952 191.974 419.413 191.756 418.873C190.902 416.774 189.941 414.706 189.058 412.656C188.583 411.581 188.162 410.482 187.797 409.362L187.685 409.526C187.506 409.805 187.347 410.097 187.208 410.4C187.208 415.173 182.566 421.014 182.566 421.014L177.895 414.008L173.807 420.48C173.218 420.802 172.628 421.905 172.169 423.476C172.039 423.901 171.916 424.362 171.798 424.853C171.715 425.181 171.639 425.526 171.568 425.872C171.527 426.048 171.492 426.224 171.456 426.406L171.35 426.958V427.043C171.28 427.419 171.209 427.807 171.144 428.201C171.079 428.596 171.003 429.05 170.938 429.481C170.891 429.76 170.849 430.039 170.814 430.318C170.732 430.858 170.661 431.404 170.59 431.944C170.549 432.259 170.508 432.55 170.472 432.884L170.331 434.097C170.632 435.092 170.967 436.074 171.315 437.038C171.537 437.567 171.667 438.132 171.698 438.706C178.926 440.833 186.589 440.833 193.818 438.706C193.815 438.686 193.815 438.666 193.818 438.646C193.709 438.101 193.661 437.546 193.676 436.99C193.795 435.434 193.992 433.885 194.265 432.35C194.352 431.593 194.39 430.831 194.377 430.069V429.796C194.359 429.566 194.354 429.348 194.348 429.129ZM194.348 429.129C194.348 428.887 194.348 428.644 194.306 428.401C194.265 428.159 194.271 427.947 194.242 427.716C194.212 427.486 194.189 427.255 194.159 427.025C194.13 426.794 194.088 426.564 194.047 426.333C194.006 426.103 193.965 425.872 193.918 425.642C193.918 425.563 193.888 425.49 193.871 425.411C193.806 425.108 193.735 424.805 193.658 424.495C193.582 424.186 193.535 424.004 193.464 423.761C193.464 423.652 193.405 423.543 193.37 423.44C193.334 423.337 193.27 423.088 193.217 422.912L193.111 422.573C193.064 422.421 193.016 422.269 192.963 422.118C192.875 421.845 192.781 421.578 192.687 421.305C192.592 421.032 192.492 420.765 192.392 420.498C192.192 419.952 191.974 419.413 191.756 418.873C190.902 416.774 189.941 414.706 189.058 412.656C188.583 411.581 188.162 410.482 187.797 409.362L187.685 409.526C187.506 409.805 187.347 410.097 187.208 410.4C187.208 415.173 182.566 421.014 182.566 421.014L177.895 414.008L173.807 420.48C173.218 420.802 172.628 421.905 172.169 423.476C172.039 423.901 171.916 424.362 171.798 424.853C171.715 425.181 171.639 425.526 171.568 425.872C171.527 426.048 171.492 426.224 171.456 426.406L171.35 426.958V427.043C171.28 427.419 171.209 427.807 171.144 428.201C171.079 428.596 171.003 429.05 170.938 429.481C170.891 429.76 170.849 430.039 170.814 430.318C170.732 430.858 170.661 431.404 170.59 431.944C170.549 432.259 170.508 432.55 170.472 432.884L170.331 434.097C170.632 435.092 170.967 436.074 171.315 437.038C171.537 437.567 171.667 438.132 171.698 438.706C178.926 440.833 186.589 440.833 193.818 438.706C193.815 438.686 193.815 438.666 193.818 438.646C193.709 438.101 193.661 437.546 193.676 436.99C193.795 435.434 193.992 433.885 194.265 432.35C194.352 431.593 194.39 430.831 194.377 430.069V429.796C194.359 429.566 194.354 429.348 194.348 429.129ZM194.348 429.129C194.348 428.887 194.348 428.644 194.306 428.401C194.265 428.159 194.271 427.947 194.242 427.716C194.212 427.486 194.189 427.255 194.159 427.025C194.13 426.794 194.088 426.564 194.047 426.333C194.006 426.103 193.965 425.872 193.918 425.642C193.918 425.563 193.888 425.49 193.871 425.411C193.806 425.108 193.735 424.805 193.658 424.495C193.582 424.186 193.535 424.004 193.464 423.761C193.464 423.652 193.405 423.543 193.37 423.44C193.334 423.337 193.27 423.088 193.217 422.912L193.111 422.573C193.064 422.421 193.016 422.269 192.963 422.118C192.875 421.845 192.781 421.578 192.687 421.305C192.592 421.032 192.492 420.765 192.392 420.498C192.192 419.952 191.974 419.413 191.756 418.873C190.902 416.774 189.941 414.706 189.058 412.656C188.583 411.581 188.162 410.482 187.797 409.362L187.685 409.526C187.506 409.805 187.347 410.097 187.208 410.4C187.208 415.173 182.566 421.014 182.566 421.014L177.895 414.008L173.807 420.48C173.218 420.802 172.628 421.905 172.169 423.476C172.039 423.901 171.916 424.362 171.798 424.853C171.715 425.181 171.639 425.526 171.568 425.872C171.527 426.048 171.492 426.224 171.456 426.406L171.35 426.958V427.043C171.28 427.419 171.209 427.807 171.144 428.201C171.079 428.596 171.003 429.05 170.938 429.481C170.891 429.76 170.849 430.039 170.814 430.318C170.732 430.858 170.661 431.404 170.59 431.944C170.549 432.259 170.508 432.55 170.472 432.884L170.331 434.097C170.632 435.092 170.967 436.074 171.315 437.038C171.537 437.567 171.667 438.132 171.698 438.706C178.926 440.833 186.589 440.833 193.818 438.706C193.815 438.686 193.815 438.666 193.818 438.646C193.709 438.101 193.661 437.546 193.676 436.99C193.795 435.434 193.992 433.885 194.265 432.35C194.352 431.593 194.39 430.831 194.377 430.069V429.796C194.359 429.566 194.354 429.348 194.348 429.129Z" fill="#444176"/>
<path opacity="0.1" d="M177.977 413.602L177.582 413.547C176.986 413.464 176.396 413.343 175.815 413.184L175.597 413.123C174.159 412.704 172.587 411.952 172.233 410.63C172.128 410.204 172.14 409.757 172.269 409.338C172.466 408.616 172.735 407.917 173.07 407.252V407.215C173.114 407.122 173.163 407.03 173.217 406.942C173.703 405.964 174.438 405.14 175.344 404.559L174.637 404.674L168.652 405.675L159.374 407.215C159.374 407.215 157.724 406.876 155.48 413.244C155.48 413.323 155.427 413.396 155.403 413.481C154.861 415.04 154.29 416.987 153.701 419.419C153.294 421.105 152.923 422.761 152.582 424.368C152.482 424.853 152.381 425.332 152.287 425.806C153.349 427.095 154.493 428.31 155.71 429.445L155.904 429.633C158.288 431.856 160.922 433.776 163.751 435.352L163.862 435.413C165.642 436.401 167.493 437.245 169.4 437.936L169.9 438.118C170.007 436.996 170.124 435.753 170.266 434.479C170.266 434.352 170.266 434.224 170.313 434.097L170.454 432.884C170.49 432.574 170.531 432.277 170.572 431.944C170.643 431.404 170.713 430.858 170.796 430.318C170.831 430.039 170.872 429.76 170.92 429.481C170.984 429.051 171.055 428.62 171.126 428.201C171.196 427.783 171.261 427.419 171.332 427.043V426.958L171.438 426.406C171.473 426.224 171.509 426.048 171.55 425.872C171.621 425.527 171.697 425.181 171.78 424.853C171.897 424.362 172.021 423.901 172.151 423.476C172.622 421.906 173.17 420.802 173.788 420.48L177.877 414.008L178.047 413.735L178.124 413.614L177.977 413.602Z" fill="black"/>
<path opacity="0.1" d="M178.961 381.31C180.799 380.989 182.648 380.297 184.475 380.704C186.006 381.031 187.284 382.08 188.686 382.808C190.04 383.509 191.521 383.912 193.034 383.991C193.586 384.066 194.146 383.953 194.63 383.67C195.361 383.148 195.467 382.08 195.343 381.171C194.99 378.587 193.423 376.367 191.809 374.353C191.164 373.493 190.421 372.717 189.594 372.042C187.479 370.435 184.681 370.162 182.059 370.283C179.067 370.423 176.027 371.017 173.429 372.564C171.662 373.607 167.609 376.895 169.017 379.272C170.496 381.759 176.646 381.717 178.961 381.31Z" fill="black"/>
<path opacity="0.5" d="M178.961 380.703C180.799 380.382 182.648 379.691 184.475 380.097C186.006 380.424 187.284 381.474 188.686 382.202C190.04 382.903 191.521 383.305 193.034 383.384C193.586 383.459 194.146 383.346 194.63 383.063C195.361 382.541 195.467 381.474 195.343 380.564C194.99 377.98 193.423 375.76 191.809 373.746C191.164 372.886 190.421 372.11 189.594 371.436C187.479 369.828 184.681 369.555 182.059 369.677C179.067 369.816 176.027 370.411 173.429 371.957C171.662 373 167.609 376.288 169.017 378.665C170.496 381.152 176.646 381.11 178.961 380.703Z" fill="#444176"/>
</g>
<path d="M340.726 351.001H340.815C340.944 355.065 341.504 358.741 342.582 359.76C345.15 362.186 355.801 357.334 355.07 354.398C354.923 353.791 354.676 352.797 354.364 351.541C357.238 351.171 359.695 350.328 360.673 348.593L362.522 354.465L362.652 354.883H362.687H362.793C364.013 366.783 366.775 391.494 368.984 394.805C371.93 399.191 375.317 418.193 375.317 418.193L381.65 457.175C381.65 457.175 384.088 479.617 385.549 482.043C385.974 482.506 386.539 482.808 387.151 482.898C386.297 485.531 385.072 488.606 383.617 490.322C380.672 493.731 376.796 500.555 373.385 500.069C369.974 499.584 369.002 506.893 375.335 507.863C378.84 508.403 384.43 507.748 388.724 507.057C388.724 509.01 390.044 511.254 393.36 511.763C399.693 512.74 412.847 509.816 412.847 509.816C412.847 509.816 424.039 504.964 424.54 501.531C424.894 499.044 423.179 489.061 422.225 483.826C423.992 480.909 422.107 455.732 422.107 455.732L418.696 407.494C418.696 407.494 420.646 380.697 418.696 375.821C417.477 372.788 417.024 358.838 416.853 348.86L419.209 349.018C419.343 348.851 419.465 348.675 419.574 348.49L420.163 348.533C420.163 348.533 423.109 345.124 420.652 339.762C418.844 335.777 419.185 317.788 419.474 308.829L419.822 304.583C419.951 304.454 420.049 304.297 420.11 304.122C424.679 303.487 429.12 302.103 433.264 300.022C434.515 299.487 435.679 298.759 436.716 297.863C439.155 295.437 437.688 280.807 432.817 258.881C427.945 236.955 423.562 238.902 423.562 238.902C423.562 238.902 411.869 237.925 406.509 230.616C401.148 223.308 397.549 223.405 397.549 223.405C397.413 222.446 397.319 221.543 397.254 220.7C397.254 220.384 397.207 220.093 397.189 219.778C399.012 218.033 400.402 215.863 401.242 213.452C402.338 212.845 403.687 212.645 404.735 211.881C405.003 211.681 405.246 211.448 405.46 211.189C406.511 210.191 407.178 208.837 407.339 207.374C407.506 205.777 407.433 204.163 407.121 202.589C406.75 200.259 406.202 197.876 404.883 196.044C403.563 194.212 401.59 193.108 399.687 192.083C394.535 189.297 389.368 186.54 384.188 183.81C383.177 183.174 382.047 182.76 380.872 182.597C378.798 182.476 376.937 183.938 375.264 185.327C374.596 185.867 373.957 186.444 373.349 187.055C372.833 187.527 372.361 188.049 371.942 188.614C369.986 191.313 369.155 196.396 370.015 199.768C370.286 200.836 370.869 201.145 371.588 201.133C370.522 203.316 369.967 205.725 369.968 208.169C369.98 210.844 370.645 213.473 371.901 215.814C373.158 218.156 374.967 220.134 377.161 221.567C377.161 221.907 377.161 222.24 377.19 222.562C377.214 223.806 377.175 225.051 377.072 226.292C377.072 226.292 364.113 233.504 362.658 236.912C361.203 240.321 355.836 242.759 355.836 242.759C355.836 242.759 345.604 248.121 345.604 267.124L340.243 293.92L339.271 345.082C339.271 345.082 339.943 344.475 341.039 343.614C341.003 343.953 340.974 344.305 340.944 344.663C340.798 346.618 340.749 348.58 340.797 350.54L340.726 351.001ZM406.173 483.414C405.972 484.196 405.678 485.234 405.307 486.447C405.142 485.44 404.977 484.445 404.812 483.499C405.236 483.456 405.69 483.432 406.173 483.414Z" fill="url(#paint2_linear)"/>
<path d="M388.478 477.13C388.478 477.13 386.599 485.828 383.765 489.206C380.932 492.585 377.221 499.354 373.945 498.868C370.67 498.383 369.722 505.631 375.824 506.596C381.927 507.56 394.563 504.667 394.563 504.667C394.563 504.667 405.355 499.815 405.82 496.455C406.286 493.094 403.004 475.681 403.004 475.681L388.478 477.13Z" fill="#53526B"/>
<path opacity="0.05" d="M388.478 477.13C388.478 477.13 386.599 485.828 383.765 489.206C380.932 492.585 377.221 499.354 373.945 498.868C370.67 498.383 369.722 505.631 375.824 506.596C381.927 507.56 394.563 504.667 394.563 504.667C394.563 504.667 405.355 499.815 405.82 496.455C406.286 493.094 403.004 475.681 403.004 475.681L388.478 477.13Z" fill="black"/>
<path d="M405.838 480.994C405.838 480.994 403.959 489.692 401.125 493.07C398.292 496.448 394.563 503.217 391.294 502.732C388.024 502.247 387.07 509.495 393.173 510.459C399.276 511.424 411.941 508.525 411.941 508.525C411.941 508.525 422.733 503.672 423.198 500.312C423.663 496.952 420.382 479.538 420.382 479.538L405.838 480.994Z" fill="#53526B"/>
<path d="M363.142 348.642C363.142 348.642 366.894 390.184 369.71 394.532C372.526 398.881 375.807 417.72 375.807 417.72L381.904 456.363C381.904 456.363 384.26 478.586 385.656 481C387.052 483.414 404.465 482.377 404.465 482.377L393.638 354.434L363.142 348.642Z" fill="#5F5D7E"/>
<path opacity="0.05" d="M363.142 348.642C363.142 348.642 366.894 390.184 369.71 394.532C372.526 398.881 375.807 417.72 375.807 417.72L381.904 456.363C381.904 456.363 384.26 478.586 385.656 481C387.052 483.414 404.465 482.377 404.465 482.377L393.638 354.434L363.142 348.642Z" fill="black"/>
<path d="M355.637 328.827L356.862 332.836L363.489 354.495L363.619 354.908H363.654C364.544 355.114 383.323 359.56 387.376 360.924C387.595 360.994 387.809 361.077 388.018 361.173C389.897 362.138 392.242 396.916 392.242 396.916C392.242 396.916 393.65 429.766 394.598 432.18C395.547 434.594 399.311 484.342 401.638 482.899C403.964 481.455 420.871 482.899 420.871 482.899C422.75 480.964 420.871 454.883 420.871 454.883L417.537 407.07C417.537 407.07 419.416 380.503 417.537 375.669C415.658 370.835 415.658 338.477 415.658 338.477L377.256 332.296L373.545 331.689L355.637 328.827Z" fill="#5F5D7E"/>
<path opacity="0.02" d="M356.861 332.842L363.488 354.501L363.647 354.926C364.537 355.132 383.317 359.578 387.37 360.943H387.776L377.285 332.302L376.984 331.477L373.573 331.701L356.861 332.842Z" fill="black"/>
<path opacity="0.1" d="M400.678 232.224C400.678 232.224 383.318 251.548 372.526 235.602L362.205 242.85L364.084 253.962L357.981 338.01C357.981 338.01 373.934 337.524 385.191 341.388C388.326 342.533 391.714 342.732 394.955 341.962C398.197 341.191 401.157 339.483 403.488 337.039L401.632 263.139L405.856 240.436L400.678 232.224Z" fill="black"/>
<path d="M400.678 230.774C400.678 230.774 383.318 250.098 372.526 234.153L362.205 241.401L364.084 252.512L357.981 336.56C357.981 336.56 373.934 336.075 385.191 339.938C388.326 341.083 391.714 341.282 394.955 340.512C398.197 339.742 401.157 338.034 403.488 335.589L401.632 261.689L405.856 238.987L400.678 230.774Z" fill="#53526B"/>
<path d="M366.022 316.829V319.874H365.079V317.848H361.633V319.874H360.685V316.835L366.022 316.829Z" fill="#E82127"/>
<path d="M365.179 315.847H361.538C361.3 315.788 361.082 315.663 360.907 315.485C360.733 315.308 360.609 315.085 360.549 314.84H366.163C366.102 315.084 365.978 315.307 365.804 315.485C365.629 315.662 365.411 315.787 365.173 315.847" fill="#E82127"/>
<path d="M398.096 314.876C398.034 315.118 397.91 315.339 397.737 315.515C397.564 315.691 397.348 315.816 397.112 315.877H395.581L395.504 315.907V319.886H394.562V315.907L394.473 315.877H392.942C392.707 315.814 392.492 315.689 392.319 315.513C392.146 315.337 392.022 315.117 391.958 314.876H398.096Z" fill="#E82127"/>
<path d="M364.549 330.768C364.549 330.768 364.549 343.329 361.733 348.642C358.918 353.955 342.5 351.068 342.5 351.068L345.781 333.194L364.549 330.768Z" fill="#D6DBE6"/>
<path d="M344.285 359.76C346.759 362.186 357.015 357.334 356.308 354.446C355.814 352.402 354.082 345.088 353.098 340.939L352.415 338.022C352.415 338.022 346.406 336.087 344.285 338.022C343.514 338.725 342.972 341.497 342.718 344.845C342.283 350.662 342.724 358.219 344.285 359.76Z" fill="#FDC2CC"/>
<path d="M366.876 239.466L383.294 252.506C383.294 252.506 407.687 251.057 401.59 238.981C398.935 233.669 397.333 227.867 396.878 221.913C396.679 219.716 396.679 217.504 396.878 215.308C396.878 215.308 374.357 194.079 377.173 218.207C377.395 220.059 377.525 221.921 377.562 223.787C377.898 241.898 366.876 239.466 366.876 239.466Z" fill="#FDC2CC"/>
<path opacity="0.1" d="M377.22 218.213C377.442 220.065 377.572 221.927 377.609 223.793C380.136 225.516 383.102 226.432 386.133 226.425C390.333 226.425 393.426 222.216 396.218 219.42C395.906 215.411 396.919 215.314 396.919 215.314C396.919 215.314 374.404 194.061 377.22 218.213Z" fill="black"/>
<path d="M386.133 225.461C394.683 225.461 401.614 218.325 401.614 209.521C401.614 200.718 394.683 193.582 386.133 193.582C377.583 193.582 370.652 200.718 370.652 209.521C370.652 218.325 377.583 225.461 386.133 225.461Z" fill="#FDC2CC"/>
<path opacity="0.1" d="M397.155 224.733C397.155 224.733 399.735 224.976 404.895 232.218C410.056 239.46 421.313 240.43 421.313 240.43C421.313 240.43 425.536 238.495 430.225 260.234C434.915 281.972 436.322 296.462 433.978 298.876C431.633 301.29 422.249 304.68 417.537 304.68C417.537 304.68 416.129 335.11 418.473 340.424C420.818 345.737 418.002 349.121 418.002 349.121L397.384 347.672C397.384 347.672 390.345 338.495 388.937 322.555C387.529 306.615 382.84 261.204 385.185 255.891C387.529 250.578 397.85 237.052 397.384 235.602C396.919 234.153 397.155 224.733 397.155 224.733Z" fill="black"/>
<path d="M397.207 224.587C397.207 224.587 400.677 224.49 405.837 231.738C410.998 238.987 422.249 239.951 422.249 239.951C422.249 239.951 426.473 238.016 431.162 259.754C435.851 281.493 437.259 295.983 434.914 298.397C432.57 300.811 423.186 304.195 418.497 304.195C418.497 304.195 417.089 334.625 419.433 339.938C421.778 345.251 418.962 348.636 418.962 348.636L398.344 347.186C398.344 347.186 391.305 338.009 389.897 322.07C388.489 306.13 383.788 260.725 386.133 255.436C388.477 250.147 398.798 236.597 398.333 235.147C397.867 233.698 397.207 224.587 397.207 224.587Z" fill="#D6DBE6"/>
<path opacity="0.1" d="M342.724 344.839C344.968 343.074 349.203 340.327 353.103 340.933L352.42 338.016C352.42 338.016 346.411 336.081 344.291 338.016C343.507 338.719 342.971 341.485 342.724 344.839Z" fill="black"/>
<path opacity="0.1" d="M377.479 227.632C377.479 227.632 365.515 235.602 364.107 238.987C362.699 242.371 357.539 244.785 357.539 244.785C357.539 244.785 347.69 250.098 347.69 268.937L342.529 295.504L365.986 329.318C365.986 329.318 368.802 295.504 370.21 287.291C371.618 279.079 373.491 263.636 373.491 263.636C373.491 263.636 380.531 254.459 379.588 252.045C378.645 249.631 377.479 227.632 377.479 227.632Z" fill="black"/>
<path d="M377.479 227.487C377.479 227.487 365.002 234.638 363.6 238.016C362.198 241.395 357.032 243.815 357.032 243.815C357.032 243.815 347.183 249.128 347.183 267.967L342.023 294.533L341.086 345.252C341.086 345.252 349.533 337.039 355.63 340.903C361.727 344.766 365.48 328.341 365.48 328.341C365.48 328.341 368.295 294.527 369.703 286.315C371.111 278.102 372.984 262.66 372.984 262.66C372.984 262.66 380.024 253.483 379.081 251.069C378.139 248.655 377.479 227.487 377.479 227.487Z" fill="#D6DBE6"/>
<path opacity="0.1" d="M372.543 190.13C373.338 189.09 374.256 188.157 375.277 187.352C376.891 185.97 378.676 184.526 380.678 184.647C381.812 184.803 382.9 185.204 383.871 185.824C388.859 188.529 393.832 191.263 398.792 194.024C400.624 195.043 402.515 196.123 403.794 197.955C405.072 199.786 405.59 202.14 405.95 204.445C406.25 206.006 406.322 207.605 406.162 209.188C406.016 210.74 405.284 212.171 404.124 213.173C402.786 214.173 400.954 214.179 399.835 215.49C399.187 216.248 398.904 217.309 398.445 218.231C397.985 219.153 397.19 220.051 396.283 219.887C395.376 219.723 394.828 218.735 394.698 217.734C394.641 216.719 394.698 215.702 394.869 214.701C395.046 212.881 394.822 210.953 393.797 209.6C393.09 208.678 392.077 208.12 391.394 207.174C389.756 204.893 390.504 201.109 388.707 198.968C388.186 198.408 387.529 198.001 386.805 197.788C386.08 197.575 385.314 197.563 384.584 197.754C383.129 198.07 381.798 198.883 380.46 199.574C378.654 200.512 376.762 201.264 374.811 201.818C373.174 202.279 371.277 203.383 370.717 201.139C369.863 197.845 370.658 192.805 372.543 190.13Z" fill="black"/>
<path d="M373.015 189.651C373.809 188.611 374.727 187.678 375.748 186.873C377.362 185.491 379.147 184.047 381.15 184.168C382.283 184.324 383.371 184.725 384.343 185.345C389.326 188.05 393.467 185.491 399.264 193.545C400.501 195.268 402.987 195.644 404.265 197.476C405.543 199.307 406.062 201.661 406.421 203.966C406.722 205.527 406.793 207.126 406.633 208.709C406.487 210.261 405.755 211.692 404.595 212.694C403.258 213.694 401.426 213.7 400.306 215.011C399.658 215.769 399.376 216.83 398.916 217.752C398.457 218.674 397.662 219.572 396.754 219.408C395.847 219.244 395.299 218.255 395.17 217.255C395.112 216.24 395.169 215.223 395.341 214.222C395.517 212.402 395.293 210.474 394.268 209.121C393.562 208.199 392.548 207.641 391.865 206.695C390.227 204.414 390.976 200.63 389.179 198.489C388.657 197.929 388.001 197.522 387.276 197.309C386.552 197.096 385.785 197.084 385.055 197.275C383.6 197.591 382.269 198.404 380.932 199.095C379.125 200.033 377.233 200.785 375.283 201.339C373.645 201.8 371.748 202.904 371.188 200.66C370.328 197.366 371.13 192.32 373.015 189.651Z" fill="#865A61"/>
<path opacity="0.1" d="M415.298 263.375C415.298 263.375 421.554 279.8 416.859 286.563L406.538 284.137C406.538 284.137 415.922 287.036 414.514 281.238C413.106 275.439 415.298 263.375 415.298 263.375Z" fill="black"/>
<path opacity="0.1" d="M418.715 303.959C418.715 303.959 405.107 304.923 401.354 302.024C406.296 305.908 412.131 308.405 418.29 309.272L418.715 303.959Z" fill="black"/>
<path opacity="0.1" d="M360.096 273.025C360.096 273.025 353.056 295.249 353.528 298.627C353.999 302.006 354.935 339.204 354.935 339.204L356.343 338.719L355.872 298.142L360.096 273.025Z" fill="black"/>
<path d="M420.37 300.186L259.553 166.748C258.617 165.785 257.505 165.021 256.282 164.501C255.059 163.981 253.748 163.714 252.425 163.716H245.592C259.247 145.698 265.714 122.996 263.673 100.238C261.632 77.4803 251.238 56.381 234.609 41.2422C217.98 26.1034 196.37 18.0651 174.184 18.7664C151.998 19.4677 130.907 28.8558 115.211 45.0163C99.5158 61.1769 90.398 82.893 89.7169 105.737C89.0358 128.58 96.8426 150.831 111.546 167.953C126.249 185.074 146.741 195.777 168.843 197.878C190.946 199.979 212.995 193.321 230.494 179.261V186.291C230.492 187.654 230.751 189.003 231.256 190.263C231.762 191.522 232.504 192.666 233.439 193.63L394.257 327.068C395.188 328.034 396.295 328.801 397.516 329.325C398.736 329.848 400.045 330.118 401.367 330.118C402.689 330.118 403.998 329.848 405.218 329.325C406.438 328.801 407.546 328.034 408.477 327.068L420.329 314.876C422.22 312.93 423.286 310.293 423.294 307.54C423.302 304.787 422.251 302.143 420.37 300.186ZM176.805 163.716C166.187 163.716 155.807 160.474 146.978 154.399C138.149 148.325 131.267 139.692 127.204 129.591C123.14 119.49 122.077 108.375 124.149 97.6517C126.22 86.9285 131.334 77.0786 138.842 69.3477C146.351 61.6167 155.917 56.3518 166.331 54.2188C176.746 52.0859 187.541 53.1806 197.351 57.3646C207.161 61.5485 215.546 68.6339 221.446 77.7245C227.345 86.8152 230.494 97.5029 230.494 108.436C230.499 115.698 229.114 122.889 226.418 129.599C223.722 136.309 219.768 142.406 214.782 147.541C209.795 152.677 203.875 156.75 197.358 159.527C190.842 162.304 183.858 163.732 176.805 163.728V163.716Z" fill="url(#paint3_linear)"/>
<path d="M421.548 298.973L260.731 165.535C259.795 164.572 258.683 163.808 257.46 163.288C256.237 162.767 254.926 162.501 253.603 162.503H246.77C260.425 144.485 266.891 121.782 264.851 99.0248C262.81 76.2671 252.415 55.1678 235.787 40.029C219.158 24.8902 197.548 16.852 175.361 17.5533C153.175 18.2546 132.084 27.6426 116.389 43.8032C100.694 59.9638 91.5757 81.6798 90.8946 104.524C90.2135 127.367 98.0204 149.618 112.723 166.74C127.426 183.861 147.918 194.564 170.021 196.665C192.124 198.766 214.172 192.108 231.672 178.048V185.078C231.67 186.44 231.929 187.79 232.434 189.049C232.94 190.309 233.681 191.453 234.617 192.417L395.434 325.854C396.365 326.821 397.473 327.588 398.693 328.111C399.914 328.635 401.223 328.904 402.545 328.904C403.867 328.904 405.176 328.635 406.396 328.111C407.616 327.588 408.724 326.821 409.655 325.854L421.507 313.663C423.398 311.717 424.464 309.08 424.472 306.327C424.479 303.574 423.428 300.93 421.548 298.973ZM177.983 162.503C167.365 162.503 156.985 159.261 148.156 153.186C139.327 147.112 132.445 138.479 128.382 128.378C124.318 118.277 123.255 107.162 125.327 96.4386C127.398 85.7154 132.511 75.8655 140.02 68.1345C147.528 60.4035 157.095 55.1387 167.509 53.0057C177.924 50.8727 188.719 51.9674 198.529 56.1514C208.339 60.3354 216.724 67.4207 222.623 76.5114C228.523 85.6021 231.672 96.2898 231.672 107.223C231.677 114.485 230.292 121.676 227.596 128.386C224.9 135.096 220.946 141.193 215.959 146.328C210.973 151.464 205.052 155.536 198.536 158.314C192.02 161.091 185.036 162.519 177.983 162.515V162.503Z" fill="#3284B8"/>
<path d="M409.59 286.806C409.59 286.806 386.116 259.087 389.414 278.108C391.771 291.634 400.672 298.882 404.895 300.332C409.119 301.781 409.59 286.806 409.59 286.806Z" fill="#FDC2CC"/>
<path d="M415.221 261.204C415.221 261.204 415.692 279.079 418.037 281.493C420.381 283.907 416.629 286.806 416.629 286.806L407.245 284.38C407.245 284.38 409.601 300.32 399.74 298.391C399.74 298.391 406.308 304.668 412.877 305.639C419.445 306.609 418.974 304.189 418.974 304.189L428.823 292.113L415.221 261.204Z" fill="#D6DBE6"/>
<path d="M417.819 304.45L427.339 302.297L426.066 297.778L420.176 295.352L412.518 298.991L417.819 304.45Z" fill="#D6DBE6"/>
<path d="M183.857 130.132L196.528 120.069C196.528 120.069 188.039 121.944 188.281 107.975C188.278 107.929 188.278 107.882 188.281 107.836C188.281 106.574 188.398 105.191 188.575 103.669C190.749 85.03 173.371 101.431 173.371 101.431C173.521 103.081 173.521 104.742 173.371 106.392C173.371 106.435 173.371 106.483 173.371 106.526C173.027 111.119 171.798 115.595 169.754 119.693C165.036 129.01 183.857 130.132 183.857 130.132Z" fill="#FDC2CC"/>
<path opacity="0.1" d="M174.991 103.802C177.141 105.955 178.455 109.868 181.689 109.868C184.029 109.873 186.318 109.166 188.269 107.836C188.269 106.574 188.387 105.191 188.563 103.669C190.737 85.03 173.359 101.431 173.359 101.431C173.359 101.431 175.221 100.77 174.991 103.802Z" fill="black"/>
<path d="M181.689 109.261C188.286 109.261 193.635 103.754 193.635 96.9607C193.635 90.1673 188.286 84.6602 181.689 84.6602C175.091 84.6602 169.742 90.1673 169.742 96.9607C169.742 103.754 175.091 109.261 181.689 109.261Z" fill="#FDC2CC"/>
<path opacity="0.1" d="M193.146 81.2089C192.461 80.3173 191.67 79.5184 190.79 78.8312C189.412 77.6485 187.88 76.4051 186.166 76.5143C185.196 76.6472 184.264 76.9903 183.432 77.5211C179.162 79.8381 175.621 77.6485 170.655 84.5387C169.595 86.0126 167.469 86.3583 166.373 87.905C165.277 89.4517 164.835 91.4835 164.523 93.4608C164.265 94.7984 164.204 96.1683 164.341 97.5246C164.471 98.8559 165.106 100.081 166.108 100.933C167.251 101.789 168.823 101.795 169.784 102.917C170.266 103.648 170.662 104.436 170.962 105.264C171.351 106.053 172.034 106.799 172.811 106.683C173.589 106.568 174.054 105.701 174.166 104.864C174.215 103.997 174.166 103.128 174.019 102.274C173.872 100.739 174.06 99.0652 174.938 97.9067C175.527 97.1122 176.411 96.6391 176.994 95.8324C178.396 93.8854 177.76 90.6162 179.297 88.8087C179.747 88.3334 180.311 87.9892 180.932 87.8112C181.552 87.6333 182.208 87.628 182.832 87.7958C184.07 88.1597 185.258 88.6856 186.366 89.3607C187.913 90.1645 189.533 90.8085 191.202 91.2834C192.604 91.6776 194.23 92.6238 194.707 90.6769C195.455 87.814 194.754 83.4955 193.146 81.2089Z" fill="black"/>
<path d="M193.146 80.6024C192.461 79.7108 191.67 78.912 190.79 78.2248C189.412 77.0421 187.88 75.7987 186.166 75.9078C185.196 76.0407 184.264 76.3839 183.432 76.9147C179.162 79.2316 175.621 77.0421 170.655 83.9323C169.595 85.4062 167.469 85.7519 166.373 87.2985C165.277 88.8452 164.835 90.8771 164.523 92.8544C164.265 94.1919 164.204 95.5618 164.341 96.9182C164.471 98.2495 165.106 99.4741 166.108 100.327C167.251 101.182 168.823 101.188 169.784 102.31C170.266 103.041 170.662 103.829 170.962 104.658C171.351 105.446 172.034 106.192 172.811 106.077C173.589 105.962 174.054 105.094 174.166 104.257C174.215 103.391 174.166 102.522 174.019 101.667C173.872 100.133 174.06 98.4588 174.938 97.3003C175.527 96.5057 176.411 96.0326 176.994 95.226C178.396 93.279 177.76 90.0098 179.297 88.2023C179.747 87.7269 180.311 87.3827 180.932 87.2048C181.552 87.0269 182.208 87.0215 182.832 87.1894C184.07 87.5533 185.258 88.0792 186.366 88.7542C187.913 89.558 189.533 90.2021 191.202 90.6769C192.604 91.0712 194.23 92.0174 194.707 90.0704C195.455 87.2076 194.754 82.889 193.146 80.6024Z" fill="#865A61"/>
<path opacity="0.1" d="M169.742 136.604L169.506 145.914C172.93 146.872 176.462 147.355 180.009 147.351C180.599 147.351 181.217 147.351 181.818 147.309C184.964 147.169 188.082 146.644 191.108 145.744H191.167C191.726 145.574 192.28 145.398 192.828 145.204H192.887L193.387 145.022C195.294 144.331 197.145 143.487 198.925 142.499L199.037 142.438C199.231 142.329 199.425 142.22 199.626 142.105L198.713 129.556L200.168 120.949L192.203 115.363C191.756 116.027 191.256 116.652 190.707 117.231C189.921 118.076 189 118.778 187.986 119.305C182.271 122.204 175.768 117.595 172.534 114.744L171.798 114.071C170.961 113.288 170.484 112.755 170.484 112.755L166.502 119.087L169.742 136.604Z" fill="black"/>
<path d="M169.742 137.21L169.506 146.521C172.93 147.479 176.462 147.962 180.009 147.958C180.599 147.958 181.217 147.958 181.818 147.916C184.964 147.776 188.082 147.251 191.108 146.351H191.167C191.726 146.181 192.28 146.005 192.828 145.811H192.887L193.387 145.629C195.294 144.938 197.145 144.094 198.925 143.106L199.037 143.045C199.231 142.936 199.425 142.827 199.626 142.712L198.713 130.162L200.168 121.556L192.203 115.969C191.756 116.634 191.256 117.259 190.707 117.838C189.921 118.683 189 119.385 187.986 119.912C182.271 122.811 175.768 118.201 172.534 115.351L171.798 114.678C170.961 113.895 170.484 113.361 170.484 113.361L166.502 119.694L169.742 137.21Z" fill="#53526B"/>
<path d="M191.82 137.956C191.82 137.956 192.256 141.529 192.828 145.799H192.887L193.387 145.617C195.294 144.925 197.145 144.082 198.925 143.093L199.036 143.033C199.231 142.924 199.425 142.814 199.626 142.699C202.237 141.19 204.675 139.383 206.895 137.313L207.089 137.125C208.306 135.991 209.45 134.775 210.512 133.486L210.635 133.334C208.532 125.819 204.156 123.454 204.156 123.454C204.156 123.454 200.173 121.586 199.084 118.978C197.994 116.37 188.374 110.856 188.374 110.856V110.899C188.374 111.366 188.221 115.642 187.991 119.942C187.844 122.738 187.661 125.546 187.449 127.33C187.403 127.909 187.301 128.482 187.143 129.04C186.395 130.878 191.82 137.956 191.82 137.956Z" fill="#01304E"/>
<defs>
<linearGradient id="paint0_linear" x1="302.95" y1="481.952" x2="302.95" y2="23.8308" gradientUnits="userSpaceOnUse">
<stop stop-color="#808080" stop-opacity="0.25"/>
<stop offset="0.54" stop-color="#808080" stop-opacity="0.12"/>
<stop offset="1" stop-color="#808080" stop-opacity="0.1"/>
</linearGradient>
<linearGradient id="paint1_linear" x1="22033.4" y1="37574.8" x2="22033.4" y2="28691.5" gradientUnits="userSpaceOnUse">
<stop stop-color="#808080" stop-opacity="0.25"/>
<stop offset="0.54" stop-color="#808080" stop-opacity="0.12"/>
<stop offset="1" stop-color="#808080" stop-opacity="0.1"/>
</linearGradient>
<linearGradient id="paint2_linear" x1="-103005" y1="286078" x2="-103005" y2="107229" gradientUnits="userSpaceOnUse">
<stop stop-color="#808080" stop-opacity="0.25"/>
<stop offset="0.54" stop-color="#808080" stop-opacity="0.12"/>
<stop offset="1" stop-color="#808080" stop-opacity="0.1"/>
</linearGradient>
<linearGradient id="paint3_linear" x1="159729" y1="176937" x2="159729" y2="17011.5" gradientUnits="userSpaceOnUse">
<stop stop-color="#808080" stop-opacity="0.25"/>
<stop offset="0.54" stop-color="#808080" stop-opacity="0.12"/>
<stop offset="1" stop-color="#808080" stop-opacity="0.1"/>
</linearGradient>
</defs>
</svg>
