<svg width="457" height="380" viewBox="0 0 457 380" fill="none" xmlns="http://www.w3.org/2000/svg">
<g clip-path="url(#clip0)">
<path d="M435.145 380.295L436.769 380.263C436.141 362.207 434.215 344.22 431.005 326.44C423.983 288.374 412.307 263.375 396.302 252.136L395.369 253.465C432.759 279.719 435.126 379.292 435.145 380.295Z" fill="#2F2E41"/>
<path d="M414.848 379.906L416.471 379.874C416.437 378.076 415.422 335.692 398.737 323.977L397.805 325.306C413.816 336.548 414.84 379.474 414.848 379.906Z" fill="#2F2E41"/>
<path d="M386.131 253.612C390.615 253.612 394.25 249.977 394.25 245.492C394.25 241.008 390.615 237.373 386.131 237.373C381.647 237.373 378.012 241.008 378.012 245.492C378.012 249.977 381.647 253.612 386.131 253.612Z" fill="#3284B8"/>
<path d="M390.154 323.441C394.638 323.441 398.273 319.806 398.273 315.322C398.273 310.837 394.638 307.202 390.154 307.202C385.67 307.202 382.035 310.837 382.035 315.322C382.035 319.806 385.67 323.441 390.154 323.441Z" fill="#3284B8"/>
<path d="M418.634 258.48C417.108 268.226 421.085 276.944 421.085 276.944C421.085 276.944 427.536 269.859 429.062 260.112C430.587 250.365 426.61 241.648 426.61 241.648C426.61 241.648 420.16 248.733 418.634 258.48Z" fill="#2F2E41"/>
<path d="M392.094 282.152C401.425 285.353 410.702 282.955 410.702 282.955C410.702 282.955 404.849 275.368 395.518 272.167C386.187 268.966 376.91 271.364 376.91 271.364C376.91 271.364 382.762 278.951 392.094 282.152Z" fill="#2F2E41"/>
<path d="M391.795 343.992C396.018 345.319 400.515 345.513 404.837 344.555C402.093 341.061 398.397 338.435 394.195 336.994C389.993 335.552 385.463 335.357 381.152 336.43C383.977 339.839 387.646 342.447 391.795 343.992Z" fill="#2F2E41"/>
<path d="M263.947 126.015L211.601 98.7933C211.601 98.7933 194.022 79.4334 182.983 70.6888C171.943 61.9443 168.545 68.3683 168.545 68.3683L163.904 76.1034L175.119 91.7027L205.413 117.358L259.543 138.561C260.39 139.947 261.612 141.065 263.068 141.784C264.525 142.503 266.156 142.794 267.771 142.623C269.386 142.452 270.92 141.827 272.193 140.819C273.467 139.811 274.429 138.463 274.967 136.93C275.505 135.397 275.597 133.743 275.233 132.16C274.868 130.577 274.062 129.13 272.908 127.987C271.754 126.844 270.299 126.052 268.713 125.703C267.127 125.354 265.474 125.462 263.947 126.015Z" fill="#9F616A"/>
<path d="M127.792 102.471L124.693 83.5102L115.942 81.3224C115.942 81.3224 108.997 79.1831 107.374 93.1732C105.75 107.163 107.009 133.283 107.009 133.283L89.2422 189.549C87.7643 190.236 86.5121 191.33 85.6315 192.701C84.7508 194.073 84.2779 195.666 84.2677 197.296C84.2576 198.926 84.7107 200.526 85.5743 201.908C86.4379 203.291 87.6765 204.399 89.1457 205.105C90.6149 205.811 92.2544 206.085 93.8732 205.895C95.492 205.705 97.0236 205.059 98.2895 204.032C99.5554 203.005 100.504 201.64 101.024 200.095C101.544 198.55 101.614 196.889 101.227 195.306L124.511 142.035L127.792 102.471Z" fill="#9F616A"/>
<path d="M200.172 368.563L211.623 368.563L217.071 324.393L200.17 324.393L200.172 368.563Z" fill="#9F616A"/>
<path d="M197.25 364.825L219.801 364.824H219.802C223.613 364.824 227.268 366.338 229.963 369.033C232.658 371.729 234.173 375.384 234.173 379.196V379.663L197.251 379.664L197.25 364.825Z" fill="#2F2E41"/>
<path d="M75.277 368.563L86.7282 368.563L92.1752 324.393L75.2754 324.393L75.277 368.563Z" fill="#9F616A"/>
<path d="M72.3574 364.825L94.9082 364.824H94.9092C98.7205 364.824 102.376 366.338 105.071 369.033C107.766 371.729 109.28 375.384 109.28 379.196V379.663L72.3581 379.664L72.3574 364.825Z" fill="#2F2E41"/>
<path d="M131.807 64.595L112.814 80.8094L128.401 130.139L131.918 141.154C131.918 141.154 110.443 160.955 97.1551 216.27C83.8677 271.586 62.1309 345.086 62.1309 345.086L108.013 358.221L145.342 233.093L189.249 331.26L194.319 360.295L233.392 348.773L224.175 275.954L178.091 149.904L182.878 116.49C182.878 116.49 190.066 99.8121 177.578 82.1547L173.661 65.563L159.628 62.1064L131.807 64.595Z" fill="#2F2E41"/>
<path d="M163.361 55.7802H112.011C110.955 55.779 109.942 55.3589 109.196 54.6119C108.449 53.865 108.029 52.8522 108.027 51.7959V29.6609C108.027 21.7943 111.152 14.25 116.714 8.68747C122.276 3.12498 129.82 0 137.686 0C145.552 0 153.096 3.12498 158.658 8.68747C164.22 14.25 167.345 21.7943 167.345 29.6609V51.7959C167.344 52.8522 166.924 53.865 166.177 54.6119C165.43 55.3589 164.417 55.779 163.361 55.7802Z" fill="#2F2E41"/>
<path d="M162.86 43.9495C168.62 33.4111 164.747 20.198 154.21 14.4372C143.672 8.67643 130.46 12.5494 124.7 23.0878C118.939 33.6261 122.812 46.8392 133.35 52.6C143.887 58.3608 157.099 54.4878 162.86 43.9495Z" fill="#9F616A"/>
<path d="M174.361 31.8744H142.962L142.64 27.3661L141.03 31.8744H136.196L135.558 22.9391L132.367 31.8744H123.012V31.4317C123.019 25.2111 125.493 19.2472 129.891 14.8486C134.289 10.4499 140.253 7.97566 146.473 7.96863H150.9C157.12 7.97565 163.083 10.4499 167.482 14.8486C171.88 19.2472 174.354 25.2111 174.361 31.4317V31.8744Z" fill="#2F2E41"/>
<path d="M142.705 59.9122C142.468 59.912 142.232 59.8911 142 59.85L119.008 55.793V17.7917H144.317L143.691 18.5224C134.973 28.6906 141.541 45.1786 146.232 54.1018C146.577 54.7553 146.732 55.4932 146.676 56.2305C146.621 56.9678 146.359 57.6746 145.92 58.2694C145.552 58.778 145.069 59.1921 144.51 59.4777C143.951 59.7633 143.332 59.9122 142.705 59.9122Z" fill="#2F2E41"/>
<path d="M332.845 259.135L131.345 330.383C126.363 332.138 120.888 331.845 116.122 329.569C111.355 327.292 107.686 323.218 105.92 318.239L71.3051 220.328C69.55 215.346 69.8428 209.871 72.1192 205.104C74.3956 200.337 78.4698 196.668 83.4478 194.901L284.948 123.654C289.93 121.899 295.405 122.191 300.171 124.468C304.938 126.745 308.607 130.819 310.373 135.797L344.988 233.708C346.743 238.691 346.45 244.166 344.174 248.933C341.898 253.7 337.823 257.369 332.845 259.135Z" fill="white"/>
<path d="M344.986 233.708L345.17 234.227C346.851 238.985 346.573 244.216 344.398 248.77C342.222 253.323 338.327 256.826 333.569 258.507L131.062 330.111C126.305 331.792 121.075 331.515 116.522 329.341C111.97 327.166 108.467 323.273 106.785 318.516L106.602 317.998L344.986 233.708Z" fill="#F2F2F2"/>
<path d="M118.772 217.634C105.415 226.423 88.2973 219.809 82.3105 210.174L83.265 209.632C94.6358 202.544 111.522 206.493 118.772 217.634Z" fill="#3284B8"/>
<path d="M286.146 242.571C282.877 243.727 279.934 243.674 277.396 242.413C271.662 239.564 268.971 231.115 266.809 224.326C266.18 222.351 265.586 220.486 264.981 218.961L264.972 218.938C263.92 215.913 264.103 212.595 265.482 209.705C266.862 206.814 269.326 204.585 272.339 203.501L299.443 193.918C302.708 192.763 305.648 192.816 308.183 194.074C313.916 196.92 316.609 205.366 318.773 212.152C319.404 214.131 320 216 320.607 217.527C321.666 220.555 321.486 223.878 320.107 226.774C318.728 229.67 316.261 231.904 313.243 232.99L286.146 242.571ZM266.108 218.527C266.727 220.089 267.326 221.969 267.96 223.96C270.053 230.531 272.658 238.71 277.934 241.332C280.198 242.457 282.753 242.49 285.744 241.432L312.839 231.852C315.553 230.876 317.773 228.869 319.015 226.266C320.258 223.663 320.424 220.674 319.476 217.95C318.862 216.407 318.26 214.519 317.623 212.519C315.528 205.95 312.921 197.774 307.646 195.156C305.384 194.033 302.832 194 299.845 195.056L272.744 204.639C270.032 205.615 267.815 207.62 266.573 210.22C265.331 212.82 265.164 215.805 266.108 218.527Z" fill="#3F3D56"/>
<path d="M113.153 220.799C108.391 222.451 103.26 222.733 98.3452 221.613C91.1674 220.037 84.6533 215.751 81.3452 210.429L81.0137 209.895L82.5034 209.048C94.0452 201.859 111.353 205.756 118.823 217.235L119.151 217.738L118.649 218.068C116.935 219.198 115.089 220.115 113.153 220.799ZM82.7122 210.319C85.9496 215.129 91.974 218.977 98.6042 220.434C105.049 221.939 111.828 220.845 117.472 217.388C110.165 206.817 93.9745 203.311 83.1321 210.08L82.7122 210.319Z" fill="#3F3D56"/>
<path d="M120.232 291.073C118.54 291.743 116.697 291.939 114.902 291.641C113.107 291.343 111.427 290.562 110.042 289.381C108.421 287.964 107.192 286.154 106.474 284.124C105.756 282.095 105.572 279.915 105.941 277.794C106.284 275.969 107.125 274.274 108.372 272.898C109.618 271.522 111.222 270.517 113.004 269.996L149.117 257.227C150.831 256.517 152.707 256.294 154.54 256.582C156.373 256.871 158.09 257.659 159.503 258.862C161.123 260.279 162.351 262.09 163.068 264.119C163.785 266.149 163.968 268.329 163.598 270.449C162.885 274.176 160.369 276.922 156.534 278.236L120.421 291.005C120.358 291.028 120.295 291.051 120.232 291.073ZM113.229 271.196C111.688 271.672 110.305 272.559 109.231 273.761C108.156 274.963 107.429 276.436 107.127 278.02C106.795 279.931 106.96 281.895 107.607 283.723C108.255 285.552 109.362 287.183 110.822 288.459C112.074 289.52 113.595 290.213 115.217 290.462C116.838 290.711 118.497 290.506 120.01 289.87L156.14 277.094C157.718 276.639 159.139 275.756 160.246 274.543C161.353 273.331 162.103 271.835 162.412 270.222C162.745 268.312 162.581 266.348 161.935 264.519C161.288 262.691 160.182 261.06 158.722 259.783C157.469 258.723 155.947 258.03 154.325 257.78C152.702 257.529 151.042 257.731 149.527 258.363L113.394 271.139C113.339 271.158 113.283 271.177 113.229 271.196L113.229 271.196Z" fill="#3F3D56"/>
<path d="M286.388 213.763L275.003 217.788C274.249 218.055 273.419 218.011 272.696 217.666C271.974 217.321 271.418 216.703 271.151 215.948C270.884 215.193 270.928 214.363 271.273 213.641C271.618 212.918 272.236 212.362 272.991 212.095L284.375 208.07C285.13 207.803 285.96 207.847 286.682 208.192C287.405 208.537 287.961 209.155 288.227 209.91C288.494 210.665 288.45 211.495 288.105 212.217C287.76 212.94 287.143 213.496 286.388 213.763Z" fill="#3284B8"/>
<path d="M289.608 222.871L278.224 226.896C277.469 227.163 276.639 227.119 275.917 226.774C275.195 226.429 274.639 225.811 274.372 225.056C274.105 224.301 274.149 223.471 274.494 222.749C274.839 222.026 275.457 221.47 276.212 221.204L287.596 217.178C288.351 216.911 289.181 216.955 289.903 217.3C290.626 217.645 291.181 218.263 291.448 219.018C291.715 219.773 291.671 220.603 291.326 221.326C290.981 222.048 290.363 222.604 289.608 222.871Z" fill="#3284B8"/>
<path d="M292.825 231.979L281.441 236.004C281.067 236.136 280.671 236.194 280.275 236.173C279.879 236.152 279.492 236.053 279.134 235.882C278.776 235.711 278.456 235.472 278.19 235.177C277.925 234.882 277.721 234.538 277.589 234.164C277.457 233.79 277.399 233.394 277.42 232.998C277.441 232.603 277.54 232.215 277.711 231.857C277.882 231.499 278.121 231.179 278.416 230.913C278.711 230.648 279.055 230.444 279.428 230.312L290.813 226.286C291.186 226.154 291.583 226.097 291.978 226.118C292.374 226.139 292.762 226.238 293.12 226.408C293.478 226.579 293.798 226.819 294.063 227.114C294.328 227.408 294.533 227.753 294.665 228.126C294.797 228.5 294.854 228.896 294.833 229.292C294.812 229.688 294.714 230.076 294.543 230.434C294.372 230.791 294.132 231.112 293.838 231.377C293.543 231.642 293.199 231.847 292.825 231.979Z" fill="#3284B8"/>
<path d="M306.309 206.719L294.925 210.744C294.552 210.876 294.155 210.933 293.76 210.912C293.364 210.891 292.976 210.793 292.618 210.622C292.26 210.451 291.94 210.211 291.675 209.917C291.41 209.622 291.205 209.278 291.073 208.904C290.941 208.53 290.884 208.134 290.905 207.738C290.926 207.342 291.024 206.954 291.195 206.597C291.366 206.239 291.606 205.918 291.9 205.653C292.195 205.388 292.539 205.183 292.913 205.051L304.297 201.026C305.052 200.759 305.882 200.803 306.604 201.148C307.327 201.493 307.882 202.111 308.149 202.866C308.416 203.621 308.372 204.451 308.027 205.173C307.682 205.896 307.064 206.452 306.309 206.719Z" fill="#3284B8"/>
<path d="M309.53 215.827L298.146 219.852C297.772 219.984 297.376 220.041 296.98 220.02C296.584 219.999 296.197 219.901 295.839 219.73C295.481 219.559 295.161 219.319 294.895 219.024C294.63 218.73 294.426 218.386 294.294 218.012C294.162 217.638 294.104 217.242 294.125 216.846C294.146 216.45 294.245 216.062 294.416 215.705C294.587 215.347 294.826 215.026 295.121 214.761C295.416 214.496 295.76 214.291 296.134 214.159L307.518 210.134C307.891 210.002 308.288 209.945 308.683 209.966C309.079 209.987 309.467 210.085 309.825 210.256C310.183 210.427 310.503 210.667 310.768 210.961C311.033 211.256 311.238 211.6 311.37 211.974C311.502 212.348 311.559 212.744 311.538 213.14C311.517 213.536 311.419 213.924 311.248 214.281C311.077 214.639 310.837 214.96 310.543 215.225C310.248 215.49 309.904 215.694 309.53 215.827Z" fill="#3284B8"/>
<path d="M312.749 224.935L301.365 228.96C300.61 229.227 299.78 229.183 299.058 228.838C298.335 228.493 297.779 227.875 297.512 227.12C297.246 226.365 297.29 225.535 297.635 224.813C297.98 224.09 298.597 223.534 299.352 223.267L310.736 219.242C311.11 219.11 311.506 219.053 311.902 219.074C312.298 219.095 312.686 219.193 313.044 219.364C313.401 219.535 313.722 219.775 313.987 220.069C314.252 220.364 314.457 220.708 314.589 221.082C314.721 221.456 314.778 221.852 314.757 222.248C314.736 222.644 314.638 223.032 314.467 223.389C314.296 223.747 314.056 224.068 313.761 224.333C313.467 224.598 313.123 224.802 312.749 224.935Z" fill="#3284B8"/>
<path d="M317.911 157.111L79.5254 241.4L79.9279 242.539L318.313 158.249L317.911 157.111Z" fill="#3F3D56"/>
<path d="M332.845 259.135L131.345 330.383C126.363 332.138 120.888 331.845 116.122 329.569C111.355 327.292 107.686 323.218 105.92 318.239L71.3051 220.328C69.55 215.346 69.8428 209.871 72.1192 205.104C74.3956 200.337 78.4698 196.668 83.4478 194.901L284.948 123.654C289.93 121.899 295.405 122.191 300.171 124.468C304.938 126.745 308.607 130.819 310.373 135.797L344.988 233.708C346.743 238.691 346.45 244.166 344.174 248.933C341.898 253.7 337.823 257.369 332.845 259.135ZM83.8503 196.04C79.174 197.699 75.3467 201.146 73.2083 205.624C71.0699 210.102 70.7948 215.245 72.4436 219.926L107.058 317.837C108.718 322.513 112.164 326.341 116.642 328.479C121.12 330.618 126.263 330.893 130.943 329.244L332.443 257.997C337.119 256.337 340.946 252.891 343.085 248.413C345.223 243.935 345.498 238.791 343.85 234.111L309.235 136.2C307.575 131.523 304.129 127.696 299.651 125.557C295.174 123.419 290.031 123.144 285.351 124.792L83.8503 196.04Z" fill="#3F3D56"/>
<path d="M437.407 380H0.592693C0.435501 380 0.284747 379.895 0.173595 379.707C0.0624438 379.52 0 379.265 0 379C0 378.735 0.0624438 378.48 0.173595 378.293C0.284747 378.105 0.435501 378 0.592693 378H437.407C437.565 378 437.715 378.105 437.826 378.293C437.938 378.48 438 378.735 438 379C438 379.265 437.938 379.52 437.826 379.707C437.715 379.895 437.565 380 437.407 380Z" fill="#CBCBCB"/>
</g>
<defs>
<clipPath id="clip0">
<rect width="600" height="380" fill="white"/>
</clipPath>
</defs>
</svg>
