<svg width="610" height="409" viewBox="0 0 610 409" fill="none" xmlns="http://www.w3.org/2000/svg">
<g clip-path="url(#clip0)">
<path d="M449.148 0.306396H0.191895V287.913H449.148V0.306396Z" fill="#E6E6E6"/>
<path d="M436.31 36.3794H13.0293V146.018H436.31V36.3794Z" fill="white"/>
<path d="M207.831 52.2161H118.316V57.3559H207.831V52.2161Z" fill="#E6E6E6"/>
<path d="M256.546 70.9646H118.316V76.1044H256.546V70.9646Z" fill="#3284B8"/>
<path d="M230.971 88.6287H118.316V93.7685H230.971V88.6287Z" fill="#E6E6E6"/>
<path d="M184.082 106.226H118.316V111.366H184.082V106.226Z" fill="#E6E6E6"/>
<path d="M217.574 123.823H118.316V128.963H217.574V123.823Z" fill="#E6E6E6"/>
<path d="M88.4785 50.3887H77.5176V61.3525H88.4785V50.3887Z" fill="#E6E6E6"/>
<path d="M88.4785 68.0527H77.5176V79.0165H88.4785V68.0527Z" fill="#3284B8"/>
<path d="M88.4785 85.7166H77.5176V96.6804H88.4785V85.7166Z" fill="#E6E6E6"/>
<path d="M88.4785 103.381H77.5176V114.344H88.4785V103.381Z" fill="#E6E6E6"/>
<path d="M88.4785 121.044H77.5176V132.008H88.4785V121.044Z" fill="#E6E6E6"/>
<path d="M377.117 75.3618H340.581V111.908H377.117V75.3618Z" fill="#E6E6E6"/>
<path d="M436.31 161.245H13.0293V270.883H436.31V161.245Z" fill="white"/>
<path d="M107.355 170.989H96.3945V181.953H107.355V170.989Z" fill="#E6E6E6"/>
<path d="M88.4785 170.989H77.5176V181.953H88.4785V170.989Z" fill="#3284B8"/>
<path d="M263.362 194.965C260.021 189.308 255.386 184.524 249.837 181.008C244.288 177.492 237.983 175.343 231.442 174.738C224.901 174.134 218.31 175.091 212.211 177.531C206.112 179.971 200.679 183.824 196.359 188.774L193.688 186.439C198.376 181.065 204.273 176.882 210.893 174.233C217.514 171.584 224.668 170.544 231.768 171.2C238.868 171.856 245.711 174.189 251.735 178.006C257.758 181.823 262.789 187.016 266.414 193.158L263.362 194.965Z" fill="#E6E6E6"/>
<path d="M265.034 241.188L262.09 239.208C266.45 232.703 268.883 225.098 269.108 217.27C269.333 209.442 267.341 201.709 263.362 194.965L266.415 193.157C270.735 200.479 272.898 208.873 272.654 217.372C272.41 225.87 269.768 234.127 265.034 241.188Z" fill="#3284B8"/>
<path d="M194.057 246.131C186.725 237.94 182.64 227.349 182.572 216.355C182.504 205.36 186.457 194.72 193.687 186.439L196.359 188.773C189.698 196.403 186.056 206.204 186.119 216.333C186.182 226.461 189.945 236.217 196.699 243.763L194.057 246.131Z" fill="#3284B8"/>
<path d="M227.622 261.139C221.287 261.134 215.025 259.795 209.242 257.21C203.459 254.624 198.285 250.849 194.057 246.131L196.699 243.763C200.917 248.477 206.155 252.164 212.015 254.543C217.875 256.922 224.2 257.93 230.509 257.49C236.818 257.051 242.942 255.175 248.416 252.007C253.889 248.838 258.566 244.46 262.09 239.208L265.033 241.187C260.915 247.33 255.347 252.364 248.822 255.844C242.297 259.324 235.016 261.142 227.622 261.139Z" fill="#3284B8"/>
<path d="M377.117 194.746H340.581V231.292H377.117V194.746Z" fill="#E6E6E6"/>
<path d="M112.532 218.5H75.9951V255.046H112.532V218.5Z" fill="#E6E6E6"/>
<path d="M448.956 0.0517578H0V19.1301H448.956V0.0517578Z" fill="#3284B8"/>
<path d="M14.1738 13.3416C16.1261 13.3416 17.7089 11.7584 17.7089 9.80555C17.7089 7.85266 16.1261 6.26953 14.1738 6.26953C12.2214 6.26953 10.6387 7.85266 10.6387 9.80555C10.6387 11.7584 12.2214 13.3416 14.1738 13.3416Z" fill="white"/>
<path d="M27.5922 13.3416C29.5446 13.3416 31.1273 11.7584 31.1273 9.80555C31.1273 7.85266 29.5446 6.26953 27.5922 6.26953C25.6398 6.26953 24.0571 7.85266 24.0571 9.80555C24.0571 11.7584 25.6398 13.3416 27.5922 13.3416Z" fill="white"/>
<path d="M41.0102 13.3416C42.9626 13.3416 44.5453 11.7584 44.5453 9.80555C44.5453 7.85266 42.9626 6.26953 41.0102 6.26953C39.0578 6.26953 37.4751 7.85266 37.4751 9.80555C37.4751 11.7584 39.0578 13.3416 41.0102 13.3416Z" fill="white"/>
<path d="M521.44 398.146H530.529L534.853 363.079L521.438 363.08L521.44 398.146Z" fill="#FFB8B8"/>
<path d="M519.122 395.177L537.021 395.177H537.022C540.047 395.177 542.949 396.379 545.088 398.519C547.227 400.658 548.429 403.56 548.429 406.586V406.957L519.123 406.958L519.122 395.177Z" fill="#2F2E41"/>
<path d="M498.804 363.718L505.511 369.854L532.362 346.897L522.463 337.842L498.804 363.718Z" fill="#FFB8B8"/>
<path d="M499.096 359.963L512.305 372.046L512.306 372.046C514.538 374.089 515.868 376.934 516.002 379.957C516.137 382.98 515.066 385.933 513.024 388.166L512.774 388.44L491.148 368.657L499.096 359.963Z" fill="#2F2E41"/>
<path d="M535.726 275.002L533.15 326.536L539.59 382.579L520.27 385.156L508.034 314.297L504.169 265.983L535.726 275.002Z" fill="#2F2E41"/>
<path d="M565.995 256.321C565.995 256.321 573.723 307.211 557.622 323.959C541.522 340.708 519.626 370.34 519.626 370.34L504.17 351.015L543.454 309.143L535.726 280.8L504.17 265.984L509.322 230.554L555.69 229.91L565.995 256.321Z" fill="#2F2E41"/>
<path d="M530.532 138.437C539.243 138.437 546.304 131.374 546.304 122.661C546.304 113.948 539.243 106.884 530.532 106.884C521.821 106.884 514.76 113.948 514.76 122.661C514.76 131.374 521.821 138.437 530.532 138.437Z" fill="#FFB8B8"/>
<path d="M543.614 145.083L546.03 148.744L552.471 166.781L547.318 236.995L517.05 237.64L513.186 157.118L521.28 146.998L543.614 145.083Z" fill="#CCCCCC"/>
<path d="M500.95 159.051L495.798 158.406C495.798 158.406 494.51 159.051 493.866 163.56C493.222 168.069 485.494 208.008 485.494 208.008L495.798 256.965L507.39 241.505L500.306 214.45L507.39 187.394L500.95 159.051Z" fill="#2F2E41"/>
<path d="M566.638 158.407H570.502L580.162 210.584L571.147 251.168L562.13 236.351L564.706 220.247L563.418 206.076L558.91 197.701L566.638 158.407Z" fill="#2F2E41"/>
<path d="M539.852 122.661L536.985 121.943C536.985 121.943 534.834 109.753 529.815 111.187C524.797 112.621 511.892 114.055 511.892 108.318C511.892 102.581 524.08 97.5616 531.249 98.2787C538.418 98.9958 547.575 101.375 549.889 111.904C553.6 128.782 542.234 133.046 542.234 133.046L542.423 132.431C542.948 130.725 542.986 128.905 542.531 127.179C542.077 125.452 541.149 123.887 539.852 122.661Z" fill="#2F2E41"/>
<path d="M496.442 158.407L517.05 150.032L521.88 146.489L536.37 210.585L546.03 181.597L543.132 144.557L569.859 158.407L560.842 202.21L559.554 218.959L563.419 232.487C563.419 232.487 576.943 242.149 572.435 252.456C567.927 262.763 562.774 263.407 562.774 263.407C562.774 263.407 540.878 242.793 539.59 237.64C538.302 232.487 536.37 223.468 536.37 223.468C536.37 223.468 525.422 264.695 512.542 264.051C499.662 263.407 499.662 249.879 499.662 249.879L502.882 235.707L508.034 220.891L505.458 196.413L496.442 158.407Z" fill="#2F2E41"/>
<path d="M609.362 408.052H438.349C438.18 408.052 438.018 407.984 437.898 407.865C437.778 407.745 437.711 407.583 437.711 407.413C437.711 407.244 437.778 407.082 437.898 406.962C438.018 406.842 438.18 406.775 438.349 406.775H609.362C609.531 406.775 609.693 406.842 609.813 406.962C609.933 407.082 610 407.244 610 407.413C610 407.583 609.933 407.745 609.813 407.865C609.693 407.984 609.531 408.052 609.362 408.052Z" fill="#CCCCCC"/>
</g>
<defs>
<clipPath id="clip0">
<rect width="610" height="408" fill="white" transform="translate(0 0.0517578)"/>
</clipPath>
</defs>
</svg>
