<svg width="659" height="449" viewBox="0 0 659 449" fill="none" xmlns="http://www.w3.org/2000/svg">
<g clip-path="url(#clip0)">
<path d="M329.245 449C510.946 449 658.245 439.767 658.245 428.376C658.245 416.986 510.946 407.753 329.245 407.753C147.543 407.753 0.244629 416.986 0.244629 428.376C0.244629 439.767 147.543 449 329.245 449Z" fill="#3284B8"/>
<path d="M520.581 0H137.909V155.905H520.581V0Z" fill="#3F3D56"/>
<path d="M192.906 58.0397H164.376C162.429 46.799 162.429 35.3078 164.376 24.0671H192.906C189.692 35.1638 189.692 46.943 192.906 58.0397Z" fill="#FF6584"/>
<path d="M252.328 48.524H280.858C282.805 37.2833 282.805 25.7922 280.858 14.5515H252.328C255.542 25.6482 255.542 37.4273 252.328 48.524Z" fill="#3284B8"/>
<path d="M431.304 64.5227C446.38 64.681 461.44 64.2161 476.485 63.1281L475.486 61.8182C473.023 68.0503 473.091 74.6188 473.417 81.2114C473.499 82.8632 474.018 85.0906 473.682 86.7266C473.26 88.784 471.411 88.2922 469.572 88.3516C465.521 88.4824 461.469 88.5764 457.416 88.6336C453.588 88.6876 449.761 88.7089 445.932 88.6974C444.131 88.6918 442.33 88.679 440.528 88.6591C438.413 88.6356 436.009 89.249 435.462 86.8021C435.113 85.2347 435.465 83.1731 435.466 81.5612L435.47 75.6652L435.478 63.8732C435.469 63.605 435.355 63.3508 435.162 63.1643C434.969 62.9779 434.71 62.8736 434.442 62.8736C434.173 62.8736 433.915 62.9779 433.721 63.1643C433.528 63.3508 433.415 63.605 433.406 63.8732L433.396 78.2857L433.392 84.8368C433.391 86.138 433.12 87.7101 433.606 88.9455C434.726 91.7872 439.561 90.721 441.879 90.7423C446.608 90.7858 451.336 90.7786 456.065 90.7208C460.793 90.6636 465.521 90.5565 470.247 90.3993C472.283 90.3317 475.101 90.7941 475.718 88.2863C476.151 86.528 475.646 84.2355 475.554 82.4413C475.449 80.3938 475.335 78.3458 475.308 76.2953C475.244 71.5072 475.713 66.8492 477.484 62.3684C477.525 62.2149 477.531 62.0538 477.5 61.8977C477.47 61.7417 477.403 61.5947 477.307 61.4681C477.21 61.3416 477.086 61.2389 476.944 61.1679C476.801 61.0969 476.644 61.0595 476.485 61.0586C461.448 62.1464 446.387 62.6113 431.304 62.4532C431.035 62.4625 430.781 62.5756 430.594 62.7686C430.407 62.9616 430.303 63.2195 430.303 63.4879C430.303 63.7563 430.407 64.0142 430.594 64.2073C430.781 64.4003 431.035 64.5134 431.304 64.5227L431.304 64.5227Z" fill="#F1F1F1"/>
<path d="M435.6 65.6472C442.053 67.928 448.345 70.6414 454.432 73.769C459.893 76.5876 467.043 79.6667 470.801 84.7045C471.589 85.7603 473.389 84.7296 472.591 83.66C468.753 78.5156 462.145 75.4886 456.595 72.5646C450.003 69.1093 443.17 66.1306 436.151 63.6516C434.892 63.204 434.351 65.2028 435.6 65.6472Z" fill="#F1F1F1"/>
<path d="M476.132 61.9616C469.284 64.8861 463.483 70.5205 457.363 74.6955C450.739 79.2146 443.918 83.4202 436.9 87.3123C435.736 87.9617 436.779 89.75 437.946 89.0993C444.949 85.1937 451.77 80.9881 458.409 76.4825C464.528 72.3083 470.332 66.6723 477.178 63.7486C478.401 63.2265 477.346 61.4432 476.132 61.9616Z" fill="#F1F1F1"/>
<path d="M297.226 68.3842C311.195 68.5964 325.163 68.5408 339.131 68.2173C340.462 68.1865 340.467 66.1169 339.131 66.1478C325.164 66.4713 311.196 66.5269 297.226 66.3147C296.958 66.324 296.703 66.4371 296.517 66.6301C296.33 66.8232 296.226 67.0811 296.226 67.3495C296.226 67.6178 296.33 67.8757 296.517 68.0688C296.703 68.2618 296.958 68.3749 297.226 68.3842Z" fill="#F1F1F1"/>
<path d="M298.402 77.7671C312.762 77.9959 327.122 77.9344 341.481 77.5824C342.812 77.5497 342.817 75.4801 341.481 75.5128C327.123 75.8648 312.763 75.9264 298.402 75.6976C298.133 75.7069 297.879 75.82 297.692 76.0131C297.505 76.2061 297.401 76.464 297.401 76.7324C297.401 77.0007 297.505 77.2586 297.692 77.4517C297.879 77.6447 298.133 77.7578 298.402 77.7671Z" fill="#F1F1F1"/>
<path d="M296.83 87.898L337.56 86.0091C338.887 85.9475 338.895 83.8777 337.56 83.9396L296.83 85.8285C295.502 85.8901 295.494 87.96 296.83 87.898Z" fill="#F1F1F1"/>
<path d="M360.274 78.0583H399.042C399.311 78.049 399.565 77.9359 399.752 77.7429C399.939 77.5498 400.043 77.2919 400.043 77.0235C400.043 76.7551 399.939 76.4972 399.752 76.3042C399.565 76.1112 399.311 75.9981 399.042 75.9888H360.274C360.005 75.9981 359.751 76.1112 359.564 76.3042C359.377 76.4972 359.273 76.7551 359.273 77.0235C359.273 77.2919 359.377 77.5498 359.564 77.7429C359.751 77.9359 360.005 78.049 360.274 78.0583Z" fill="#F1F1F1"/>
<path d="M397.344 66.2264L403.401 71.7479C404.094 72.3794 405.999 73.683 406.43 74.5087C407.32 76.2157 406.363 75.8263 404.838 76.4178C401.091 77.907 397.639 80.0482 394.641 82.742C393.638 83.6243 395.108 85.0833 396.106 84.2054C398.84 81.751 401.982 79.7911 405.389 78.4134C406.611 77.9307 408.93 77.648 409.51 76.1943C410.221 74.4153 407.958 73.1025 406.885 72.1251L398.809 64.763C397.826 63.8666 396.356 65.3261 397.344 66.2264Z" fill="#F1F1F1"/>
<path d="M303.258 147.014H331.789C333.735 135.774 333.735 124.282 331.789 113.042H303.258C306.472 124.138 306.472 135.918 303.258 147.014Z" fill="#3284B8"/>
<path d="M184.45 121.49H212.98C214.927 110.249 214.927 98.758 212.98 87.5173H184.45C187.664 98.614 187.664 110.393 184.45 121.49Z" fill="#3284B8"/>
<path d="M364.734 46.9867H393.265C395.212 35.746 395.212 24.2549 393.265 13.0142H364.734C367.949 24.1109 367.949 35.89 364.734 46.9867Z" fill="#3284B8"/>
<path d="M648.507 393.086L652.226 407.942L635.864 412.399L634.375 396.801L648.507 393.086Z" fill="#FBBEBE"/>
<path d="M589.006 411.656V425.769L572.643 428.741L569.668 421.313L575.618 408.685L589.006 411.656Z" fill="#FBBEBE"/>
<path d="M621.732 257.898L619.501 277.953L620.988 316.579C621.283 316.572 621.576 316.626 621.849 316.735C622.123 316.845 622.371 317.009 622.58 317.217C622.788 317.426 622.952 317.674 623.062 317.947C623.172 318.22 623.226 318.513 623.219 318.807C623.219 321.035 620.988 320.293 623.219 321.778C624.416 322.59 625.658 323.334 626.938 324.007L650.739 396.058C650.739 396.058 644.789 403.485 633.632 401.257L631.401 393.829C631.401 393.829 626.938 389.372 626.938 387.144C626.938 384.916 628.426 384.173 626.938 381.944C625.451 379.716 603.138 334.406 603.138 334.406L592.725 315.836L589.75 341.091C589.75 341.091 595.7 373.031 594.213 387.887C592.725 402.743 589.75 418.341 589.75 418.341L571.9 415.37C571.819 412.973 571.044 410.651 569.669 408.685C567.437 405.714 564.462 406.457 567.437 404.228C570.412 402 574.131 404.228 571.156 401.257C568.181 398.286 568.181 395.315 568.181 395.315V393.086L563.719 335.891L555.537 260.869L621.732 257.898Z" fill="#2F2E41"/>
<path d="M571.156 122.709C582.247 122.709 591.237 113.73 591.237 102.654C591.237 91.5778 582.247 82.5986 571.156 82.5986C560.065 82.5986 551.074 91.5778 551.074 102.654C551.074 113.73 560.065 122.709 571.156 122.709Z" fill="#FBBEBE"/>
<path d="M588.634 103.025L596.815 123.081L577.478 137.194L565.578 116.396L588.634 103.025Z" fill="#FBBEBE"/>
<path d="M589.75 118.253L597.188 114.539L601.65 124.938C601.65 124.938 630.657 133.851 628.426 174.705C626.195 215.559 620.988 231.157 620.988 231.157C620.988 231.157 633.632 257.898 626.195 260.869C618.757 263.84 555.537 274.982 554.05 264.583C552.562 254.184 559.256 193.275 559.256 193.275C559.256 193.275 557.025 149.45 575.619 140.537L571.9 132.366L589.75 118.253Z" fill="#D0CDE1"/>
<path d="M548.843 262.355C548.843 262.355 531.736 280.182 541.405 284.638C551.074 289.095 557.024 264.583 557.024 264.583L548.843 262.355Z" fill="#FBBEBE"/>
<path d="M583.8 422.055L591.981 419.084C591.981 419.084 600.907 439.14 593.469 439.14H574.131C574.131 439.14 562.975 435.426 557.025 435.426C551.074 435.426 539.918 424.284 548.099 419.084C556.281 413.885 566.693 415.37 566.693 415.37L569.669 408.685L573.387 419.084C573.387 419.084 577.85 426.512 583.8 422.055Z" fill="#2F2E41"/>
<path d="M644.044 405.714C644.044 405.714 648.702 402.779 651.208 403.875C653.713 404.971 655.201 416.856 655.201 416.856C655.201 416.856 662.638 425.769 646.276 427.255C629.913 428.74 626.194 425.769 624.707 421.312C623.219 416.856 626.194 412.399 626.194 412.399L630.657 410.913C630.657 410.913 635.863 407.199 634.375 405.714C632.888 404.228 634.375 401.257 634.375 401.257C634.375 401.257 639.582 411.656 644.044 405.714Z" fill="#2F2E41"/>
<path d="M578.025 102.333C577.943 101.684 577.797 101.044 577.588 100.424C576.509 98.1629 572.298 98.8229 571.547 96.4325C571.4 95.9646 571.431 95.4557 571.287 94.987C570.92 93.7916 569.513 93.1988 568.262 93.2562C567.022 93.4273 565.805 93.7401 564.636 94.1887C561.694 95.0226 558.564 94.7043 555.523 94.3792C554.167 94.3336 552.838 93.9881 551.632 93.3675C550.48 92.66 549.65 91.2357 550.069 89.9519C550.471 88.721 551.82 88.0446 552.427 86.9003C553.389 85.0832 552.212 82.7364 552.994 80.8343C554.247 77.7831 558.989 78.3958 561.399 76.1405C561.983 75.5931 562.405 74.8933 562.965 74.3211C564.628 72.6234 567.255 72.2948 569.621 72.529C571.988 72.7632 574.313 73.4572 576.691 73.4152C578.946 73.3754 581.31 72.6896 583.387 73.5656C584.609 74.19 585.682 75.0703 586.533 76.1463L591.862 81.9836C592.594 82.6727 593.158 83.5204 593.509 84.4615C593.83 85.5799 593.535 86.7807 593.672 87.9361C593.984 90.571 596.454 92.5612 596.787 95.1935C596.854 96.0099 596.815 96.8315 596.669 97.6377L595.923 103.135C595.885 103.671 595.743 104.194 595.502 104.675C595.285 105.045 594.957 105.338 594.713 105.691C594.023 106.688 594.086 108.006 593.743 109.168C593.4 110.33 592.17 111.481 591.094 110.92C590.393 110.555 589.928 107.532 589.076 106.748C587.889 105.655 587.268 105.789 585.803 105.808C582.867 105.845 578.964 106.096 578.025 102.333Z" fill="#2F2E41"/>
<path d="M581.568 145.736C581.568 145.736 603.881 154.65 597.187 174.705C590.493 194.76 572.643 256.412 572.643 256.412L562.231 261.612L559.256 269.783L545.124 264.583L547.355 253.441C547.355 253.441 548.099 252.698 548.099 249.727C548.099 246.756 545.124 246.013 548.843 246.013C552.562 246.013 552.562 242.299 552.562 242.299L565.949 159.106C565.949 159.106 565.949 144.993 581.568 145.736Z" fill="#D0CDE1"/>
<path opacity="0.1" d="M598.303 178.79L575.247 257.526L565.578 267.183L571.156 257.155L598.303 178.79Z" fill="black"/>
<path d="M45.0371 131.646L68.4103 135.537L76.2013 98.5773L57.3731 90.7964L45.0371 131.646Z" fill="#2F2E41"/>
<path d="M77.1754 124.19C88.2913 124.19 97.3025 115.191 97.3025 104.089C97.3025 92.9877 88.2913 83.9883 77.1754 83.9883C66.0595 83.9883 57.0483 92.9877 57.0483 104.089C57.0483 115.191 66.0595 124.19 77.1754 124.19Z" fill="#A0616A"/>
<path d="M68.4104 115.436C68.4104 115.436 70.3582 140.076 55.4252 142.021C40.4922 143.967 68.4104 188.059 75.5523 187.41C82.6942 186.762 95.6794 139.428 95.6794 139.428C95.6794 139.428 78.7986 127.756 84.6419 117.382L68.4104 115.436Z" fill="#A0616A"/>
<path d="M43.4141 205.242C43.4141 205.242 46.0111 224.046 53.8022 224.046C61.5934 224.046 48.6081 202.648 48.6081 202.648L43.4141 205.242Z" fill="#A0616A"/>
<path d="M157.035 224.046C157.035 224.046 176.513 240.256 173.915 245.443C171.318 250.631 154.438 239.608 153.139 226.639L157.035 224.046Z" fill="#A0616A"/>
<path d="M39.5183 286.293L27.1823 332.331L13.5479 388.094H26.533C26.533 388.094 31.0779 370.587 39.5183 361.51C39.5183 361.51 47.9586 347.244 47.9586 337.518L68.0857 290.184L39.5183 286.293Z" fill="#A0616A"/>
<path d="M92.7578 288.887L96.6534 332.331C96.6534 332.331 96.0041 363.455 96.6534 370.587C97.3026 377.72 96.6534 388.095 96.6534 388.095H108.34C108.34 388.095 119.377 349.838 116.131 329.089L120.676 280.458L92.7578 288.887Z" fill="#A0616A"/>
<path d="M77.1758 169.579C77.1758 169.579 59.6832 155.734 64.2093 136.396C64.2093 136.396 46.6605 137.158 39.5187 144.291C32.3768 151.423 41.4664 175.415 41.4664 175.415C41.4664 175.415 57.0487 201.351 54.4516 213.023C51.8546 224.694 23.9364 286.294 33.0261 290.184C42.1157 294.075 97.3028 307.691 125.221 284.997C125.221 284.997 132.363 220.804 103.795 200.055V183.844C103.795 183.844 108.989 179.305 106.392 167.634C106.392 167.634 117.43 147.533 110.937 143.642C104.445 139.752 89.5306 134.051 89.5306 134.051C89.5306 134.051 90.8102 163.095 77.1758 169.579Z" fill="#2F2E41"/>
<path d="M43.4142 144.291C43.4142 144.291 34.9738 142.994 26.5334 155.314C18.093 167.634 -3.98179 187.086 6.40635 196.812C16.7945 206.538 44.7127 213.023 44.7127 213.023L51.2053 201.351L23.2871 187.734L46.6605 170.227L43.4142 144.291Z" fill="#2F2E41"/>
<path d="M107.691 144.291C107.691 144.291 116.781 144.291 120.676 155.314C124.572 166.337 147.296 203.945 147.296 203.945L160.281 224.046L151.191 234.42L125.87 205.89L101.848 166.337L107.691 144.291Z" fill="#2F2E41"/>
<path d="M29.1305 386.798H10.9512L7.05562 418.57C7.05562 418.57 -3.33252 435.429 12.2497 433.483C27.8319 431.538 22.6379 414.031 22.6379 414.031L26.5334 407.547L27.8319 421.164L29.1305 420.515V405.602C29.1305 405.602 36.2723 399.117 29.1305 386.798Z" fill="#2F2E41"/>
<path d="M111.586 386.798L94.7054 385.501L91.4591 421.812C91.4591 421.812 89.5114 435.429 101.198 433.484C112.885 431.538 108.989 420.515 108.989 420.515V400.414L111.586 386.798Z" fill="#2F2E41"/>
<path d="M62.567 83.6641C62.567 83.6641 53.1084 86.8129 52.6281 99.2481C52.5793 101.237 52.8001 103.223 53.2846 105.153C53.8172 107.407 54.1596 112.258 50.032 118.596C47.2682 122.781 44.7433 127.118 42.4695 131.588L42.4399 131.647L52.8281 132.944L55.037 115.747C56.1079 107.41 58.4021 99.2751 61.8459 91.6052L61.9177 91.4451C61.9177 91.4451 66.4626 99.8745 75.5522 99.8745L72.3059 96.6324C72.3059 96.6324 86.5896 102.468 91.7837 102.468C91.7837 102.468 95.6793 105.062 91.7837 108.952C87.8881 112.843 80.097 121.921 84.6418 129.053C89.1867 136.186 85.2911 138.131 85.2911 138.131L92.433 134.24L95.6793 132.295V134.889L112.56 132.944C112.56 132.944 117.105 132.295 107.366 121.272C107.366 121.272 104.794 116.992 105.919 113.3C106.844 110.494 107.087 107.508 106.628 104.59C104.446 92.4347 95.8864 68.2677 62.567 83.6641Z" fill="#2F2E41"/>
<path d="M431.59 447.735C431.501 447.591 429.417 444.116 428.695 436.9C428.032 430.28 428.458 419.121 434.253 403.556C445.231 374.068 431.723 350.276 431.585 350.039L432.251 349.653C434.852 354.624 436.731 359.939 437.831 365.439C440.551 378.245 439.561 391.56 434.975 403.824C424.016 433.261 432.163 447.197 432.247 447.334L431.59 447.735Z" fill="#3F3D56"/>
<path d="M427.297 348.308C430.062 348.308 432.304 346.069 432.304 343.308C432.304 340.547 430.062 338.308 427.297 338.308C424.532 338.308 422.291 340.547 422.291 343.308C422.291 346.069 424.532 348.308 427.297 348.308Z" fill="#3F3D56"/>
<path d="M443.086 366.768C445.851 366.768 448.093 364.53 448.093 361.769C448.093 359.007 445.851 356.769 443.086 356.769C440.321 356.769 438.08 359.007 438.08 361.769C438.08 364.53 440.321 366.768 443.086 366.768Z" fill="#3F3D56"/>
<path d="M432.304 379.076C435.069 379.076 437.31 376.837 437.31 374.076C437.31 371.315 435.069 369.076 432.304 369.076C429.539 369.076 427.297 371.315 427.297 374.076C427.297 376.837 429.539 379.076 432.304 379.076Z" fill="#3284B8"/>
<path d="M445.397 389.46C448.162 389.46 450.403 387.221 450.403 384.46C450.403 381.699 448.162 379.46 445.397 379.46C442.632 379.46 440.391 381.699 440.391 384.46C440.391 387.221 442.632 389.46 445.397 389.46Z" fill="#3284B8"/>
<path d="M428.453 405.613C431.218 405.613 433.459 403.375 433.459 400.613C433.459 397.852 431.218 395.614 428.453 395.614C425.688 395.614 423.446 397.852 423.446 400.613C423.446 403.375 425.688 405.613 428.453 405.613Z" fill="#3F3D56"/>
<path d="M434.614 447.919C434.614 447.919 429.608 435.612 444.627 426.381L434.614 447.919Z" fill="#3F3D56"/>
<path d="M428.457 447.696C428.457 447.696 426.179 434.608 408.544 434.72L428.457 447.696Z" fill="#3F3D56"/>
<path d="M229.805 411.39C229.717 411.246 227.633 407.771 226.911 400.555C226.248 393.935 226.674 382.777 232.469 367.211C243.446 337.724 229.939 313.931 229.801 313.694L230.467 313.308C233.068 318.279 234.947 323.594 236.047 329.094C238.767 341.9 237.777 355.215 233.191 367.479C222.232 396.917 230.379 410.852 230.463 410.99L229.805 411.39Z" fill="#D0CDE1"/>
<path d="M225.513 311.963C228.278 311.963 230.519 309.724 230.519 306.963C230.519 304.202 228.278 301.963 225.513 301.963C222.748 301.963 220.506 304.202 220.506 306.963C220.506 309.724 222.748 311.963 225.513 311.963Z" fill="#3F3D56"/>
<path d="M241.302 330.424C244.067 330.424 246.309 328.185 246.309 325.424C246.309 322.663 244.067 320.424 241.302 320.424C238.537 320.424 236.296 322.663 236.296 325.424C236.296 328.185 238.537 330.424 241.302 330.424Z" fill="#3F3D56"/>
<path d="M230.519 342.731C233.284 342.731 235.525 340.493 235.525 337.731C235.525 334.97 233.284 332.731 230.519 332.731C227.754 332.731 225.513 334.97 225.513 337.731C225.513 340.493 227.754 342.731 230.519 342.731Z" fill="#D0CDE1"/>
<path d="M243.613 353.115C246.378 353.115 248.619 350.877 248.619 348.115C248.619 345.354 246.378 343.115 243.613 343.115C240.848 343.115 238.606 345.354 238.606 348.115C238.606 350.877 240.848 353.115 243.613 353.115Z" fill="#D0CDE1"/>
<path d="M226.668 369.268C229.433 369.268 231.674 367.03 231.674 364.269C231.674 361.507 229.433 359.269 226.668 359.269C223.903 359.269 221.662 361.507 221.662 364.269C221.662 367.03 223.903 369.268 226.668 369.268Z" fill="#3F3D56"/>
<path d="M232.83 411.574C232.83 411.574 227.824 399.267 242.842 390.037L232.83 411.574Z" fill="#D0CDE1"/>
<path d="M226.673 411.351C226.673 411.351 224.394 398.263 206.76 398.375L226.673 411.351Z" fill="#D0CDE1"/>
</g>
<defs>
<clipPath id="clip0">
<rect width="658" height="449" fill="white" transform="translate(0.244629)"/>
</clipPath>
</defs>
</svg>
