<svg width="150" height="153" viewBox="0 0 150 153" fill="none" xmlns="http://www.w3.org/2000/svg">
<path fill-rule="evenodd" clip-rule="evenodd" d="M132.002 29.7743C139.555 41.9368 133.839 57.3753 136.729 71.3943C139.578 85.2142 152.576 97.3403 148.729 110.911C144.809 124.736 129.978 131.924 117.531 139.104C105.114 146.267 91.8657 153.302 77.5884 151.949C63.2509 150.591 52.5392 139.8 40.5509 131.812C26.1239 122.2 3.87796 117.623 0.540663 100.616C-2.80644 83.5593 16.3786 71.0878 25.7658 56.4686C33.3871 44.5995 39.3491 32.1922 50.2356 23.2232C62.9488 12.7493 76.6138 -0.273153 93.0411 1.04299C109.525 2.36364 123.277 15.7229 132.002 29.7743Z" fill="url(#paint0_linear)"/>
<defs>
<linearGradient id="paint0_linear" x1="135.464" y1="28.4603" x2="36.6169" y2="138.751" gradientUnits="userSpaceOnUse">
<stop stop-color="#3284B8"/>
<stop offset="1" stop-color="#5ACCF9"/>
</linearGradient>
</defs>
</svg>
