<svg width="802" height="608" viewBox="0 0 802 608" fill="none" xmlns="http://www.w3.org/2000/svg">
<path fill-rule="evenodd" clip-rule="evenodd" d="M419.546 52.7787C501.663 86.3182 526.746 153.665 591.317 201.739C654.972 249.129 765.125 273.716 793.262 331.009C821.927 389.377 770.664 440.434 731.705 487.6C692.839 534.654 649.217 582.572 570.586 600.595C491.624 618.695 398.022 595.428 307.744 584.78C199.102 571.966 67.8393 590.752 -9.62146 532.16C-87.3096 473.397 -32.2295 395.41 -35.4269 325.204C-38.0229 268.205 -51.1061 211.866 -26.5483 160.494C2.13 100.501 26.7098 29.3779 116.332 7.7375C206.263 -13.9772 324.676 14.0304 419.546 52.7787Z" fill="url(#paint0_linear)" fill-opacity="0.5"/>
<defs>
<linearGradient id="paint0_linear" x1="432.801" y1="42.2299" x2="311.957" y2="617.256" gradientUnits="userSpaceOnUse">
<stop stop-color="#5ACCF9"/>
<stop offset="1" stop-color="#D9F4FF"/>
</linearGradient>
</defs>
</svg>
