<svg width="657" height="368" viewBox="0 0 657 368" fill="none" xmlns="http://www.w3.org/2000/svg">
<path fill-rule="evenodd" clip-rule="evenodd" d="M727.453 -66.5742C800.75 -10.9355 875.193 50.4243 927.778 119.368C987.546 197.729 1045.82 288.042 1035.25 336.981C1024.77 385.52 938.641 361.557 876.181 358.36C824.487 355.714 773.513 357.846 704.862 320.068C639.793 284.26 584.513 215.95 521.305 163.071C449.714 103.179 50.1345 79.0575 4.39836 10.4101C-41.1446 -57.9473 308.969 -105.871 309.484 -154.861C310.029 -206.754 260.057 -301.449 313.58 -305.094C367.826 -308.788 466.19 -216.548 545.355 -170.924C607.61 -135.046 665.736 -113.423 727.453 -66.5742Z" fill="url(#paint0_linear)" fill-opacity="0.7"/>
<defs>
<linearGradient id="paint0_linear" x1="742.183" y1="-62.2569" x2="518.671" y2="186.731" gradientUnits="userSpaceOnUse">
<stop stop-color="#3284B8"/>
<stop offset="0.979167" stop-color="#5ACCF9"/>
</linearGradient>
</defs>
</svg>
