<svg width="631" height="614" viewBox="0 0 631 614" fill="none" xmlns="http://www.w3.org/2000/svg">
<path fill-rule="evenodd" clip-rule="evenodd" d="M529.082 93.6638C585.389 125.93 639.906 165.031 664.321 226.067C692.069 295.44 711.465 381.236 671.987 450.931C632.832 520.056 543.86 536.202 471.534 566.418C411.673 591.426 350.036 622.275 289.407 610.763C231.94 599.851 203.981 541.127 158.121 506.908C106.179 468.152 19.7203 461.678 3.26675 397.258C-13.1173 333.11 54.3341 272.783 81.9179 208.556C111.136 140.522 103.999 44.4366 169.493 10.2098C235.871 -24.4791 301.759 41.7591 370.541 57.7221C424.63 70.2752 481.67 66.4955 529.082 93.6638Z" fill="url(#paint0_linear)" fill-opacity="0.7"/>
<defs>
<linearGradient id="paint0_linear" x1="544.177" y1="91.1886" x2="141.97" y2="539.24" gradientUnits="userSpaceOnUse">
<stop stop-color="#3284B8"/>
<stop offset="0.979167" stop-color="#5ACCF9"/>
</linearGradient>
</defs>
</svg>
