<svg width="140" height="146" viewBox="0 0 140 146" fill="none" xmlns="http://www.w3.org/2000/svg">
<path fill-rule="evenodd" clip-rule="evenodd" d="M83.9289 9.00529C96.5511 15.7619 99.3197 31.9903 108.832 42.6861C118.209 53.23 135.529 57.2322 138.983 70.9085C142.5 84.8413 133.25 98.4819 126.061 110.923C118.89 123.335 110.933 136.052 97.8926 142.019C84.7969 148.012 70.1245 144.022 55.7486 143.099C38.4486 141.988 16.894 149.146 5.50052 136.087C-5.92644 122.989 4.45252 102.596 5.27247 85.2416C5.93817 71.152 4.89776 57.4259 9.84127 44.2153C15.6143 28.788 20.9372 10.6777 35.8218 3.60386C50.7575 -3.49428 69.3464 1.1993 83.9289 9.00529Z" fill="url(#paint0_linear)" fill-opacity="0.5"/>
<defs>
<linearGradient id="paint0_linear" x1="86.2701" y1="6.13631" x2="55.8108" y2="151.074" gradientUnits="userSpaceOnUse">
<stop stop-color="#3284B8"/>
<stop offset="1" stop-color="#5ACCF9"/>
</linearGradient>
</defs>
</svg>
