<svg width="1107" height="148" viewBox="0 0 1107 148" fill="none" xmlns="http://www.w3.org/2000/svg">
<path fill-rule="evenodd" clip-rule="evenodd" d="M830.035 -328.323C904.784 -274.302 980.009 -213.812 1029.49 -141.408C1085.72 -59.1135 1138.57 37.2482 1119.65 95.4875C1100.89 153.25 1007.14 137.781 937.122 142.999C879.175 147.318 821.357 157.074 749.3 123.091C681 90.8815 628.391 19.5976 564.631 -32.6669C492.415 -91.8625 45.0278 -62.7276 3.2342 -135.767C-38.3829 -208.498 363.488 -314.078 371.069 -370.939C379.099 -431.171 336.248 -533.798 397.157 -545.671C458.89 -557.705 556.69 -464.837 639.491 -423.263C704.604 -390.57 767.096 -373.81 830.035 -328.323Z" fill="url(#paint0_linear)" fill-opacity="0.7"/>
<defs>
<linearGradient id="paint0_linear" x1="846.038" y1="-325.424" x2="558.278" y2="-4.86415" gradientUnits="userSpaceOnUse">
<stop stop-color="#3284B8"/>
<stop offset="0.161458" stop-color="#3284B8"/>
<stop offset="0.979167" stop-color="#5ACCF9"/>
</linearGradient>
</defs>
</svg>
