<svg width="521" height="370" viewBox="0 0 521 370" fill="none" xmlns="http://www.w3.org/2000/svg">
<g opacity="0.8">
<path d="M502 366H0V370H502V366Z" fill="#85848B"/>
<path d="M430.196 291.975C430.196 295.192 412.405 304.57 391.271 304.57C370.137 304.57 353.67 295.192 353.67 291.975C353.67 288.758 370.799 289.794 391.954 289.794C413.108 289.794 430.196 288.753 430.196 291.975Z" fill="#504F60"/>
<path opacity="0.2" d="M430.196 291.975C430.196 295.192 412.405 304.57 391.271 304.57C370.137 304.57 353.67 295.192 353.67 291.975" fill="black"/>
<path d="M217.365 232.946C220.795 233.41 224.354 233.704 227.64 232.581C228.157 232.412 228.726 232.036 228.674 231.491C228.637 231.292 228.558 231.106 228.442 230.945C227.203 228.988 226.163 226.899 225.337 224.713C225.305 224.599 225.237 224.5 225.146 224.43C225.039 224.389 224.922 224.389 224.815 224.43C223.299 224.85 221.99 225.88 220.485 226.322C219.717 226.544 218.916 226.607 218.126 226.507C217.443 226.425 216.511 225.831 215.891 225.907C216.242 228.29 217.101 230.515 217.365 232.946Z" fill="#6C63FF"/>
<path d="M282.235 226.911C284.496 225.275 286.839 223.557 288.174 221.033C288.27 220.882 288.325 220.707 288.335 220.526C288.312 220.347 288.246 220.179 288.143 220.035C286.872 217.905 285.235 216.043 283.316 214.544C282.315 215.29 281.411 216.169 280.626 217.162C280.057 217.794 278.484 218.797 278.469 219.762C278.469 220.308 279.069 220.94 279.348 221.398C279.726 221.987 280.083 222.587 280.424 223.197C280.621 223.497 282.416 226.791 282.235 226.911Z" fill="#6C63FF"/>
<path d="M230.811 240.247C230.852 240.809 230.706 241.368 230.398 241.829C230.156 242.085 229.857 242.272 229.528 242.374C224.733 244.184 219.181 241.927 214.396 243.71C213.413 244.075 212.482 244.604 211.494 244.953C210.316 245.326 209.1 245.553 207.872 245.629C206.18 245.798 204.478 245.907 202.781 245.956C201.492 246.052 200.196 245.933 198.943 245.602C198.316 245.433 197.73 245.126 197.222 244.702C196.715 244.279 196.298 243.747 195.999 243.143C195.739 242.601 195.687 241.974 195.854 241.392C195.929 241.193 196.036 241.009 196.17 240.847C196.494 240.464 196.875 240.138 197.298 239.882L199.062 238.682C199.889 238.066 200.788 237.564 201.736 237.188C202.435 236.949 203.175 236.845 203.883 236.643C206.361 235.88 208.255 233.808 210.014 231.818L212.414 229.119C212.639 228.822 212.923 228.582 213.247 228.415C213.58 228.298 213.934 228.263 214.282 228.312C216.614 228.487 218.865 229.283 220.827 230.624C221.328 231.02 221.869 231.356 222.441 231.627C223.848 232.205 225.653 231.769 226.952 231.038C227.568 230.689 227.433 230.493 227.692 229.871C227.951 229.25 228.582 228.852 229.13 229.419C229.296 229.615 229.413 229.851 229.472 230.106C229.989 231.905 229.792 233.841 229.792 235.727C229.777 236.022 229.812 236.318 229.896 236.6C230.028 236.884 230.185 237.154 230.367 237.407C230.403 237.473 230.436 237.543 230.465 237.614C230.781 238.449 230.9 239.353 230.811 240.247Z" fill="#514E7F"/>
<path d="M230.811 240.247C230.852 240.809 230.706 241.368 230.398 241.828C230.156 242.084 229.857 242.272 229.528 242.374C224.733 244.184 219.181 241.927 214.396 243.71C213.413 244.075 212.482 244.604 211.494 244.953C210.316 245.326 209.1 245.553 207.872 245.629C206.18 245.798 204.478 245.907 202.781 245.956C201.492 246.052 200.196 245.933 198.943 245.602C198.316 245.432 197.73 245.126 197.222 244.702C196.715 244.279 196.298 243.747 195.999 243.142C195.739 242.6 195.687 241.974 195.854 241.392C195.929 241.193 196.036 241.009 196.17 240.847C196.449 241.463 196.651 242.281 196.827 242.575C197.064 243.012 197.388 243.39 197.775 243.684C198.162 243.978 198.604 244.182 199.072 244.282C199.772 244.327 200.474 244.233 201.141 244.004C205.487 242.87 210.107 242.853 214.282 241.136C215.715 240.542 217.081 239.751 218.586 239.391C220.092 239.031 221.691 239.129 223.243 238.993C225.695 238.786 228.069 238.006 230.486 237.597C230.797 238.439 230.909 239.349 230.811 240.247Z" fill="#464353"/>
<path d="M293.218 226.578C292.99 228.497 291.836 230.149 290.569 231.551C289.301 232.952 287.868 234.211 286.86 235.825C285.618 237.826 285.059 240.307 283.445 241.998C282.825 242.612 282.129 243.135 281.376 243.551C280.531 244.076 279.639 244.509 278.711 244.844C276.3 245.656 273.703 245.471 271.184 245.274C270.366 245.266 269.556 245.102 268.794 244.789C268.447 244.603 268.114 244.388 267.8 244.146C267.169 243.736 266.637 243.176 266.248 242.51C266.057 242.148 266.004 241.723 266.098 241.321C266.242 240.879 266.49 240.481 266.817 240.165C267.384 239.544 267.993 238.966 268.639 238.437C269.524 237.835 270.322 237.1 271.008 236.256C271.429 235.589 271.738 234.852 271.924 234.075C272.29 232.715 272.514 231.316 272.591 229.904C272.588 228.966 272.68 228.03 272.865 227.112C273.248 225.673 274.262 224.386 274.148 222.898C274.102 222.684 274.12 222.461 274.2 222.26C274.32 222.102 274.488 221.992 274.676 221.949C275.467 221.617 276.3 221.413 277.149 221.344C277.575 221.313 278.001 221.382 278.399 221.546C278.796 221.71 279.154 221.965 279.446 222.292C279.798 222.739 280.031 223.383 280.548 223.557C280.804 223.631 281.073 223.642 281.334 223.59C282.607 223.454 283.952 223.285 284.956 222.418C285.42 221.979 285.792 221.444 286.051 220.846C286.309 220.249 286.447 219.601 286.456 218.944C286.456 218.448 286.244 217.93 286.973 217.854C287.522 217.778 287.956 218.399 288.236 218.781C289.245 220.204 290.279 221.692 290.657 223.426C290.804 223.366 290.96 223.335 291.117 223.334C291.44 223.331 291.759 223.41 292.046 223.565C292.333 223.719 292.581 223.945 292.768 224.222C293.18 224.926 293.339 225.761 293.218 226.578Z" fill="#514E7F"/>
<path d="M293.219 226.578C292.992 228.497 291.838 230.149 290.571 231.551C289.303 232.952 287.87 234.211 286.861 235.825C285.62 237.826 285.061 240.307 283.447 241.998C282.827 242.612 282.131 243.135 281.377 243.551C280.533 244.076 279.64 244.509 278.713 244.844C276.302 245.656 273.705 245.471 271.186 245.274C270.368 245.266 269.558 245.102 268.795 244.789C268.448 244.603 268.116 244.388 267.802 244.146C267.17 243.736 266.639 243.176 266.25 242.51C266.735 242.264 267.264 242.131 267.802 242.118C268.92 242.183 269.737 243.295 270.808 243.639C272.334 244.124 273.855 242.99 275.402 242.603C276.411 242.352 277.471 242.417 278.47 242.058C279.302 241.719 280.071 241.228 280.741 240.607C281.66 239.915 282.477 239.085 283.167 238.143C283.741 237.201 284.218 236.197 284.59 235.149C285.407 233.141 286.369 231.201 287.467 229.348C287.629 229.054 287.825 228.783 288.051 228.541C288.294 228.306 288.569 228.143 288.843 227.936C289.877 227.112 290.307 225.755 290.669 224.424C290.767 224.02 290.904 223.627 291.078 223.252C291.4 223.249 291.719 223.328 292.006 223.483C292.294 223.638 292.541 223.863 292.728 224.141C293.173 224.861 293.348 225.729 293.219 226.578Z" fill="#464353"/>
<path d="M184.735 56.5804C186.022 57.5974 187.082 58.9004 187.839 60.3971C188.563 61.8911 192.738 73.4831 192.495 75.1679C193.856 73.723 199.221 73.4885 200.597 72.0436C201.171 71.4384 204.27 68.4177 204.735 67.7144C205.201 67.011 208.657 65.5334 209.035 64.7918C210.447 62.1256 199.019 52.0221 200.483 49.3886C200.564 49.2676 200.606 49.1222 200.602 48.9742C200.568 48.8499 200.502 48.7382 200.41 48.6525C199.474 47.6438 198.232 47.0167 197.105 46.2697C195.977 45.5228 194.89 44.4813 194.585 43.1073C193.51 43.6291 192.522 44.3326 191.662 45.1902C189.565 47.084 187.504 49.016 185.48 50.9861C184.688 51.7604 183.157 52.7909 182.789 53.8978C182.355 55.0864 183.979 55.9315 184.735 56.5804Z" fill="#A1616A"/>
<path d="M203.236 52.2893C201.483 53.5311 199.844 54.9441 198.342 56.5095C196.924 57.9871 195.579 59.6992 195.238 61.7657C195.093 62.5781 195.114 63.4015 194.995 64.2248C194.477 67.7962 191.549 70.4134 190.256 73.7557C189.881 74.7873 189.606 75.8559 189.433 76.9454C189.07 79.0108 188.871 81.1046 188.838 83.2049C188.807 85.2387 190.701 86.6399 191.394 88.5374C192.087 90.4349 192.273 92.3869 192.625 94.3334C193.287 98.0084 194.503 101.553 195.729 105.075C198.28 112.501 206.547 133.03 209.098 140.461C216.915 138.395 237.723 133.646 244.645 129.289C246.952 127.839 228.633 111.476 231.101 110.347C231.242 110.324 231.376 110.267 231.492 110.18C231.608 110.093 231.704 109.978 231.771 109.845C231.839 109.713 231.876 109.565 231.879 109.415C231.883 109.265 231.854 109.115 231.794 108.979C229.326 97.6049 221.607 88.2593 218.105 77.1854C216.889 73.3414 214.706 70.059 213.05 66.4058C211.55 63.0961 210.748 59.4375 208.953 56.2914C208.614 55.6433 208.171 55.0621 207.644 54.5739C207.196 54.2121 206.712 53.9031 206.201 53.6524C205.176 53.129 204.224 52.8182 203.236 52.2893Z" fill="#514E7F"/>
<path d="M185.149 55.2882C191.907 55.2882 197.385 49.5148 197.385 42.393C197.385 35.2713 191.907 29.4979 185.149 29.4979C178.392 29.4979 172.914 35.2713 172.914 42.393C172.914 49.5148 178.392 55.2882 185.149 55.2882Z" fill="#A1616A"/>
<path d="M197.596 48.4508C198.205 47.858 198.971 47.474 199.793 47.3494C200.614 47.2248 201.451 47.3655 202.195 47.7529C203.023 48.2054 203.747 49.1215 203.561 50.0811L209.629 50.1792C210.595 50.1514 211.561 50.2447 212.506 50.4573C213.457 50.6755 214.306 51.2367 214.906 52.044C214.979 52.1476 215.061 52.273 215.186 52.2893C215.287 52.291 215.385 52.2564 215.465 52.1912C216.399 51.6978 217.45 51.508 218.486 51.646C221.766 51.8695 224.798 53.5979 227.369 55.7571C227.833 56.0931 228.193 56.5652 228.404 57.1148C228.616 57.84 228.363 58.7505 228.921 59.2685C228.921 65.2662 230.877 70.8714 232.181 76.7165C232.413 77.7579 233.36 78.6794 234.017 79.4972C234.829 80.4039 235.492 81.4469 235.978 82.5833C237.085 85.6149 235.559 89.1808 236.635 92.2233C237.09 93.5101 237.97 94.5679 238.704 95.6856C239.673 96.9763 240.285 98.5233 240.474 100.157C240.52 100.887 240.432 101.623 240.474 102.338C240.543 103.32 240.717 104.291 240.991 105.233C241.432 106.992 241.895 108.75 242.378 110.505C243.164 113.341 244.188 116.4 246.599 117.91C240.779 118.951 234.643 119.971 229.097 117.839C228.324 117.561 227.589 117.174 226.914 116.689C224.912 115.184 223.944 112.61 223.08 110.178C222.118 107.452 221.14 104.677 220.944 101.776C220.946 100.853 220.822 99.9354 220.576 99.0498C220.012 97.4686 218.507 96.5144 217.141 95.6366C215.599 94.7459 214.202 93.6009 213.002 92.2451C212.407 91.5623 211.952 90.758 211.663 89.882C211.375 89.006 211.26 88.0771 211.326 87.1525C211.43 86.2529 211.766 85.3859 211.797 84.4808C211.828 83.5757 211.445 82.5397 210.623 82.2998C206.385 80.9476 204.363 75.6587 203.421 71.1004C203.015 68.7445 202.833 66.3517 202.878 63.9577L202.821 59.3067C202.236 58.746 201.766 58.0658 201.439 57.3075C201.111 56.5492 200.934 55.7286 200.917 54.8956C200.973 54.4097 200.965 53.9178 200.891 53.4344C200.687 52.8435 200.353 52.3113 199.919 51.8804C198.983 50.8686 198.2 49.712 197.596 48.4508Z" fill="#464353"/>
<path d="M184.565 63.1943C184.425 64.6338 184.736 66.1114 184.43 67.5236C184.311 68.0688 184.104 68.6141 183.954 69.1212C183.496 71.1538 183.694 73.2896 184.518 75.1898C185.341 77.0713 186.327 78.8691 187.462 80.5605C187.846 81.1379 188.162 81.7622 188.404 82.4198C188.599 83.1103 188.721 83.8217 188.766 84.5408C189.065 87.4282 189.546 90.2915 190.204 93.1121C190.783 95.5548 197.364 116.438 198.895 118.373C199.173 118.802 199.595 119.104 200.075 119.219C200.421 119.232 200.766 119.157 201.079 119L204.183 117.746C204.447 117.661 204.691 117.52 204.902 117.332C205.193 116.974 205.351 116.517 205.347 116.045C205.569 113.384 198.973 92.3542 198.135 89.8406C195.6 82.2507 192.227 74.9335 190.576 67.0765C190.116 64.8955 189.873 61.5368 188.357 59.7974C187.731 59.0777 187.943 59.383 187.193 59.7593C186.814 59.9326 186.447 60.1349 186.096 60.3645C185.657 60.6862 185.292 61.1072 185.027 61.5968C184.762 62.0864 184.604 62.6322 184.565 63.1943Z" fill="#464353"/>
<path d="M193.986 77.5942C194.819 82.2343 195.677 86.8634 196.531 91.5035L208.678 88.1502C208.777 86.8089 208.099 85.5658 207.644 84.3335C206.537 81.4055 206.511 78.1449 205.616 75.1352C204.938 72.8451 203.758 70.7405 203.122 68.4341C202.755 67.0928 202.569 65.7078 202.206 64.3502C201.818 63.0169 201.341 61.7141 200.778 60.4516C200.097 58.6206 199.207 56.8832 198.13 55.2772C196.578 55.8879 194.922 56.5967 194.037 58.0743C193.584 58.9069 193.325 59.8415 193.282 60.8006C193.07 63.674 194.058 66.5639 193.732 69.421C193.397 72.1419 193.482 74.9022 193.986 77.5942Z" fill="#3284B8"/>
<path d="M208.881 139.316C209.564 142.043 208.576 144.911 207.768 147.61C206.553 151.675 205.725 155.858 205.296 160.096C205.243 161.174 205.037 162.238 204.685 163.253C204.302 164.163 203.65 164.932 203.205 165.799C201.984 168.078 202.016 170.859 202.279 173.465C202.455 175.183 202.719 176.895 203.045 178.585C203.443 180.652 203.935 182.811 203.361 184.828C204.323 184.605 204.975 185.919 204.913 186.949C204.851 187.98 204.535 189.13 205.006 190.019C206.196 190.477 206.206 192.2 206.17 193.536C206.19 195.852 206.467 198.158 206.998 200.406C208.798 209.53 210.709 218.628 212.73 227.701C217.101 229.13 222.208 230.618 226.378 228.639C227.154 228.274 227.93 227.69 228.105 226.807C228.151 226.331 228.094 225.85 227.94 225.4L225.964 217.821C225.483 215.989 225.001 214.097 225.255 212.216C225.446 210.815 226.026 209.304 225.374 208.067C225.151 207.641 224.8 207.309 224.541 206.905C223.506 205.308 224.049 203.17 224.132 201.235C224.165 200.8 224.137 200.363 224.049 199.937C223.908 199.439 223.71 198.962 223.46 198.514C221.826 195.172 221.042 191.441 221.183 187.685C221.245 187.206 221.183 186.718 221.002 186.273C220.877 186.089 220.764 185.896 220.666 185.695C220.589 185.345 220.627 184.978 220.775 184.654C220.182 184.18 219.647 183.63 219.181 183.018C219.468 182.83 219.711 182.576 219.891 182.274C220.071 181.973 220.184 181.633 220.221 181.279C220.257 180.925 220.217 180.566 220.104 180.231C219.99 179.896 219.805 179.592 219.564 179.343C219.775 179.298 219.97 179.193 220.128 179.038C220.285 178.883 220.399 178.686 220.456 178.467C220.514 178.249 220.512 178.017 220.453 177.8C220.393 177.582 220.277 177.385 220.118 177.233C219.864 177.047 219.528 176.966 219.347 176.688C219.067 176.284 219.295 175.723 219.523 175.292L220.728 172.996C221.628 171.29 221.83 169.18 222.797 167.544C224.184 165.161 225.089 162.506 225.984 159.878L229.466 149.752L231.81 151.895C232.59 152.524 233.245 153.31 233.734 154.207C234.067 155.094 234.278 156.027 234.36 156.977C235.219 162.473 238.499 167.238 239.715 172.653C239.984 173.858 240.165 175.123 240.822 176.153C241.057 176.47 241.268 176.805 241.453 177.157C241.624 177.693 241.713 178.254 241.717 178.82C241.825 179.927 242.159 180.997 242.694 181.956C243.23 182.916 243.955 183.743 244.821 184.381C245.975 185.215 247.408 185.788 248.034 187.107C248.159 187.516 248.333 187.906 248.551 188.269C249.11 188.977 250.315 189.059 250.553 189.948C250.688 190.444 250.439 191.039 250.703 191.475C250.853 191.677 251.051 191.833 251.278 191.927L254.646 193.699C258.412 195.684 260.336 200.242 263.115 203.563C264.074 204.644 264.924 205.829 265.65 207.096C266.85 209.359 267.403 212.2 269.431 213.639C269.977 213.937 270.473 214.325 270.901 214.79C271.537 215.673 271.304 216.911 271.361 218.023C271.418 219.135 272.225 220.46 273.229 220.122C272.877 221.469 272.877 222.892 273.229 224.239C277.635 224 281.837 222.206 285.159 219.146C286.142 218.241 287.089 217.085 287.099 215.711C287.114 215.474 287.064 215.237 286.954 215.029C286.755 214.761 286.493 214.552 286.194 214.424C283.043 212.625 282.096 208.454 280.503 205.068C279.111 202.08 277.052 199.506 275.329 196.731C271.584 190.76 269.028 183.536 263.363 179.594C262.116 178.727 260.667 177.958 260.042 176.524C259.695 175.723 259.654 174.806 259.379 173.978C259.105 173.149 258.448 172.342 257.61 172.342C258.076 171.142 257.982 169.681 258.014 168.383C258.045 167.808 257.982 167.23 257.827 166.677C257.612 166.082 257.333 165.514 256.994 164.987C255.516 162.349 254.777 159.324 254.863 156.263C254.904 154.687 255.168 153.062 254.718 151.557C254.49 150.799 254.092 150.107 253.818 149.376C253.405 148.052 253.187 146.669 253.171 145.276L252.861 140.036C252.814 138.291 252.599 136.555 252.219 134.856C251.184 130.789 250.15 113.75 246.606 111.83C243.062 109.911 236.973 123.024 232.984 123.281C231.22 123.358 229.476 123.713 227.811 124.333C225.157 125.38 222.932 127.332 220.764 129.24L213.428 135.734C211.876 137.081 210.593 138.368 208.881 139.316Z" fill="#464353"/>
<path d="M173.668 28.0749C175.283 25.7521 178.056 24.5199 180.787 24.4163C183.519 24.3127 186.209 25.2178 188.656 26.4991C189.378 26.932 190.15 27.2655 190.953 27.4915C192.246 27.7695 193.685 27.3988 194.854 28.0367C196.406 28.9037 196.706 31.1119 196.572 32.944C196.437 34.776 196.111 36.8098 197.037 38.3964C197.366 38.8489 197.665 39.3244 197.932 39.8195C198.33 40.7628 198.098 41.8533 197.86 42.8511C197.254 42.3059 196.913 41.4825 196.375 40.85C195.837 40.2176 194.9 39.7923 194.233 40.2666C193.566 40.741 193.576 41.6025 193.54 42.3767C193.504 43.151 193.317 44.0779 192.624 44.3287C192.335 44.3982 192.032 44.3745 191.755 44.2608C191.479 44.1471 191.241 43.9485 191.072 43.6908C189.887 42.1641 190.363 39.7268 189.189 38.1892C188.522 37.3168 187.409 36.8916 186.794 35.9755C186.307 35.2558 186.183 34.3398 185.759 33.5655C185.335 32.7913 184.347 32.2242 183.689 32.7586C183.465 32.9844 183.278 33.2478 183.136 33.5383C182.726 34.1568 182.131 34.6116 181.445 34.8293C180.76 35.0469 180.025 35.0147 179.359 34.7378C178.851 34.4087 178.3 34.1572 177.724 33.9908C177.348 33.971 176.973 34.0625 176.643 34.2552C176.313 34.4479 176.041 34.7341 175.857 35.0813C175.485 35.7751 175.306 36.5647 175.339 37.3605C175.339 38.451 175.526 39.6123 174.936 40.4847C174.712 40.8131 174.431 41.0943 174.108 41.3135C173.244 41.8969 172.039 42.2895 171.242 41.6243C170.972 41.3592 170.771 41.0254 170.659 40.6549C170.546 40.2845 170.526 39.8898 170.601 39.5087C170.756 38.7498 170.96 38.0029 171.211 37.2732C171.666 35.583 171.071 33.68 171.568 32.0879C172.088 30.6541 172.795 29.3035 173.668 28.0749Z" fill="#464353"/>
<path d="M180.224 66.5421C180.147 66.9394 180.186 67.3524 180.338 67.7253C180.492 67.9792 180.701 68.1905 180.949 68.3414C182.688 69.4836 184.667 70.1594 186.712 70.3097C186.99 70.3148 187.263 70.3895 187.509 70.5278C187.995 70.8659 188.026 71.6183 187.845 72.2181C187.603 72.7839 187.478 73.3971 187.478 74.0174C187.628 75.157 188.911 75.6532 189.992 75.8222C191.508 76.0239 193.168 75.9203 194.369 74.9225C195.182 74.141 195.801 73.1621 196.174 72.0709C199.144 64.8791 200.184 56.9293 203.189 49.7593C203.417 49.2912 203.569 48.7862 203.64 48.2653C203.671 48.0046 203.636 47.7396 203.538 47.498C203.44 47.2564 203.282 47.0469 203.081 46.8913C202.522 46.526 201.653 46.7332 201.275 46.1607C201.089 45.8717 201.11 45.4791 200.944 45.1738C200.598 44.5249 199.687 44.6285 199.066 44.2523C198.58 43.9797 198.244 43.4181 197.7 43.309C197.434 43.2932 197.167 43.343 196.922 43.4547C196.677 43.5664 196.46 43.7368 196.288 43.9524C194.524 45.6863 193.598 48.1454 192.615 50.4681C191.114 54.0286 189.357 57.4628 187.359 60.7406C187.591 60.3589 186.241 57.4691 185.713 57.3437C184.787 57.1474 183.603 58.8595 183.101 59.4975C181.526 61.5097 180.528 63.9534 180.224 66.5421Z" fill="#3284B8"/>
<path opacity="0.1" d="M199.018 44.7594C198.647 44.7659 198.281 44.8605 197.949 45.036C197.617 45.2116 197.326 45.4636 197.099 45.7736C196.546 46.5314 196.437 47.5347 196.297 48.4998C195.826 51.5574 194.791 54.488 193.25 57.1256" fill="black"/>
<path opacity="0.1" d="M201.657 46.9349C201.144 46.947 200.643 47.0996 200.203 47.3778C199.763 47.6561 199.4 48.0503 199.148 48.5216C198.806 49.3792 198.593 50.2881 198.517 51.2151C198.073 53.2705 197.218 55.202 196.008 56.8803" fill="black"/>
<path d="M324.611 153.531V146.759C324.61 141.774 322.73 136.993 319.384 133.469C316.039 129.944 311.503 127.964 306.773 127.964H53.0179C48.2878 127.964 43.7514 129.944 40.4062 133.469C37.061 136.993 35.1811 141.774 35.1797 146.759V159.245L324.611 153.531Z" fill="#33323D"/>
<path d="M123.611 120.025C123.611 120.025 122.887 167.386 130.854 182.969C138.821 198.552 142.235 266.343 142.235 266.343C142.235 266.343 225.756 275.449 283.958 255.438C342.16 235.427 466.003 227.243 466.003 227.243L445.133 78.9955C445.133 78.9955 342.031 72.0273 283.379 101.509C224.727 130.99 123.611 120.025 123.611 120.025Z" fill="#8DD070"/>
<path opacity="0.1" d="M123.611 120.025C123.611 120.025 122.887 167.386 130.854 182.969C138.821 198.552 142.235 266.343 142.235 266.343C142.235 266.343 225.756 275.449 283.958 255.438C342.16 235.427 466.003 227.243 466.003 227.243L445.133 78.9955C445.133 78.9955 342.031 72.0273 283.379 101.509C224.727 130.99 123.611 120.025 123.611 120.025Z" fill="black"/>
<path d="M142.096 137.326C142.096 137.326 139.483 176.404 146.038 188.89C152.593 201.377 152.898 257.117 152.898 257.117C152.898 257.117 228.064 260.792 281.532 241.61C335 222.429 447.358 209.986 447.358 209.986L434.59 88.7501C434.59 88.7501 341.622 87.7414 287.363 114.742C233.103 141.743 142.096 137.326 142.096 137.326Z" fill="#8DD070"/>
<path opacity="0.1" d="M286.535 219.413C297.23 218.009 303.584 197.273 300.727 173.099C297.87 148.924 286.884 130.464 276.189 131.868C265.494 133.272 259.14 154.008 261.997 178.183C264.854 202.358 275.84 220.817 286.535 219.413Z" fill="black"/>
<path opacity="0.2" d="M388.608 6.77747C388.608 6.77747 288.444 33.4946 241.21 80.5223C193.976 127.55 94.541 149.818 94.541 149.818C94.541 149.818 107.64 195.123 119.757 207.38C131.873 219.637 154.854 283.06 154.854 283.06C154.854 283.06 236.993 264.707 286.555 226.823C336.118 188.939 451.626 141.094 451.626 141.094L388.608 6.77747Z" fill="black"/>
<path d="M93.0352 143.035C93.0352 143.035 106.129 188.345 118.235 200.602C130.341 212.859 153.332 276.277 153.332 276.277C153.332 276.277 235.482 257.93 285.05 220.046C334.617 182.162 450.115 134.333 450.115 134.333L387.097 0C387.097 0 286.938 26.7172 239.704 73.7448C192.47 120.772 93.0352 143.035 93.0352 143.035Z" fill="#8DD070"/>
<path opacity="0.1" d="M93.0352 143.035C93.0352 143.035 106.129 188.345 118.235 200.602C130.341 212.859 153.332 276.277 153.332 276.277C153.332 276.277 235.482 257.93 285.05 220.046C334.617 182.162 450.115 134.333 450.115 134.333L387.097 0C387.097 0 286.938 26.7172 239.704 73.7448C192.47 120.772 93.0352 143.035 93.0352 143.035Z" fill="black"/>
<path d="M115.648 153.525C115.648 153.525 124.542 191.567 134.418 201.327C144.294 211.087 160.803 264.031 160.803 264.031C160.803 264.031 233.408 243.213 278.712 207.663C324.016 172.113 427.341 123.984 427.341 123.984L379.895 12.6879C379.895 12.6879 291.123 41.7878 247.34 85.0368C203.557 128.286 115.648 153.525 115.648 153.525Z" fill="#8DD070"/>
<path opacity="0.1" d="M277.037 184.936C286.807 180.141 286.817 158.351 277.059 136.267C267.301 114.182 251.47 100.166 241.7 104.961C231.93 109.756 231.92 131.547 241.678 153.631C251.436 175.716 267.267 189.731 277.037 184.936Z" fill="black"/>
<path opacity="0.1" d="M331.461 160.178V348.288C331.461 350.425 331.062 352.54 330.286 354.514C329.51 356.487 328.373 358.281 326.939 359.791C325.505 361.302 323.803 362.499 321.931 363.316C320.058 364.134 318.05 364.554 316.023 364.553H50.6227C46.5306 364.552 42.6066 362.837 39.7136 359.787C36.8205 356.737 35.1953 352.601 35.1953 348.288V141.214C42.8004 144.191 42.8004 144.191 50.6227 143.94H316.023C320.112 143.94 324.034 145.65 326.928 148.694C329.823 151.738 331.453 155.868 331.461 160.178Z" fill="black"/>
<path d="M331.461 162.571V350.682C331.46 354.996 329.832 359.133 326.937 362.183C324.042 365.233 320.117 366.947 316.023 366.947H50.6227C46.5306 366.945 42.6066 365.231 39.7136 362.181C36.8205 359.131 35.1953 354.995 35.1953 350.682V143.602C42.8004 146.574 42.8004 146.574 50.6227 146.328H316.023C320.113 146.328 324.036 148.039 326.93 151.084C329.825 154.129 331.454 158.261 331.461 162.571Z" fill="#504F60"/>
<path opacity="0.1" d="M330.706 232.118V292.275H275.349C267.847 292.168 260.686 288.953 255.416 283.323C250.146 277.694 247.191 270.104 247.191 262.196C247.191 254.288 250.146 246.698 255.416 241.069C260.686 235.44 267.847 232.224 275.349 232.118H330.706Z" fill="black"/>
<path d="M331.462 230.515V290.683H276.105C268.603 290.576 261.441 287.36 256.172 281.731C250.902 276.102 247.947 268.512 247.947 260.604C247.947 252.696 250.902 245.106 256.172 239.477C261.441 233.848 268.603 230.632 276.105 230.525L331.462 230.515Z" fill="#33323D"/>
<path opacity="0.1" d="M278.759 273.927C284.905 273.927 289.887 268.676 289.887 262.199C289.887 255.722 284.905 250.471 278.759 250.471C272.613 250.471 267.631 255.722 267.631 262.199C267.631 268.676 272.613 273.927 278.759 273.927Z" fill="black"/>
<path d="M279.513 272.335C285.659 272.335 290.641 267.084 290.641 260.607C290.641 254.129 285.659 248.879 279.513 248.879C273.367 248.879 268.385 254.129 268.385 260.607C268.385 267.084 273.367 272.335 279.513 272.335Z" fill="#3284B8"/>
<path d="M427.548 229.997C427.987 235.018 424.381 239.893 425.432 244.811C425.659 245.863 426.089 246.856 426.244 247.919C426.678 250.841 425.028 253.606 423.45 256.049L409.896 277.008C409.353 277.929 408.703 278.775 407.961 279.527C405.374 281.959 401.483 281.708 398.079 282.433C395.686 282.945 393.427 283.998 391.457 285.519C391.375 285.593 391.323 285.698 391.311 285.812C391.299 285.925 391.33 286.039 391.395 286.13C391.958 286.937 392.703 287.583 393.563 288.009C394.424 288.435 395.372 288.627 396.32 288.567C396.677 289.063 396.32 289.788 395.803 290.143C395.074 290.688 394.075 290.819 393.93 292.117C393.879 292.57 393.966 293.028 394.179 293.425C394.725 294.307 395.574 294.93 396.548 295.165C401.24 296.675 406.31 294.02 409.823 290.405C413.336 286.79 415.855 282.226 419.301 278.545C421.21 276.512 423.378 274.767 425.344 272.793C429.265 268.856 432.312 264.069 435.256 259.276C436.141 257.831 437.031 256.348 437.403 254.675C437.776 253.001 437.6 251.31 438.019 249.691C438.567 247.564 440.042 245.874 441.268 244.091C443.673 240.602 445.277 236.332 444.962 232.036C444.646 227.739 442.116 223.492 438.267 222.03C437.074 221.526 435.758 221.441 434.516 221.791C432.938 222.303 431.774 223.677 430.698 224.991L428.111 228.126C427.466 228.814 426.957 229.63 426.611 230.525C426.445 230.975 426.406 231.466 426.498 231.939C426.59 232.412 426.809 232.847 427.129 233.192" fill="#FBBEBE"/>
<path opacity="0.05" d="M427.548 229.997C427.987 235.018 424.381 239.893 425.432 244.811C425.659 245.863 426.089 246.856 426.244 247.919C426.678 250.841 425.028 253.606 423.45 256.049L409.896 277.008C409.353 277.929 408.703 278.775 407.961 279.527C405.374 281.959 401.483 281.708 398.079 282.433C395.686 282.945 393.427 283.998 391.457 285.519C391.375 285.593 391.323 285.698 391.311 285.812C391.299 285.925 391.33 286.039 391.395 286.13C391.958 286.937 392.703 287.583 393.563 288.009C394.424 288.435 395.372 288.627 396.32 288.567C396.677 289.063 396.32 289.788 395.803 290.143C395.074 290.688 394.075 290.819 393.93 292.117C393.879 292.57 393.966 293.028 394.179 293.425C394.725 294.307 395.574 294.93 396.548 295.165C401.24 296.675 406.31 294.02 409.823 290.405C413.336 286.79 415.855 282.226 419.301 278.545C421.21 276.512 423.378 274.767 425.344 272.793C429.265 268.856 432.312 264.069 435.256 259.276C436.141 257.831 437.031 256.348 437.403 254.675C437.776 253.001 437.6 251.31 438.019 249.691C438.567 247.564 440.042 245.874 441.268 244.091C443.673 240.602 445.277 236.332 444.962 232.036C444.646 227.739 442.116 223.492 438.267 222.03C437.074 221.526 435.758 221.441 434.516 221.791C432.938 222.303 431.774 223.677 430.698 224.991L428.111 228.126C427.466 228.814 426.957 229.63 426.611 230.525C426.445 230.975 426.406 231.466 426.498 231.939C426.59 232.412 426.809 232.847 427.129 233.192" fill="black"/>
<path d="M437.807 359.275C434.848 361.178 431.159 361.292 427.719 360.851C427.165 360.78 426.508 360.736 426.167 361.189C425.65 361.843 426.26 362.825 426.891 363.332C428.92 364.937 431.305 365.971 433.819 366.336C436.063 366.671 438.329 366.83 440.596 366.81C446.804 366.925 453.012 367.034 459.122 366.096C459.484 366.067 459.836 365.96 460.157 365.78C460.551 365.488 460.825 365.05 460.923 364.553C461.342 362.874 460.535 361.074 459.314 359.907C458.093 358.741 456.525 358.092 454.994 357.465L449.613 355.257C448.351 354.739 446.328 353.364 444.957 353.474C442.381 353.67 439.944 357.955 437.807 359.275Z" fill="#3F3D56"/>
<path opacity="0.05" d="M437.807 359.275C434.848 361.178 431.159 361.292 427.719 360.851C427.165 360.78 426.508 360.736 426.167 361.189C425.65 361.843 426.26 362.825 426.891 363.332C428.92 364.937 431.305 365.971 433.819 366.336C436.063 366.671 438.329 366.83 440.596 366.81C446.804 366.925 453.012 367.034 459.122 366.096C459.484 366.067 459.836 365.96 460.157 365.78C460.551 365.488 460.825 365.05 460.923 364.553C461.342 362.874 460.535 361.074 459.314 359.907C458.093 358.741 456.525 358.092 454.994 357.465L449.613 355.257C448.351 354.739 446.328 353.364 444.957 353.474C442.381 353.67 439.944 357.955 437.807 359.275Z" fill="black"/>
<path d="M441.579 283.998C439.339 287.139 437.022 290.764 437.575 294.652C437.875 296.746 438.987 298.594 439.805 300.53C440.912 303.158 441.491 305.982 442.061 308.796C442.899 312.907 443.742 317.029 444.254 321.206C444.839 325.922 442.092 339.57 441.838 344.319C441.776 345.464 441.647 346.701 440.891 347.525C440.596 347.852 440.203 348.114 440.069 348.539C439.99 348.949 440.054 349.375 440.25 349.739C441.512 352.737 444.094 354.973 446.975 356.249C449.857 357.525 456.805 359.728 459.945 359.842C460.359 359.89 460.778 359.832 461.166 359.673C461.584 359.404 461.913 359.006 462.108 358.533C464.358 353.997 462.196 337.868 462.227 332.749C462.258 328.479 463.215 324.237 463.039 319.973C462.894 316.549 462.004 313.201 461.709 309.788C461.192 304.194 462.165 298.572 463.143 293.044C463.888 288.802 464.638 284.56 465.595 280.372C466.179 277.815 466.857 275.236 468.182 273.017C469.216 271.255 470.67 269.783 471.875 268.109C475.221 263.486 476.708 257.662 476.014 251.894C475.942 251.348 468.254 253.949 467.576 254.26C464.811 255.494 462.267 257.218 460.054 259.358C458.274 261.147 456.872 263.535 455.315 265.536C453.111 268.367 450.935 271.219 448.786 274.091C446.334 277.373 443.932 280.676 441.579 283.998Z" fill="#464353"/>
<path opacity="0.05" d="M441.579 283.807C439.339 286.948 437.022 290.579 437.575 294.461C437.875 296.561 438.987 298.409 439.805 300.345C440.912 302.967 441.491 305.797 442.061 308.605C442.899 312.722 443.742 316.844 444.254 321.015C444.839 325.737 442.092 339.379 441.838 344.128C441.776 345.273 441.647 346.516 440.891 347.34C440.596 347.661 440.203 347.923 440.069 348.348C439.989 348.758 440.054 349.184 440.25 349.548C441.512 352.552 444.094 354.782 446.975 356.091C449.857 357.399 456.805 358.539 459.945 358.648C460.359 358.696 460.778 358.638 461.166 358.479C461.585 358.214 461.914 357.817 462.108 357.345C464.358 352.808 462.196 337.716 462.227 332.591C462.258 328.316 463.215 324.079 463.039 319.81C462.894 316.386 462.004 313.038 461.709 309.63C461.192 304.03 462.165 298.409 463.143 292.88C463.888 288.644 464.638 284.402 465.595 280.209C466.179 277.651 466.857 275.072 468.182 272.853C469.216 271.092 470.67 269.62 471.875 267.946C475.222 263.323 476.709 257.499 476.014 251.73C475.942 251.185 468.254 253.786 467.576 254.097C464.812 255.335 462.268 257.061 460.054 259.2C458.274 260.983 456.872 263.371 455.315 265.372C453.111 268.204 450.935 271.058 448.786 273.933C446.334 277.19 443.932 280.481 441.579 283.807Z" fill="black"/>
<path d="M416.654 214.828C423.588 214.828 429.21 208.903 429.21 201.595C429.21 194.286 423.588 188.361 416.654 188.361C409.719 188.361 404.098 194.286 404.098 201.595C404.098 208.903 409.719 214.828 416.654 214.828Z" fill="#FBBEBE"/>
<path d="M427.963 201.038C429.123 202.989 430.644 204.673 432.435 205.99C434.226 207.307 436.25 208.23 438.388 208.705L437.441 212.331C435.806 218.557 433.969 225.144 429.406 229.462C429.924 227.352 429.261 225.1 428.134 223.268C427.006 221.436 425.423 219.997 423.871 218.574L416.643 211.976C416.435 211.797 416.259 211.579 416.126 211.333C415.948 210.868 415.948 210.348 416.126 209.882C417.047 206.862 419.675 204.975 421.817 202.936C422.892 201.881 423.851 200.704 424.678 199.425C426.121 197.254 427.016 199.435 427.963 201.038Z" fill="#FBBEBE"/>
<path d="M400.112 188.291L399.828 185.804C401.809 186.349 403.692 184.572 404.96 182.734C406.227 180.897 407.402 178.732 409.332 177.964C411.675 177.037 414.158 178.509 416.399 179.752C418.906 181.219 421.659 182.163 424.505 182.533C424.96 182.549 425.41 182.626 425.845 182.762C427.304 183.307 427.998 185.237 428.21 186.987C428.422 188.738 428.365 190.597 429.084 192.156C429.601 193.34 430.564 194.217 431.153 195.384C432.705 198.514 431.205 202.794 432.824 205.864L428.799 201.976C428.432 201.622 427.915 201.251 427.506 201.551C427.185 201.791 427.159 202.309 427.03 202.723C426.642 203.934 425.204 204.294 424.164 203.814C423.124 203.334 422.364 202.293 421.577 201.344C419.798 199.13 417.676 197.184 415.193 196.24C414.105 195.811 412.942 195.631 411.782 195.712C410.623 195.793 409.493 196.133 408.468 196.709C406.59 197.827 405.213 200.433 402.911 200.526C399.755 200.651 398.441 194.457 396.982 192.009C397.516 191.586 397.892 190.978 398.043 190.292C398.195 189.606 398.112 188.886 397.81 188.258C398.022 188.165 400.066 187.909 400.112 188.291Z" fill="#464353"/>
<path d="M244.811 110.925C243.802 111.871 242.869 112.903 242.022 114.011C241.17 115.135 240.716 116.537 240.739 117.975C240.744 118.393 240.87 118.798 241.101 119.137C241.219 119.299 241.383 119.418 241.568 119.478C241.754 119.537 241.952 119.534 242.136 119.469C242.344 119.358 242.522 119.193 242.653 118.99C243.2 118.297 243.78 117.635 244.392 117.005C244.614 116.77 244.909 116.525 245.209 116.612C245.344 116.663 245.464 116.747 245.561 116.858C245.909 117.175 246.162 117.591 246.29 118.057C246.471 118.891 246.011 119.726 245.488 120.38C244.966 121.034 244.35 121.661 244.138 122.485C244.058 122.702 244.058 122.943 244.138 123.161C244.238 123.318 244.378 123.443 244.542 123.521C245.283 123.95 246.104 124.204 246.948 124.262C247.792 124.32 248.638 124.183 249.425 123.859C250.46 123.417 251.381 122.659 252.447 122.267C252.908 122.133 253.356 121.951 253.782 121.721C254.086 121.507 254.348 121.232 254.551 120.911C254.755 120.59 254.896 120.23 254.966 119.851C255.101 119.094 255.127 118.321 255.044 117.556C254.915 114.594 254.313 111.676 253.264 108.924C253.203 108.747 253.1 108.589 252.964 108.466C252.808 108.366 252.629 108.315 252.447 108.319C251.122 108.172 248.949 107.458 247.672 107.976C247.225 108.234 246.839 108.595 246.544 109.033C246.306 109.311 244.811 110.56 244.811 110.925Z" fill="#A1616A"/>
<path d="M244.39 109.693C244.39 108.363 242.838 105.151 245.306 104.938C245.306 103.515 243.397 102.632 243.754 101.122C243.867 100.62 244.271 100.211 244.317 99.6986C244.473 98.2428 241.979 97.4522 242.393 96.0564C242.548 95.5111 243.096 95.1949 243.215 94.6551C243.495 93.3956 241.358 92.834 241.317 91.5417C241.317 91.1055 241.55 90.6966 241.529 90.2604C241.529 89.7151 241.079 89.3008 240.83 88.8264C240.184 87.6105 240.499 85.7294 239.32 85.1023C240.101 85.1732 240.355 83.9519 240.034 83.2049C239.713 82.4579 239.056 81.809 239.051 80.9803C239.09 80.6799 239.09 80.3755 239.051 80.0751C238.834 79.2791 237.597 79.2137 237.39 78.4394C237.363 78.1422 237.355 77.8436 237.364 77.5452C237.281 76.9291 236.681 76.5365 236.117 76.362C235.532 76.2572 234.968 76.045 234.452 75.735C234.089 75.446 233.67 74.9662 233.282 75.1897C233.138 75.2824 233.065 75.4569 232.956 75.5878C232.491 76.1603 231.601 75.9095 231.016 75.4896C229.288 74.2519 228.43 72.0327 228.062 69.8681C227.695 67.7035 227.705 65.468 227.245 63.3251C227.104 62.6573 226.918 62.0013 226.686 61.3622C226.49 60.817 225.858 59.961 225.817 59.4103C225.724 58.1562 228.186 59.0122 229.123 59.1376C230.032 59.2312 230.931 59.4137 231.808 59.6829C232.744 60.0556 233.661 60.4797 234.555 60.9533C238.29 62.6926 242.802 62.9053 245.802 65.8278C246.79 66.7875 247.623 68.047 248.906 68.4832C249.495 68.6021 250.075 68.7605 250.645 68.9575C252.067 69.6609 252.29 71.6511 253.066 73.0905C253.31 73.4707 253.523 73.8719 253.702 74.2901C253.852 74.7832 253.922 75.2992 253.909 75.8168L254.018 79.5953C254.194 85.9257 254.37 92.2724 253.728 98.5645C253.521 100.642 253.211 102.779 253.795 104.775C253.95 105.32 254.168 105.833 254.313 106.383C254.441 107.029 254.506 107.687 254.509 108.346L254.592 110.794C254.621 110.985 254.58 111.18 254.478 111.34C254.392 111.414 254.291 111.466 254.182 111.494C254.074 111.521 253.961 111.522 253.852 111.498C250.619 111.192 247.349 109.273 244.297 110.435" fill="#464353"/>
<path d="M391.949 297.804C413.081 297.804 430.212 295.194 430.212 291.975C430.212 288.756 413.081 286.146 391.949 286.146C370.817 286.146 353.686 288.756 353.686 291.975C353.686 295.194 370.817 297.804 391.949 297.804Z" fill="#504F60"/>
<path d="M424.869 292.258C424.197 289.221 423.778 286.555 423.778 286.555C423.778 286.555 423.933 283.251 422.526 280.77V279.941V273.835C422.926 272.726 423.416 271.655 423.99 270.634C425.025 268.715 423.99 261.681 423.99 261.681C423.99 261.681 420.125 251.763 421.062 245.471C421.998 239.179 413.126 217.532 413.126 217.532C413.18 215.445 413.46 213.37 413.958 211.349C414.053 210.924 414.092 210.487 414.072 210.051C414.072 209.997 414.072 209.948 414.072 209.893C414.072 209.839 414.072 209.926 414.072 209.942C413.938 205.793 410.823 198.018 410.823 198.018L411.242 183.198C411.242 183.198 413.229 174.474 409.99 162.724C408.857 158.629 408.133 155.352 407.673 152.822C407.621 152.539 407.569 152.277 407.528 151.999C414.196 150.908 419.292 150.036 419.292 150.036C419.292 150.036 415.423 132.975 412.81 129.987C410.197 126.999 408.107 117.615 408.107 117.615C408.107 117.615 406.747 105.571 408.945 102.049C411.144 98.5263 411.455 92.4522 411.455 92.4522C411.455 92.4522 416.468 88.6355 417.099 86.9071C417.73 85.1786 418.77 81.3619 418.77 79.339C418.77 77.3161 418.144 75.5223 418.351 74.4318C418.558 73.3413 416.887 69.3119 417.725 67.3926C417.942 66.8031 418.054 66.1765 418.056 65.5442C418.058 65.5261 418.058 65.5078 418.056 65.4897C418.064 63.8102 417.916 62.1338 417.616 60.4843C416.166 59.1938 414.474 58.2406 412.65 57.6872L412.541 57.2292L412.256 56.0297C412.098 55.919 411.934 55.8171 411.765 55.7243V55.2881L411.718 53.5542L412.505 49.6612C414.057 42.8892 405.474 41.8805 405.474 41.8805C404.953 40.8417 404.088 40.0418 403.042 39.634C401.32 38.9961 402.758 49.8193 403.56 50.539C404.165 51.0843 406.038 54.4539 406.943 56.1224L407.088 56.395C406.946 56.5293 406.815 56.6751 406.695 56.8312L407.021 59.1812L407.073 59.5411C406.504 60.2855 406.042 61.1141 405.702 62.0001C405.702 62.0001 407.254 63.8104 406.959 65.8169C406.664 67.8234 407.44 70.3697 407.476 70.506C407.383 70.3915 406.281 69.1374 405.179 69.4428C404.077 69.7481 400.999 70.7241 400.999 70.7241C400.999 70.7241 398.702 71.1494 398.929 71.6837C399.157 72.2181 397.377 74.5626 397.377 74.5626L391.2 68.3904C391.138 68.2051 391.071 68.0197 391.019 67.8452C390.767 66.9553 390.594 66.0426 390.502 65.119C391.175 64.9503 391.836 64.7298 392.478 64.4592C393.127 64.2243 393.713 63.8278 394.185 63.3033C394.811 62.5236 394.93 61.4658 395.184 60.4952C395.67 58.5978 396.736 56.913 397.476 55.1082C398.729 52.0585 399.132 48.6961 398.64 45.4137C398.545 44.4021 398.22 43.4296 397.693 42.5784C396.684 41.1171 394.853 40.5228 393.523 39.356C392.194 38.1891 391.335 36.4062 389.783 35.5392C388.381 34.7486 386.679 34.8413 385.096 35.1139C382.004 35.6513 379.033 36.7902 376.337 38.4727C375.437 39.0179 374.443 39.6886 373.409 39.4868C372.519 39.3178 371.857 38.5708 371.298 37.8511C371.304 37.8213 371.313 37.7921 371.324 37.7639C371.298 37.7373 371.276 37.7081 371.256 37.6766C370.602 39.2079 370.273 40.8717 370.294 42.5511C370.294 42.8128 370.294 43.0964 370.325 43.3308V43.6035C370.325 43.6798 370.325 43.7561 370.325 43.827C370.325 43.9432 370.309 44.0589 370.279 44.1705C370.148 44.504 369.951 44.8036 369.699 45.0484C369.509 45.2757 369.336 45.5181 369.182 45.7735C369.182 45.6863 369.234 45.5991 369.265 45.5064C368.87 46.1135 368.647 46.8265 368.623 47.562C368.594 48.0974 368.761 48.6241 369.089 49.0341C369.398 49.3511 369.736 49.636 370.098 49.8847C369.975 50.6045 369.912 51.3343 369.911 52.0657C369.923 54.2339 370.465 56.3622 371.486 58.2449C372.506 60.1275 373.97 61.7008 375.737 62.8125C375.809 62.9925 375.876 63.1779 375.944 63.3578C376.735 65.5388 377.33 68.1015 377.066 70.446C377.066 70.615 377.02 70.7895 376.994 70.9586C376.968 71.1276 376.839 71.1385 376.771 71.2312C376.771 71.2312 366.564 71.3402 364.164 69.0502C361.763 66.7601 358.1 74.6499 358.1 74.6499C358.1 74.6499 354.443 75.3969 353.708 74.6499C352.973 73.9029 348.695 74.5463 348.695 74.5463C346.942 72.9033 344.661 72.0259 342.316 72.0927C340.895 70.9547 339.327 70.0367 337.66 69.3664L337.546 69.3228C336.81 69.0401 336.023 68.9357 335.244 69.0175C335.244 69.0175 330.225 64.6555 328.761 62.3C327.297 59.9445 320.329 51.2478 320.297 51.2097V50.7898L320.22 49.5249C320.013 49.5591 319.804 49.5773 319.594 49.5794C319.558 49.454 319.506 49.3068 319.454 49.1377C319.053 47.9039 318.558 46.7059 317.975 45.5554C317.975 45.5554 317.975 43.9579 318.414 43.5544C318.854 43.1509 318.233 37.2895 318.233 37.2895C318.233 37.2895 313.712 26.1501 309.661 34.4651C309.661 34.4651 302.004 39.8467 308.429 46.1171C308.429 46.1171 311.016 47.4256 311.358 48.4616C311.596 49.1323 312.465 51.0134 313.049 52.2784L313.313 52.8236L313.241 52.889L313.334 53.9359L313.375 54.3394C312.165 55.0646 311.342 55.7843 311.544 56.3241C311.9 57.2478 312.145 58.215 312.273 59.203C312.273 59.203 321.161 70.9367 322.31 75.9476C322.31 75.9476 346.144 90.8765 353.982 91.9397L352.596 99.3823C352.394 101.402 352.29 103.431 352.285 105.462C352.389 107.059 351.344 114.311 351.344 114.311C351.344 114.311 349.983 124.976 348.834 126.47C347.686 127.964 347.893 134.36 347.893 134.36C347.622 137.422 347.103 140.454 346.341 143.422C345.192 147.473 346.025 152.49 346.025 152.49C346.025 152.49 342.057 162.086 351.566 155.581C351.566 155.581 356.222 155.276 361.613 155.079C361.613 155.265 361.613 155.456 361.613 155.625C361.613 156.355 361.613 157.146 361.577 157.975C361.504 163.471 361.473 171.061 361.711 176.775C362.13 186.906 365.059 206.954 365.059 206.954V217.047C364.87 217.993 364.776 218.958 364.779 219.926C364.717 223.477 365.614 226.973 367.366 230.007L368.101 236.725C368.101 236.725 369.818 241.152 369.849 243.813C369.843 244.028 369.818 244.241 369.777 244.451C369.71 244.79 369.682 245.136 369.694 245.482C369.596 248.535 371.339 255.841 371.339 255.841C371.339 255.841 371.443 263.197 372.488 263.627C373.383 263.993 371.293 267.864 370.672 268.976C370.655 268.908 370.643 268.839 370.636 268.769L370.506 268.987C370.291 269.583 370.18 270.215 370.18 270.852C370.121 271.354 370.199 271.864 370.404 272.321C370.609 272.779 370.934 273.166 371.339 273.436C373.326 274.718 374.392 275.781 372.705 276.206C372.085 276.308 371.47 276.444 370.863 276.615C370.863 276.533 370.801 276.446 370.775 276.37C370.537 276.468 370.339 276.649 370.213 276.884C370.088 277.118 370.043 277.391 370.087 277.657C370.103 278.522 370.314 279.37 370.703 280.132C372.374 284.08 373.533 285.585 373.533 285.585L374.335 285.492C374.216 285.815 374.06 286.121 373.869 286.402C373.564 286.86 373.159 287.234 372.689 287.493C372.251 287.769 371.763 287.946 371.256 288.011C370.69 288.03 370.133 288.175 369.624 288.437C369.114 288.698 368.662 289.069 368.297 289.527C367.262 290.95 366.6 292.885 368.659 294.587L376.135 297.313C376.135 297.313 388.996 299.074 388.313 296.032C387.631 292.989 387.217 290.328 387.217 290.328C387.272 288.471 386.918 286.625 386.182 284.936C386.047 284.66 385.895 284.394 385.727 284.14L386.182 284.091C386.182 284.091 387.124 277.368 388.376 276.092C388.665 275.797 388.732 275.547 388.665 275.394C388.795 275.029 388.463 274.816 388.044 274.691L387.951 274.958C387.542 274.864 387.124 274.814 386.704 274.81C386.704 274.81 386.285 271.294 387.646 270.012C387.756 269.866 387.836 269.698 387.881 269.518C387.927 269.338 387.936 269.15 387.91 268.965C387.92 268.483 387.871 268.001 387.765 267.531C387.752 267.562 387.736 267.591 387.719 267.619C387.036 264.424 384.718 259.347 384.718 259.347C384.718 259.347 384.614 256.152 385.453 254.871C386.291 253.589 385.344 237.488 385.344 237.488C385.344 237.488 385.659 229.708 384.718 226.082C383.776 222.456 385.866 218.186 385.866 218.186C385.866 218.186 385.866 218.105 385.866 217.957V217.903L385.747 216.676C385.744 216.701 385.744 216.727 385.747 216.752C385.535 214.691 385.137 210.956 384.842 209.233C384.423 206.78 384.951 195.057 384.951 195.057L386.829 190.041L390.176 198.683L393.73 210.199C393.73 210.199 395.489 212.63 395.53 215.106C395.53 215.226 395.53 215.346 395.53 215.466C395.502 215.721 395.488 215.978 395.489 216.234C395.426 217.689 395.805 219.128 396.57 220.34C396.57 220.34 397.512 225.793 398.976 227.161C400.44 228.53 400.44 231.212 400.44 231.212C400.44 231.212 402.215 239.108 403.027 240.482C403.73 241.649 403.767 244.844 403.762 245.841C403.762 246.021 403.762 246.125 403.762 246.125C403.762 246.125 404.01 248.949 403.999 251.316C403.999 251.61 403.999 251.894 403.999 252.161C404.002 252.141 404.002 252.121 403.999 252.101C403.999 252.747 403.926 253.392 403.782 254.02L403.751 254.129C403.751 253.993 403.751 253.862 403.787 253.731C403.424 255.338 403.25 256.986 403.27 258.638C403.223 261.474 403.632 264.832 405.262 266.817C408.087 270.23 409.861 269.805 409.861 269.805C409.861 269.805 408.506 274.069 406.829 274.925C406.766 274.957 406.707 274.997 406.653 275.045C406.653 274.958 406.622 274.876 406.612 274.794C406.425 275.007 406.283 275.258 406.194 275.533C406.105 275.807 406.071 276.098 406.095 276.386C405.976 278.262 407.098 281.293 408.164 282.706C408.56 283.114 409.045 283.414 409.577 283.578C409.492 283.641 409.404 283.697 409.313 283.747C409.127 283.855 408.935 283.951 408.738 284.036C408.466 284.158 408.179 284.237 407.885 284.271C407.318 284.287 406.76 284.43 406.25 284.691C405.739 284.953 405.288 285.326 404.926 285.786C403.891 287.204 403.229 289.14 405.288 290.841L412.763 293.567C412.763 293.567 425.542 295.295 424.869 292.258Z" fill="url(#paint0_linear)"/>
<path d="M375.767 297.297L368.524 294.57C366.527 292.869 367.164 290.934 368.173 289.511C368.52 289.057 368.955 288.686 369.45 288.425C369.944 288.164 370.486 288.017 371.039 287.995C371.529 287.929 372 287.752 372.42 287.477C372.879 287.214 373.273 286.84 373.568 286.386C374.097 285.502 374.382 284.481 374.391 283.436C374.391 283.436 382.338 280.983 384.51 283.436C384.898 283.881 385.222 284.382 385.473 284.925C386.195 286.619 386.548 288.461 386.507 290.317C386.507 290.317 386.911 292.978 387.568 296.021C388.225 299.063 375.767 297.297 375.767 297.297Z" fill="#2D293D"/>
<path d="M411.173 293.534L403.931 290.808C401.934 289.107 402.57 287.171 403.579 285.754C403.923 285.298 404.358 284.927 404.851 284.665C405.345 284.403 405.887 284.258 406.44 284.238C406.726 284.207 407.005 284.128 407.267 284.003C407.459 283.918 407.645 283.822 407.826 283.714C409.849 282.542 409.797 279.663 409.797 279.663C409.797 279.663 417.739 277.21 419.917 279.663C420.208 279.996 420.463 280.361 420.677 280.754C422.038 283.235 421.888 286.544 421.888 286.544C421.888 286.544 422.291 289.211 422.922 292.248C423.554 295.285 411.173 293.534 411.173 293.534Z" fill="#2D293D"/>
<path opacity="0.1" d="M384.515 283.431C384.903 283.875 385.227 284.377 385.477 284.919L373.578 286.375C374.107 285.491 374.391 284.47 374.401 283.425C374.401 283.425 382.342 280.977 384.515 283.431Z" fill="black"/>
<path opacity="0.1" d="M420.689 280.765V283.115C418.837 286.326 409.882 285.623 407.279 284.014C407.471 283.929 407.657 283.833 407.838 283.725C409.861 282.553 409.809 279.674 409.809 279.674C409.809 279.674 417.75 277.221 419.928 279.674C420.22 280.007 420.475 280.372 420.689 280.765Z" fill="black"/>
<path d="M422.1 270.634C421.547 271.658 421.074 272.729 420.688 273.835V282.259C418.66 285.776 408.142 284.603 406.719 282.684C405.297 280.765 403.812 275.77 405.411 274.903C407.009 274.036 408.344 269.783 408.344 269.783C408.344 269.783 406.621 270.209 403.89 266.795C401.158 263.382 401.97 255.814 402.477 254.004C402.984 252.194 402.477 246.114 402.477 246.114C402.477 246.114 402.581 241.845 401.774 240.46C400.967 239.075 399.244 231.191 399.244 231.191C399.244 231.191 399.244 228.524 397.826 227.14C396.409 225.755 395.498 220.313 395.498 220.313C394.669 218.953 394.313 217.333 394.489 215.727C394.789 213.061 392.767 210.182 392.767 210.182L389.326 198.661L386.088 190.024L384.266 195.035C384.266 195.035 383.749 206.764 384.168 209.212C384.587 211.66 385.203 218.17 385.203 218.17C385.203 218.17 383.18 222.434 384.091 226.06C385.001 229.686 384.67 237.477 384.67 237.477C384.67 237.477 385.581 253.573 384.768 254.854C383.956 256.136 384.06 259.336 384.06 259.336C384.06 259.336 388.198 268.715 386.895 269.996C385.591 271.277 385.984 274.794 385.984 274.794C385.984 274.794 388.814 274.794 387.603 276.076C386.393 277.357 385.477 284.074 385.477 284.074L373.242 285.585C373.242 285.585 372.124 284.096 370.505 280.132C368.886 276.168 370.805 276.615 372.435 276.185C374.064 275.754 373.035 274.696 371.11 273.415C369.186 272.133 370.303 269.254 370.303 269.254C370.303 269.254 373.237 264.031 372.223 263.606C371.209 263.18 371.11 255.82 371.11 255.82C371.11 255.82 369.087 247.096 369.594 244.729C370.101 242.363 367.975 236.736 367.975 236.736L367.266 230.018C365.102 226.207 364.312 221.7 365.042 217.325V206.965C365.042 206.965 362.207 186.922 361.803 176.791C361.544 170.303 361.617 161.448 361.7 155.925C361.751 152.828 361.803 150.772 361.803 150.772L405.509 145.974C405.509 145.974 405.467 148.1 406.3 152.817C406.75 155.347 407.449 158.624 408.546 162.718C411.681 174.447 409.761 183.187 409.761 183.187L409.353 198.012C409.353 198.012 413.197 207.925 412.39 211.338C411.902 213.365 411.628 215.442 411.572 217.532C411.572 217.532 420.171 239.179 419.26 245.471C418.349 251.763 422.09 261.681 422.09 261.681C422.09 261.681 423.114 268.715 422.1 270.634Z" fill="#464353"/>
<path opacity="0.05" d="M397.113 215.084L410.42 213.214C410.42 213.214 402.882 221.322 397.113 215.084Z" fill="black"/>
<path opacity="0.1" d="M408.495 199.512C408.495 199.512 408.95 204.473 406.068 206.338C406.068 206.338 411.226 205.488 408.495 199.512Z" fill="black"/>
<path opacity="0.1" d="M407.677 183.732C407.677 183.732 396.555 193.383 392.509 192.582C388.463 191.78 407.677 183.732 407.677 183.732Z" fill="black"/>
<path opacity="0.1" d="M380.619 219.61C380.619 219.61 372.171 221.632 371.917 225.209C371.664 228.786 380.619 219.61 380.619 219.61Z" fill="black"/>
<path opacity="0.05" d="M382.477 264.08C382.477 264.08 370.541 266.425 373.93 268.022C377.319 269.62 382.885 270.901 382.885 270.901C382.885 270.901 386.74 271.114 382.477 264.08Z" fill="black"/>
<g opacity="0.05">
<path opacity="0.05" d="M371.518 270.563C371.218 270.366 370.964 270.099 370.775 269.784C370.586 269.469 370.467 269.112 370.426 268.742L370.302 268.966C370.302 268.966 369.19 271.844 371.114 273.12C371.332 273.268 371.544 273.415 371.735 273.556C372.092 273.486 372.475 273.431 372.842 273.333C374.472 272.908 373.443 271.844 371.518 270.563Z" fill="black"/>
<path opacity="0.05" d="M386.895 269.707C387.226 269.391 387.215 268.573 387.014 267.526C386.496 268.349 386.346 269.636 386.336 270.612C386.462 270.273 386.652 269.965 386.895 269.707Z" fill="black"/>
<path opacity="0.05" d="M385.059 216.66C384.619 217.921 384.348 219.24 384.252 220.58C384.483 219.655 384.793 218.753 385.178 217.887L385.059 216.66Z" fill="black"/>
<path opacity="0.05" d="M412.394 211.065C412.474 210.682 412.51 210.291 412.503 209.899C412.353 210.695 412.25 211.431 412.172 212.08C412.239 211.747 412.312 211.431 412.394 211.065Z" fill="black"/>
<path opacity="0.05" d="M384.773 254.571C384.938 254.309 385.031 253.426 385.073 252.199C384.699 253.148 384.5 254.165 384.488 255.192C384.559 254.974 384.655 254.765 384.773 254.571Z" fill="black"/>
<path opacity="0.05" d="M387.256 274.68C386.629 276.818 386.163 279.006 385.864 281.223L373.629 282.711C373.629 282.711 372.511 281.223 370.892 277.259C370.762 276.953 370.646 276.64 370.546 276.321C369.811 276.675 369.511 277.477 370.483 279.816C372.103 283.764 373.225 285.268 373.225 285.268L385.461 283.774C385.461 283.774 386.371 277.057 387.582 275.776C388.203 275.16 387.82 274.838 387.256 274.68Z" fill="black"/>
<path opacity="0.05" d="M371.115 255.531C371.115 255.531 371.214 262.886 372.228 263.311C372.745 262.095 373.081 260.939 372.626 260.749C371.591 260.323 371.514 252.962 371.514 252.962C371.514 252.962 369.491 244.239 369.998 241.872C370.505 239.506 368.379 233.879 368.379 233.879L367.67 227.161C365.505 223.349 364.715 218.843 365.445 214.468V204.108C365.445 204.108 362.61 184.065 362.207 173.934C361.948 167.446 362.02 158.591 362.103 153.068C362.103 152.07 362.134 151.186 362.15 150.439L361.803 150.478C361.803 150.478 361.746 152.528 361.7 155.63C361.617 161.154 361.539 170.008 361.803 176.491C362.207 186.622 365.036 206.671 365.036 206.671V217.031C364.31 221.405 365.102 225.908 367.266 229.719L367.97 236.436C367.97 236.436 370.096 242.085 369.589 244.435C369.082 246.785 371.115 255.531 371.115 255.531Z" fill="black"/>
<path opacity="0.05" d="M407.133 279.838C406.139 278.321 405.476 276.591 405.193 274.772C403.946 275.961 405.379 280.574 406.745 282.406C408.157 284.325 418.68 285.497 420.713 281.975V279.947C417.956 282.798 408.468 281.653 407.133 279.838Z" fill="black"/>
<path opacity="0.05" d="M422.509 267.788C421.954 268.812 421.48 269.882 421.092 270.988V272.499C421.325 271.954 421.651 271.223 422.126 270.361C422.447 269.522 422.598 268.621 422.571 267.717C422.571 267.717 422.525 267.766 422.509 267.788Z" fill="black"/>
<path opacity="0.05" d="M407.754 269.472C408.139 268.651 408.472 267.804 408.753 266.937C408.753 266.937 407.03 267.362 404.298 263.949C402.312 261.468 402.198 256.779 402.482 253.715C401.965 255.531 401.163 263.099 403.895 266.512C405.68 268.742 407.03 269.331 407.754 269.472Z" fill="black"/>
<path opacity="0.05" d="M402.477 245.825C402.655 247.926 402.722 250.036 402.678 252.145C402.729 251.812 402.798 251.482 402.885 251.158C403.403 249.342 402.885 243.268 402.885 243.268C402.885 243.268 402.989 238.999 402.177 237.614C401.364 236.229 399.673 228.334 399.673 228.334C399.673 228.334 399.673 225.667 398.255 224.282C396.838 222.898 395.927 217.456 395.927 217.456C395.091 216.099 394.725 214.479 394.892 212.87C395.198 210.204 393.175 207.325 393.175 207.325L389.734 195.81L386.496 187.173L384.67 192.189C384.67 192.189 384.67 192.822 384.607 193.825L386.087 189.752L389.326 198.372L392.766 209.888C392.766 209.888 394.789 212.767 394.484 215.433C394.317 217.042 394.682 218.662 395.518 220.019C395.518 220.019 396.429 225.471 397.846 226.845C399.264 228.219 399.259 230.896 399.259 230.896C399.259 230.896 400.982 238.786 401.789 240.166C402.596 241.545 402.477 245.825 402.477 245.825Z" fill="black"/>
</g>
<path d="M410.972 49.6448L410.212 53.5379L410.258 55.2718L410.289 56.5477L406.068 57.0057L405.597 56.0842C404.723 54.4158 402.907 51.0243 402.322 50.5009C401.541 49.8139 400.149 38.9852 401.805 39.6286C402.824 40.0435 403.661 40.842 404.154 41.8696C404.154 41.8696 412.467 42.8729 410.972 49.6448Z" fill="#FFCDD3"/>
<path opacity="0.1" d="M410.29 56.5477L406.068 57.0057L405.598 56.0842C406.165 55.403 406.94 54.9502 407.789 54.8031C408.638 54.6559 409.509 54.8235 410.254 55.2773L410.29 56.5477Z" fill="black"/>
<path d="M411.355 58.6579L405.788 60.0155L405.669 59.1431L405.354 56.7931C405.354 56.7931 407.557 53.6961 410.744 56.0189L411.024 57.213L411.355 58.6579Z" fill="#3284B8"/>
<path d="M321.18 50.0701L315.236 53.4289L314.719 52.2511C314.155 51.0025 313.312 49.1214 313.079 48.4344C312.727 47.3984 310.249 46.0898 310.249 46.0898C304.041 39.8249 311.439 34.4379 311.439 34.4379C315.36 26.1228 319.716 37.2623 319.716 37.2623C319.716 37.2623 320.327 43.1346 319.897 43.5272C319.468 43.9197 319.468 45.5282 319.468 45.5282C320.035 46.6806 320.514 47.8785 320.901 49.1105C321.082 49.7048 321.18 50.0701 321.18 50.0701Z" fill="#FFCDD3"/>
<path opacity="0.1" d="M321.181 50.0702L315.236 53.4289L314.719 52.2512C315.557 51.5096 318.532 48.9797 319.509 49.0833C319.976 49.1447 320.448 49.1575 320.917 49.1215C321.082 49.7049 321.181 50.0702 321.181 50.0702Z" fill="black"/>
<path d="M321.787 51.9622L315.108 55.43L314.974 53.9196L314.881 52.8727C314.881 52.8727 318.751 49.3777 319.894 49.514C320.472 49.6023 321.059 49.6023 321.637 49.514L321.715 50.779L321.787 51.9622Z" fill="#3284B8"/>
<path d="M394.783 75.5059C394.783 75.5059 365.667 78.9683 371.11 77.1035C374.897 75.8004 376.402 73.2868 376.718 70.4515C376.976 68.0906 376.397 65.5443 375.636 63.3633C374.952 61.4284 374.085 59.5708 373.05 57.8181C373.05 57.8181 395.296 44.9175 390.852 56.6458C390.166 58.4198 389.741 60.2932 389.589 62.2019C389.456 64.0987 389.65 66.0053 390.164 67.8288C391.003 70.7877 392.602 73.4445 394.783 75.5059Z" fill="#FFCDD3"/>
<path opacity="0.1" d="M390.837 56.6294C390.152 58.4034 389.726 60.2768 389.575 62.1855C387.48 64.0448 385.183 63.9194 382.229 63.9194C379.963 63.9194 377.448 64.4974 375.638 63.3469C374.953 61.4121 374.087 59.5544 373.051 57.8017C373.051 57.8017 395.292 44.9011 390.837 56.6294Z" fill="black"/>
<path d="M381.836 64.7373C388.484 64.7373 393.874 59.0567 393.874 52.0494C393.874 45.042 388.484 39.3615 381.836 39.3615C375.187 39.3615 369.797 45.042 369.797 52.0494C369.797 59.0567 375.187 64.7373 381.836 64.7373Z" fill="#FFCDD3"/>
<path opacity="0.1" d="M394.783 75.506C394.783 75.506 365.667 78.9683 371.11 77.1036C374.897 75.8004 376.402 73.2868 376.718 70.4515C378.166 68.8158 381.079 67.5999 382.926 66.9674C384.633 66.3622 386.477 66.3299 388.203 66.8747C388.881 67.0902 389.528 67.4059 390.122 67.8125C390.97 70.7823 392.584 73.4456 394.783 75.506Z" fill="black"/>
<path opacity="0.1" d="M411.356 58.6578L405.789 60.0155L405.67 59.1431C406.266 58.2802 407.1 57.6319 408.058 57.2865C409.016 56.9411 410.052 56.9154 411.024 57.2129L411.356 58.6578Z" fill="black"/>
<path opacity="0.1" d="M321.786 51.9621L315.107 55.4299L314.973 53.9195C317.136 52.6936 319.384 51.6419 321.698 50.7734L321.786 51.9621Z" fill="black"/>
<path opacity="0.1" d="M406.3 152.828C395.017 154.725 378.979 157.146 376.433 156.328C374.317 155.652 367.571 155.723 361.699 155.936C361.751 152.839 361.803 150.783 361.803 150.783L405.508 145.985C405.508 145.985 405.467 148.111 406.3 152.828Z" fill="black"/>
<path d="M417.547 150.036C417.547 150.036 380.417 156.753 376.434 155.488C372.45 154.223 351.989 155.592 351.989 155.592C342.78 162.097 346.624 152.5 346.624 152.5C346.624 152.5 345.817 147.49 346.929 143.438C347.676 140.464 348.187 137.429 348.455 134.366C348.455 134.366 348.254 127.964 349.366 126.47C350.478 124.976 351.797 114.317 351.797 114.317C351.797 114.317 352.806 107.065 352.708 105.467C352.61 103.87 353.008 99.3879 353.008 99.3879L354.327 91.9234C346.738 90.8602 323.669 75.9313 323.669 75.9313C322.557 70.9204 313.958 59.1921 313.958 59.1921C313.833 58.2059 313.595 57.2392 313.25 56.3132C312.644 54.6066 321.75 51.1934 321.75 51.1934C321.75 51.1934 328.527 59.9173 329.944 62.2837C331.362 64.6501 336.215 69.0012 336.215 69.0012C336.969 68.9194 337.73 69.024 338.439 69.3065L338.558 69.3447C340.185 70.0175 341.709 70.9359 343.085 72.0709C345.367 72.0139 347.58 72.8937 349.257 74.5245C349.257 74.5245 353.396 73.8811 354.115 74.6281C354.834 75.3751 358.363 74.6281 358.363 74.6281C358.363 74.6281 361.901 66.7384 364.229 69.0284C366.557 71.3185 376.434 71.2094 376.434 71.2094C377.748 69.3665 380.95 68.047 382.952 67.3927C384.66 66.79 386.503 66.7576 388.229 67.3C388.974 67.5342 389.674 67.9032 390.299 68.3905L396.305 74.5736C396.305 74.5736 398.023 72.2236 397.821 71.6947C397.619 71.1658 399.844 70.7351 399.844 70.7351C399.844 70.7351 402.777 69.7754 403.889 69.4537C405.002 69.132 406.021 70.4025 406.114 70.517C406.078 70.3806 405.317 67.7907 405.597 65.8278C405.876 63.8649 404.381 62.0111 404.381 62.0111C407.919 52.84 415.913 60.5171 415.913 60.5171C415.913 60.5171 416.823 65.5279 416.016 67.4472C415.209 69.3665 416.823 73.4177 416.621 74.4864C416.42 75.555 417.03 77.3653 417.03 79.3936C417.03 81.4219 415.995 85.255 415.411 86.9616C414.826 88.6683 409.947 92.5068 409.947 92.5068C409.947 92.5068 409.642 98.5863 407.516 102.103C405.39 105.62 406.724 117.648 406.724 117.648C406.724 117.648 408.747 127.032 411.277 130.02C413.807 133.008 417.547 150.036 417.547 150.036Z" fill="#3F3D56"/>
<path opacity="0.1" d="M363.423 79.8734C363.423 79.8734 362.311 76.3565 361.297 76.0566C360.29 75.6664 359.31 75.2036 358.363 74.6717L359.015 73.3577C359.015 73.3577 362.812 74.4482 363.423 75.6313C364.033 76.8145 363.423 79.8734 363.423 79.8734Z" fill="black"/>
<path opacity="0.1" d="M343.086 72.0927C342.884 73.1832 333.877 74.1156 333.877 74.1156L338.43 69.3065L338.543 69.3501C340.176 70.0266 341.706 70.9506 343.086 72.0927Z" fill="black"/>
<path d="M317.032 58.3088C317.477 58.3088 317.839 57.928 317.839 57.4582C317.839 56.9885 317.477 56.6077 317.032 56.6077C316.586 56.6077 316.225 56.9885 316.225 57.4582C316.225 57.928 316.586 58.3088 317.032 58.3088Z" fill="#575988"/>
<path d="M318.067 60.0155C318.513 60.0155 318.874 59.6347 318.874 59.1649C318.874 58.6952 318.513 58.3143 318.067 58.3143C317.621 58.3143 317.26 58.6952 317.26 59.1649C317.26 59.6347 317.621 60.0155 318.067 60.0155Z" fill="#575988"/>
<path d="M319.081 61.5913C319.526 61.5913 319.888 61.2105 319.888 60.7407C319.888 60.271 319.526 59.8901 319.081 59.8901C318.635 59.8901 318.273 60.271 318.273 60.7407C318.273 61.2105 318.635 61.5913 319.081 61.5913Z" fill="#575988"/>
<path d="M320.141 63.2924C320.587 63.2924 320.948 62.9115 320.948 62.4418C320.948 61.972 320.587 61.5912 320.141 61.5912C319.695 61.5912 319.334 61.972 319.334 62.4418C319.334 62.9115 319.695 63.2924 320.141 63.2924Z" fill="#575988"/>
<path d="M415.511 63.0417C415.873 63.0417 416.167 62.7316 416.167 62.3492C416.167 61.9668 415.873 61.6567 415.511 61.6567C415.148 61.6567 414.854 61.9668 414.854 62.3492C414.854 62.7316 415.148 63.0417 415.511 63.0417Z" fill="#575988"/>
<path d="M415.614 64.6174C415.977 64.6174 416.271 64.3073 416.271 63.9249C416.271 63.5424 415.977 63.2324 415.614 63.2324C415.251 63.2324 414.957 63.5424 414.957 63.9249C414.957 64.3073 415.251 64.6174 415.614 64.6174Z" fill="#575988"/>
<path d="M415.702 66.1877C416.065 66.1877 416.359 65.8776 416.359 65.4952C416.359 65.1128 416.065 64.8027 415.702 64.8027C415.339 64.8027 415.045 65.1128 415.045 65.4952C415.045 65.8776 415.339 66.1877 415.702 66.1877Z" fill="#575988"/>
<path opacity="0.1" d="M363.459 108.772C363.361 108.646 386.171 139 403.875 121.46C403.89 121.465 375.917 125.462 363.459 108.772Z" fill="black"/>
<path opacity="0.1" d="M350.369 124.551C350.369 124.551 364.017 124.944 365.445 129.082V133.389C365.056 133.617 364.619 133.736 364.175 133.736C363.73 133.736 363.293 133.617 362.905 133.389C361.528 132.604 353.277 128.188 350.369 130.314V124.551Z" fill="black"/>
<path d="M350.623 124.551C350.623 124.551 363.676 124.927 365.042 128.875V132.975C364.67 133.193 364.251 133.307 363.826 133.307C363.4 133.307 362.982 133.193 362.61 132.975C361.296 132.234 353.406 128.019 350.623 130.047V124.551Z" fill="#3F3D56"/>
<path opacity="0.1" d="M357.82 93.3192C359.215 96.7207 360.992 99.9334 363.113 102.888C365.42 106.154 368.215 109.003 371.39 111.323C371.39 111.323 358.048 95.293 357.82 93.3192Z" fill="black"/>
<path opacity="0.1" d="M353.355 76.6074C353.355 76.6074 355.632 86.9671 361.499 90.484L353.355 76.6074Z" fill="black"/>
<path opacity="0.1" d="M349.863 77.6542C349.806 77.4634 347.841 85.8329 357.427 90.4839C357.427 90.4839 353.355 89.0281 349.863 77.6542Z" fill="black"/>
<path opacity="0.1" d="M409.457 70.7077C409.306 70.7077 414.185 73.9792 415.515 75.5059C415.515 75.5059 412.338 70.4896 409.457 70.7077Z" fill="black"/>
<path d="M378.581 63.5486C378.582 63.8254 378.639 64.0988 378.746 64.3515C378.853 64.6042 379.009 64.8308 379.203 65.0168C379.398 65.2028 379.627 65.3443 379.876 65.4322C380.125 65.5202 380.388 65.5528 380.65 65.5279C384.318 65.7678 388.141 65.9368 391.514 64.4374C392.147 64.1994 392.715 63.8027 393.17 63.2815C393.77 62.5018 393.889 61.444 394.132 60.4734C394.608 58.576 395.622 56.8912 396.352 55.0864C397.586 52.0372 397.999 48.6887 397.547 45.4082C397.451 44.4027 397.136 43.4341 396.626 42.5784C395.653 41.1117 393.879 40.5174 392.59 39.3505C391.302 38.1837 390.474 36.4007 388.969 35.5338C387.613 34.7377 385.953 34.8359 384.427 35.1085C381.425 35.6457 378.548 36.784 375.952 38.4618C375.078 39.007 374.121 39.6777 373.117 39.4759C372.238 39.3015 371.596 38.5217 371.048 37.7911C370.342 39.536 370.046 41.4343 370.184 43.3254C370.222 43.6029 370.213 43.8853 370.158 44.1596C370.032 44.4912 369.839 44.7905 369.594 45.0375C368.689 46.128 368.125 47.9 369.02 49.0232C369.408 49.5085 370.008 49.7757 370.386 50.2718C371.063 51.1606 370.836 52.4528 370.82 53.587C370.783 53.983 370.878 54.3803 371.089 54.7102C371.285 54.9025 371.525 55.0381 371.785 55.1041C372.045 55.17 372.317 55.1639 372.574 55.0864C373.087 54.9237 373.625 54.8699 374.157 54.9283C374.718 55.1205 375.202 55.5042 375.533 56.0188C377.204 58.3143 377.867 60.8115 378.581 63.5486Z" fill="#2D293D"/>
<g opacity="0.1">
<path opacity="0.1" d="M393.599 62.3164C393.144 62.8376 392.576 63.2343 391.944 63.4723C388.55 64.9608 384.732 64.7918 381.079 64.5628C380.687 64.5669 380.299 64.4755 379.946 64.2956C379.387 63.9521 379.175 63.2324 379.005 62.5781C378.291 59.8519 377.634 57.3492 375.937 55.0755C375.61 54.551 375.125 54.1574 374.561 53.9577C374.028 53.9048 373.491 53.9584 372.978 54.1159C372.721 54.1941 372.449 54.201 372.189 54.1361C371.929 54.0711 371.689 53.9364 371.493 53.7451C371.282 53.4152 371.186 53.0179 371.224 52.6219C371.224 51.4769 371.467 50.1955 370.789 49.3068C370.411 48.8106 369.811 48.5434 369.423 48.0527C369.17 47.6909 369.015 47.2636 368.974 46.8162C368.933 46.3687 369.008 45.918 369.191 45.5118C368.544 46.6023 368.27 47.9709 369.02 48.9087C369.408 49.394 370.008 49.6612 370.386 50.1574C371.063 51.0516 370.836 52.3383 370.82 53.4725C370.78 53.8679 370.874 54.2655 371.084 54.5957C371.28 54.7889 371.521 54.9251 371.782 54.9911C372.043 55.057 372.316 55.0504 372.574 54.9719C373.087 54.8092 373.625 54.7554 374.157 54.8138C374.718 55.006 375.202 55.3897 375.533 55.9043C377.225 58.1779 377.887 60.6752 378.601 63.4123C378.685 64.0859 379.004 64.7023 379.496 65.1408C379.851 65.3209 380.241 65.4106 380.634 65.4025C384.302 65.6424 388.125 65.8169 391.499 64.312C392.132 64.0756 392.701 63.6786 393.154 63.1561C393.382 62.8489 393.557 62.502 393.671 62.131C393.677 62.2019 393.64 62.2619 393.599 62.3164Z" fill="black"/>
<path opacity="0.1" d="M370.184 43.827C370.347 43.641 370.472 43.4221 370.552 43.1836C370.598 42.9077 370.598 42.6253 370.552 42.3494C370.451 40.7949 370.642 39.2347 371.116 37.7584L371.048 37.6766C370.34 39.4189 370.044 41.316 370.184 43.2055C370.2 43.4123 370.2 43.6202 370.184 43.827Z" fill="black"/>
</g>
<path opacity="0.1" d="M376.434 71.2367C376.434 71.2367 391.473 73.3414 392.823 70.9586L376.434 71.2367Z" fill="black"/>
<path opacity="0.1" d="M405.67 64.6774C405.67 64.6774 414.03 64.6774 415.867 67.9925L405.67 64.6774Z" fill="black"/>
<path d="M452.442 359.193C449.963 361.53 446.741 362.799 443.415 362.748C442.566 362.748 441.392 362.917 441.387 363.811C441.407 364.074 441.493 364.326 441.635 364.542C442.685 366.386 444.342 367.759 446.291 368.397C448.102 368.975 450.037 368.877 451.925 368.773L457.435 368.473C458.47 368.413 459.504 368.359 460.539 368.223C461.574 368.086 462.702 367.863 463.783 367.677C466.44 367.279 469.126 367.148 471.807 367.285C472.521 367.312 473.359 367.285 473.783 366.739C474.207 366.194 473.99 365.153 473.83 364.335C473.499 362.65 473.83 360.883 473.524 359.193C473.007 356.227 470.57 353.953 467.901 352.879C465.418 351.887 461.02 350.747 458.671 352.405C456.193 354.144 454.677 357.05 452.442 359.193Z" fill="#3F3D56"/>
<path d="M457.917 259.816C458.403 262.253 460.643 264.118 460.705 266.605C460.762 268.6 459.412 270.274 458.439 271.981C457.523 273.748 456.749 275.594 456.127 277.499C454.296 282.457 452.023 287.222 449.339 291.73C448.046 293.911 446.597 296.239 446.892 298.774C447.098 299.96 447.495 301.1 448.067 302.144L451.947 310.268C452.797 311.89 453.462 313.612 453.928 315.399C454.264 316.942 454.295 318.539 454.492 320.11C455.102 325.093 457.322 330.11 456.008 334.941C455.894 335.355 455.491 335.857 455.175 335.568C456.458 338.092 457.487 340.633 457.389 343.495C457.337 344.995 456.903 346.56 457.425 347.956C457.648 348.539 458.036 349.084 458.031 349.711C458.031 350.126 457.85 350.513 457.808 350.916C457.7 352.067 458.703 353.026 459.743 353.392C460.783 353.757 461.916 353.73 462.966 354.062C464.984 354.7 466.427 356.532 468.14 357.803C469.897 359.078 471.967 359.789 474.1 359.847C474.404 359.882 474.711 359.817 474.979 359.662C475.131 359.522 475.253 359.349 475.337 359.156C475.421 358.962 475.465 358.752 475.465 358.539C475.559 357.521 475.414 356.494 475.042 355.548C474.67 354.603 474.084 353.769 473.334 353.119C473.005 352.902 472.733 352.602 472.542 352.247C472.446 351.932 472.421 351.597 472.47 351.271C472.782 346.802 472.706 342.312 472.242 337.858C472.033 336.446 471.965 335.015 472.04 333.588C472.149 332.4 472.491 331.222 472.366 330.039C472.242 328.856 471.668 327.776 471.332 326.636C470.732 324.608 470.897 322.427 470.814 320.306C470.711 316.62 469.909 313 469.112 309.401C468.797 307.989 468.45 306.511 467.503 305.464C466.696 304.576 465.393 303.725 465.698 302.542C465.867 302.106 466.119 301.711 466.438 301.38C466.812 300.885 467.087 300.314 467.245 299.703C467.404 299.092 467.442 298.453 467.358 297.825C467.699 297.917 468.059 297.881 468.377 297.724C468.695 297.567 468.951 297.298 469.102 296.964C475.403 293.829 480.484 287.558 482.75 280.607C482.883 280.09 483.089 279.598 483.36 279.145C483.945 278.284 484.959 277.913 485.859 277.439C488.684 275.939 490.634 273.131 492.424 270.383C493.459 268.791 494.493 267.144 494.959 265.269C495.204 264.056 495.32 262.818 495.306 261.577L495.466 255.171C495.501 254.749 495.463 254.324 495.352 253.917C495.199 253.536 494.976 253.192 494.695 252.902C492.975 250.985 490.715 249.7 488.249 249.238C486.594 248.928 484.902 248.988 483.226 248.84C479.977 248.557 476.769 247.494 473.52 247.75C468.414 248.148 463.866 251.877 461.461 256.643C460.617 258.322 459.728 259.783 457.917 259.816Z" fill="#464353"/>
<path d="M429.566 218.159C429.635 219.148 429.508 220.142 429.194 221.076C428.795 221.971 427.797 222.669 426.922 222.303C427.186 221.676 426.488 220.962 425.836 221.038C425.515 221.116 425.217 221.275 424.968 221.501C424.718 221.727 424.524 222.014 424.403 222.336C423.971 223.252 423.826 224.288 423.989 225.297C424.196 226.551 424.884 227.756 424.703 229.015C424.558 230.062 423.829 231.103 424.217 232.074C424.468 232.517 424.784 232.917 425.153 233.257C425.664 233.921 425.914 234.766 425.852 235.618C425.789 236.47 425.419 237.265 424.817 237.837L434.605 238.045C434.248 239.767 434.983 241.529 435.821 243.061C438.168 247.273 441.41 250.855 445.291 253.526C449.172 256.196 453.588 257.883 458.191 258.453C457.942 258.606 457.729 258.816 457.566 259.067C457.403 259.317 457.296 259.603 457.251 259.903C457.206 260.203 457.224 260.51 457.306 260.801C457.387 261.093 457.528 261.362 457.72 261.588C458.517 262.423 459.867 262.319 460.866 261.779C461.864 261.239 462.645 260.345 463.556 259.653C465.163 258.452 467.124 257.896 469.086 258.082C470.313 258.208 471.503 258.628 472.734 258.693C476.355 258.895 479.459 256.147 482.946 255.024C485.487 254.2 488.368 254.2 490.5 252.526C491.421 251.807 492.176 250.623 491.907 249.457C491.684 248.786 491.332 248.171 490.872 247.652C489.646 245.978 488.922 243.966 488.042 242.063C486.3 238.296 483.901 234.907 480.97 232.074C478.758 230.036 476.414 228.163 473.955 226.469C473.36 226.006 472.726 225.603 472.061 225.264C471.202 224.866 470.251 224.675 469.474 224.173C468.326 223.41 467.664 222.063 466.779 220.978C464.839 218.59 461.859 217.494 459.469 215.618C457.865 214.359 456.448 212.701 454.533 212.096C453.602 211.796 452.614 211.774 451.683 211.48C449.567 210.804 448.025 208.825 445.951 208.023C444.311 207.391 442.5 207.554 440.777 207.331C438.835 207.078 436.98 206.334 435.371 205.161C434.852 204.716 434.271 204.359 433.648 204.103C431.025 203.263 430.813 208.41 430.544 210.193C430.197 212.843 429.566 215.477 429.566 218.159Z" fill="#3284B8"/>
<path d="M432.122 235.422C432.562 240.449 428.961 245.318 430.012 250.242C430.234 251.289 430.663 252.286 430.819 253.35C431.258 256.267 429.603 259.031 428.025 261.474L414.47 282.439C413.926 283.359 413.276 284.205 412.536 284.958C409.949 287.384 406.058 287.139 402.654 287.858C400.263 288.376 398.005 289.429 396.032 290.945C395.943 291.017 395.885 291.123 395.869 291.24C395.854 291.357 395.883 291.476 395.949 291.572C396.511 292.378 397.256 293.024 398.115 293.449C398.975 293.875 399.921 294.067 400.869 294.009C401.226 294.5 400.869 295.23 400.378 295.585C399.654 296.13 398.65 296.255 398.505 297.558C398.456 298.011 398.543 298.469 398.753 298.867C399.301 299.746 400.15 300.367 401.123 300.601C405.815 302.117 410.885 299.456 414.398 295.841C417.911 292.226 420.43 287.662 423.876 283.987C425.785 281.948 427.953 280.209 429.918 278.235C433.84 274.293 436.892 269.511 439.831 264.718C440.716 263.273 441.611 261.79 441.978 260.116C442.345 258.442 442.174 256.747 442.594 255.127C443.142 253.006 444.616 251.31 445.842 249.533C448.248 246.043 449.857 241.774 449.536 237.472C449.216 233.17 446.691 228.928 442.842 227.467C441.648 226.967 440.334 226.883 439.091 227.227C437.513 227.739 436.349 229.113 435.273 230.433L432.686 233.563C432.056 234.256 431.562 235.073 431.233 235.967C431.066 236.418 431.026 236.909 431.118 237.383C431.209 237.857 431.429 238.293 431.75 238.639" fill="#FBBEBE"/>
<path d="M438.993 214.801C437.213 214.91 435.252 215.095 433.995 216.436C433.468 217.052 433.042 217.756 432.733 218.519C431.512 221.142 430.322 223.884 430.234 226.807C430.162 229.141 430.803 231.425 431.14 233.732C431.419 235.651 430.71 237.608 430.576 239.549C432.785 238.835 435.703 237.865 437.705 236.66C439.07 235.836 440.39 234.898 441.88 234.375C444.006 233.628 447.571 234.92 449.593 235.956C449.702 234.462 448.636 231.856 448.75 230.356C448.766 229.725 448.872 229.1 449.066 228.503C449.368 227.87 449.727 227.27 450.137 226.709C450.907 225.389 451.261 223.847 451.148 222.302C451.036 220.758 450.463 219.29 449.511 218.11C447.715 215.984 444.906 215.188 442.226 214.839C440.539 214.633 438.838 214.571 437.141 214.653" fill="#3284B8"/>
</g>
<defs>
<linearGradient id="paint0_linear" x1="365.364" y1="297.804" x2="365.364" y2="31.3626" gradientUnits="userSpaceOnUse">
<stop stop-color="#808080" stop-opacity="0.25"/>
<stop offset="0.54" stop-color="#808080" stop-opacity="0.12"/>
<stop offset="1" stop-color="#808080" stop-opacity="0.1"/>
</linearGradient>
</defs>
</svg>
