<?xml version="1.0" encoding="iso-8859-1"?>
<!-- Generator: Adobe Illustrator 19.0.0, SVG Export Plug-In . SVG Version: 6.00 Build 0)  -->
<svg version="1.1" id="Layer_1" xmlns="http://www.w3.org/2000/svg" xmlns:xlink="http://www.w3.org/1999/xlink" x="0px" y="0px"
	 viewBox="0 0 512 512" style="enable-background:new 0 0 512 512;" xml:space="preserve">
<circle style="fill:#FCEA81;" cx="83.367" cy="256.011" r="65.696"/>
<g>
	<path style="fill:#E0B394;" d="M138.243,240.772c-13.747-0.61-24.689-11.951-24.689-25.842c0-14.279,11.574-25.864,25.864-25.864
		c1.286,0,2.55,0.089,3.791,0.277L138.243,240.772z"/>
	<path style="fill:#E0B394;" d="M371.961,240.772c13.747-0.61,24.7-11.951,24.7-25.842c0-14.279-11.585-25.864-25.875-25.864
		c-1.286,0-2.561,0.1-3.791,0.277L371.961,240.772z"/>
</g>
<path style="fill:#EA8249;" d="M307.387,334.483H202.835c-37.866,0-68.563,30.696-68.563,68.562v100.641h241.677V403.045
	C375.95,365.179,345.253,334.483,307.387,334.483z"/>
<path style="fill:#D36F3D;" d="M245.08,334.483h-42.245c-37.866,0-68.563,30.696-68.563,68.563v100.641h42.245V403.046
	C176.517,365.179,207.214,334.483,245.08,334.483z"/>
<path style="fill:#F7CBA4;" d="M217.692,352.57l-45.507-33.063c-24.048-17.472-37.057-46.364-34.198-75.952l7.893-81.68
	c5.437-56.256,52.711-99.183,109.229-99.183l0,0c56.518,0,103.792,42.926,109.229,99.183l7.893,81.68
	c2.859,29.588-10.149,58.479-34.198,75.952l-45.507,33.063C270.213,368.779,240.003,368.779,217.692,352.57z"/>
<path style="fill:#E0B394;" d="M166.306,259.652c-0.765,12.937,3.448,25.664,11.785,35.586l47.563,58.446
	c2.483,2.96,5.299,5.443,8.348,7.428c-5.72-1.995-11.219-4.856-16.308-8.547l-45.508-33.059
	c-24.046-17.472-37.05-46.362-34.189-75.951l7.882-81.682c5.388-55.708,51.794-98.345,107.591-99.154
	c-34.367,0.831-73.282,33.225-75.311,67.725L166.306,259.652z"/>
<path style="fill:#F9C573;" d="M374.048,132.478h-9.741c0-30.154-12.217-57.448-31.983-77.215
	c-14.656-14.656-33.458-25.165-54.488-29.611h-0.003V8.315h-45.453v17.338c-49.399,10.455-86.468,54.311-86.468,106.824h-9.748
	l-6.666,33.258h59.092l9.561,27.715h113.912l9.561-27.715h59.092L374.048,132.478z"/>
<g>
	<polygon style="fill:#E2AF66;" points="188.589,165.736 198.149,193.451 216.748,193.451 210.31,165.736 	"/>
	<path style="fill:#E2AF66;" d="M181.569,132.478c0-52.514,24.965-96.369,58.232-106.824V8.315h-7.421v17.338
		c-49.398,10.455-86.468,54.311-86.468,106.824h-9.748l-6.666,33.258h66.87l4.49-33.258h-19.289V132.478z"/>
</g>
<circle style="fill:#FCE8CA;" cx="255.102" cy="91.46" r="41.019"/>
<path style="fill:#999999;" d="M113.243,313.924v18.203c0,8.337-3.381,15.897-8.847,21.363c-5.465,5.465-13.015,8.847-21.363,8.847
	c-16.685,0-30.21-13.525-30.21-30.21v-18.203H113.243z"/>
<polygon style="fill:#E6E6E6;" points="476.936,173.115 464.207,126.44 438.748,126.44 426.019,173.115 438.748,195.163 
	439.553,195.163 439.553,334.139 463.401,334.139 463.401,195.163 464.207,195.163 "/>
<path style="fill:#5D9EBA;" d="M458.168,503.685h-13.38c-14.656,0-26.536-11.881-26.536-26.536V360.675
	c0-14.656,11.881-26.536,26.536-26.536h13.38c14.656,0,26.536,11.881,26.536,26.536V477.15
	C484.704,491.804,472.823,503.685,458.168,503.685z"/>
<path style="fill:#508DA3;" d="M452.06,477.15V360.675c0-11.035,6.737-20.495,16.322-24.496c-3.144-1.313-6.594-2.04-10.214-2.04
	h-13.381c-14.655,0-26.536,11.881-26.536,26.536V477.15c0,14.656,11.881,26.536,26.536,26.536h13.381c3.62,0,7.07-0.727,10.214-2.04
	C458.797,497.645,452.06,488.185,452.06,477.15z"/>
<path d="M278.664,288.936c-13.114,13.113-34.451,13.114-47.567,0c-3.246-3.248-8.511-3.247-11.758,0s-3.247,8.512,0.001,11.758
	c9.798,9.799,22.669,14.698,35.541,14.698c12.872,0,25.744-4.899,35.542-14.698c3.248-3.247,3.248-8.511,0.001-11.758
	S281.911,285.689,278.664,288.936z"/>
<path d="M205.528,214.017c-4.593,0-8.315,3.723-8.315,8.315v13.299c0,4.592,3.722,8.315,8.315,8.315s8.315-3.723,8.315-8.315
	v-13.299C213.843,217.74,210.121,214.017,205.528,214.017z"/>
<path d="M304.232,214.017c-4.593,0-8.315,3.723-8.315,8.315v13.299c0,4.592,3.722,8.315,8.315,8.315
	c4.593,0,8.315-3.723,8.315-8.315v-13.299C312.547,217.74,308.825,214.017,304.232,214.017z"/>
<path d="M176.29,495.371h-33.929v-96.327c0-18.722,9.571-35.708,25.6-45.441c3.924-2.384,5.175-7.498,2.793-11.423
	s-7.496-5.175-11.423-2.793c-21.038,12.773-33.599,35.075-33.599,59.656v104.642c0,4.592,3.722,8.315,8.315,8.315h42.244
	c4.593,0,8.315-3.723,8.315-8.315S180.883,495.371,176.29,495.371z"/>
<path d="M350.427,339.388c-3.924-2.381-9.039-1.132-11.423,2.793c-2.382,3.926-1.132,9.039,2.793,11.422
	c16.037,9.737,25.612,26.724,25.612,45.441v96.327H263.199v-90.236l36.208,25.724c1.429,1.015,3.116,1.537,4.817,1.537
	c1.06,0,2.126-0.203,3.138-0.615c2.634-1.074,4.538-3.421,5.043-6.222l9.869-54.642c0.816-4.519-2.186-8.844-6.705-9.659
	c-4.519-0.818-8.844,2.186-9.66,6.704l-7.543,41.76l-38.667-27.471c-2.885-2.049-6.747-2.049-9.632,0l-38.668,27.471l-7.543-41.76
	c-0.816-4.519-5.146-7.523-9.66-6.704c-4.519,0.816-7.521,5.141-6.705,9.659l9.869,54.642c0.506,2.8,2.409,5.147,5.043,6.222
	c2.635,1.073,5.636,0.726,7.955-0.921l36.209-25.724v90.236h-41.562c-4.593,0-8.315,3.723-8.315,8.315s3.722,8.315,8.315,8.315
	h170.715c4.593,0,8.315-3.723,8.315-8.315V399.044C384.037,374.467,371.473,352.166,350.427,339.388z"/>
<path d="M254.88,270.556c11.615,0,21.064-9.449,21.064-21.064v-27.649c0-4.592-3.722-8.315-8.315-8.315
	c-4.593,0-8.315,3.723-8.315,8.315v27.649c0,2.446-1.989,4.434-4.434,4.434s-4.434-1.989-4.434-4.434v-27.649
	c0-4.592-3.722-8.315-8.315-8.315s-8.315,3.723-8.315,8.315v27.649C233.817,261.106,243.265,270.556,254.88,270.556z"/>
<path d="M374.302,180.96l-0.667-6.911h6.852c2.491,0,4.852-1.117,6.431-3.044c1.58-1.928,2.211-4.461,1.722-6.904l-6.666-33.258
	c-0.778-3.885-4.189-6.68-8.153-6.68h-1.719c-1.962-28.258-13.902-54.556-34.126-74.78c-14.538-14.537-32.427-24.899-52.056-30.253
	V8.315c0-4.592-3.722-8.315-8.315-8.315h-45.453c-4.593,0-8.315,3.723-8.315,8.315v10.829
	c-23.336,6.396-44.408,20.014-59.873,38.877c-15.391,18.771-24.551,41.994-26.274,66.143h-1.755c-3.962,0-7.373,2.795-8.153,6.68
	l-6.667,33.258c-0.49,2.443,0.142,4.977,1.722,6.904c1.579,1.928,3.94,3.045,6.431,3.045h6.848l-0.667,6.911
	c-17.091,1.87-30.436,16.389-30.436,33.97c0,15.381,10.088,28.409,24.14,32.691c-1.314,30.685,12.923,60.454,37.916,78.605
	l45.508,33.07c12.65,9.193,27.471,13.788,42.299,13.787c14.823-0.001,29.654-4.596,42.308-13.787l45.507-33.07
	c24.988-18.156,39.219-47.923,37.906-78.605c14.058-4.28,24.151-17.309,24.151-32.691
	C404.747,197.35,391.399,182.832,374.302,180.96z M139.415,157.421l3.334-16.629h224.259l3.332,16.629H139.415z M309.731,174.051
	l-3.825,11.086H203.849l-3.825-11.086H309.731z M254.878,58.201c18.034,0,32.704,14.67,32.704,32.704s-14.67,32.704-32.704,32.704
	s-32.704-14.67-32.704-32.704S236.844,58.201,254.878,58.201z M326.217,61.142c17.08,17.08,27.282,39.209,29.213,63.021h-64.15
	c8.026-8.777,12.932-20.455,12.932-33.258c0-15.448-7.143-29.254-18.292-38.306V36.464
	C301.041,41.339,314.824,49.749,326.217,61.142z M269.29,16.629v27.094c-4.562-1.396-9.4-2.153-14.412-2.153
	c-5.012,0-9.85,0.757-14.412,2.153V16.629H269.29z M223.837,36.488v16.11c-11.149,9.053-18.292,22.858-18.292,38.306
	c0,12.803,4.904,24.481,12.932,33.258h-64.132C157.716,83.749,185.429,48.924,223.837,36.488z M121.642,214.93
	c0-7.787,5.103-14.399,12.137-16.686l-3.095,32.045C125.275,227.297,121.642,221.542,121.642,214.93z M332.916,312.773
	l-45.506,33.069c-19.462,14.135-45.607,14.135-65.058,0.001l-45.511-33.071c-21.568-15.665-33.374-41.883-30.81-68.423l6.79-70.298
	h29.612l7.627,22.112c1.156,3.352,4.314,5.603,7.86,5.603h113.912c3.546,0,6.704-2.25,7.86-5.603l7.627-22.112h29.608l6.79,70.299
	C366.283,270.886,354.482,297.105,332.916,312.773z M379.066,230.291l-3.095-32.048c7.041,2.287,12.148,8.899,12.148,16.687
	C388.118,221.543,384.481,227.299,379.066,230.291z"/>
<path d="M245.863,117.641c2.127,0,4.256-0.812,5.88-2.436l13.325-13.327c3.247-3.247,3.247-8.512,0-11.758l-3.529-3.528l8.231-8.23
	c3.248-3.247,3.248-8.512,0.001-11.759c-3.248-3.246-8.513-3.247-11.758,0l-14.112,14.11c-1.56,1.56-2.436,3.674-2.436,5.88
	s0.876,4.32,2.434,5.879l3.529,3.528l-7.448,7.448c-3.247,3.247-3.247,8.512,0.001,11.758
	C241.607,116.83,243.735,117.641,245.863,117.641z"/>
<path d="M344.411,418.112c-3.246-3.248-8.511-3.247-11.758,0l-19.662,19.663c-3.247,3.247-3.247,8.512,0,11.758l7.229,7.229
	l-12.693,12.693c-3.247,3.247-3.247,8.512,0,11.758c1.624,1.623,3.753,2.436,5.88,2.436c2.127,0,4.256-0.811,5.88-2.436l18.57-18.57
	c3.247-3.247,3.247-8.512,0-11.758l-7.229-7.229l13.784-13.784C347.658,426.623,347.658,421.359,344.411,418.112z"/>
<path d="M133.199,298.402c-3.111-3.377-8.371-3.594-11.749-0.483c-3.207,2.953-6.782,5.518-10.616,7.69H91.12v-36.393
	c0-4.592-3.722-8.315-8.315-8.315s-8.315,3.723-8.315,8.315v36.393H54.709c-18.719-10.574-29.771-30.286-28.958-51.913
	c1.111-29.384,24.981-53.459,54.345-54.811c4.769-0.221,9.48,0.134,14.021,1.052c4.509,0.908,8.888-2.002,9.798-6.503
	c0.909-4.501-2.002-8.888-6.502-9.797c-5.879-1.187-11.963-1.645-18.083-1.364c-37.929,1.746-68.763,32.843-70.198,70.797
	c-0.998,26.613,12.66,51.855,35.148,65.688v13.368c0,21.242,17.282,38.524,38.524,38.524c10.293,0,19.968-4.007,27.243-11.282
	c7.275-7.275,11.281-16.95,11.281-27.242v-13.37c4.076-2.503,7.891-5.387,11.387-8.606
	C136.094,307.039,136.31,301.779,133.199,298.402z M98.289,347.611c-4.134,4.134-9.632,6.411-15.484,6.411
	c-12.074,0-21.895-9.822-21.895-21.895v-9.889h43.79v9.889C104.7,337.977,102.423,343.477,98.289,347.611z"/>
<path d="M82.805,173.065c4.593,0,8.315-3.723,8.315-8.315v-22.172c0-4.592-3.722-8.315-8.315-8.315s-8.315,3.723-8.315,8.315v22.172
	C74.491,169.342,78.212,173.065,82.805,173.065z"/>
<path d="M19.435,184.347c1.527,2.714,4.348,4.24,7.255,4.24c1.38,0,2.78-0.345,4.069-1.07c4.002-2.252,5.422-7.321,3.171-11.322
	l-9.977-17.738c-2.252-4.003-7.321-5.422-11.323-3.171c-4.002,2.252-5.422,7.321-3.171,11.322L19.435,184.347z"/>
<path d="M495.296,325.825h-23.76l0.743-128.412l11.628-20.14c1.109-1.92,1.405-4.205,0.82-6.345l-12.729-46.675
	c-0.987-3.617-4.273-6.127-8.021-6.127H438.52c-3.749,0-7.035,2.51-8.021,6.127l-12.728,46.675
	c-0.604,2.215-0.266,4.581,0.936,6.537l12.306,20.046v128.314h-23.81c-4.593,0-8.315,3.723-8.315,8.315s3.722,8.315,8.315,8.315
	h7.664c-3.268,5.306-5.157,11.546-5.157,18.221V477.15c0,19.217,15.634,34.85,34.85,34.85h13.38
	c19.217,0,34.851-15.634,34.851-34.85v-41.257c0-4.592-3.722-8.315-8.315-8.315c-4.593,0-8.315,3.723-8.315,8.315v41.257
	c0,10.047-8.174,18.221-18.222,18.221h-13.38c-10.047,0-18.221-8.174-18.221-18.221V360.675c0-10.047,8.174-18.221,18.221-18.221
	h13.38c10.047,0,18.222,8.174,18.222,18.221v43.068c0,4.592,3.722,8.315,8.315,8.315c4.593,0,8.315-3.723,8.315-8.315v-43.068
	c0-6.675-1.89-12.915-5.157-18.221h7.664c4.593,0,8.315-3.723,8.315-8.315S499.889,325.825,495.296,325.825z M447.641,325.825
	V195.162c0-1.535-0.426-3.041-1.228-4.35l-11.651-18.98l10.111-37.076h12.757l10.146,37.205l-10.996,19.046
	c-0.722,1.249-1.105,2.666-1.114,4.11l-0.757,130.711h-7.266V325.825z"/>
<path d="M451.25,365.145c-4.593,0-8.315,3.723-8.315,8.315v90.906c0,4.592,3.722,8.315,8.315,8.315c4.593,0,8.315-3.723,8.315-8.315
	v-90.906C459.565,368.868,455.842,365.145,451.25,365.145z"/>
<path d="M74.352,444.674H61.485l13.304-21.708c1.573-2.566,1.636-5.781,0.165-8.408s-4.245-4.252-7.255-4.252H54.834L68.138,388.6
	c2.399-3.916,1.172-9.034-2.745-11.434c-3.912-2.399-9.033-1.172-11.433,2.744l-21.064,34.367c-1.573,2.566-1.636,5.781-0.165,8.408
	c1.471,2.626,4.245,4.251,7.255,4.251h12.867l-13.304,21.708c-1.573,2.566-1.636,5.781-0.165,8.408
	c1.471,2.626,4.245,4.251,7.255,4.251h12.867L46.2,483.01c-2.399,3.916-1.172,9.034,2.745,11.434
	c1.356,0.831,2.855,1.226,4.337,1.226c2.796,0,5.528-1.411,7.096-3.971l21.064-34.367c1.573-2.566,1.636-5.781,0.165-8.408
	C80.136,446.298,77.362,444.674,74.352,444.674z"/>
<path d="M389.751,91.396h12.866l-13.304,21.708c-2.399,3.916-1.172,9.034,2.745,11.434c1.356,0.831,2.855,1.226,4.337,1.226
	c2.796,0,5.528-1.411,7.096-3.971l21.064-34.367c1.573-2.566,1.636-5.781,0.165-8.408c-1.471-2.626-4.245-4.252-7.255-4.252h-12.867
	l13.304-21.708c2.399-3.916,1.172-9.034-2.745-11.434c-3.913-2.399-9.033-1.172-11.433,2.744l-21.064,34.367
	c-1.573,2.566-1.636,5.781-0.165,8.408C383.968,89.77,386.741,91.396,389.751,91.396z"/>
<circle cx="228.994" cy="443.089" r="8.315"/>
<circle cx="228.994" cy="477.378" r="8.315"/>
<g>
</g>
<g>
</g>
<g>
</g>
<g>
</g>
<g>
</g>
<g>
</g>
<g>
</g>
<g>
</g>
<g>
</g>
<g>
</g>
<g>
</g>
<g>
</g>
<g>
</g>
<g>
</g>
<g>
</g>
</svg>
