<svg width="310" height="187" viewBox="0 0 310 187" fill="none" xmlns="http://www.w3.org/2000/svg">
<g clip-path="url(#clip0)">
<path d="M20.3278 136.92L18.4662 129.567C15.1654 128.166 11.7883 126.953 8.35097 125.933L8.11592 129.35L7.16281 125.586C2.89999 124.367 0 123.83 0 123.83C0 123.83 3.91722 138.746 12.1333 150.15L21.7068 151.834L14.2694 152.908C15.3034 154.154 16.4145 155.333 17.5963 156.439C29.5484 167.548 42.8608 172.645 47.3303 167.823C51.7999 163.002 45.7341 150.087 33.782 138.977C30.0768 135.533 25.4221 132.769 20.7629 130.594L20.3278 136.92Z" fill="#E6E6E6"/>
<path d="M38.0329 128.935L40.2346 121.677C38.132 118.77 35.8673 115.983 33.4513 113.331L31.4863 116.134L32.6135 112.418C29.5936 109.168 27.3882 107.207 27.3882 107.207C27.3882 107.207 23.0418 122.004 24.1885 136.019L31.5147 142.416L24.5936 139.486C24.8358 141.087 25.1783 142.672 25.6192 144.23C30.1162 159.927 38.8811 171.181 45.1963 169.367C51.5114 167.553 52.9853 153.357 48.4884 137.66C47.0943 132.794 44.5363 128.019 41.6706 123.745L38.0329 128.935Z" fill="#E6E6E6"/>
<path d="M310 170.459H0.027832V171.242H310V170.459Z" fill="#3F3D56"/>
<path d="M49.0014 89.3501C49.0014 89.3501 46.5875 118.415 46.0693 124.643C45.7139 128.547 44.8424 132.387 43.4778 136.061C43.4778 136.061 42.4413 138.137 42.4413 140.213V166.682C42.4413 166.682 40.3681 166.682 40.8864 168.758C41.4047 170.834 41.923 174.467 41.923 174.467H49.6972C49.6972 174.467 49.179 172.91 50.7338 172.391C52.2887 171.872 50.7338 167.72 50.7338 167.72L59.0264 136.58L71.4652 110.63C71.4652 110.63 78.7212 133.985 80.276 136.58C80.276 136.58 85.9772 165.644 87.0137 168.239C88.0503 170.834 88.5686 170.834 88.0503 171.872C87.532 172.91 87.532 173.948 88.0503 174.467C88.5686 174.986 98.416 174.467 98.416 174.467L95.8246 137.618L91.16 93.5026L67.3189 86.2366L49.0014 89.3501Z" fill="#2F2E41"/>
<path d="M47.6241 170.315C47.6241 170.315 45.0326 160.973 40.8864 168.239C36.7401 175.505 36.7401 178.1 36.7401 178.1C36.7401 178.1 30.0024 187.961 39.3315 186.923C48.6606 185.885 46.5875 181.214 46.5875 181.214C46.5875 181.214 50.2155 179.138 50.2155 177.581C50.2155 176.024 47.6241 170.315 47.6241 170.315Z" fill="#2F2E41"/>
<path d="M89.6051 169.277C89.6051 169.277 92.1965 159.935 96.3428 167.201C100.489 174.467 100.489 177.062 100.489 177.062C100.489 177.062 107.227 186.923 97.8977 185.885C88.5685 184.847 90.6417 180.176 90.6417 180.176C90.6417 180.176 87.0137 178.1 87.0137 176.543C87.0137 174.986 89.6051 169.277 89.6051 169.277Z" fill="#2F2E41"/>
<path d="M65.2457 19.285C65.2457 19.285 66.2822 26.0321 63.1725 27.5891C60.0628 29.1461 69.9102 34.8552 72.5017 34.8552C75.0931 34.8552 79.7577 29.6651 79.7577 29.6651C79.7577 29.6651 77.1662 21.8801 77.6845 20.323L65.2457 19.285Z" fill="#A0616A"/>
<path d="M70.9467 24.4751C76.9578 24.4751 81.8307 19.5954 81.8307 13.576C81.8307 7.55657 76.9578 2.67688 70.9467 2.67688C64.9357 2.67688 60.0627 7.55657 60.0627 13.576C60.0627 19.5954 64.9357 24.4751 70.9467 24.4751Z" fill="#A0616A"/>
<path d="M92.1964 35.8931L79.2397 28.0322C79.2397 28.0322 71.8677 36.4121 63.8921 27.0701L50.2154 30.7031L52.2885 65.9954C52.2885 65.9954 49.1788 80.0085 50.2154 82.6035C51.2519 85.1986 47.6239 86.2366 48.6605 86.7556C49.6971 87.2746 48.6605 90.9076 48.6605 90.9076C48.6605 90.9076 68.8736 101.288 91.1599 93.5026L89.0867 86.7556C89.3689 85.8736 89.4218 84.9341 89.2404 84.026C89.059 83.1178 88.6494 82.271 88.0501 81.5655C88.0501 81.5655 90.1233 78.4515 87.5319 75.8565C87.5319 75.8565 88.5684 71.1854 85.977 69.1094L85.4587 61.8434L87.0136 58.2103L92.1964 35.8931Z" fill="#CFCCE0"/>
<path d="M65.3769 8.51519C65.3769 8.51519 64.0793 11.3272 69.2696 10.2024C69.2696 10.2024 71.216 11.3272 71.216 9.64001C71.216 9.64001 73.8112 12.452 74.46 10.7648C75.1088 9.07759 76.4064 11.3272 76.4064 11.3272L77.704 8.51519L79.0016 10.2024H83.5431C83.5431 10.2024 84.8407 -1.04575 69.2696 0.079069C53.6985 1.20389 61.3587 19.0255 61.3587 19.0255C61.3587 19.0255 61.4841 15.8265 62.7817 17.5137C64.0793 19.2009 65.3769 8.51519 65.3769 8.51519Z" fill="#2F2E41"/>
<path d="M96.861 56.6533L97.3793 67.5524C97.3793 67.5524 99.4525 87.7936 95.3062 96.6167V101.288C95.3062 101.288 94.2696 113.225 89.0868 112.706C83.9039 112.187 90.6416 95.5787 90.6416 95.5787L89.605 72.7425L88.5685 59.7673L96.861 56.6533Z" fill="#A0616A"/>
<path d="M86.4954 36.4122L91.6655 35.571C95.3899 39.1544 97.9269 43.7956 98.9342 48.8683C100.489 57.1724 101.007 58.7294 101.007 58.7294L88.5685 61.8434L81.8308 48.8683L86.4954 36.4122Z" fill="#CFCCE0"/>
<path d="M146.025 30.4891H64.2344V71.1751H146.025V30.4891Z" fill="white"/>
<path d="M73.1652 32.9358C71.064 31.6705 68.5303 31.7671 67.5671 31.8637C67.9339 32.7605 69.0345 35.0479 71.1358 36.3139C73.2422 37.5825 75.7725 37.483 76.7342 37.387C76.3676 36.4905 75.2668 34.2022 73.1652 32.9358Z" fill="#5ACCF9"/>
<path d="M83.0393 58.0452H69.9062C69.5178 58.0447 69.1333 58.121 68.7744 58.2695C68.4155 58.418 68.0894 58.6359 67.8146 58.9107C67.5399 59.1855 67.3219 59.5119 67.1732 59.8711C67.0245 60.2303 66.948 60.6154 66.948 61.0042C66.948 61.3931 67.0245 61.7781 67.1732 62.1374C67.3219 62.4966 67.5399 62.8229 67.8146 63.0977C68.0894 63.3726 68.4155 63.5905 68.7744 63.739C69.1333 63.8875 69.5178 63.9637 69.9062 63.9633H83.0393C83.4277 63.9637 83.8123 63.8875 84.1711 63.739C84.53 63.5905 84.8562 63.3726 85.1309 63.0977C85.4056 62.8229 85.6236 62.4966 85.7723 62.1374C85.921 61.7781 85.9975 61.3931 85.9975 61.0042C85.9975 60.6154 85.921 60.2303 85.7723 59.8711C85.6236 59.5119 85.4056 59.1855 85.1309 58.9107C84.8562 58.6359 84.53 58.418 84.1711 58.2695C83.8123 58.121 83.4277 58.0447 83.0393 58.0452Z" fill="#5ACCF9"/>
<path d="M142.511 26.8105H68.8774C68.0208 26.8105 67.1726 26.9795 66.3813 27.3077C65.5899 27.636 64.8708 28.1171 64.2652 28.7236C63.6595 29.3301 63.179 30.0502 62.8512 30.8427C62.5234 31.6351 62.3547 32.4845 62.3547 33.3422V69.2678C62.3547 71.0001 63.0419 72.6615 64.2652 73.8864C65.4884 75.1114 67.1475 75.7995 68.8774 75.7995H142.511C144.241 75.7995 145.9 75.1114 147.123 73.8864C148.346 72.6615 149.034 71.0001 149.034 69.2678V33.3422C149.034 32.4845 148.865 31.6351 148.537 30.8427C148.209 30.0502 147.729 29.3301 147.123 28.7236C146.517 28.1171 145.798 27.636 145.007 27.3077C144.216 26.9795 143.368 26.8105 142.511 26.8105ZM67.0555 31.2662C67.2009 31.2398 70.6489 30.6523 73.504 32.3726C76.3589 34.0926 77.4558 37.4187 77.501 37.5593L77.6164 37.918L77.2459 37.9838C76.7174 38.0664 76.183 38.1057 75.6481 38.1013C73.951 38.1338 72.2762 37.7111 70.7973 36.877C67.9424 35.1573 66.8457 31.8313 66.8005 31.6906L66.685 31.332L67.0555 31.2662ZM83.0395 64.6208H69.9063C68.9484 64.6208 68.0298 64.2398 67.3525 63.5615C66.6752 62.8833 66.2947 61.9634 66.2947 61.0042C66.2947 60.045 66.6752 59.1251 67.3525 58.4468C68.0298 57.7686 68.9484 57.3875 69.9063 57.3875H83.0395C83.9973 57.3875 84.916 57.7686 85.5933 58.4468C86.2706 59.1251 86.6511 60.045 86.6511 61.0042C86.6511 61.9634 86.2706 62.8833 85.5933 63.5615C84.916 64.2398 83.9973 64.6208 83.0395 64.6208ZM142.795 63.9632C142.792 65.0087 142.376 66.0105 141.638 66.7497C140.9 67.4889 139.899 67.9056 138.855 67.9087H129.006C127.962 67.9056 126.961 67.4889 126.223 66.7497C125.485 66.0105 125.069 65.0087 125.066 63.9632V58.0451C125.069 56.9997 125.485 55.9979 126.223 55.2587C126.961 54.5194 127.962 54.1028 129.006 54.0997H138.855C139.899 54.1028 140.9 54.5194 141.638 55.2587C142.376 55.9979 142.792 56.9997 142.795 58.0451V63.9632Z" fill="#01304E"/>
<path d="M132.124 62.8125H127.856C127.551 62.8125 127.259 62.9337 127.044 63.1496C126.828 63.3654 126.707 63.658 126.707 63.9632C126.707 64.2684 126.828 64.5611 127.044 64.777C127.259 64.9928 127.551 65.114 127.856 65.114H132.124C132.429 65.114 132.722 64.9928 132.937 64.777C133.153 64.5611 133.274 64.2684 133.274 63.9632C133.274 63.658 133.153 63.3654 132.937 63.1496C132.722 62.9337 132.429 62.8125 132.124 62.8125ZM132.124 64.4564H127.856C127.791 64.4566 127.727 64.444 127.667 64.4193C127.607 64.3946 127.553 64.3583 127.507 64.3124C127.461 64.2666 127.425 64.2122 127.4 64.1523C127.375 64.0924 127.362 64.0281 127.362 63.9632C127.362 63.8984 127.375 63.8341 127.4 63.7742C127.425 63.7143 127.461 63.6599 127.507 63.6141C127.553 63.5682 127.607 63.5319 127.667 63.5072C127.727 63.4825 127.791 63.4699 127.856 63.4701H132.124C132.255 63.4704 132.38 63.5225 132.472 63.615C132.564 63.7074 132.616 63.8327 132.616 63.9632C132.616 64.0938 132.564 64.2191 132.472 64.3115C132.38 64.404 132.255 64.4561 132.124 64.4564Z" fill="#5ACCF9"/>
<path d="M140.004 62.8125H135.736C135.431 62.8125 135.139 62.9337 134.923 63.1496C134.708 63.3654 134.587 63.658 134.587 63.9632C134.587 64.2684 134.708 64.5611 134.923 64.777C135.139 64.9928 135.431 65.114 135.736 65.114H140.004C140.309 65.114 140.601 64.9928 140.817 64.777C141.032 64.5611 141.154 64.2684 141.154 63.9632C141.154 63.658 141.032 63.3654 140.817 63.1496C140.601 62.9337 140.309 62.8125 140.004 62.8125ZM140.004 64.4564H135.736C135.671 64.4566 135.607 64.444 135.547 64.4193C135.487 64.3946 135.433 64.3583 135.387 64.3124C135.341 64.2666 135.305 64.2122 135.28 64.1523C135.255 64.0924 135.242 64.0281 135.242 63.9632C135.242 63.8984 135.255 63.8341 135.28 63.7742C135.305 63.7143 135.341 63.6599 135.387 63.6141C135.433 63.5682 135.487 63.5319 135.547 63.5072C135.607 63.4825 135.671 63.4699 135.736 63.4701H140.004C140.135 63.4704 140.26 63.5225 140.352 63.615C140.444 63.7074 140.496 63.8327 140.496 63.9632C140.496 64.0938 140.444 64.2191 140.352 64.3115C140.26 64.404 140.135 64.4561 140.004 64.4564Z" fill="#5ACCF9"/>
<path d="M132.124 59.8534H127.856C127.551 59.8534 127.259 59.9746 127.044 60.1904C126.828 60.4063 126.707 60.6989 126.707 61.0041C126.707 61.3093 126.828 61.602 127.044 61.8178C127.259 62.0336 127.551 62.1549 127.856 62.1549H132.124C132.429 62.1549 132.722 62.0336 132.937 61.8178C133.153 61.602 133.274 61.3093 133.274 61.0041C133.274 60.6989 133.153 60.4063 132.937 60.1904C132.722 59.9746 132.429 59.8534 132.124 59.8534ZM132.124 61.4973H127.856C127.792 61.4973 127.727 61.4846 127.668 61.4598C127.608 61.435 127.554 61.3987 127.508 61.3529C127.462 61.3071 127.426 61.2527 127.401 61.1929C127.376 61.133 127.364 61.0689 127.364 61.0041C127.364 60.9394 127.376 60.8752 127.401 60.8154C127.426 60.7556 127.462 60.7012 127.508 60.6554C127.554 60.6096 127.608 60.5733 127.668 60.5485C127.727 60.5237 127.792 60.511 127.856 60.511H132.124C132.189 60.511 132.253 60.5237 132.313 60.5485C132.373 60.5733 132.427 60.6096 132.473 60.6554C132.518 60.7012 132.555 60.7556 132.579 60.8154C132.604 60.8752 132.617 60.9394 132.617 61.0041C132.617 61.0689 132.604 61.133 132.579 61.1929C132.555 61.2527 132.518 61.3071 132.473 61.3529C132.427 61.3987 132.373 61.435 132.313 61.4598C132.253 61.4846 132.189 61.4973 132.124 61.4973Z" fill="#5ACCF9"/>
<path d="M140.004 59.8534H135.736C135.431 59.8534 135.139 59.9746 134.923 60.1904C134.708 60.4063 134.587 60.6989 134.587 61.0041C134.587 61.3093 134.708 61.602 134.923 61.8178C135.139 62.0336 135.431 62.1549 135.736 62.1549H140.004C140.309 62.1549 140.601 62.0336 140.817 61.8178C141.032 61.602 141.154 61.3093 141.154 61.0041C141.154 60.6989 141.032 60.4063 140.817 60.1904C140.601 59.9746 140.309 59.8534 140.004 59.8534ZM140.004 61.4973H135.736C135.671 61.4973 135.607 61.4846 135.548 61.4598C135.488 61.435 135.434 61.3987 135.388 61.3529C135.342 61.3071 135.306 61.2527 135.281 61.1929C135.256 61.133 135.244 61.0689 135.244 61.0041C135.244 60.9394 135.256 60.8752 135.281 60.8154C135.306 60.7556 135.342 60.7012 135.388 60.6554C135.434 60.6096 135.488 60.5733 135.548 60.5485C135.607 60.5237 135.671 60.511 135.736 60.511H140.004C140.069 60.511 140.133 60.5237 140.193 60.5485C140.253 60.5733 140.307 60.6096 140.353 60.6554C140.398 60.7012 140.435 60.7556 140.459 60.8154C140.484 60.8752 140.497 60.9394 140.497 61.0041C140.497 61.0689 140.484 61.133 140.459 61.1929C140.435 61.2527 140.398 61.3071 140.353 61.3529C140.307 61.3987 140.253 61.435 140.193 61.4598C140.133 61.4846 140.069 61.4973 140.004 61.4973Z" fill="#5ACCF9"/>
<path d="M132.124 56.8944H127.856C127.551 56.8944 127.259 57.0157 127.044 57.2315C126.828 57.4473 126.707 57.74 126.707 58.0452C126.707 58.3504 126.828 58.6431 127.044 58.8589C127.259 59.0747 127.551 59.1959 127.856 59.1959H132.124C132.429 59.1959 132.722 59.0747 132.937 58.8589C133.153 58.6431 133.274 58.3504 133.274 58.0452C133.274 57.74 133.153 57.4473 132.937 57.2315C132.722 57.0157 132.429 56.8944 132.124 56.8944ZM132.124 58.5383H127.856C127.791 58.5385 127.727 58.5259 127.667 58.5012C127.607 58.4765 127.553 58.4402 127.507 58.3944C127.461 58.3485 127.425 58.2941 127.4 58.2342C127.375 58.1743 127.362 58.11 127.362 58.0452C127.362 57.9803 127.375 57.916 127.4 57.8561C127.425 57.7962 127.461 57.7418 127.507 57.696C127.553 57.6502 127.607 57.6138 127.667 57.5891C127.727 57.5644 127.791 57.5518 127.856 57.552H132.124C132.255 57.5523 132.38 57.6044 132.472 57.6969C132.564 57.7893 132.616 57.9146 132.616 58.0452C132.616 58.1757 132.564 58.301 132.472 58.3934C132.38 58.4859 132.255 58.538 132.124 58.5383Z" fill="#5ACCF9"/>
<path d="M140.004 56.8944H135.736C135.431 56.8944 135.139 57.0157 134.923 57.2315C134.708 57.4473 134.587 57.74 134.587 58.0452C134.587 58.3504 134.708 58.6431 134.923 58.8589C135.139 59.0747 135.431 59.1959 135.736 59.1959H140.004C140.309 59.1959 140.601 59.0747 140.817 58.8589C141.032 58.6431 141.154 58.3504 141.154 58.0452C141.154 57.74 141.032 57.4473 140.817 57.2315C140.601 57.0157 140.309 56.8944 140.004 56.8944ZM140.004 58.5383H135.736C135.671 58.5385 135.607 58.5259 135.547 58.5012C135.487 58.4765 135.433 58.4402 135.387 58.3944C135.341 58.3485 135.305 58.2941 135.28 58.2342C135.255 58.1743 135.242 58.11 135.242 58.0452C135.242 57.9803 135.255 57.916 135.28 57.8561C135.305 57.7962 135.341 57.7418 135.387 57.696C135.433 57.6502 135.487 57.6138 135.547 57.5891C135.607 57.5644 135.671 57.5518 135.736 57.552H140.004C140.135 57.5523 140.26 57.6044 140.352 57.6969C140.444 57.7893 140.496 57.9146 140.496 58.0452C140.496 58.1757 140.444 58.301 140.352 58.3934C140.26 58.4859 140.135 58.538 140.004 58.5383Z" fill="#5ACCF9"/>
<path d="M42.4413 50.4253C42.4413 50.4253 37.7768 70.1475 43.4779 70.1475C49.179 70.1475 62.6544 47.8303 62.6544 47.8303C62.6544 47.8303 76.6481 40.5642 70.947 37.9692C65.2459 35.3742 57.9899 42.1212 57.9899 42.1212L49.6175 53.7613L49.179 47.8303L42.4413 50.4253Z" fill="#A0616A"/>
<path d="M53.3253 33.8172L50.2156 30.7031C50.2156 30.7031 43.9962 34.3362 43.4779 37.9692C42.9596 41.6022 40.3682 53.0203 40.3682 53.0203L49.9564 53.7988L53.0661 49.1278L53.3253 33.8172Z" fill="#CFCCE0"/>
<path d="M200.638 26.4342C200.248 25.2797 195.351 21.3552 198.352 20.6956L200.812 23.9809L212.124 12.6533L213.262 13.7926L200.638 26.4342Z" fill="#01304E"/>
<path d="M200.638 64.9527C200.248 63.7982 195.351 59.8738 198.352 59.2142L200.812 62.4995L212.124 51.1719L213.262 52.3112L200.638 64.9527Z" fill="#01304E"/>
<path d="M200.638 104.022C200.248 102.867 195.351 98.9426 198.352 98.283L200.812 101.568L212.124 90.2407L213.262 91.38L200.638 104.022Z" fill="#01304E"/>
<path d="M234.902 25.2458C236.83 25.2458 238.393 23.6808 238.393 21.7503C238.393 19.8198 236.83 18.2548 234.902 18.2548C232.974 18.2548 231.412 19.8198 231.412 21.7503C231.412 23.6808 232.974 25.2458 234.902 25.2458Z" fill="#3F3D56"/>
<path d="M304.192 21.4008H247.992V22.0999H304.192V21.4008Z" fill="#3F3D56"/>
<path d="M234.902 63.7644C236.83 63.7644 238.393 62.1994 238.393 60.2688C238.393 58.3383 236.83 56.7733 234.902 56.7733C232.974 56.7733 231.412 58.3383 231.412 60.2688C231.412 62.1994 232.974 63.7644 234.902 63.7644Z" fill="#3F3D56"/>
<path d="M304.192 59.9192H247.992V60.6183H304.192V59.9192Z" fill="#3F3D56"/>
<path d="M234.902 102.833C236.83 102.833 238.393 101.268 238.393 99.3377C238.393 97.4072 236.83 95.8422 234.902 95.8422C232.974 95.8422 231.412 97.4072 231.412 99.3377C231.412 101.268 232.974 102.833 234.902 102.833Z" fill="#3F3D56"/>
<path d="M304.192 98.988H247.992V99.6871H304.192V98.988Z" fill="#3F3D56"/>
<path d="M209.455 109.23H192.001V91.4027H203.87V92.1018H192.699V108.531H208.756V100.491H209.455V109.23Z" fill="#3F3D56"/>
<path d="M209.455 70.08H192.001V52.2528H203.87V52.9519H192.699V69.3809H208.756V61.3412H209.455V70.08Z" fill="#3F3D56"/>
<path d="M209.455 30.231H192.001V12.4038H203.87V13.1029H192.699V29.5319H208.756V21.4922H209.455V30.231Z" fill="#3F3D56"/>
</g>
<defs>
<clipPath id="clip0">
<rect width="310" height="187" fill="white"/>
</clipPath>
</defs>
</svg>
