<svg width="414" height="345" viewBox="0 0 414 345" fill="none" xmlns="http://www.w3.org/2000/svg">
<g clip-path="url(#clip0)">
<path opacity="0.1" d="M259.394 41.8405C238.326 56.5923 210.999 55.6401 187.052 47.9636C163.105 40.287 141.107 26.6195 117.775 16.9064C98.3282 8.79438 77.839 3.45292 56.9073 1.03843C27.1704 -2.36478 -6.03759 1.78103 -26.755 25.64C-49.8275 52.1959 -48.0555 100.105 -23.1108 124.502C-10.4152 136.903 6.207 142.989 20.7019 152.67C35.1968 162.352 48.6258 178.42 47.3913 197.099C46.2479 214.411 32.9602 227.678 19.2078 236.01C8.58031 242.448 -4.50701 249.477 -5.78704 262.812C-7.02608 275.714 3.97947 285.824 14.4885 291.573C48.7715 310.334 91.0172 310.152 125.182 291.118C137.363 284.307 148.55 275.268 161.328 269.992C194.878 256.088 231.848 270.088 267.375 275.204C297.562 279.529 328.327 277.29 357.569 268.639C375.162 263.441 392.823 255.496 405.181 240.694C414.096 230.019 419.649 216.516 424.86 203.172C430.418 188.949 435.761 174.623 440.89 160.197C443.965 151.541 446.994 142.711 447.791 133.445C449.231 116.656 443.163 100.06 434.9 85.8909C415.28 52.2233 382.236 28.5694 346.45 22.5602C310.664 16.5511 272.805 28.2869 245.049 53.9682" fill="#3284B8"/>
<g opacity="0.1">
<path opacity="0.1" d="M203.281 47.1074L201.546 147.791C201.546 147.791 264.372 147.791 317.828 165.149L318.867 63.4355C318.867 63.4355 233.132 42.9388 203.281 47.1074Z" fill="black"/>
</g>
<path d="M201.915 45.285L200.179 145.969C200.179 145.969 263.006 145.969 316.462 163.327L317.5 61.6131C317.5 61.6131 231.766 41.1164 201.915 45.285Z" fill="#F7F7FD"/>
<g opacity="0.1">
<path opacity="0.1" d="M171.74 49.9912L173.476 150.675C173.476 150.675 110.65 150.675 57.1979 168.033L56.1548 66.3193C56.1548 66.3193 141.89 45.8454 171.74 49.9912Z" fill="black"/>
</g>
<path d="M173.107 47.7133L174.843 148.397C174.843 148.397 112.016 148.397 58.5646 165.755L57.5215 64.0414C57.5215 64.0414 143.256 43.5675 173.107 47.7133Z" fill="#F7F7FD"/>
<g opacity="0.2">
<path opacity="0.2" d="M144.887 59.4582L145.821 113.449C145.821 113.449 112.112 113.449 83.4592 122.757L82.8989 68.21C82.8989 68.21 128.88 57.2349 144.887 59.4582Z" fill="#3284B8"/>
</g>
<g opacity="0.1">
<path opacity="0.1" d="M355.897 84.1418V183.774C355.897 183.774 376.395 181.341 419.42 234.457L423.237 134.826C423.237 134.826 378.459 86.5701 355.897 84.1418Z" fill="black"/>
</g>
<path d="M354.986 82.775V182.407C354.986 182.407 375.485 179.974 418.509 233.09L422.327 133.459C422.327 133.459 377.548 85.2033 354.986 82.775Z" fill="#F7F7FD"/>
<g opacity="0.1">
<path opacity="0.1" d="M24.5686 84.5974V184.229C24.5686 184.229 4.08803 181.796 -38.9275 234.913L-42.7676 135.281C-42.7676 135.281 2.00627 87.0257 24.5686 84.5974Z" fill="black"/>
</g>
<path d="M25.935 82.775V182.407C25.935 182.407 5.45449 179.974 -37.561 233.09L-41.4011 133.459C-41.4011 133.459 3.37273 85.2033 25.935 82.775Z" fill="#F7F7FD"/>
<g opacity="0.2">
<path opacity="0.2" d="M218.701 66.2283L261.261 73.8411V80.0416L218.701 71.8684V66.2283Z" fill="#3284B8"/>
</g>
<path d="M136.706 126.137L94.1504 133.75V139.951L136.706 131.778V126.137Z" fill="white"/>
<path d="M219.266 77.7864L297.052 93.8548V100.055L219.266 83.4265V77.7864Z" fill="white"/>
<path d="M219.266 89.3446L297.052 105.408V111.614L219.266 94.9802V89.3446Z" fill="white"/>
<g opacity="0.2">
<path opacity="0.2" d="M373.125 114.948V120.42L389.811 133.978L390.594 129.286L373.125 114.948Z" fill="#6C63FF"/>
</g>
<path d="M373.125 167.796V173.268L389.811 186.826L390.594 182.133L373.125 167.796Z" fill="white"/>
<path d="M373.389 124.333L373.125 129.809L404.67 159.527L404.151 153.272L373.389 124.333Z" fill="white"/>
<path d="M373.125 134.502V139.714L404.67 169.96V163.181L373.125 134.502Z" fill="white"/>
<g opacity="0.2">
<path opacity="0.2" d="M7.5316 116.133L7.79125 121.609L-23.7495 151.327L-23.2302 145.072L7.5316 116.133Z" fill="#3284B8"/>
</g>
<g opacity="0.2">
<path opacity="0.2" d="M7.79125 126.302V131.513L-23.7495 161.76V154.981L7.79125 126.302Z" fill="#6C63FF"/>
</g>
<path opacity="0.1" d="M50.2056 287.993C64.5457 287.993 76.1706 285.9 76.1706 283.318C76.1706 280.737 64.5457 278.644 50.2056 278.644C35.8654 278.644 24.2405 280.737 24.2405 283.318C24.2405 285.9 35.8654 287.993 50.2056 287.993Z" fill="#01304E"/>
<path d="M-28.4504 277.596C-28.4504 277.596 -21.4535 277.382 -19.3399 275.879C-17.2262 274.375 -8.5803 272.585 -8.05645 274.995C-7.53259 277.405 2.45714 286.972 -5.44172 287.036C-13.3406 287.1 -23.7949 285.806 -25.8995 284.521C-28.004 283.237 -28.4504 277.596 -28.4504 277.596Z" fill="#A8A8A8"/>
<path opacity="0.1" d="M230.544 221.783C254.193 221.783 273.364 218.499 273.364 214.448C273.364 210.397 254.193 207.113 230.544 207.113C206.896 207.113 187.725 210.397 187.725 214.448C187.725 218.499 206.896 221.783 230.544 221.783Z" fill="#01304E"/>
<path d="M221.908 115.454C221.699 115.9 221.546 116.369 221.452 116.853C221.425 116.974 221.398 117.102 221.37 117.235C221.097 118.629 220.915 120.383 220.819 121.404C220.773 121.914 220.751 122.242 220.751 122.242C220.751 122.242 210.87 121.582 212.583 119.923C213.025 119.466 213.339 118.9 213.494 118.283C213.544 118.106 213.585 117.928 213.622 117.746C213.703 117.332 213.757 116.914 213.781 116.493C213.781 116.388 213.781 116.283 213.781 116.174C213.803 115.491 213.771 114.807 213.685 114.128C213.685 114.128 216.897 114.128 219.32 114.388C220.951 114.575 222.222 114.898 221.908 115.454Z" fill="#D38884"/>
<path d="M204.78 162.475C201.414 162.366 203.896 155.354 204.284 154.411C204.671 153.468 203.71 151.158 203.71 151.158C203.71 151.158 202.571 144.479 202.571 144.042C202.513 143.131 202.385 142.227 202.188 141.336C202.07 140.426 202.228 139.502 202.644 138.684C203.031 138.078 202.972 135.65 202.972 135.65V132.507L203.723 131.513L205.641 133.336L206.174 133.837L207.112 137.354L206.78 142.393L206.602 147.299L207.764 154.088C207.764 154.088 208.169 162.589 204.78 162.475Z" fill="#D38884"/>
<path opacity="0.1" d="M205.846 134.169L202.976 132.976V132.511L203.723 131.518L205.646 133.331L205.846 134.169Z" fill="black"/>
<path d="M204.525 126.989C204.156 127.896 203.889 128.84 203.728 129.805C203.579 130.731 203.327 131.637 202.976 132.507L206.165 133.832L204.525 126.989Z" fill="#4C4981"/>
<path opacity="0.05" d="M204.525 126.989C204.156 127.896 203.889 128.84 203.728 129.805C203.579 130.731 203.327 131.637 202.976 132.507L206.165 133.832L204.525 126.989Z" fill="black"/>
<path d="M229.925 196.689L229.661 197.254C229.661 197.254 229.374 199.127 229.374 199.172C229.374 199.218 228.545 200.466 228.545 200.466L226.463 200.922L225.579 200.812C225.532 200.298 225.453 199.786 225.342 199.282C225.31 199.14 225.279 198.994 225.238 198.849C224.926 197.681 224.436 196.568 223.784 195.55C223.784 195.55 222.24 191.742 221.689 191.245C221.138 190.748 219.038 185.723 219.261 184.511C219.379 183.846 219.284 181.614 219.174 179.755C219.083 178.238 218.983 176.962 218.983 176.962L224.226 173.865L224.837 174.826L225.201 175.395C225.201 175.395 225.201 175.505 225.178 175.687V175.755C225.118 176.53 224.965 177.295 224.723 178.033C224.723 178.033 224.331 180.849 224.723 181.345C225.115 181.842 226.363 188.48 226.641 191.55C226.641 191.646 226.641 191.742 226.641 191.828C226.75 193.24 227.625 194.498 228.504 195.418C228.558 195.482 228.618 195.541 228.677 195.6C229.067 195.992 229.484 196.355 229.925 196.689Z" fill="#D38884"/>
<path opacity="0.1" d="M225.579 200.803L226.463 200.912L228.545 200.457C228.545 200.457 229.374 199.204 229.374 199.163C229.374 199.122 229.661 197.245 229.661 197.245L229.925 196.68L229.957 196.612C229.448 196.259 228.97 195.864 228.527 195.432C228.477 195.386 228.426 195.341 228.381 195.291C228.335 195.24 228.677 197.113 227.092 197.928C226.322 198.325 225.689 198.63 225.247 198.84L225.579 200.803Z" fill="black"/>
<path d="M230.29 196.953L229.993 197.587C229.993 197.587 229.706 199.459 229.706 199.505C229.706 199.55 228.877 200.799 228.877 200.799L226.796 201.254L225.598 201.113C225.598 200.871 225.557 200.53 225.497 200.115C225.461 199.865 225.411 199.587 225.343 199.286C225.798 199.081 226.504 198.744 227.411 198.275C229 197.459 228.7 195.637 228.7 195.637C229.044 195.98 229.407 196.302 229.788 196.603C230.007 196.758 230.185 196.881 230.29 196.953Z" fill="#CEDDF9"/>
<path opacity="0.1" d="M230.289 196.953L229.993 197.587C229.993 197.587 229.706 199.459 229.706 199.505C229.706 199.55 228.877 200.799 228.877 200.799L226.796 201.254L225.598 201.113C225.598 200.871 225.557 200.53 225.497 200.115C225.752 200.127 226.005 200.162 226.254 200.22C226.254 200.22 229.096 200.826 229.233 198.575C229.315 197.3 229.579 196.799 229.788 196.603C230.007 196.758 230.185 196.881 230.289 196.953Z" fill="black"/>
<path d="M230.08 196.803C230.08 196.803 229.374 196.648 229.233 198.894C229.091 201.14 226.254 200.539 226.254 200.539C226.254 200.539 224.86 200.193 224.846 200.771C224.892 201.306 225.018 201.831 225.219 202.329C225.219 202.329 225.301 203.669 225.566 203.988C225.83 204.307 225.661 205.491 225.661 205.491C225.661 205.491 225.771 206.375 227.966 205.491C227.966 205.491 229.925 205.086 231.551 202.648C231.606 202.566 231.36 202.316 232.781 201.805C234.202 201.295 238.248 198.024 237.956 196.425C237.925 196.16 237.816 195.911 237.645 195.707C237.473 195.503 237.246 195.353 236.99 195.277C236.778 195.22 236.556 195.206 236.337 195.236C236.119 195.266 235.909 195.338 235.719 195.45C235.335 195.658 234.938 195.84 234.53 195.997C233.989 196.216 233.418 196.353 232.836 196.402C232.39 196.44 231.948 196.524 231.519 196.653C231.062 196.831 230.565 196.883 230.08 196.803Z" fill="#CC8294"/>
<path d="M213.991 181.341C213.677 181.6 213.406 181.908 213.189 182.252C212.387 183.477 211.904 185.19 211.367 185.928C210.665 186.885 210.456 188.744 210.456 188.744C210.269 189.965 207.682 196.489 206.98 197.646C206.278 198.803 205.304 201.951 205.304 201.951C204.707 202.698 204.743 203.81 204.803 204.339C204.803 204.43 204.803 204.503 204.83 204.553C204.857 204.603 204.83 204.639 204.83 204.639V204.671L203.873 206.298L200.83 205.874L199.259 204.808C199.387 204.599 199.502 204.381 199.6 204.156C200.443 202.279 201.04 198.926 201.04 198.926C201.04 198.926 201.887 195.099 201.823 194.206C201.845 192.988 201.928 191.771 202.074 190.562C202.074 190.562 204.47 183.25 205.235 182.065C205.554 181.597 205.752 181.057 205.809 180.493C205.824 180.38 205.824 180.265 205.809 180.152L206.839 179.126C206.839 179.126 215.312 180.288 213.991 181.341Z" fill="#D38884"/>
<path opacity="0.1" d="M204.862 204.32C204.862 204.32 204.862 204.411 204.862 204.562V204.68L203.905 206.307L200.862 205.883L199.291 204.817C199.419 204.608 199.534 204.39 199.632 204.165C200.398 203.947 202.147 204.566 202.147 204.566C202.147 204.566 204.037 204.926 204.835 204.348C204.835 204.343 204.844 204.329 204.862 204.32Z" fill="black"/>
<path d="M204.119 208.662L201.031 209.4L198.198 207.304L198.343 206.124C198.541 206.003 198.717 205.849 198.863 205.669C199.069 205.426 199.21 205.134 199.273 204.821C199.437 203.951 202.129 204.903 202.129 204.903C202.129 204.903 204.097 205.277 204.862 204.653C204.808 205.225 204.858 205.802 205.008 206.357C205.081 206.627 205.241 206.866 205.463 207.036C206.251 207.578 204.119 208.662 204.119 208.662Z" fill="#CEDDF9"/>
<path opacity="0.1" d="M204.119 208.662L201.031 209.4L198.198 207.304L198.343 206.124C198.541 206.003 198.717 205.849 198.863 205.669C199.068 205.669 199.291 205.669 199.482 205.669C199.938 205.714 201.076 207.742 201.076 207.742C203.873 207.928 204.721 207.013 205.008 206.338C205.081 206.609 205.241 206.847 205.463 207.017C206.251 207.578 204.119 208.662 204.119 208.662Z" fill="black"/>
<path d="M201.076 208.083C201.076 208.083 199.956 206.056 199.482 206.015C199.082 205.993 198.68 205.993 198.28 206.015C198.28 206.015 197.04 208.954 196.585 209.204C196.129 209.455 195.464 210.862 195.464 210.862C195.464 210.862 198.744 214.052 201.915 213.427C202.926 213.442 203.921 213.69 204.821 214.152C206.288 214.917 212.415 214.339 213.162 212.995C213.717 211.983 213.941 211.25 213.449 210.717C213.302 210.564 213.12 210.449 212.92 210.381C212.719 210.313 212.506 210.294 212.296 210.325C211.526 210.43 209.795 210.411 208.278 208.548C208.278 208.548 205.481 205.988 205.254 205.983C205.026 205.979 205.44 208.375 201.076 208.083Z" fill="#CC8294"/>
<path opacity="0.1" d="M225.206 175.728L225.183 175.755C224.992 175.965 223.643 177.445 223.233 177.55C222.555 177.806 221.892 178.1 221.247 178.429C221.247 178.429 220.418 179.537 219.758 179.591C219.558 179.62 219.362 179.672 219.174 179.746C219.083 178.229 218.983 176.953 218.983 176.953L224.226 173.865L224.837 174.826C224.973 175.213 225.128 175.573 225.178 175.687L225.206 175.728Z" fill="black"/>
<path d="M206.147 154.411C206.147 154.411 204.106 157.072 206.147 160.602C207.244 162.587 208.662 164.377 210.342 165.901L217.293 180.306C217.293 180.306 219.115 179.313 219.78 179.259C220.446 179.204 221.27 178.101 221.27 178.101C221.915 177.77 222.578 177.475 223.256 177.218C223.712 177.108 225.229 175.395 225.229 175.395C225.229 175.395 224.468 173.741 224.636 173.3C224.805 172.858 224.14 171.751 224.14 171.751C223.933 171.197 223.78 170.625 223.684 170.042C223.684 169.587 222.965 168.552 222.965 168.552C222.965 168.552 222.249 167.445 222.249 166.839C222.249 166.233 221.179 163.842 221.179 163.842L220.901 153.363L206.147 154.411Z" fill="#CEDDF9"/>
<path opacity="0.05" d="M225.206 175.395C225.206 175.395 223.675 177.104 223.233 177.218C222.555 177.475 221.892 177.77 221.247 178.101C221.247 178.101 220.418 179.204 219.758 179.259C219.282 179.357 218.822 179.521 218.391 179.746C217.799 180.015 217.266 180.306 217.266 180.306L210.31 165.901C209.701 165.37 209.136 164.791 208.62 164.17C207.678 163.059 206.839 161.865 206.115 160.602C205.318 159.322 205.034 157.787 205.322 156.306C205.451 155.628 205.721 154.983 206.115 154.416L211.062 154.065L220.915 153.363L220.997 156.466L221.179 163.842C221.179 163.842 221.338 164.211 221.539 164.698C221.852 165.376 222.083 166.089 222.227 166.821C222.227 167.432 222.942 168.534 222.942 168.534C222.942 168.534 223.662 169.582 223.662 170.024C223.758 170.608 223.911 171.182 224.117 171.737C224.117 171.737 224.782 172.839 224.618 173.277C224.454 173.714 225.206 175.395 225.206 175.395Z" fill="black"/>
<path opacity="0.1" d="M213.991 181.341C213.677 181.6 213.407 181.908 213.189 182.252C210.187 182.47 206.698 180.885 205.791 180.466C205.806 180.352 205.806 180.238 205.791 180.124L206.821 179.099C206.821 179.099 215.312 180.288 213.991 181.341Z" fill="black"/>
<path d="M222.846 157.678C222.846 157.678 222.391 159.222 222.24 159.883C222.09 160.543 221.744 163.805 221.744 163.805L221.552 164.716L218.4 179.751L217.712 183.017C216.501 183.682 213.467 181.91 213.467 181.91C209.932 182.302 205.573 180.038 205.573 180.038C205.573 180.038 206.288 177.719 206.124 176.561C205.96 175.404 207.117 174.461 207.117 174.461C206.843 173.413 207.832 168.83 207.832 168.83C207.832 168.83 208.055 167.122 208.884 166.68C209.713 166.238 208.775 165.577 208.552 165.186C208.473 164.848 208.5 164.495 208.629 164.174C208.701 163.919 208.786 163.668 208.884 163.422C206.78 161.318 206.456 158.028 206.452 156.201C206.446 155.756 206.466 155.31 206.511 154.867L211.066 154.069L221.019 152.329L222.035 155.454L222.29 156.238L222.846 157.678Z" fill="#CEDDF9"/>
<path opacity="0.1" d="M221.908 115.454C221.699 115.9 221.546 116.37 221.452 116.853C221.425 116.974 221.398 117.102 221.37 117.235C220.409 117.86 219.817 117.864 218.587 117.864C218.163 117.864 217.926 117.053 217.526 116.953C217.526 116.953 216.924 114.784 216.756 116.611C215.599 116.374 214.601 117.276 213.781 116.488C213.781 116.383 213.781 116.279 213.781 116.169C213.803 115.486 213.771 114.802 213.686 114.124C213.686 114.124 216.897 114.124 219.32 114.383C220.951 114.575 222.222 114.898 221.908 115.454Z" fill="black"/>
<path d="M224.185 111.737C224.184 112.649 223.98 113.549 223.589 114.373C223.197 115.196 222.627 115.923 221.921 116.499C221.214 117.076 220.389 117.489 219.503 117.707C218.618 117.926 217.695 117.945 216.801 117.764C215.793 117.556 214.854 117.099 214.069 116.434C213.283 115.769 212.677 114.917 212.306 113.957C211.935 112.997 211.811 111.96 211.945 110.939C212.079 109.919 212.467 108.948 213.073 108.117C213.68 107.285 214.485 106.619 215.415 106.179C216.346 105.74 217.372 105.54 218.399 105.6C219.426 105.66 220.422 105.976 221.295 106.521C222.169 107.065 222.891 107.82 223.397 108.716C223.92 109.636 224.192 110.678 224.185 111.737Z" fill="#D38884"/>
<path opacity="0.1" d="M220.819 121.404C220.773 121.914 220.751 122.242 220.751 122.242C220.751 122.242 210.87 121.582 212.583 119.923C213.025 119.465 213.339 118.9 213.494 118.283L217.781 118.985C217.781 118.985 218.992 119.923 219.931 120.807C220.198 121.046 220.497 121.247 220.819 121.404Z" fill="black"/>
<path opacity="0.1" d="M222.295 156.552C221.86 156.61 221.418 156.577 220.997 156.457C220.814 156.398 220.639 156.321 220.473 156.224C219.644 155.728 216.888 156.338 216.888 156.338C216.888 156.338 209.381 156.835 209.048 156.338C208.862 156.051 207.536 156.092 206.452 156.179C205.996 156.215 205.609 156.261 205.331 156.288C205.46 155.609 205.73 154.965 206.124 154.397L211.071 154.047L221.024 152.306L222.04 155.432C222.106 155.809 222.191 156.183 222.295 156.552Z" fill="black"/>
<path d="M217.767 119.317L212.383 118.434C212.288 118.646 212.147 118.835 211.972 118.987C211.797 119.14 211.59 119.253 211.367 119.317C210.652 119.481 207.449 121.14 206.014 123.126L204.579 125.117C204.579 125.117 203.418 126.552 203.805 127.709C204.192 128.866 204.634 132.789 204.634 132.789L205.185 137.149C205.185 137.149 206.233 140.297 205.905 141.677C205.577 143.058 206.069 148.853 206.069 148.853L204.967 156.028C204.967 156.028 208.716 155.532 209.066 156.028C209.417 156.525 216.906 156.028 216.906 156.028C216.906 156.028 219.639 155.418 220.491 155.914C221.048 156.215 221.686 156.331 222.313 156.247C222.313 156.247 221.653 153.969 222.035 152.716C222.418 151.463 222.313 149.126 222.313 149.126C222.313 149.126 222.864 145.76 222.587 145.154C222.309 144.548 223.197 142.338 223.197 142.338L226.121 126.939C226.121 126.939 225.766 124.179 224.204 123.24C222.641 122.302 220.878 122.024 219.94 121.144C219.002 120.265 217.767 119.317 217.767 119.317Z" fill="#4C4981"/>
<path d="M220.268 134.497V136.32L221.967 140.903L222.582 145.154C222.582 145.154 223.689 148.188 223.689 149.254C223.689 150.32 226.39 155.381 226.39 155.381C226.39 155.381 227.128 157.094 226.759 157.422C226.39 157.75 223.192 165.04 227.215 164.821C231.237 164.602 229.975 156.985 229.975 156.985L229.424 153.673C229.424 153.673 228.65 145.39 228.65 144.785C228.65 144.785 227.656 141.254 227.547 140.479C227.438 139.705 226.718 135.787 226.718 135.787L226.112 133.249L220.268 134.497Z" fill="#D38884"/>
<path opacity="0.1" d="M218.332 140.238L212.333 143.673L210.469 146.488L212.952 143.964L218.332 140.238Z" fill="black"/>
<path opacity="0.1" d="M216.514 146.816C216.514 146.816 213.781 148.598 212.497 148.598C211.212 148.598 208.233 151.659 208.233 151.659C208.233 151.659 212.456 148.926 212.788 149.012C213.121 149.099 216.514 146.816 216.514 146.816Z" fill="black"/>
<path opacity="0.1" d="M209.517 147.769C209.517 147.769 206.953 150.088 207.613 150.338C208.274 150.589 211.713 147.769 211.713 147.769H209.517Z" fill="black"/>
<path opacity="0.1" d="M220.86 139.491C220.86 139.491 218.874 142.183 219.411 142.142C219.949 142.101 221.479 140.566 221.479 140.566L220.86 139.491Z" fill="black"/>
<path opacity="0.1" d="M221.147 142.142C221.147 142.142 218.997 144.584 219.079 145.204C219.161 145.823 221.147 142.142 221.147 142.142Z" fill="black"/>
<path opacity="0.1" d="M221.689 143.363C221.689 143.363 220.24 145.951 220.86 146.488C221.479 147.026 221.689 143.363 221.689 143.363Z" fill="black"/>
<path opacity="0.1" d="M219.812 136.716C219.812 136.716 218.733 138.539 219.521 138.662C220.309 138.785 220.386 138.662 220.386 138.662L219.812 136.716Z" fill="black"/>
<path opacity="0.1" d="M220.113 130.051C219.844 131.165 219.475 132.252 219.011 133.299C218.838 132.766 218.695 132.223 218.583 131.673C219.037 131.082 219.55 130.539 220.113 130.051Z" fill="black"/>
<path opacity="0.1" d="M223.397 108.716C223.291 108.949 223.151 109.165 222.983 109.358C222.701 109.613 222.45 109.901 222.236 110.215C222.067 110.685 221.977 111.178 221.967 111.677C221.885 112.169 221.575 112.716 221.056 112.73C220.801 112.708 220.552 112.634 220.327 112.511C220.215 112.453 220.089 112.424 219.962 112.428C219.835 112.432 219.712 112.468 219.603 112.534C219.459 112.68 219.376 112.875 219.371 113.081C219.308 113.509 219.283 113.942 219.298 114.374C219.298 114.547 219.298 114.716 219.325 114.889C219.452 115.434 219.419 116.003 219.229 116.529C218.992 116.91 218.632 117.199 218.209 117.349C217.75 117.539 217.269 117.673 216.779 117.75C215.843 117.865 214.9 117.896 213.959 117.841C213.872 117.844 213.785 117.83 213.704 117.8C213.663 117.784 213.626 117.761 213.594 117.732C213.699 117.214 213.755 116.688 213.763 116.16C213.131 115.546 212.638 114.804 212.317 113.982C211.997 113.161 211.857 112.281 211.907 111.401C211.956 110.521 212.195 109.662 212.605 108.882C213.016 108.102 213.589 107.419 214.287 106.88C214.984 106.341 215.789 105.959 216.648 105.758C217.506 105.558 218.397 105.544 219.261 105.718C220.125 105.892 220.942 106.25 221.655 106.767C222.369 107.284 222.963 107.949 223.397 108.716Z" fill="black"/>
<path d="M220.828 103.509C220.263 103.449 219.73 103.75 219.175 103.873C218.031 104.124 216.861 103.604 215.685 103.609C214.675 103.666 213.692 103.96 212.815 104.465C212.107 104.8 211.46 105.253 210.902 105.805C210.342 106.365 210.017 107.118 209.991 107.91C210.069 108.363 210.055 108.828 209.95 109.276C209.832 109.502 209.692 109.716 209.531 109.914C209.386 110.148 209.293 110.41 209.259 110.683C209.225 110.956 209.251 111.233 209.335 111.495C209.571 112.014 209.889 112.491 210.278 112.907C211.034 113.878 211.508 115.039 212.187 116.069C212.483 116.516 212.815 116.938 213.18 117.331C213.24 117.401 213.312 117.458 213.394 117.5C213.474 117.528 213.559 117.54 213.645 117.536C215.084 117.577 216.574 117.609 217.899 117.044C218.324 116.897 218.684 116.607 218.92 116.224C219.111 115.698 219.146 115.129 219.02 114.584C218.959 113.977 218.973 113.365 219.061 112.762C219.067 112.558 219.15 112.364 219.293 112.219C219.402 112.152 219.527 112.114 219.654 112.11C219.782 112.106 219.909 112.136 220.022 112.197C220.247 112.315 220.493 112.389 220.746 112.415C221.243 112.415 221.557 111.85 221.657 111.358C221.603 110.916 221.668 110.467 221.847 110.059C222.026 109.651 222.311 109.299 222.673 109.039C223.014 108.606 223.249 108.099 223.357 107.558C223.466 107.018 223.445 106.459 223.297 105.928C222.969 104.903 221.967 103.623 220.828 103.509Z" fill="#1E1637"/>
<path opacity="0.1" d="M226.736 129.673C226.615 130.427 226.615 131.196 226.736 131.951C226.682 132.561 226.736 135.928 226.736 135.928C224.914 135.372 220.282 136.479 220.282 136.479L219.73 134.826C219.416 134.418 219.181 133.954 219.038 133.459C218.865 132.924 218.722 132.379 218.61 131.828C218.369 130.682 218.188 129.525 218.068 128.361C217.835 126.607 220.446 124.716 222.423 123.668C224.4 122.62 226.131 127.09 226.131 127.09C226.131 127.09 226.955 128.807 226.736 129.673Z" fill="black"/>
<path d="M226.736 129.358C226.615 130.113 226.615 130.882 226.736 131.636C226.682 132.242 226.736 135.609 226.736 135.609C224.914 135.058 220.282 136.16 220.282 136.16L219.73 134.506C219.415 134.099 219.18 133.635 219.038 133.14C218.865 132.606 218.722 132.063 218.61 131.513C218.37 130.368 218.189 129.211 218.068 128.046C217.835 126.288 220.446 124.402 222.423 123.349C224.4 122.297 226.131 126.771 226.131 126.771C226.131 126.771 226.955 128.475 226.736 129.358Z" fill="#4C4981"/>
<path opacity="0.2" d="M223.233 105.928C223.139 105.615 223.002 105.316 222.828 105.039C222.855 105.117 222.883 105.19 222.905 105.267C223.053 105.798 223.074 106.357 222.965 106.898C222.857 107.438 222.623 107.946 222.281 108.379C221.919 108.638 221.634 108.991 221.455 109.399C221.276 109.807 221.211 110.256 221.266 110.698C221.188 111.19 220.874 111.732 220.355 111.75C220.099 111.729 219.851 111.654 219.626 111.531C219.513 111.473 219.387 111.445 219.261 111.449C219.134 111.453 219.01 111.489 218.901 111.554C218.758 111.701 218.675 111.896 218.669 112.101C218.581 112.704 218.567 113.316 218.628 113.923C218.678 114.479 218.788 115.076 218.528 115.568C218.288 115.947 217.929 116.235 217.507 116.388C216.182 116.953 214.692 116.921 213.253 116.88C213.167 116.883 213.082 116.869 213.002 116.839C212.919 116.8 212.845 116.743 212.788 116.67C212.42 116.281 212.087 115.858 211.795 115.409C211.116 114.379 210.643 113.222 209.887 112.247C209.682 111.983 209.431 111.723 209.262 111.445V111.5C209.495 112.02 209.813 112.498 210.205 112.912C210.957 113.882 211.435 115.044 212.11 116.074C212.406 116.522 212.739 116.944 213.107 117.336C213.165 117.405 213.236 117.462 213.317 117.504C213.397 117.532 213.482 117.545 213.567 117.541C215.007 117.582 216.501 117.614 217.822 117.049C218.246 116.901 218.607 116.612 218.842 116.229C219.033 115.703 219.068 115.133 218.942 114.588C218.887 113.981 218.9 113.37 218.983 112.766C218.993 112.563 219.076 112.371 219.216 112.224C219.325 112.157 219.449 112.119 219.577 112.115C219.705 112.111 219.832 112.141 219.945 112.201C220.17 112.32 220.416 112.394 220.669 112.42C221.17 112.42 221.48 111.855 221.58 111.363C221.587 110.864 221.678 110.37 221.849 109.901C222.061 109.585 222.312 109.297 222.596 109.044C222.939 108.611 223.176 108.104 223.287 107.562C223.398 107.021 223.379 106.461 223.233 105.928Z" fill="black"/>
<path d="M267.643 107.126L263.707 115.491C263.707 115.491 263.129 117.062 262.755 117.354C262.382 117.645 260.728 122.611 260.728 122.611L256.505 129.117L256.218 129.573L254.565 129.117L253.403 124.78L253.471 123.523V123.363C253.471 123.363 256.077 120.63 256.66 120.425C256.66 120.425 257.116 120.479 257.981 118.361C258.847 116.242 259.639 115.787 259.639 115.787L260.095 114.256L264.983 106.47C264.983 106.47 269.082 100.598 270.198 103.203C271.314 105.809 267.643 107.126 267.643 107.126Z" fill="#FFD2C6"/>
<path d="M251.298 166.543C251.285 166.685 251.24 166.822 251.166 166.944C250.711 167.609 248.146 181.145 248.146 181.145C248.351 182.056 247.773 183.878 247.399 184.707C247.026 185.537 246.197 189.837 246.197 189.837C246.197 189.837 245.992 199.113 245.459 200.562C244.926 202.01 245.627 205.118 245.627 205.118C245.577 206.544 246.433 208.056 246.944 208.821L247.044 208.967C247.208 209.204 247.317 209.341 247.317 209.341C247.458 209.617 247.655 209.861 247.896 210.056L248.014 210.147C248.718 210.618 249.505 210.95 250.333 211.127H250.415C250.743 211.2 250.961 211.231 250.961 211.231L251.166 212.352L248.975 212.808L244.794 213.095C244.794 213.095 239.865 213.473 240.985 211.272C241.063 211.126 241.13 210.973 241.186 210.817C241.229 210.71 241.267 210.6 241.3 210.489C241.974 208.38 241.518 205.815 241.518 205.815L240.566 198.325C238.995 191.368 241.801 183.628 241.801 183.628C241.801 183.628 241.559 183.008 242.097 181.436C242.634 179.865 242.097 176.425 242.097 176.425C242.097 176.425 241.81 171.997 241.436 169.805C241.289 168.882 241.239 167.946 241.286 167.013C241.304 166.466 241.354 165.922 241.436 165.382L250.87 164.129C250.87 164.129 251.412 165.664 251.298 166.543Z" fill="#FFD2C6"/>
<path opacity="0.1" d="M251.166 212.361L248.975 212.817L244.794 213.104C244.794 213.104 239.865 213.482 240.985 211.282C241.063 211.135 241.13 210.982 241.186 210.826C241.229 210.719 241.267 210.609 241.3 210.498C242.154 210.526 242.997 210.695 243.796 210.999C245.199 211.541 246.256 210.129 246.256 210.129L246.939 208.826L247.039 208.639C247.203 208.876 247.313 209.013 247.313 209.013C247.478 209.333 247.717 209.609 248.01 209.819L247.891 210.061L247.231 211.455C247.231 211.455 248.078 211.541 249.235 211.728C249.459 211.786 249.696 211.756 249.899 211.646C250.102 211.535 250.256 211.351 250.328 211.131H250.41C250.738 211.204 250.957 211.236 250.957 211.236L251.166 212.361Z" fill="black"/>
<path d="M253.193 213.391C253.029 214.138 248.415 214.366 248.415 214.366C248.415 214.366 245.846 214.12 245.126 214.717C244.406 215.313 242.288 215.172 242.206 215.172C242.124 215.172 241.008 215.131 240.571 213.127C240.133 211.122 241.14 210.849 241.186 210.817C242.079 210.83 242.963 211.001 243.796 211.323C245.199 211.865 246.256 210.452 246.256 210.452L247.039 208.963C247.203 209.2 247.313 209.336 247.313 209.336C247.478 209.656 247.717 209.933 248.01 210.143L247.231 211.778C247.231 211.778 248.078 211.865 249.235 212.047C249.374 212.079 249.518 212.079 249.657 212.049C249.795 212.018 249.926 211.957 250.038 211.87C250.151 211.782 250.242 211.671 250.307 211.545C250.371 211.418 250.406 211.278 250.41 211.136C250.412 211.095 250.412 211.054 250.41 211.013C250.41 211.013 251.13 211.222 252.023 211.468C252.423 211.584 252.766 211.845 252.983 212.201C253.2 212.558 253.275 212.982 253.193 213.391Z" fill="#626696"/>
<path d="M261.889 176.411C261.78 177.072 261.666 178.785 261.666 178.785C262.053 180.22 261.06 183.628 261.06 183.628L260.564 185.573C260.782 188.056 259.197 194.129 259.197 194.129C259.197 194.129 258.136 199.76 257.585 202.188C257.255 203.538 257.355 204.957 257.872 206.247L257.913 206.348C257.913 206.393 257.935 206.439 257.944 206.484C257.961 206.551 257.982 206.617 258.008 206.68C258.132 207.015 258.315 207.323 258.55 207.591C258.641 207.701 258.74 207.803 258.846 207.897C259.366 208.357 259.96 208.724 260.605 208.981L260.883 209.09C261.171 209.197 261.464 209.288 261.762 209.364H261.862L261.639 210.667L258.714 209.915L254.797 208.644L252.897 207.578C252.897 207.578 252.897 207.473 252.956 207.272C252.959 207.26 252.959 207.248 252.956 207.236C252.956 207.149 252.993 207.049 253.016 206.931C253.316 205.222 254.063 200.443 253.69 196.908C253.234 192.548 255.056 186.53 255.48 185.099C255.743 184.279 255.856 183.418 255.813 182.557C255.093 181.509 254.929 177.313 254.929 177.313C254.929 177.313 253.603 174.607 252.51 171.737C252.146 170.8 251.882 169.827 251.722 168.835C251.592 168.137 251.539 167.426 251.563 166.716C251.563 166.716 260.45 158.602 261.425 166.457C261.457 166.725 261.488 166.976 261.52 167.227C262.386 174.448 261.994 175.769 261.889 176.411Z" fill="#FFD2C6"/>
<path opacity="0.1" d="M261.889 209.4L261.666 210.703L258.742 209.951L254.824 208.68L252.897 207.578C252.897 207.578 252.897 207.473 252.956 207.272C252.959 207.26 252.959 207.248 252.956 207.236C252.956 207.149 252.993 207.049 253.016 206.931H253.289C253.846 206.877 254.407 206.953 254.929 207.154C255.567 207.391 256.405 207.664 256.573 207.55C256.869 207.424 257.19 207.368 257.512 207.386L257.917 206.475L257.981 206.339C258.103 206.673 258.287 206.982 258.523 207.25C258.621 207.364 258.726 207.472 258.837 207.573V207.887L258.815 208.343C259.252 208.622 259.726 208.839 260.222 208.99C260.351 209.022 260.485 209.022 260.614 208.99L260.892 209.099C261.18 209.206 261.473 209.297 261.771 209.373L261.889 209.4Z" fill="black"/>
<path d="M260.423 212.193C259.607 211.96 257.639 211.582 257.321 211.874C257.002 212.165 254.273 211.874 254.273 211.874C253.987 211.869 253.707 211.791 253.461 211.647C253.214 211.502 253.009 211.296 252.865 211.049C252.296 210.165 252.756 207.309 252.756 207.309H252.957L253.294 207.272C253.85 207.219 254.411 207.293 254.934 207.491C255.571 207.733 256.409 208.006 256.578 207.892C256.873 207.762 257.195 207.705 257.516 207.723L257.972 206.698C258.095 207.033 258.279 207.342 258.514 207.61C258.611 207.724 258.716 207.83 258.828 207.928L258.787 208.689C259.225 208.968 259.699 209.187 260.195 209.341C260.315 209.386 260.447 209.39 260.569 209.351C260.692 209.312 260.797 209.233 260.869 209.127C260.89 209.091 260.907 209.053 260.919 209.013C261.288 209.187 261.677 209.315 262.076 209.395C262.588 209.342 263.102 209.477 263.522 209.776C263.941 210.075 264.237 210.516 264.354 211.017C264.787 212.288 261.238 212.425 260.423 212.193Z" fill="#626696"/>
<path opacity="0.1" d="M251.298 166.543L250.793 166.698C250.396 166.819 249.989 166.904 249.577 166.953C246.962 167.322 242.657 167.099 241.291 167.013C241.309 166.466 241.359 165.922 241.441 165.382L250.875 164.129C250.875 164.129 251.412 165.664 251.298 166.543Z" fill="black"/>
<path d="M259.53 164.252C259.53 164.252 256.068 164.789 253.248 165.404C252.31 165.609 251.426 165.828 250.793 166.033C250.395 166.153 249.988 166.24 249.577 166.293C246.438 166.748 240.862 166.325 240.862 166.325C239.332 161.359 242.721 155.104 242.721 155.104C242.643 154.607 243.427 153.081 243.427 153.081V153.031L243.91 151.258H256.778L256.938 152.019L257.266 153.568L259.288 163.167L259.53 164.252Z" fill="#626696"/>
<path opacity="0.1" d="M261.525 167.263L261.448 167.295L259.94 167.965C258.309 168.716 253.43 168.876 251.74 168.876C251.611 168.178 251.557 167.467 251.581 166.757C251.581 166.757 260.468 158.643 261.443 166.498C261.461 166.762 261.493 167.031 261.525 167.263Z" fill="black"/>
<path d="M261.762 166.493L261.448 166.634L259.94 167.304C258.282 168.069 253.244 168.215 251.631 168.215H251.207C250.465 168.192 249.718 167.495 249.718 167.304C249.718 167.204 249.64 166.712 249.577 166.293C249.517 165.956 249.472 165.664 249.472 165.664C247.742 164.919 246.068 164.053 244.461 163.072C243.199 162.211 243.518 156.092 243.759 153.017C243.846 151.955 243.923 151.258 243.923 151.258L256.952 152.019L258.774 152.124L259.817 152.356L260.095 152.416C260.095 152.416 260.846 157.883 261.215 158.338C261.584 158.794 261.343 160.325 261.297 161.199C261.297 161.575 261.255 161.949 261.174 162.315C261.174 162.315 261.712 163.846 261.589 164.703C261.532 165.305 261.591 165.913 261.762 166.493Z" fill="#626696"/>
<path d="M247.814 121.122C250.762 121.122 253.152 118.731 253.152 115.782C253.152 112.833 250.762 110.443 247.814 110.443C244.865 110.443 242.475 112.833 242.475 115.782C242.475 118.731 244.865 121.122 247.814 121.122Z" fill="#FFD2C6"/>
<path d="M245.208 118.005C245.208 118.005 245.577 123.062 244.543 124.224C243.361 125.407 242.117 126.526 240.817 127.577L241.646 131.012L246.324 131.55L251.79 125.714L250.547 124.206C250.547 124.206 249.595 120.976 250.378 119.363C251.162 117.75 245.208 118.005 245.208 118.005Z" fill="#FFD2C6"/>
<path opacity="0.1" d="M256.505 129.117L256.218 129.573L254.565 129.117L253.403 124.78L253.471 123.522L253.813 123.03C253.813 123.03 255.635 123.071 255.558 124.73C255.48 126.178 256.309 128.566 256.505 129.117Z" fill="black"/>
<path opacity="0.1" d="M260.104 153.081C260.104 153.081 258.787 153.372 257.279 153.568C255.772 153.764 254.032 153.869 253.316 153.45C252.118 152.739 245.627 152.944 243.75 153.017H243.431L243.914 151.245H256.783L256.942 152.006L258.764 152.11L259.808 152.343C259.999 152.789 260.104 153.081 260.104 153.081Z" fill="black"/>
<path d="M253.485 123.354C253.485 123.354 255.307 123.395 255.225 125.053C255.143 126.712 256.218 129.563 256.218 129.563L255.803 130.516C255.803 130.516 255.225 132.835 255.68 133.413C256.136 133.992 257.79 133.992 256.838 138.753C256.838 138.753 256.633 142.315 257.129 143.472C257.626 144.63 257.626 147.404 258.368 148.566C259.046 149.803 259.628 151.09 260.108 152.416C260.108 152.416 254.728 153.614 253.321 152.789C251.913 151.965 243.263 152.375 243.263 152.375C243.263 152.375 243.304 150.926 243.263 150.757C243.223 150.577 243.22 150.391 243.255 150.21C243.291 150.029 243.363 149.857 243.468 149.705C243.759 149.308 244.215 148.648 243.964 148.069C243.714 147.491 244.584 146.634 244.128 145.737C243.673 144.839 243.122 144.662 243.217 144.17C243.242 143.887 243.209 143.603 243.122 143.334C243.034 143.065 242.893 142.816 242.707 142.602C242.379 142.188 240.142 137.814 240.142 137.814L239.769 135.773C239.769 135.773 236.89 133.664 236.945 132.671C236.999 131.677 238.033 130.297 238.033 130.297L240.803 127.563C240.803 127.563 242.338 129.217 243.828 128.639C245.317 128.06 248.52 125.286 248.52 125.286C248.52 125.286 249.663 124.666 249.745 124.21C249.827 123.755 250.533 124.169 250.533 124.169C250.533 124.169 251.567 123.6 251.772 123.8C252.123 123.983 252.502 124.108 252.893 124.169L253.485 123.354Z" fill="#FFCDE5"/>
<path d="M237.838 131.978L236.958 132.671C236.29 134.084 235.914 135.618 235.851 137.181C235.618 139.53 235.246 141.864 234.735 144.169L232.995 147.281C232.995 147.281 230.139 153.281 229.766 154.876C229.392 156.47 227.697 159.163 227.697 159.163C227.697 159.163 221.944 164.334 225.957 165.268C229.971 166.202 230.098 161.167 230.098 161.167C230.098 161.167 231.009 160.133 231.187 159.427C231.364 158.721 236.43 149.718 236.43 149.718C236.43 149.718 238.211 147.295 237.838 146.01C237.838 146.01 240.156 140.543 240.156 139.176C240.113 138.033 239.988 136.894 239.783 135.768L240.156 132.912L237.838 131.978Z" fill="#FFD2C6"/>
<path opacity="0.1" d="M249.759 143.391C249.759 143.391 245.704 145.513 244.916 145.627C244.128 145.741 248.351 145.172 248.351 145.172L249.759 143.391Z" fill="black"/>
<path opacity="0.1" d="M253.066 145.044C253.066 145.044 247.686 146.867 245.322 146.539C245.322 146.529 251.207 147.655 253.066 145.044Z" fill="black"/>
<path opacity="0.1" d="M253.403 145.641C253.403 145.641 248.556 148.689 245.705 148.192C245.705 148.192 252.369 149.518 253.403 148.812L250.424 147.987C250.424 147.987 253.731 146.233 253.403 145.641Z" fill="black"/>
<path opacity="0.1" d="M247.823 106.383C247.124 106.212 246.397 106.191 245.69 106.324C244.982 106.457 244.312 106.74 243.723 107.153C242.894 107.805 242.357 108.803 241.409 109.29C240.917 109.5 240.412 109.678 239.897 109.823C238.99 110.194 238.234 110.86 237.75 111.712C237.267 112.565 237.084 113.556 237.232 114.525C237.378 115.345 237.76 116.101 237.952 116.912C238.289 118.356 237.988 119.869 237.624 121.308C236.604 125.3 235.057 129.138 233.023 132.721C232.863 132.943 232.782 133.213 232.795 133.486C232.846 133.67 232.943 133.838 233.077 133.974C234.991 136.183 238.088 136.944 241.026 137.044C242.105 137.151 243.193 136.97 244.179 136.52C244.788 136.17 245.312 135.689 245.714 135.113C246.73 133.721 247.236 132.022 247.144 130.302C247.067 128.912 246.602 127.509 246.953 126.165C246.988 125.977 247.073 125.802 247.199 125.659C247.513 125.336 248.037 125.422 248.483 125.368C249.7 125.226 250.483 123.946 250.629 122.73C250.775 121.513 250.469 120.292 250.46 119.085C250.456 117.469 250.961 115.892 251.904 114.579C252.31 114.024 252.815 113.477 252.961 112.78C253.134 111.905 252.629 111.263 252.191 110.575C251.513 109.5 251.18 108.247 250.146 107.427C249.464 106.902 248.668 106.545 247.823 106.383Z" fill="black"/>
<path d="M247.49 106.051C246.796 105.881 246.073 105.862 245.371 105.995C244.668 106.128 244.002 106.409 243.418 106.821C242.589 107.477 242.051 108.475 241.099 108.962C240.606 109.169 240.101 109.345 239.587 109.49C238.681 109.861 237.927 110.525 237.443 111.376C236.96 112.227 236.777 113.215 236.922 114.183C237.068 115.003 237.45 115.759 237.642 116.57C237.979 118.014 237.683 119.527 237.314 120.967C236.295 124.951 234.749 128.781 232.717 132.356C232.554 132.577 232.473 132.848 232.49 133.122C232.536 133.306 232.632 133.475 232.768 133.609C234.681 135.823 237.778 136.579 240.717 136.68C241.795 136.786 242.882 136.607 243.869 136.16C244.477 135.807 245.001 135.325 245.404 134.748C246.418 133.356 246.922 131.657 246.83 129.937C246.748 128.57 246.283 127.144 246.634 125.8C246.672 125.614 246.757 125.44 246.88 125.295C247.199 124.971 247.718 125.058 248.169 125.008C249.381 124.866 250.164 123.582 250.31 122.37C250.456 121.158 250.151 119.932 250.146 118.725C250.139 117.11 250.645 115.534 251.59 114.224C251.991 113.664 252.501 113.117 252.647 112.402C252.815 111.527 252.31 110.889 251.872 110.197C251.194 109.126 250.861 107.869 249.827 107.049C249.136 106.539 248.336 106.197 247.49 106.051Z" fill="#985C7E"/>
<path opacity="0.1" d="M245.705 157.81C245.705 157.81 246.766 162.78 248.533 164.129L245.705 157.81Z" fill="black"/>
<g opacity="0.1">
<path opacity="0.1" d="M237.236 115.304C237.182 115.112 237.118 114.916 237.05 114.725C237.122 114.921 237.168 115.094 237.236 115.304Z" fill="black"/>
<path opacity="0.1" d="M252.337 110.994C252.356 111.145 252.356 111.298 252.337 111.449C252.2 112.147 251.686 112.693 251.28 113.249C250.338 114.562 249.832 116.138 249.836 117.755C249.836 118.98 250.146 120.201 250 121.399C249.855 122.598 249.089 123.896 247.859 124.033C247.404 124.087 246.889 124.001 246.575 124.324C246.451 124.469 246.364 124.643 246.324 124.83C245.973 126.174 246.443 127.563 246.52 128.967C246.605 130.688 246.093 132.385 245.071 133.773C244.671 134.351 244.146 134.832 243.536 135.181C242.552 135.631 241.466 135.812 240.389 135.705C237.514 135.609 234.467 134.866 232.535 132.739C232.484 132.866 232.468 133.005 232.49 133.14C232.537 133.324 232.633 133.493 232.768 133.627C234.681 135.841 237.778 136.598 240.717 136.698C241.795 136.804 242.882 136.625 243.869 136.179C244.477 135.825 245.001 135.343 245.404 134.766C246.419 133.374 246.922 131.675 246.83 129.955C246.748 128.589 246.283 127.163 246.634 125.819C246.673 125.632 246.757 125.458 246.88 125.313C247.199 124.989 247.718 125.076 248.169 125.026C249.381 124.885 250.164 123.6 250.31 122.388C250.456 121.176 250.151 119.951 250.146 118.743C250.139 117.128 250.645 115.552 251.59 114.242C251.991 113.682 252.501 113.135 252.647 112.42C252.722 111.923 252.612 111.415 252.337 110.994Z" fill="black"/>
</g>
<path opacity="0.1" d="M15.845 228.812C21.1685 228.812 25.484 228.376 25.484 227.838C25.484 227.299 21.1685 226.863 15.845 226.863C10.5216 226.863 6.20605 227.299 6.20605 227.838C6.20605 228.376 10.5216 228.812 15.845 228.812Z" fill="#3284B8"/>
<path d="M19.2161 211.719C19.2161 211.719 6.64353 218.216 13.1394 225.842C13.3222 226.317 13.6506 226.723 14.0777 227C14.5048 227.277 15.0087 227.413 15.5172 227.386C15.5172 227.386 15.1619 226.744 16.5148 226.229C16.9971 226.044 17.4557 225.802 17.8814 225.509C18.4532 225.114 18.8803 224.543 19.0977 223.883C19.0977 223.883 21.6714 220.443 19.6762 214.079C19.6762 214.079 19.9358 212.257 19.7081 211.988L18.182 214.079C18.182 214.079 19.7627 215.14 19.9449 216.698C19.9449 216.698 18.3005 214.083 17.9406 214.384C17.8677 214.443 17.1844 215.528 17.1844 215.528C17.1844 215.528 19.9176 217.386 20.1226 219.796C20.1226 219.796 18.5829 216.421 16.9339 215.938L15.9955 217.637C15.9955 217.637 18.9838 219.459 19.3209 222.193C19.3209 222.193 17.5853 218.721 15.8133 218.024L15.1163 219.819C15.1163 219.819 17.9953 221.642 18.2595 223.919C18.2595 223.919 15.8498 220.111 14.9842 220.234C14.9842 220.234 14.4422 221.919 14.5287 222.439C14.5287 222.439 16.5695 223.806 16.6059 225.14C16.6059 225.14 14.7246 222.762 14.4331 222.922C14.4331 222.922 14.3146 225.309 14.8886 226.566C14.2966 225.445 14.0092 224.189 14.055 222.922C13.4722 223.436 13.054 224.112 12.8524 224.863C12.8524 224.863 12.3103 223.546 14.0914 222.343C14.0914 222.343 14.26 220.484 14.4649 220.257C14.4649 220.257 12.5381 221.195 11.7318 222.352C11.7318 222.352 12.0324 220.63 14.6472 219.774L15.3122 217.951C15.3122 217.951 12.6975 219.058 11.8867 220.033C11.8867 220.033 12.4697 218.325 15.5309 217.505L16.4419 215.828C16.4419 215.828 14.1187 216.612 12.9845 217.505C12.9845 217.505 13.8636 216.033 16.7198 215.359L17.4578 214.307C17.4578 214.307 15.7677 214.913 15.2986 215.127C14.8294 215.341 14.7337 215.236 14.7337 215.236C15.5948 214.507 16.6425 214.034 17.7584 213.869C17.7584 213.869 19.33 211.833 19.2161 211.719Z" fill="#3284B8"/>
<path d="M31.6019 223.282C32.9184 224.061 34.9773 224.566 37.5693 222.894L37.542 226.589C37.7287 229.127 40.8582 238.357 40.8582 238.357L43.0675 245.956C44.6522 251.322 45.4711 256.885 45.5 262.48C45.4434 264.242 45.6821 266 46.2061 267.683C47.3814 270.872 45.7506 274.972 45.0309 276.489C43.7189 276.945 42.366 277.287 41.3866 277.514C41.2751 277.54 41.1655 277.574 41.0586 277.615V277.592C41.0586 277.592 37.7424 278.908 36.2665 278.726C35.1687 278.589 34.4808 279.961 35.3554 280.968C34.6405 281.188 33.8937 281.286 33.1461 281.259C31.6702 281.077 30.9368 283.615 33.6973 284.339C36.4578 285.063 52.128 284.339 52.128 284.339C52.5691 284.119 52.9245 283.758 53.138 283.313C53.3516 282.869 53.4113 282.366 53.3078 281.883C54.5104 281.838 55.262 281.801 55.262 281.801C55.262 281.801 58.0271 280.535 55.262 277.095L55.1163 277.209L54.5241 275.469V273.113C54.5241 273.113 58.0271 256.257 56.9201 254.289C55.8132 252.321 55.262 242.161 55.262 242.161L55.631 231.118C56.6286 229.054 57.1433 225.824 57.403 223.295C57.7784 222.088 58.0152 220.843 58.1091 219.582C58.1501 218.99 58.1865 218.366 58.2093 217.719C58.2239 216.301 57.9975 214.892 57.5396 213.55C58.7859 211.692 60.1813 209.938 61.7123 208.307C62.3487 207.715 62.8321 206.977 63.1209 206.158C63.4097 205.338 63.4953 204.46 63.3704 203.6L62.4594 197.445L60.2455 186.967C60.5234 184.051 59.9175 182.375 59.2433 181.427C59.4028 180.489 59.5531 179.546 59.667 178.602C60.1565 174.495 59.9378 170.335 59.0201 166.302C58.7012 164.894 58.264 163.45 57.28 162.384C56.1594 161.176 54.3464 160.438 53.9319 158.857C53.8679 158.457 53.7827 158.06 53.6768 157.668C53.2714 156.63 51.9913 156.256 50.8707 156.119C48.8755 155.878 45.992 155.691 44.0742 156.475C42.7396 157.026 40.8855 158.529 40.1613 160.147C39.7246 160.82 39.5617 161.635 39.7057 162.425C39.7755 162.695 39.8829 162.954 40.0246 163.195C39.7286 163.97 39.5743 164.793 39.5691 165.623C39.5764 167.041 40.0104 168.425 40.8148 169.593C41.6191 170.762 42.7564 171.661 44.0788 172.174C44.1198 172.311 44.1608 172.448 44.1972 172.584C44.2804 172.907 44.3398 173.236 44.3749 173.568C44.343 174.211 44.302 174.853 44.2701 175.491C44.2528 175.579 44.2299 175.665 44.2018 175.751C42.6153 176.453 41.0688 177.242 39.5691 178.115C40.676 179.741 39.3869 186.621 39.3869 186.621C36.6218 188.252 33.8568 192.416 36.804 196.758C39.7513 201.099 38.0932 205.755 38.0932 205.755L37.6376 212.835L37.5465 214.247H37.583L37.5465 214.785H37.624V215.364C36.3257 215.819 34.4353 216.794 33.3101 218.553C32.7753 219.425 32.1257 220.222 31.3787 220.922C31.196 221.069 31.0527 221.26 30.9616 221.476C30.8704 221.692 30.8343 221.928 30.8564 222.162C30.8785 222.395 30.9582 222.62 31.0883 222.815C31.2183 223.011 31.3948 223.171 31.6019 223.282ZM53.8544 204.475C53.7437 203.251 53.9706 202.021 54.5104 200.917C54.9431 200.917 55.3805 200.917 55.8132 200.917C55.8588 201.222 55.9089 201.514 55.9726 201.778C56.3462 203.391 54.852 204.152 53.8544 204.475Z" fill="url(#paint0_linear)"/>
<path d="M54.2188 274.64L54.9294 276.767L52.6335 279.072L45.008 280.845L39.5098 280.312L39.8651 278.362C39.9696 277.943 40.1878 277.56 40.4956 277.257C40.8035 276.954 41.189 276.742 41.6097 276.644C43.8874 276.111 48.1785 274.904 49.085 273.218L54.2188 274.64Z" fill="#DB8B8B"/>
<path opacity="0.1" d="M54.2188 274.64L54.9294 276.767L52.6335 279.072L45.008 280.845L39.5098 280.312L39.8651 278.362C39.9696 277.943 40.1878 277.56 40.4956 277.257C40.8035 276.954 41.189 276.742 41.6097 276.644C43.8874 276.111 48.1785 274.904 49.085 273.218L54.2188 274.64Z" fill="black"/>
<path d="M41.2727 279.783L42.3386 278.362L41.2727 276.722C41.2727 276.722 38.084 278.006 36.6627 277.829C35.2415 277.651 34.5354 280.139 37.1957 280.845C39.856 281.551 54.9294 280.845 54.9294 280.845C54.9294 280.845 57.5897 279.605 54.9294 276.234L52.6335 278.006C52.6335 278.006 48.7297 280.138 46.78 279.783H41.2727Z" fill="#2E3037"/>
<path d="M36.4851 282.799L41.9833 283.328L49.6089 281.555L51.9138 279.25L51.7271 278.685L51.4629 277.893L51.2078 277.123L46.0649 275.701C45.804 276.127 45.4467 276.486 45.0217 276.749C43.3499 277.888 40.348 278.713 38.5896 279.127L38.3664 279.191C38.0246 279.303 37.713 279.491 37.4554 279.742C37.1463 280.044 36.9271 280.426 36.8222 280.845L36.4851 282.799Z" fill="#DB8B8B"/>
<path opacity="0.1" d="M36.4851 282.799L41.9833 283.328L49.6089 281.555L51.9138 279.25L51.7271 278.685L49.6089 280.312C49.6089 280.312 45.7095 282.444 43.7553 282.088H38.2617L39.323 280.667L38.3664 279.191C38.0246 279.303 37.713 279.491 37.4554 279.742C37.1463 280.044 36.9271 280.426 36.8222 280.845L36.4851 282.799Z" fill="black"/>
<path d="M38.2618 282.266L39.3232 280.845L38.2618 279.205C38.2618 279.205 35.0731 280.489 33.6473 280.312C32.2215 280.134 31.52 282.621 34.1803 283.328C36.8406 284.034 51.914 283.328 51.914 283.328C51.914 283.328 54.5743 282.088 51.914 278.717L49.609 280.471C49.609 280.471 45.7097 282.603 43.7555 282.248L38.2618 282.266Z" fill="#2E3037"/>
<path d="M42.6938 179.395C42.6938 179.395 51.2077 180.279 49.9823 176.735C49.6368 175.728 49.546 174.651 49.7181 173.6C49.9406 172.299 50.4562 171.065 51.2259 169.992L43.245 171.236C43.7215 172.035 44.0848 172.897 44.3246 173.796C45.2585 177.559 42.6938 179.395 42.6938 179.395Z" fill="#DB8B8B"/>
<path d="M57.2344 219.833C57.2344 219.833 57.0567 227.459 55.2847 231.186L54.9112 242.002C54.9112 242.002 55.4442 251.933 56.5055 253.888C57.5669 255.842 54.2006 272.334 54.2006 272.334V275.168C54.2006 275.168 48.5292 277.3 46.9121 274.817L48.5338 253.71L47.8368 224.434L57.2344 219.833Z" fill="#474463"/>
<path opacity="0.1" d="M57.2344 219.833C57.2344 219.833 57.0567 227.459 55.2847 231.186L54.9112 242.002C54.9112 242.002 55.4442 251.933 56.5055 253.888C57.5669 255.842 54.2006 272.334 54.2006 272.334V275.168C54.2006 275.168 48.5292 277.3 46.9121 274.817L48.5338 253.71L47.8368 224.434L57.2344 219.833Z" fill="black"/>
<path d="M60.7829 195.354L61.8442 198.193L62.7325 204.225C62.8529 205.065 62.771 205.921 62.4937 206.723C62.2164 207.525 61.7517 208.249 61.1382 208.835C59.0109 210.963 56.1729 215.4 56.1729 215.4L52.802 205.3C52.802 205.3 56.1729 204.767 55.6399 202.461C55.107 200.156 55.2846 195.897 55.2846 195.897L60.7829 195.354Z" fill="#FC6681"/>
<path opacity="0.05" d="M60.7829 195.354L61.8442 198.193L62.7325 204.225C62.8529 205.065 62.771 205.921 62.4937 206.723C62.2164 207.525 61.7517 208.249 61.1382 208.835C59.0109 210.963 56.1729 215.4 56.1729 215.4L52.802 205.3C52.802 205.3 56.1729 204.767 55.6399 202.461C55.107 200.156 55.2846 195.897 55.2846 195.897L60.7829 195.354Z" fill="black"/>
<path opacity="0.1" d="M45.0217 276.749C47.2994 280.33 50.8343 278.298 51.4629 277.893L51.2078 277.123L46.0649 275.701C45.804 276.127 45.4467 276.486 45.0217 276.749Z" fill="black"/>
<path d="M37.9062 226.749C38.0839 229.232 41.0949 238.279 41.0949 238.279L43.2223 245.724C44.7488 250.986 45.5353 256.436 45.5591 261.915C45.514 263.641 45.7493 265.363 46.2561 267.013C47.6773 270.913 44.8394 276.234 44.8394 276.234C47.322 280.667 51.5766 277.656 51.5766 277.656V274.817C51.5766 274.817 54.9476 259.387 54.0593 256.371C53.171 253.355 52.8202 245.195 52.8202 245.195V230.475C55.6535 227.638 57.3735 223.878 57.6671 219.878C57.7126 219.3 57.7445 218.689 57.7673 218.056C57.913 214.052 55.1753 209.364 54.123 207.687C53.8679 207.286 53.7085 207.058 53.7085 207.058L38.0292 213.272H37.9928V213.878V215.222L37.9062 226.749Z" fill="#474463"/>
<path opacity="0.1" d="M43.2268 171.236C43.7033 172.035 44.0666 172.897 44.3064 173.796C45.1725 174.127 46.0964 174.281 47.0231 174.247C47.9497 174.214 48.8601 173.994 49.6998 173.6C49.9224 172.299 50.438 171.065 51.2076 169.992L43.2268 171.236Z" fill="black"/>
<path d="M46.7709 173.896C50.5899 173.896 53.6858 170.8 53.6858 166.981C53.6858 163.161 50.5899 160.065 46.7709 160.065C42.9519 160.065 39.856 163.161 39.856 166.981C39.856 170.8 42.9519 173.896 46.7709 173.896Z" fill="#DB8B8B"/>
<path opacity="0.1" d="M37.9062 215.222H37.9791C45.4179 216.749 54.7517 208.999 54.7517 208.999C54.5023 208.576 54.286 208.134 54.1048 207.678C53.8497 207.277 53.6903 207.049 53.6903 207.049L38.0292 213.272L37.9882 213.892L37.9062 215.222Z" fill="black"/>
<path d="M39.8787 179.218C39.8787 179.218 49.8092 173.186 53.0025 175.669L57.4348 181.345C57.4348 181.345 60.2727 182.229 59.7398 187.906L61.8671 198.193L55.4897 199.792C55.4897 199.792 51.7225 203.336 54.7517 208.489C54.7517 208.489 45.3542 216.293 37.8972 214.698L38.4256 206.361C38.4256 206.361 40.0245 201.751 37.1866 197.496C34.3486 193.24 37.0089 189.158 39.6692 187.559C39.6783 187.532 40.9219 180.812 39.8787 179.218Z" fill="#FC6681"/>
<path d="M39.323 215.4C39.323 215.4 35.6013 216.106 33.8248 218.944C33.3148 219.798 32.6911 220.578 31.9708 221.263C31.8087 221.411 31.6832 221.594 31.6044 221.799C31.5256 222.003 31.4956 222.223 31.5169 222.441C31.5381 222.659 31.61 222.869 31.7267 223.055C31.8435 223.24 32.0019 223.396 32.1894 223.509C33.597 224.352 35.8928 224.876 38.79 222.493C43.7552 218.411 39.323 215.4 39.323 215.4Z" fill="#DB8B8B"/>
<path opacity="0.1" d="M44.8212 182.584C44.8212 182.584 48.3698 182.229 49.2535 191.455C50.1372 200.68 51.5585 202.808 51.5585 202.808C51.5585 202.808 52.4468 207.596 50.3195 210.434C48.1921 213.272 44.1106 219.3 44.1106 219.3C44.1106 219.3 39.6783 220.544 38.79 216.111L44.2883 205.824C44.2883 205.824 45.1765 202.279 43.0492 199.796C40.9219 197.313 39.323 180.812 44.8212 182.584Z" fill="black"/>
<path d="M44.466 182.065C44.466 182.065 48.0146 181.71 48.8983 190.931C49.782 200.152 51.2078 202.284 51.2078 202.284C51.2078 202.284 52.0915 207.072 49.9642 209.91C47.8369 212.749 43.7554 218.776 43.7554 218.776C43.7554 218.776 39.3231 220.02 38.4348 215.587L43.933 205.3C43.933 205.3 44.8213 201.751 42.694 199.268C40.5667 196.785 38.9678 180.279 44.466 182.065Z" fill="#FC6681"/>
<path opacity="0.1" d="M41.5413 188.703C41.5413 188.703 41.186 194.202 42.7804 197.218C44.3747 200.234 44.3793 204.133 42.7804 206.266" fill="black"/>
<path opacity="0.1" d="M40.6533 181.965C40.6533 181.965 42.0746 180.548 46.1515 180.37C50.2285 180.193 52.0051 178.949 52.0051 178.949" fill="black"/>
<path opacity="0.1" d="M50.52 158.038C51.595 158.17 52.8295 158.539 53.2167 159.555C53.3192 159.939 53.4013 160.328 53.4627 160.721C53.8636 162.27 55.6083 162.999 56.6833 164.179C57.6354 165.222 58.0499 166.639 58.3596 168.015C59.2426 171.968 59.4536 176.042 58.9837 180.065C58.6375 183.008 57.9315 185.906 57.731 188.858C57.5306 191.81 57.895 194.922 59.5121 197.404C60.2045 198.471 61.1201 199.409 61.6121 200.594C60.5963 201.418 59.1933 201.537 57.8859 201.582C56.3675 201.631 54.849 201.631 53.3306 201.582C52.5267 201.616 51.727 201.45 51.0029 201.099C50.4907 200.773 50.0704 200.322 49.7821 199.787C48.912 198.307 48.6888 196.53 48.7252 194.808C48.7617 193.086 49.035 191.382 49.0669 189.664C49.0669 188.726 49.0122 187.732 48.4747 186.967C48.0327 186.455 47.5328 185.997 46.9851 185.6C45.0901 183.919 44.4387 181.218 44.3749 178.685C44.3112 176.152 44.7257 173.609 44.5116 171.081C44.4296 170.092 44.0561 168.903 43.0858 168.712C42.7796 168.695 42.4751 168.655 42.1747 168.593C41.3912 168.293 41.4687 167.19 41.2637 166.384C41.0131 165.473 40.2433 164.78 40.0246 163.864C39.5145 161.719 42.2431 159.158 44.0333 158.397C45.8235 157.637 48.5977 157.801 50.52 158.038Z" fill="black"/>
<path d="M50.6976 157.682C51.7726 157.819 53.0025 158.188 53.3943 159.199C53.4972 159.585 53.5793 159.976 53.6403 160.37C54.0411 161.919 55.7858 162.648 56.8609 163.823C57.8129 164.867 58.2274 166.284 58.5372 167.659C59.4201 171.613 59.6311 175.686 59.1613 179.71C58.8151 182.653 58.109 185.55 57.9086 188.502C57.7081 191.455 58.0726 194.566 59.6897 197.049C60.3821 198.115 61.2977 199.054 61.7897 200.238C60.7738 201.063 59.3708 201.181 58.0635 201.227C56.545 201.275 55.019 201.275 53.4854 201.227C52.6815 201.261 51.8818 201.095 51.1577 200.744C50.6467 200.418 50.2266 199.969 49.9368 199.436C49.0622 197.951 48.8436 196.174 48.88 194.452C48.9165 192.73 49.1898 191.026 49.2217 189.309C49.2217 188.375 49.167 187.377 48.6295 186.612C48.1863 186.101 47.6866 185.643 47.1399 185.245C45.2449 183.564 44.5889 180.867 44.5252 178.329C44.4614 175.792 44.8805 173.254 44.6664 170.726C44.5844 169.737 44.2109 168.548 43.2406 168.357C42.9344 168.34 42.6299 168.3 42.3295 168.238C41.546 167.937 41.6235 166.835 41.4185 166.028C41.1679 165.117 40.3981 164.425 40.1794 163.509C39.6692 161.368 42.3979 158.803 44.1881 158.042C45.9783 157.281 48.7752 157.463 50.6976 157.682Z" fill="#472727"/>
<path opacity="0.1" d="M394.826 317.073C400.864 317.073 405.759 316.4 405.759 315.569C405.759 314.739 400.864 314.066 394.826 314.066C388.788 314.066 383.894 314.739 383.894 315.569C383.894 316.4 388.788 317.073 394.826 317.073Z" fill="#01304E"/>
<path opacity="0.1" d="M352.945 321.323C358.983 321.323 363.878 320.65 363.878 319.82C363.878 318.99 358.983 318.316 352.945 318.316C346.907 318.316 342.012 318.99 342.012 319.82C342.012 320.65 346.907 321.323 352.945 321.323Z" fill="#01304E"/>
<path opacity="0.1" d="M303.616 315.574C309.654 315.574 314.548 314.901 314.548 314.07C314.548 313.24 309.654 312.567 303.616 312.567C297.578 312.567 292.683 313.24 292.683 314.07C292.683 314.901 297.578 315.574 303.616 315.574Z" fill="#01304E"/>
<path opacity="0.1" d="M369.708 332.977C374 332.977 377.48 332.5 377.48 331.911C377.48 331.322 374 330.845 369.708 330.845C365.416 330.845 361.937 331.322 361.937 331.911C361.937 332.5 365.416 332.977 369.708 332.977Z" fill="#01304E"/>
<path opacity="0.1" d="M326.242 331.907C330.534 331.907 334.013 331.429 334.013 330.84C334.013 330.252 330.534 329.774 326.242 329.774C321.95 329.774 318.471 330.252 318.471 330.84C318.471 331.429 321.95 331.907 326.242 331.907Z" fill="#01304E"/>
<path d="M352.713 319.478C352.713 319.478 368.046 269.209 350.312 249.072C337.047 234.011 321.992 235.81 315.236 237.683C313.491 238.148 311.868 238.987 310.479 240.142C309.09 241.297 307.968 242.74 307.192 244.371C304.837 249.455 305.26 257.715 321.905 267.35C349.77 283.483 351.515 305.619 351.515 305.619L352.713 319.478Z" fill="#3284B8"/>
<path d="M317.646 244.803C317.646 244.803 362.848 258.927 352.722 319.478" stroke="#565987" stroke-miterlimit="10"/>
<path d="M344.048 249.874C344.048 249.874 337.821 254.065 339.803 260.353" stroke="#565987" stroke-miterlimit="10"/>
<path d="M322.179 253.592C322.179 253.592 325.987 249.719 330.615 251.856" stroke="#565987" stroke-miterlimit="10"/>
<path d="M340.072 273.072C340.072 273.072 346.75 269.683 348.476 273.929" stroke="#565987" stroke-miterlimit="10"/>
<path d="M356.58 280.143C356.58 280.143 351.569 279.742 351.474 282.143" stroke="#565987" stroke-miterlimit="10"/>
<path d="M353.332 319.879C353.332 319.879 335.375 283.341 330.442 284.143C328.1 284.521 327.021 286.827 326.529 289.155C325.924 292.149 326.266 295.257 327.508 298.048C330.05 303.884 336.883 314.986 353.332 319.879Z" fill="#3284B8"/>
<path d="M330.574 291.077C330.574 291.077 349.424 318.412 353.068 319.615" stroke="#565987" stroke-miterlimit="10"/>
<path d="M328.838 295.346H333.239" stroke="#565987" stroke-miterlimit="10"/>
<path d="M334.109 305.346L341.006 305.642" stroke="#565987" stroke-miterlimit="10"/>
<path d="M338.304 297.346L337.557 300.94" stroke="#565987" stroke-miterlimit="10"/>
<path d="M345.638 308.28L345.506 311.546" stroke="#565987" stroke-miterlimit="10"/>
<path d="M352.799 319.879C352.799 319.879 370.756 283.341 375.69 284.143C378.036 284.521 379.115 286.827 379.603 289.155C380.208 292.149 379.865 295.257 378.623 298.048C376.059 303.884 369.226 314.986 352.799 319.879Z" fill="#3284B8"/>
<path d="M375.558 291.077C375.558 291.077 356.708 318.412 353.068 319.615" stroke="#565987" stroke-miterlimit="10"/>
<path d="M377.288 295.346H372.888" stroke="#565987" stroke-miterlimit="10"/>
<path d="M372.018 305.346L365.121 305.642" stroke="#565987" stroke-miterlimit="10"/>
<path d="M367.823 297.346L368.57 300.94" stroke="#565987" stroke-miterlimit="10"/>
<path d="M360.489 308.28L360.621 311.546" stroke="#565987" stroke-miterlimit="10"/>
<path d="M321.965 328.412C321.475 328.013 321.119 327.474 320.944 326.868C320.864 326.563 320.892 326.241 321.022 325.955C321.152 325.668 321.378 325.436 321.659 325.296C322.315 325.045 323.026 325.501 323.545 325.961C324.065 326.421 324.684 326.945 325.367 326.85C325.01 326.524 324.743 326.112 324.591 325.653C324.44 325.194 324.409 324.704 324.502 324.23C324.534 324.035 324.617 323.853 324.743 323.701C325.108 323.31 325.768 323.478 326.206 323.783C327.572 324.758 327.978 326.645 327.987 328.339C328.055 327.716 328.055 327.086 327.987 326.462C327.96 326.149 328.011 325.835 328.134 325.545C328.257 325.256 328.449 325.002 328.693 324.804C329.022 324.625 329.393 324.537 329.768 324.549C330.077 324.505 330.392 324.526 330.693 324.612C330.993 324.697 331.273 324.845 331.513 325.045C332.041 325.61 331.904 326.563 331.444 327.187C330.926 327.771 330.309 328.26 329.622 328.631C329.106 328.94 328.666 329.36 328.333 329.861C328.296 329.931 328.264 330.004 328.237 330.08H324.333C323.472 329.633 322.676 329.072 321.965 328.412Z" fill="#3284B8"/>
<path d="M390.394 313.697C389.905 313.298 389.549 312.759 389.374 312.152C389.295 311.849 389.322 311.528 389.451 311.243C389.581 310.958 389.804 310.725 390.084 310.585C390.74 310.33 391.451 310.786 391.975 311.246C392.499 311.706 393.113 312.23 393.797 312.157C393.44 311.832 393.172 311.42 393.021 310.961C392.869 310.502 392.838 310.012 392.931 309.537C392.963 309.343 393.046 309.16 393.173 309.009C393.537 308.617 394.198 308.786 394.635 309.091C396.002 310.066 396.407 311.952 396.416 313.647C396.484 313.023 396.484 312.394 396.416 311.77C396.39 311.457 396.44 311.142 396.563 310.853C396.686 310.564 396.878 310.309 397.122 310.111C397.452 309.933 397.823 309.845 398.197 309.856C398.506 309.812 398.82 309.833 399.12 309.919C399.42 310.004 399.699 310.152 399.937 310.353C400.47 310.918 400.329 311.87 399.869 312.494C399.351 313.079 398.734 313.568 398.047 313.938C397.531 314.248 397.091 314.668 396.758 315.168C396.72 315.239 396.688 315.312 396.662 315.387H392.758C391.897 314.933 391.102 314.364 390.394 313.697Z" fill="#3284B8"/>
<path d="M367.59 328.412C367.1 328.013 366.742 327.475 366.565 326.868C366.485 326.563 366.513 326.241 366.643 325.955C366.774 325.668 366.999 325.436 367.28 325.296C367.936 325.045 368.647 325.501 369.171 325.961C369.695 326.421 370.31 326.945 370.993 326.85C370.634 326.525 370.366 326.113 370.214 325.654C370.063 325.195 370.033 324.704 370.128 324.23C370.157 324.035 370.241 323.852 370.369 323.701C370.733 323.31 371.389 323.478 371.827 323.783C373.193 324.758 373.603 326.645 373.608 328.339C373.685 327.717 373.694 327.087 373.635 326.462C373.608 326.15 373.657 325.835 373.78 325.546C373.902 325.257 374.093 325.002 374.337 324.804C374.666 324.626 375.037 324.538 375.412 324.549C375.721 324.505 376.036 324.526 376.337 324.611C376.637 324.697 376.917 324.845 377.156 325.045C377.685 325.61 377.548 326.563 377.088 327.187C376.569 327.77 375.953 328.259 375.266 328.631C374.748 328.938 374.308 329.358 373.977 329.861C373.938 329.93 373.905 330.004 373.881 330.08H369.973C369.107 329.634 368.305 329.073 367.59 328.412Z" fill="#3284B8"/>
<path d="M302.91 298.667C302.91 298.667 301.443 300.581 303.584 303.474C305.725 306.366 307.492 308.808 306.773 310.613C306.773 310.613 303.543 305.241 300.914 305.146C298.286 305.05 300.017 301.884 302.91 298.667Z" fill="#3284B8"/>
<path opacity="0.1" d="M302.91 298.667C302.78 298.852 302.679 299.054 302.609 299.268C300.045 302.28 298.678 305.095 301.142 305.164C303.443 305.232 306.199 309.341 306.855 310.376C306.836 310.457 306.81 310.536 306.777 310.613C306.777 310.613 303.548 305.241 300.919 305.146C298.291 305.05 300.017 301.884 302.91 298.667Z" fill="black"/>
<path d="M300.186 301.109C300.186 301.783 300.263 302.33 300.354 302.33C300.445 302.33 300.523 301.783 300.523 301.109C300.523 300.435 300.432 300.754 300.336 300.754C300.24 300.754 300.186 300.435 300.186 301.109Z" fill="#FFD037"/>
<path d="M299.252 301.915C299.844 302.234 300.359 302.43 300.404 302.348C300.45 302.266 300.008 301.938 299.416 301.615C298.824 301.291 299.056 301.528 299.01 301.615C298.965 301.701 298.66 301.592 299.252 301.915Z" fill="#FFD037"/>
<path d="M310.649 298.667C310.649 298.667 312.111 300.581 309.97 303.474C307.829 306.366 306.066 308.808 306.782 310.613C306.782 310.613 310.011 305.241 312.644 305.146C315.277 305.05 313.542 301.884 310.649 298.667Z" fill="#3284B8"/>
<path opacity="0.1" d="M310.649 298.667C310.776 298.852 310.876 299.055 310.945 299.268C313.514 302.28 314.881 305.095 312.412 305.164C310.134 305.232 307.36 309.341 306.7 310.376C306.7 310.458 306.75 310.535 306.777 310.613C306.777 310.613 310.007 305.241 312.64 305.146C315.273 305.05 313.542 301.884 310.649 298.667Z" fill="black"/>
<path d="M313.369 301.109C313.369 301.783 313.296 302.33 313.2 302.33C313.104 302.33 313.031 301.783 313.031 301.109C313.031 300.435 313.127 300.754 313.218 300.754C313.309 300.754 313.369 300.435 313.369 301.109Z" fill="#FFD037"/>
<path d="M314.307 301.915C313.715 302.234 313.196 302.43 313.155 302.348C313.114 302.266 313.551 301.938 314.143 301.615C314.735 301.291 314.503 301.528 314.548 301.615C314.594 301.701 314.899 301.592 314.307 301.915Z" fill="#FFD037"/>
<path d="M312.904 310.362C312.904 310.362 308.804 310.234 307.574 309.355C306.344 308.476 301.274 307.428 300.969 308.84C300.664 310.253 294.81 315.852 299.439 315.888C304.067 315.925 310.18 315.168 311.414 314.417C312.649 313.665 312.904 310.362 312.904 310.362Z" fill="#01304E"/>
<path opacity="0.2" d="M299.352 315.396C303.98 315.433 310.098 314.676 311.332 313.925C312.266 313.355 312.644 311.305 312.767 310.357H312.904C312.904 310.357 312.644 313.66 311.414 314.412C310.185 315.164 304.062 315.92 299.439 315.884C298.104 315.884 297.639 315.396 297.667 314.695C297.853 315.123 298.359 315.387 299.352 315.396Z" fill="black"/>
<path opacity="0.1" d="M33.2053 324.02C41.9402 324.02 49.0213 322.974 49.0213 321.683C49.0213 320.392 41.9402 319.346 33.2053 319.346C24.4704 319.346 17.3894 320.392 17.3894 321.683C17.3894 322.974 24.4704 324.02 33.2053 324.02Z" fill="#01304E"/>
<path opacity="0.1" d="M71.5015 345C80.2364 345 87.3174 343.954 87.3174 342.663C87.3174 341.372 80.2364 340.326 71.5015 340.326C62.7666 340.326 55.6855 341.372 55.6855 342.663C55.6855 343.954 62.7666 345 71.5015 345Z" fill="#01304E"/>
<path opacity="0.1" d="M240.457 289.168C246.241 289.168 250.93 288.644 250.93 287.997C250.93 287.351 246.241 286.827 240.457 286.827C234.673 286.827 229.984 287.351 229.984 287.997C229.984 288.644 234.673 289.168 240.457 289.168Z" fill="#01304E"/>
<path opacity="0.1" d="M191.501 322.854C197.285 322.854 201.974 322.33 201.974 321.683C201.974 321.037 197.285 320.512 191.501 320.512C185.717 320.512 181.029 321.037 181.029 321.683C181.029 322.33 185.717 322.854 191.501 322.854Z" fill="#01304E"/>
<path opacity="0.1" d="M169.431 343.834C175.215 343.834 179.903 343.309 179.903 342.663C179.903 342.016 175.215 341.492 169.431 341.492C163.647 341.492 158.958 342.016 158.958 342.663C158.958 343.309 163.647 343.834 169.431 343.834Z" fill="#6C63FF"/>
</g>
<defs>
<linearGradient id="paint0_linear" x1="47.1536" y1="284.658" x2="47.1536" y2="155.892" gradientUnits="userSpaceOnUse">
<stop stop-color="#808080" stop-opacity="0.25"/>
<stop offset="0.54" stop-color="#808080" stop-opacity="0.12"/>
<stop offset="1" stop-color="#808080" stop-opacity="0.1"/>
</linearGradient>
<clipPath id="clip0">
<rect width="491" height="345" fill="white" transform="translate(-43)"/>
</clipPath>
</defs>
</svg>
