<svg width="239" height="218" viewBox="0 0 239 218" fill="none" xmlns="http://www.w3.org/2000/svg">
<g opacity="0.5">
<path opacity="0.5" d="M174.416 15.0818H66.8936V163.98H174.416V15.0818Z" fill="url(#paint0_linear)"/>
</g>
<path d="M173.048 16.1786H68.2615V161.786H173.048V16.1786Z" fill="white"/>
<path d="M146.783 12.3341H94.8V24.9534H146.783V12.3341Z" fill="url(#paint1_linear)"/>
<path d="M120.791 0C116.778 0 113.525 3.33992 113.525 7.45862C113.525 11.5773 116.778 14.9172 120.791 14.9172C124.805 14.9172 128.058 11.5773 128.058 7.45862C128.058 3.33992 124.805 0 120.791 0ZM120.791 11.761C119.938 11.7834 119.097 11.5502 118.377 11.0912C117.656 10.6323 117.088 9.96841 116.746 9.18448C116.404 8.40054 116.303 7.53216 116.456 6.6903C116.608 5.84845 117.008 5.07136 117.604 4.45836C118.199 3.84536 118.964 3.42428 119.8 3.24896C120.635 3.07363 121.504 3.15201 122.295 3.47409C123.086 3.79616 123.763 4.34729 124.24 5.05705C124.717 5.76681 124.971 6.60295 124.972 7.45862C124.985 8.58427 124.552 9.66925 123.769 10.4757C122.985 11.2822 121.914 11.7444 120.791 11.761Z" fill="url(#paint2_linear)"/>
<path d="M146.235 12.3396H95.3472V24.405H146.235V12.3396Z" fill="#3284B8"/>
<path d="M120.791 0.548462C119.384 0.548462 118.009 0.966603 116.839 1.75001C115.67 2.53342 114.758 3.6469 114.219 4.94966C113.681 6.25241 113.54 7.68593 113.815 9.06893C114.089 10.4519 114.767 11.7223 115.761 12.7194C116.756 13.7165 118.024 14.3955 119.404 14.6706C120.784 14.9457 122.214 14.8045 123.514 14.2649C124.813 13.7253 125.924 12.8114 126.706 11.639C127.488 10.4665 127.905 9.08812 127.905 7.67802C127.905 5.78715 127.155 3.97371 125.821 2.63666C124.487 1.29961 122.678 0.548462 120.791 0.548462ZM120.791 11.7912C119.98 11.7912 119.186 11.55 118.511 11.098C117.837 10.6461 117.311 10.0037 117 9.25208C116.689 8.50049 116.608 7.67346 116.766 6.87558C116.925 6.07769 117.316 5.34479 117.89 4.76954C118.463 4.1943 119.195 3.80256 119.991 3.64385C120.787 3.48514 121.612 3.56659 122.362 3.87791C123.112 4.18923 123.753 4.71643 124.204 5.39285C124.655 6.06926 124.895 6.86451 124.895 7.67802C124.895 8.76891 124.463 9.81512 123.693 10.5865C122.924 11.3579 121.88 11.7912 120.791 11.7912Z" fill="#3284B8"/>
<path d="M95.6207 39.761H73.186V62.2465H95.6207V39.761Z" fill="url(#paint3_linear)"/>
<path d="M95.6973 84.3208H73.2627V106.806H95.6973V84.3208Z" fill="url(#paint4_linear)"/>
<path d="M95.774 128.332H73.3394V150.818H95.774V128.332Z" fill="url(#paint5_linear)"/>
<path d="M94.7999 40.5836H74.0068V61.4239H94.7999V40.5836Z" fill="#69F0AE"/>
<path d="M94.7999 84.7321H74.0068V105.572H94.7999V84.7321Z" fill="#3284B8"/>
<path d="M94.7999 128.88H74.0068V149.721H94.7999V128.88Z" fill="#3284B8"/>
<path d="M136.98 47.0167H108.48V49.0103H136.98V47.0167Z" fill="#E0E0E0"/>
<path d="M155.538 50.0084H108.48V52.002H155.538V50.0084Z" fill="#E0E0E0"/>
<path d="M152.225 52.9973H108.48V54.9908H152.225V52.9973Z" fill="#E0E0E0"/>
<path d="M136.98 91.1652H108.48V93.1587H136.98V91.1652Z" fill="#E0E0E0"/>
<path d="M155.538 94.1569H108.48V96.1504H155.538V94.1569Z" fill="#E0E0E0"/>
<path d="M152.225 97.1458H108.48V99.1393H152.225V97.1458Z" fill="#E0E0E0"/>
<path d="M136.98 135.313H108.48V137.307H136.98V135.313Z" fill="#E0E0E0"/>
<path d="M155.538 138.305H108.48V140.299H155.538V138.305Z" fill="#E0E0E0"/>
<path d="M152.225 141.294H108.48V143.288H152.225V141.294Z" fill="#E0E0E0"/>
<path d="M79.684 49.7616L83.4596 53.2331L88.8083 45.3495L90.6961 46.9262L83.4596 56.3866L78.1108 50.395L79.684 49.7616Z" fill="url(#paint6_linear)"/>
<path d="M80.2996 49.9069L83.5827 52.9232L88.2338 46.0679L89.8754 47.4389L83.5827 55.6654L78.9316 50.4553L80.2996 49.9069Z" fill="white"/>
<path d="M80.2996 94.3296L83.5827 97.3459L88.2338 90.4906L89.8754 91.8617L83.5827 100.088L78.9316 94.878L80.2996 94.3296Z" fill="white"/>
<path d="M80.2996 138.752L83.5827 141.769L88.2338 134.913L89.8754 136.284L83.5827 144.511L78.9316 139.301L80.2996 138.752Z" fill="white"/>
<g opacity="0.5">
<path opacity="0.5" d="M178.109 96.2491H179.751" stroke="#69F0AE" stroke-width="5" stroke-miterlimit="10"/>
<path opacity="0.5" d="M182.908 96.2491H219.211" stroke="#69F0AE" stroke-width="5" stroke-miterlimit="10" stroke-dasharray="11.54 11.54"/>
<path opacity="0.5" d="M220.79 96.249H222.431V94.6038" stroke="#69F0AE" stroke-width="5" stroke-miterlimit="10"/>
<path opacity="0.5" d="M222.431 91.4641V61.6241" stroke="#69F0AE" stroke-width="5" stroke-miterlimit="10" stroke-dasharray="11.45 11.45"/>
<path opacity="0.5" d="M222.431 60.0529V58.4076" stroke="#69F0AE" stroke-width="5" stroke-miterlimit="10"/>
</g>
<path opacity="0.5" d="M63.3368 50.0441H26.6753V84.595" stroke="#69F0AE" stroke-width="5" stroke-miterlimit="10" stroke-dasharray="12 12"/>
<path opacity="0.5" d="M84.4036 167.682V187.425H139.122" stroke="#69F0AE" stroke-width="5" stroke-miterlimit="10" stroke-dasharray="12 12"/>
<g opacity="0.5">
<path opacity="0.5" d="M239 29.3655L217.917 11.517L197.162 29.3272L196.976 29.223V29.3655H196.834L196.976 29.4451V29.5081V52.6381V52.9233H238.858L238.603 52.7807H239V29.3655Z" fill="url(#paint7_linear)"/>
</g>
<path d="M238.163 51.9635H197.945V29.478L217.917 12.3396L238.163 29.478V51.9635Z" fill="white"/>
<path d="M197.671 29.478L217.643 40.7208L237.889 29.478" fill="#E0E0E0"/>
<g opacity="0.5">
<path opacity="0.5" d="M218.059 40.4383L205.742 48.2617V18.9208H230.092V33.8435L218.059 40.4383Z" fill="url(#paint8_linear)"/>
</g>
<path d="M218.054 40.5837L206.289 48.2617V19.4692H229.544V34.1123L218.054 40.5837Z" fill="#FAFAFA"/>
<path opacity="0.05" d="M197.808 51.8264H238.026L197.808 29.3408V51.8264Z" fill="black"/>
<path d="M197.808 52.1006H238.026L197.808 29.6151V52.1006Z" fill="#F5F5F5"/>
<path d="M226.262 23.8566H209.299V24.9534H226.262V23.8566Z" fill="white"/>
<path d="M226.262 26.0503H209.299V27.1472H226.262V26.0503Z" fill="white"/>
<path d="M226.262 28.244H209.299V29.3409H226.262V28.244Z" fill="#3284B8"/>
<path d="M226.262 30.4377H209.299V31.5346H226.262V30.4377Z" fill="white"/>
<path d="M226.262 32.6315H209.299V33.7283H226.262V32.6315Z" fill="#3284B8"/>
<path opacity="0.05" d="M229.545 34.2767V33.7283L217.578 40.3944L217.903 40.5754L229.545 34.2767Z" fill="black"/>
<g opacity="0.5">
<path opacity="0.5" d="M195.611 170.013H148.019V218H195.611V170.013Z" fill="url(#paint9_linear)"/>
</g>
<path d="M194.525 171.109H149.108V216.903H194.525V171.109Z" fill="#F5F5F5"/>
<path d="M192.062 172.48H152.118V207.58H192.062V172.48Z" fill="white"/>
<path d="M192.062 196.337C181.023 196.337 172.09 193.515 172.09 190.03C161.05 190.03 152.118 192.484 152.118 195.514V208.677H192.062V196.337Z" fill="#E0E0E0"/>
<path d="M185.496 184.272C187.763 184.272 189.6 182.43 189.6 180.159C189.6 177.887 187.763 176.045 185.496 176.045C183.23 176.045 181.392 177.887 181.392 180.159C181.392 182.43 183.23 184.272 185.496 184.272Z" fill="#3284B8"/>
<g opacity="0.5">
<path opacity="0.5" d="M55.813 87.6799H0V127.304H55.813V87.6799Z" fill="url(#paint10_linear)"/>
</g>
<path d="M54.1715 88.8453H1.6416V126.138H54.1715V88.8453Z" fill="white"/>
<path d="M28.9872 98.2617C28.548 98.2626 28.1094 98.2919 27.674 98.3495L28.9872 108.408L18.8889 107.733C18.8752 107.955 18.8643 108.18 18.8643 108.408C18.8643 110.414 19.458 112.376 20.5703 114.044C21.6826 115.713 23.2636 117.013 25.1133 117.781C26.963 118.549 28.9984 118.75 30.9621 118.359C32.9257 117.967 34.7295 117.001 36.1452 115.582C37.5609 114.163 38.525 112.355 38.9156 110.387C39.3062 108.419 39.1058 106.379 38.3396 104.525C37.5734 102.671 36.2759 101.086 34.6112 99.9716C32.9465 98.8568 30.9893 98.2617 28.9872 98.2617Z" fill="#E0E0E0"/>
<path d="M25.485 96.4301C23.164 96.7349 21.0202 97.8365 19.4184 99.5474C17.8167 101.258 16.856 103.473 16.7 105.814L26.7983 106.488L25.485 96.4301Z" fill="#3284B8"/>
<defs>
<linearGradient id="paint0_linear" x1="120.655" y1="163.98" x2="120.655" y2="15.0818" gradientUnits="userSpaceOnUse">
<stop stop-color="#808080" stop-opacity="0.25"/>
<stop offset="0.54" stop-color="#808080" stop-opacity="0.12"/>
<stop offset="1" stop-color="#808080" stop-opacity="0.1"/>
</linearGradient>
<linearGradient id="paint1_linear" x1="23045.2" y1="1160.69" x2="23045.2" y2="579.951" gradientUnits="userSpaceOnUse">
<stop stop-color="#808080" stop-opacity="0.25"/>
<stop offset="0.54" stop-color="#808080" stop-opacity="0.12"/>
<stop offset="1" stop-color="#808080" stop-opacity="0.1"/>
</linearGradient>
<linearGradient id="paint2_linear" x1="8902.08" y1="1594.5" x2="8902.08" y2="783.155" gradientUnits="userSpaceOnUse">
<stop stop-color="#808080" stop-opacity="0.25"/>
<stop offset="0.54" stop-color="#808080" stop-opacity="0.12"/>
<stop offset="1" stop-color="#808080" stop-opacity="0.1"/>
</linearGradient>
<linearGradient id="paint3_linear" x1="6994.27" y1="5143.98" x2="6994.27" y2="3300.16" gradientUnits="userSpaceOnUse">
<stop stop-color="#808080" stop-opacity="0.25"/>
<stop offset="0.54" stop-color="#808080" stop-opacity="0.12"/>
<stop offset="1" stop-color="#808080" stop-opacity="0.1"/>
</linearGradient>
<linearGradient id="paint4_linear" x1="7000.63" y1="8842.43" x2="7000.63" y2="6998.62" gradientUnits="userSpaceOnUse">
<stop stop-color="#808080" stop-opacity="0.25"/>
<stop offset="0.54" stop-color="#808080" stop-opacity="0.12"/>
<stop offset="1" stop-color="#808080" stop-opacity="0.1"/>
</linearGradient>
<linearGradient id="paint5_linear" x1="7006.99" y1="12495.4" x2="7006.99" y2="10651.6" gradientUnits="userSpaceOnUse">
<stop stop-color="#808080" stop-opacity="0.25"/>
<stop offset="0.54" stop-color="#808080" stop-opacity="0.12"/>
<stop offset="1" stop-color="#808080" stop-opacity="0.1"/>
</linearGradient>
<linearGradient id="paint6_linear" x1="3960.67" y1="2314.91" x2="3960.67" y2="1870.56" gradientUnits="userSpaceOnUse">
<stop stop-color="#808080" stop-opacity="0.25"/>
<stop offset="0.54" stop-color="#808080" stop-opacity="0.12"/>
<stop offset="1" stop-color="#808080" stop-opacity="0.1"/>
</linearGradient>
<linearGradient id="paint7_linear" x1="33782.2" y1="8002.93" x2="33782.2" y2="1750.58" gradientUnits="userSpaceOnUse">
<stop stop-color="#808080" stop-opacity="0.25"/>
<stop offset="0.54" stop-color="#808080" stop-opacity="0.12"/>
<stop offset="1" stop-color="#808080" stop-opacity="0.1"/>
</linearGradient>
<linearGradient id="paint8_linear" x1="19600.4" y1="5182.92" x2="19600.4" y2="2043.44" gradientUnits="userSpaceOnUse">
<stop stop-color="#808080" stop-opacity="0.25"/>
<stop offset="0.54" stop-color="#808080" stop-opacity="0.12"/>
<stop offset="1" stop-color="#808080" stop-opacity="0.1"/>
</linearGradient>
<linearGradient id="paint9_linear" x1="30035.5" y1="38320" x2="30035.5" y2="29922.2" gradientUnits="userSpaceOnUse">
<stop stop-color="#808080" stop-opacity="0.25"/>
<stop offset="0.54" stop-color="#808080" stop-opacity="0.12"/>
<stop offset="1" stop-color="#808080" stop-opacity="0.1"/>
</linearGradient>
<linearGradient id="paint10_linear" x1="5692.93" y1="18483.1" x2="5692.93" y2="12757.4" gradientUnits="userSpaceOnUse">
<stop stop-color="#808080" stop-opacity="0.25"/>
<stop offset="0.54" stop-color="#808080" stop-opacity="0.12"/>
<stop offset="1" stop-color="#808080" stop-opacity="0.1"/>
</linearGradient>
</defs>
</svg>
