<svg width="247" height="200" viewBox="0 0 247 200" fill="none" xmlns="http://www.w3.org/2000/svg">
<g clip-path="url(#clip0)">
<path d="M237.215 0.000404702H163.071C159.493 0.000228968 156.022 1.22092 153.227 3.4618C150.433 5.70268 148.482 8.83039 147.695 12.3308L110.232 178.982C109.823 180.8 109.816 182.685 110.211 184.506C110.606 186.327 111.393 188.039 112.517 189.522C113.641 191.006 115.076 192.225 116.719 193.093C118.363 193.962 120.176 194.46 122.032 194.552L198.253 198.318C202.334 198.519 206.349 197.225 209.549 194.676C212.749 192.127 214.914 188.497 215.641 184.464L236.894 66.6407L238.475 67.0938L242.543 44.7615L240.915 44.3536L246.847 11.4646C247.102 10.0558 247.043 8.60818 246.675 7.22485C246.307 5.84152 245.64 4.55657 244.72 3.46161C243.801 2.36666 242.652 1.48866 241.355 0.890225C240.058 0.291787 238.645 -0.012357 237.218 -0.000521885L237.215 0.000404702Z" fill="#3F3D56"/>
<path d="M172.831 3.5929H164.177C161.692 3.59292 159.281 4.44541 157.345 6.00886C155.41 7.5723 154.065 9.75266 153.535 12.188L117.575 177.479C117.368 178.431 117.368 179.416 117.575 180.368C117.783 181.32 118.193 182.215 118.777 182.993C119.361 183.771 120.106 184.414 120.96 184.877C121.815 185.34 122.759 185.613 123.728 185.676L199.701 190.67C201.845 190.811 203.965 190.155 205.657 188.829C207.349 187.502 208.495 185.597 208.876 183.477L239.561 12.6321C239.759 11.5263 239.713 10.3903 239.426 9.30425C239.139 8.21818 238.618 7.20851 237.9 6.34649C237.181 5.48447 236.283 4.7911 235.268 4.31531C234.253 3.83953 233.146 3.59292 232.026 3.5929H223.816C223.021 3.59287 222.249 3.85557 221.618 4.34032C220.987 4.82507 220.534 5.50483 220.327 6.27437C220.144 6.95397 219.744 7.55427 219.187 7.98228C218.629 8.41029 217.947 8.64212 217.245 8.64186H178.269C176.895 8.64182 175.572 8.12181 174.564 7.18577C173.556 6.24973 172.937 4.96662 172.831 3.5929Z" fill="white"/>
<path d="M214.829 119.146C214.977 119.151 215.122 119.102 215.237 119.009C215.352 118.916 215.43 118.785 215.457 118.639L232.257 25.6463C232.273 25.5579 232.27 25.4671 232.248 25.3801C232.226 25.293 232.185 25.2118 232.129 25.142C232.073 25.0727 232.003 25.0166 231.923 24.9776C231.843 24.9387 231.756 24.9179 231.667 24.9167L155.229 24.0112H155.222C155.083 24.0124 154.949 24.0608 154.841 24.1485C154.733 24.2362 154.658 24.358 154.629 24.4939L134.823 114.469C134.803 114.556 134.803 114.647 134.822 114.735C134.841 114.823 134.878 114.906 134.932 114.978C134.985 115.049 135.054 115.108 135.132 115.15C135.211 115.192 135.297 115.216 135.386 115.221L214.829 119.146Z" fill="#E6E6E6"/>
<path d="M148.497 125.158C148.427 125.158 148.36 125.182 148.305 125.225C148.251 125.269 148.213 125.329 148.197 125.397L147.481 128.474C147.471 128.517 147.47 128.562 147.479 128.606C147.488 128.65 147.507 128.691 147.533 128.727C147.559 128.763 147.593 128.793 147.632 128.814C147.671 128.836 147.714 128.849 147.759 128.852L188.196 131.735C188.271 131.739 188.345 131.717 188.405 131.671C188.465 131.625 188.506 131.559 188.521 131.485L189.209 127.925C189.217 127.882 189.216 127.838 189.206 127.795C189.196 127.752 189.177 127.712 189.15 127.677C189.123 127.643 189.089 127.614 189.05 127.593C189.011 127.573 188.969 127.561 188.925 127.558L148.516 125.159L148.497 125.158Z" fill="#E6E6E6"/>
<path d="M197.626 143.163C197.699 143.169 197.772 143.148 197.831 143.105C197.891 143.063 197.933 143 197.95 142.929L198.827 139.361C198.837 139.318 198.838 139.272 198.83 139.228C198.821 139.184 198.803 139.142 198.777 139.106C198.75 139.069 198.716 139.039 198.677 139.017C198.638 138.995 198.594 138.982 198.549 138.979L146.908 135.357C146.838 135.351 146.768 135.37 146.71 135.41C146.652 135.451 146.61 135.51 146.591 135.577L145.68 138.66C145.667 138.704 145.664 138.75 145.671 138.796C145.678 138.841 145.696 138.884 145.722 138.922C145.747 138.96 145.781 138.992 145.821 139.015C145.861 139.038 145.905 139.052 145.951 139.056L197.626 143.163Z" fill="#E6E6E6"/>
<path d="M194.853 154.597C194.926 154.603 194.998 154.583 195.058 154.54C195.117 154.497 195.159 154.434 195.177 154.363L196.053 150.796C196.064 150.752 196.065 150.706 196.056 150.662C196.048 150.618 196.03 150.576 196.003 150.54C195.977 150.503 195.943 150.473 195.903 150.451C195.864 150.43 195.821 150.417 195.776 150.413L144.134 146.791C144.064 146.786 143.994 146.805 143.937 146.845C143.879 146.885 143.837 146.944 143.817 147.012L142.907 150.094C142.894 150.138 142.891 150.185 142.898 150.23C142.905 150.275 142.922 150.319 142.948 150.357C142.974 150.394 143.008 150.426 143.048 150.449C143.087 150.472 143.132 150.486 143.177 150.49L194.853 154.597Z" fill="#E6E6E6"/>
<path d="M105.317 194.851C105.317 197.437 81.7113 197.713 52.6583 199.534C23.6312 201.353 0 197.437 0 194.851C0 192.265 23.7415 187.061 52.6583 190.168C81.7113 193.29 105.317 192.265 105.317 194.851Z" fill="#E6E6E6"/>
<path d="M171.069 174.144C171.142 174.152 171.216 174.132 171.276 174.089C171.337 174.047 171.379 173.983 171.397 173.911L173.25 166.478C173.26 166.435 173.262 166.39 173.253 166.346C173.245 166.302 173.227 166.26 173.201 166.224C173.175 166.187 173.142 166.157 173.103 166.135C173.064 166.112 173.021 166.099 172.977 166.095L141.264 163.42C141.19 163.415 141.116 163.437 141.056 163.481C140.996 163.525 140.954 163.589 140.937 163.661L139.356 170.794C139.347 170.837 139.347 170.882 139.356 170.925C139.364 170.967 139.382 171.008 139.408 171.043C139.434 171.079 139.467 171.108 139.505 171.13C139.543 171.152 139.585 171.165 139.629 171.169L171.069 174.144Z" fill="#5ACCF9"/>
<path d="M43.0195 143.857C43.4189 143.582 43.7533 143.223 43.9993 142.805C44.2453 142.387 44.3969 141.92 44.4434 141.437C44.4899 140.954 44.4301 140.466 44.2683 140.008C44.1066 139.551 43.8467 139.134 43.507 138.789L44.791 110.043L38.2538 110.779L38.6337 138.896C38.0916 139.506 37.7916 140.295 37.7908 141.112C37.7899 141.93 38.0882 142.719 38.629 143.331C39.1698 143.942 39.9156 144.333 40.725 144.43C41.5343 144.527 42.3509 144.322 43.0198 143.855L43.0195 143.857Z" fill="#A0616A"/>
<path d="M54.9456 192.517L58.6664 193.173L62.3438 179.092L57.4686 178.124L54.9456 192.517Z" fill="#A0616A"/>
<path d="M65.2359 197.902L53.5421 195.841L54.3364 191.31L61.5121 192.575C62.7104 192.786 63.7758 193.466 64.4742 194.465C65.1725 195.464 65.4465 196.701 65.2358 197.903L65.2359 197.902Z" fill="#2F2E41"/>
<path d="M44.7333 194.384H48.5111L50.3082 179.771H44.7327L44.7333 194.384Z" fill="#A0616A"/>
<path d="M55.7954 197.903L43.9223 197.903L43.9221 193.303L51.2078 193.303C52.4245 193.302 53.5913 193.787 54.4516 194.65C55.312 195.513 55.7953 196.683 55.7954 197.903Z" fill="#2F2E41"/>
<path d="M60.4945 189.146C60.4356 189.146 60.3767 189.143 60.3182 189.136L55.8717 188.769C55.6693 188.745 55.4738 188.68 55.2971 188.578C55.1205 188.476 54.9663 188.339 54.844 188.176C54.7217 188.012 54.6339 187.825 54.5858 187.627C54.5377 187.428 54.5304 187.222 54.5643 187.02L58.9784 165.177L56.2051 150.506C56.1825 150.387 56.1177 150.28 56.0226 150.205C55.9275 150.13 55.8086 150.092 55.6877 150.098C55.5669 150.104 55.4523 150.154 55.3651 150.238C55.2779 150.322 55.2239 150.435 55.2132 150.556L51.1269 187.833C51.0888 188.226 50.9001 188.589 50.6006 188.844C50.301 189.1 49.9142 189.229 49.5215 189.205L45.3323 189.048C44.9652 189.022 44.6204 188.862 44.3629 188.598C44.1054 188.335 43.953 187.986 43.9346 187.617L44.2692 142.57L65.9875 139.848L67.5047 163.347L67.4986 163.372L61.9548 187.994C61.875 188.322 61.6878 188.614 61.423 188.823C61.1583 189.032 60.8314 189.146 60.4945 189.146Z" fill="#2F2E41"/>
<path d="M51.4313 91.4167C55.6112 91.4167 58.9997 88.0185 58.9997 83.8266C58.9997 79.6347 55.6112 76.2365 51.4313 76.2365C47.2515 76.2365 43.863 79.6347 43.863 83.8266C43.863 88.0185 47.2515 91.4167 51.4313 91.4167Z" fill="#A0616A"/>
<path d="M46.6245 115.572L37.7808 114.597C37.5292 114.569 37.2864 114.488 37.0691 114.357C36.8518 114.227 36.6651 114.051 36.5217 113.842C36.3782 113.633 36.2815 113.395 36.2379 113.145C36.1944 112.895 36.2051 112.638 36.2694 112.393L38.5207 103.787C38.587 103.142 38.7801 102.517 39.0889 101.947C39.3976 101.377 39.8159 100.875 40.3195 100.468C40.8232 100.062 41.4022 99.759 42.023 99.5782C42.6439 99.3973 43.2944 99.3417 43.9369 99.4144C44.5793 99.4872 45.201 99.6869 45.7661 100.002C46.3311 100.317 46.8283 100.742 47.2288 101.251C47.6294 101.759 47.9253 102.343 48.0997 102.967C48.274 103.592 48.3232 104.245 48.2444 104.888L48.5788 113.75C48.5884 114.004 48.5433 114.256 48.4466 114.491C48.3499 114.726 48.204 114.937 48.0186 115.11C47.8333 115.283 47.6129 115.414 47.3726 115.494C47.1322 115.574 46.8775 115.601 46.6258 115.573L46.6245 115.572Z" fill="#5ACCF9"/>
<path d="M58.5623 145.998C57.3786 146.005 56.2177 145.672 55.2168 145.038C51.5499 142.74 47.3866 143.654 45.2308 144.403C45.0168 144.478 44.7887 144.503 44.5635 144.478C44.3382 144.452 44.1217 144.376 43.9301 144.254C43.7407 144.135 43.5807 143.974 43.462 143.784C43.3433 143.594 43.2691 143.379 43.2448 143.156L39.3249 108.043C38.668 102.159 42.2017 96.6278 47.7274 94.8902C47.9351 94.8248 48.1461 94.763 48.3606 94.7047C50.0801 94.2372 51.8809 94.1533 53.6363 94.4588C55.3916 94.7644 57.0589 95.452 58.5207 96.4733C60.0098 97.5058 61.2552 98.8531 62.1691 100.42C63.083 101.987 63.6434 103.737 63.8106 105.544L67.1111 140.894C67.1336 141.122 67.1028 141.353 67.0212 141.568C66.9395 141.783 66.8092 141.976 66.6406 142.132C65.4832 143.205 62.1251 145.998 58.5623 145.998Z" fill="#5AB8F9"/>
<path d="M67.0751 142.626C67.4384 142.305 67.7271 141.908 67.921 141.464C68.1149 141.019 68.2092 140.537 68.1972 140.052C68.1853 139.567 68.0675 139.09 67.852 138.655C67.6365 138.221 67.3286 137.839 66.95 137.537L64.7705 108.845L58.3645 110.292L62.1239 138.233C61.659 138.904 61.456 139.723 61.5533 140.535C61.6507 141.346 62.0416 142.094 62.6519 142.636C63.2623 143.177 64.0497 143.475 64.8648 143.474C65.6798 143.472 66.4659 143.17 67.0739 142.626H67.0751Z" fill="#A0616A"/>
<path d="M55.9089 113.769C55.7235 113.596 55.5775 113.385 55.4808 113.15C55.3841 112.916 55.339 112.663 55.3487 112.409L55.683 103.548C55.6109 102.907 55.6653 102.259 55.843 101.64C56.0208 101.021 56.3184 100.443 56.7189 99.9387C57.1194 99.4348 57.6149 99.015 58.1772 98.7032C58.7395 98.3913 59.3575 98.1936 59.9959 98.1213C60.6344 98.049 61.2808 98.1035 61.8983 98.2818C62.5158 98.46 63.0922 98.7585 63.5946 99.1601C64.0971 99.5618 64.5157 100.059 64.8266 100.623C65.1376 101.187 65.3347 101.806 65.4068 102.447L67.6581 111.052C67.7224 111.298 67.7331 111.554 67.6895 111.804C67.646 112.054 67.5492 112.292 67.4058 112.501C67.2623 112.711 67.0756 112.886 66.8583 113.017C66.641 113.147 66.3983 113.229 66.1466 113.257L57.3029 114.232C57.0512 114.26 56.7964 114.233 56.5561 114.153C56.3157 114.073 56.0953 113.942 55.9101 113.768L55.9089 113.769Z" fill="#5ACCF9"/>
<path d="M50.981 91.7026C50.8461 91.7025 50.7117 91.6869 50.5804 91.6559L50.5419 91.6466C43.8879 90.6268 42.4171 86.7602 42.0945 85.1462C41.7604 83.4749 42.1407 81.8618 43.0004 81.235C42.5317 79.7517 42.6069 78.4349 43.2244 77.3221C44.3029 75.3814 46.639 74.7262 46.953 74.6446C48.8197 73.2636 51.0531 74.1854 51.4595 74.3724C55.0707 73.0327 56.4515 74.1477 56.7004 74.3968C58.3145 74.6876 59.2984 75.3127 59.625 76.2559C60.2385 78.027 58.2985 80.2301 58.2156 80.3231L58.1724 80.3713L55.2821 80.5094C55.0078 80.5226 54.7393 80.5934 54.4941 80.7172C54.2489 80.8411 54.0324 81.0153 53.8586 81.2285C53.6848 81.4417 53.5577 81.6892 53.4854 81.9549C53.4131 82.2205 53.3973 82.4985 53.4391 82.7706C53.5173 83.1218 53.616 83.468 53.7349 83.8074C54.2279 85.3544 54.5977 86.6762 54.1213 87.1787C54.0132 87.2759 53.88 87.3406 53.737 87.3655C53.5939 87.3903 53.4468 87.3743 53.3124 87.3193C52.8604 87.1981 52.5538 87.2235 52.4009 87.395C52.1637 87.6604 52.2361 88.3329 52.6049 89.2878C52.7206 89.5898 52.7518 89.9178 52.695 90.2363C52.6382 90.5548 52.4956 90.8517 52.2826 91.0947C52.1222 91.2844 51.9228 91.4369 51.698 91.5419C51.4732 91.6468 51.2283 91.7016 50.9804 91.7026H50.981Z" fill="#2F2E41"/>
</g>
<defs>
<clipPath id="clip0">
<rect width="247" height="200" fill="white"/>
</clipPath>
</defs>
</svg>
