<svg height="512" viewBox="0 0 512 512" width="512" xmlns="http://www.w3.org/2000/svg"><g id="Filled_outline" data-name="Filled outline"><path d="m391.995 304-55.995-7.999v-64h-80v64l-56 12v51.999h192z" fill="#fec9a3"/><path d="m336 262.779v-38.779h-80v38.779a91.369 91.369 0 0 0 80 0z" fill="#feb784"/><path d="m448 496v-142.37a48 48 0 0 0 -41.212-47.518l-70.788-10.112-17.143 48h-45.714l-17.143-48-56 12v188z" fill="#e0e0de"/><path d="m448 353.63v142.37h-248v-112l-59.87 88.54a32.467 32.467 0 0 1 -57.32-30.2l47.43-94.84a64 64 0 0 1 43.83-33.94l81.93-17.56 40 112 40-112 70.79 10.11a47.96 47.96 0 0 1 41.21 47.52z" fill="#3c5174"/><path d="m448 353.63v142.37h-248v-19.7c88.47-35.65 162.85-74.86 225.05-163.63a48.01 48.01 0 0 1 22.95 40.96z" fill="#354766"/><g fill="#2e3e51"><path d="m288 408h16v88h-16z"/><path d="m320 424h72v16h-72z"/><path d="m200 424h72v16h-72z"/><path d="m384 384h16v112h-16z"/></g><path d="m225.871 302.456 6.129 73.544 43.661-24.949-19.661-71.051z" fill="#49648e"/><path d="m316.339 351.051 43.661 24.949 6.306-75.671-30.306-20.329z" fill="#49648e"/><path d="m216.4 128h-.4a24 24 0 0 0 0 48h8.48l-.48-48z" fill="#feb784"/><path d="m376 128h-8v48h8a24 24 0 1 0 0-48z" fill="#feb784"/><path d="m368 120v56a129.8 129.8 0 0 1 -3.88 31.52 64.008 64.008 0 0 1 -62.09 48.48h-12.06c-1.64 0-3.26-.06-4.87-.19a63.99 63.99 0 0 1 -57.22-48.29 129.475 129.475 0 0 1 -3.88-31.52v-56a72.006 72.006 0 0 1 62.14-71.32h.01a72 72 0 0 1 81.85 71.32z" fill="#fec9a3"/><path d="m368 120v56a129.8 129.8 0 0 1 -3.88 31.52 64.008 64.008 0 0 1 -62.09 48.48h-12.06c-1.64 0-3.26-.06-4.87-.19a88 88 0 0 0 50.9-79.81v-48a88.141 88.141 0 0 0 -49.85-79.32 72 72 0 0 1 81.85 71.32z" fill="#fec093"/><path d="m261.8 89.157a174.36 174.36 0 0 0 68.4 0l5.8-1.157 32 37.333v-5.333a72 72 0 0 0 -144 0v5.331l32-37.331z" fill="#7a432a"/><path d="m112 488a32 32 0 0 1 -32-32v-128h64v128a32 32 0 0 1 -32 32z" fill="#49648e"/><path d="m64 168v32h48v32h-48a25.887 25.887 0 0 0 14.311 23.155l33.689 16.845v120c0 13 9.731 24.644 22.709 25.324a24 24 0 0 0 25.291-23.966v-225.358z" fill="#f35244"/><path d="m160 120h-56v48h-40v-48a40 40 0 0 1 40-40h16a40.015 40.015 0 0 1 40 40z" fill="#e0e0de"/><path d="m64 200h48v32h-48z" fill="#d6d6d4"/><path d="m160 120h-56v48h-40v-13.7l70.02-71.77a40.057 40.057 0 0 1 25.98 37.47z" fill="#d6d6d4"/><path d="m96 264 16 8v120c0 13 9.731 24.644 22.709 25.324a24 24 0 0 0 25.291-23.966v-193.358z" fill="#ea4a3b"/><path d="m112 328h48v40h-48z" fill="#de4132"/><rect fill="#fec9a3" height="80" rx="16" width="80" x="80" y="272"/><path d="m144 272h-32a16 16 0 0 1 16 16v48a16 16 0 0 1 -16 16h32a16 16 0 0 0 16-16v-48a16 16 0 0 0 -16-16z" fill="#fec093"/><path d="m379.542 111.8a24.289 24.289 0 0 1 -28.27 23.86l-21.94-3.66a192.325 192.325 0 0 0 -63.12 0l-21.94 3.66a24.247 24.247 0 0 1 -26.5-32.92h160a24.361 24.361 0 0 1 1.77 9.06z" fill="#49648e"/><path d="m377.772 70.737v32h-160v-32a48 48 0 0 1 48-48h64a47.982 47.982 0 0 1 15.18 2.46c.89.3 1.77.62 2.63.97a47.98 47.98 0 0 1 30.19 44.57z" fill="#425b82"/><path d="m377.772 70.737v32h-136c48-16 81.59-44.03 105.81-76.57a47.98 47.98 0 0 1 30.19 44.57z" fill="#3c5174"/><path d="m379.542 111.8a24.289 24.289 0 0 1 -28.27 23.86l-21.94-3.66a191.346 191.346 0 0 0 -20.52-2.29c16.84-7.09 30.66-15.9 40.81-26.97h28.15a24.361 24.361 0 0 1 1.77 9.06z" fill="#425b82"/><path d="m272 64h48v16h-48z" fill="#e0e0de"/><path d="m304 64h16v16h-16z" fill="#d6d6d4"/><path d="m272 80h48v16h-48z" fill="#3c5174"/><path d="m407.913 298.158-38.687-5.5-25.226-16.925v-25.305q1.143-.828 2.256-1.7a72.094 72.094 0 0 0 25.574-39.228 134.155 134.155 0 0 0 3.932-25.5h.238a32 32 0 0 0 8.712-62.785 31.856 31.856 0 0 0 -.712-18.609v-30.606a56 56 0 0 0 -56-56h-64a56 56 0 0 0 -56 56v30.606a31.856 31.856 0 0 0 -.712 18.609 32 32 0 0 0 8.712 62.785h.238a133.977 133.977 0 0 0 3.921 25.46 71.877 71.877 0 0 0 27.841 41.049v25.475l-25.542 19.038s-53 11.357-54.458 11.766v-138.788a8 8 0 0 0 -8-8h-48v-32h48a8 8 0 0 0 8-8 48.055 48.055 0 0 0 -48-48h-16a48.055 48.055 0 0 0 -48 48v112a33.47 33.47 0 0 0 18.735 30.272l9.556 4.789a24.015 24.015 0 0 0 -12.291 20.939v168a39.995 39.995 0 0 0 75.124 19.123l44.876-65.343v86.22h16v-56h64v-16h-64v-40a8 8 0 0 0 -14.595-4.529l-41.405 60.289v-18.69a32.026 32.026 0 0 0 16-27.71v-69.736c2.51-.937 50.655-11.429 50.655-11.429l5.372 64.47a8 8 0 0 0 11.942 6.281l35.385-20.221 16.646 46.66v86.615h16v-86.615l16.646-46.66 35.385 20.221a8 8 0 0 0 11.942-6.281l5.6-67.224 32.073 4.559a40.292 40.292 0 0 1 34.354 39.6v142.4h16v-142.4a56.39 56.39 0 0 0 -48.087-55.442zm-335.913-178.158a32.036 32.036 0 0 1 32-32h16a32.054 32.054 0 0 1 30.987 24h-46.987a8 8 0 0 0 -8 8v40h-24zm0 88h32v16h-32zm1.856 32h38.144a8 8 0 0 0 8-8v-32a8 8 0 0 0 -8-8h-40v-16h80v89.376a23.889 23.889 0 0 0 -8-1.376h-30.107l-32.047-16.061a17.487 17.487 0 0 1 -7.99-7.939zm14.144 48a8.009 8.009 0 0 1 8-8h48a8.009 8.009 0 0 1 8 8v48a8.009 8.009 0 0 1 -8 8h-48a8.009 8.009 0 0 1 -8-8zm24 192a24.028 24.028 0 0 1 -24-24v-97.376c2.5.888 16 1.376 16 1.376v32c0 17.461 13.582 32.42 30.33 33.351q.819.039 1.632.039h.038v30.61a24.028 24.028 0 0 1 -24 24zm29.282-71.524a15.662 15.662 0 0 1 -6.119.9c-8.363-.468-15.163-8.261-15.163-17.376v-32h24a23.889 23.889 0 0 0 8-1.376v34.736a16.005 16.005 0 0 1 -10.718 15.116zm187.598-283.106a199.584 199.584 0 0 0 -65.76 0l-21.94 3.656a16.277 16.277 0 0 1 -18.905-17.026h147.45a16.277 16.277 0 0 1 -18.905 17.026zm63.12 26.63a16.035 16.035 0 0 1 -16 16v-31.9c.032-.032.066-.061.1-.092a16.015 16.015 0 0 1 15.9 15.992zm-168-80a40 40 0 0 1 40-40h64a40 40 0 0 1 40 40v24h-144zm-19.3 91.3a15.983 15.983 0 0 1 11.22-27.3l.08.082v31.918a16.108 16.108 0 0 1 -11.3-4.7zm30.974 42.235a119.3 119.3 0 0 1 -3.674-29.535v-31.384a32.535 32.535 0 0 0 11.811.193l4.891-.816a12 12 0 1 0 20.713-3.413 183.523 183.523 0 0 1 53.17 0 12 12 0 1 0 20.715 3.414c5.2.866 11.541 1.72 16.752.625-.643 10.344-.052 20.981-.052 31.381a119.329 119.329 0 0 1 -3.676 29.56 56.173 56.173 0 0 1 -54.324 42.44h-12a55.928 55.928 0 0 1 -54.33-42.462zm54.326 58.465h12a72.048 72.048 0 0 0 26-4.882v19.8l-15.8 57.082h-32.4l-15.8-57.086v-19.759a71.974 71.974 0 0 0 26 4.845zm17.484 88-11.484 32.191-11.484-32.191zm-68.554 10.826-4.718-56.609 17.2-12.817 14.885 53.79zm114.14 0-27.362-15.636 15.045-54.369 17.189 11.532z"/><path d="m384 424h-64v16h64v56h16v-112h-16z"/><path d="m330.713 199.526-5.426-15.052a119.979 119.979 0 0 1 -40.166 6.526h-13.121v16h13.121c16.261 0 32.025-2.584 45.592-7.474z"/><path d="m272 64h48v16h-48z"/></g></svg>