<svg height="512" viewBox="0 0 512 512" width="512" xmlns="http://www.w3.org/2000/svg"><g id="filled_outline" data-name="filled outline"><path d="m48 296h416v192h-416z" fill="#fbb540"/><path d="m48 360h416v64h-416z" fill="#ea9d2d"/><path d="m112 216h40v80h-40z" fill="#683b0d"/><path d="m96 54 2.213 1.475a55.3 55.3 0 0 1 21.787 28.525 55.3 55.3 0 0 1 21.787-28.525l2.213-1.475-2.213-1.475a55.3 55.3 0 0 1 -21.787-28.525 55.3 55.3 0 0 1 -21.787 28.525z" fill="#fbb540"/><path d="m48 106 2.213 1.475a55.3 55.3 0 0 1 21.787 28.525 55.3 55.3 0 0 1 21.787-28.525l2.213-1.475-2.213-1.475a55.3 55.3 0 0 1 -21.787-28.525 55.3 55.3 0 0 1 -21.787 28.525z" fill="#fbb540"/><path d="m232.758 60.379-8.758-4.379v30.111a16 16 0 0 1 -23.155 14.311 16 16 0 0 1 -8.845-14.311v-30.111l-8.758 4.379a42.046 42.046 0 0 0 -23.242 37.606 42.048 42.048 0 0 0 8.409 25.227l15.591 20.788v152h48v-152l15.591-20.788a42.048 42.048 0 0 0 8.409-25.227 42.046 42.046 0 0 0 -23.242-37.606z" fill="#cbcbcb"/><path d="m104 168h48v48h-48z" fill="#0bafea"/><path d="m40 168h32v48h-32z" fill="#0bafea"/><path d="m104 176-32-8v48l32-8z" fill="#0a9acd"/><path d="m152 176h32l24 48h-14.111a28.944 28.944 0 0 1 -25.889-16h-16z" fill="#0a9acd"/><g fill="#c38325"><path d="m88 336h-8a8 8 0 0 1 0-16h8a8 8 0 0 1 0 16z"/><path d="m88 400h-8a8 8 0 0 1 0-16h8a8 8 0 0 1 0 16z"/><path d="m88 464h-8a8 8 0 0 1 0-16h8a8 8 0 0 1 0 16z"/></g><circle cx="376" cy="392" fill="#0a9acd" r="96"/><path d="m328 376h96v64h-96z" fill="#eaeae8"/><path d="m376 336-48 40h96z" fill="#d32b39"/><path d="m360 408h32v32h-32z" fill="#d32b39"/><path d="m312 128a48 48 0 0 0 -24 89.562v78.438h48v-78.438a48 48 0 0 0 -24-89.562zm8.944 63.492h-17.888l-8.945-15.492 8.945-15.492h17.888l8.945 15.492z" fill="#d32b39"/><path d="m392 56-8 32 8 24v104h32v-104l8-24-8-32z" fill="#cbcbcb"/><path d="m432 88h-48l8-32h32z" fill="#eaeae8"/><rect fill="#02a437" height="32" rx="16" width="80" x="368" y="216"/><path d="m384 248h48v48h-48z" fill="#02a437"/><path d="m384 248h48v16h-48z" fill="#027e2a"/><path d="m112 216h40v16h-40z" fill="#533222"/><path d="m91.562 60.656 2.213 1.476a47.533 47.533 0 0 1 18.636 24.4 8 8 0 0 0 15.178 0 47.53 47.53 0 0 1 18.637-24.4l2.212-1.476a8 8 0 0 0 0-13.312l-2.213-1.476a47.533 47.533 0 0 1 -18.636-24.4 8 8 0 0 0 -15.178 0 47.53 47.53 0 0 1 -18.637 24.4l-2.212 1.476a8 8 0 0 0 0 13.312zm28.438-18.756a63.763 63.763 0 0 0 10.618 12.1 63.8 63.8 0 0 0 -10.618 12.1 63.763 63.763 0 0 0 -10.618-12.1 63.8 63.8 0 0 0 10.618-12.1z"/><path d="m43.562 112.656 2.213 1.476a47.533 47.533 0 0 1 18.636 24.4 8 8 0 0 0 15.178 0 47.53 47.53 0 0 1 18.637-24.4l2.212-1.476a8 8 0 0 0 0-13.312l-2.213-1.476a47.533 47.533 0 0 1 -18.636-24.4 8 8 0 0 0 -15.178 0 47.53 47.53 0 0 1 -18.637 24.4l-2.212 1.476a8 8 0 0 0 0 13.312zm28.438-18.756a63.763 63.763 0 0 0 10.618 12.1 63.8 63.8 0 0 0 -10.618 12.1 63.763 63.763 0 0 0 -10.618-12.1 63.8 63.8 0 0 0 10.618-12.1z"/><path d="m88 320h-8a8 8 0 0 0 0 16h8a8 8 0 0 0 0-16z"/><path d="m88 384h-8a8 8 0 0 0 0 16h8a8 8 0 0 0 0-16z"/><path d="m88 448h-8a8 8 0 0 0 0 16h8a8 8 0 0 0 0-16z"/><path d="m480 392a103.426 103.426 0 0 0 -8-39.989v-56.011a8 8 0 0 0 -8-8h-24v-33.376a24 24 0 0 0 -8-46.624v-94.7l7.589-22.768a7.992 7.992 0 0 0 .172-4.47l-8-32a8 8 0 0 0 -7.761-6.062h-32a8 8 0 0 0 -7.761 6.06l-8 32a7.992 7.992 0 0 0 .172 4.47l7.589 22.77v94.7a24 24 0 0 0 -8 46.624v33.376h-32v-66.057a56 56 0 1 0 -88-45.943 55.614 55.614 0 0 0 21.988 44.475q.987.756 2.012 1.47v66.055h-40v-141.333l13.992-18.655a50.365 50.365 0 0 0 10.008-30.027 49.77 49.77 0 0 0 -27.664-44.761l-8.758-4.379a8 8 0 0 0 -11.578 7.155v30.111a8 8 0 1 1 -16 0v-30.111a8 8 0 0 0 -11.578-7.155l-8.758 4.379a49.77 49.77 0 0 0 -27.664 44.761 50.364 50.364 0 0 0 10.009 30.027l13.991 18.655v21.333h-16a8 8 0 0 0 -8-8h-48a8 8 0 0 0 -7.694 5.831l-22.366-5.592.008.01a7.974 7.974 0 0 0 -1.948-.249h-32a8 8 0 0 0 -8 8v48a8 8 0 0 0 8 8s31.7-.021 32-.055c.076-.008 24.306-5.776 24.306-5.776a8 8 0 0 0 7.694 5.831v64h-56a8 8 0 0 0 -8 8v192a8 8 0 0 0 8 8h416a8 8 0 0 0 8-8v-55.574c0-.132-.013-.259-.02-.389a103.418 103.418 0 0 0 8.02-40.037zm-192 0a88 88 0 1 1 88 88 88.1 88.1 0 0 1 -88-88zm-232-24h218.8a104.257 104.257 0 0 0 0 48h-218.8zm400-42.377a104.815 104.815 0 0 0 -24.637-21.623h24.637zm-38.246-261.623 4 16h-27.508l4-16zm-18.165 45.47-4.489-13.47h25.8l-4.49 13.47a8 8 0 0 0 -.41 2.53v96h-16v-96a8 8 0 0 0 -.411-2.53zm-15.589 114.53h48a8 8 0 0 1 0 16h-48a8 8 0 0 1 0-16zm8 32h32v32h-32zm-99.994-45.362a40.441 40.441 0 0 1 -4.293-2.868 40 40 0 1 1 64.287-31.77 40.158 40.158 0 0 1 -20.007 34.639 8 8 0 0 0 -3.993 6.923v70.438h-32v-70.438a8 8 0 0 0 -3.994-6.924zm-132.006 5.362h3.446a36.687 36.687 0 0 0 12.554 11.405v60.595h-16zm14.809-97.588a34.258 34.258 0 0 1 -6.809-20.427 33.839 33.839 0 0 1 16-28.874v17a24 24 0 0 0 48 0v-17a33.839 33.839 0 0 1 16 28.874 34.258 34.258 0 0 1 -6.809 20.427l-15.591 20.788a8 8 0 0 0 -1.6 4.8v144h-32v-56.058c.627.032 1.255.058 1.889.058h14.111a8 8 0 0 0 7.155-11.578l-23.155-46.311v-30.111a8.006 8.006 0 0 0 -1.6-4.8zm4.247 65.588 16 32h-1.167a20.832 20.832 0 0 1 -18.734-11.578 8 8 0 0 0 -7.155-4.422h-8v-16zm-67.056-8h32v32h-32zm-32 2.246 16 4v19.508l-16 4zm-16 29.754h-16v-32h16zm56 16h24v64h-24zm-64 80h264.637a104.636 104.636 0 0 0 -40.632 48h-224.005zm0 128h224.005a104.636 104.636 0 0 0 40.632 48h-264.637zm400 48h-24.637a104.815 104.815 0 0 0 24.637-21.623z"/><path d="m431.932 375.005a8.169 8.169 0 0 0 -.188-.981c-.016-.064-.031-.128-.049-.192a8.018 8.018 0 0 0 -.364-1.031c-.015-.032-.032-.064-.047-.1a8 8 0 0 0 -.476-.891c-.034-.055-.065-.111-.1-.166a7.951 7.951 0 0 0 -.64-.854c-.048-.056-.1-.108-.149-.163a8.121 8.121 0 0 0 -.763-.744c-.012-.01-.021-.022-.033-.033l-.029-.024h-.007l-47.964-39.971a8 8 0 0 0 -10.244 0l-47.964 39.971h-.007l-.029.024c-.012.011-.021.023-.033.033a8.121 8.121 0 0 0 -.763.744c-.05.055-.1.107-.149.163a7.951 7.951 0 0 0 -.64.854c-.036.055-.067.111-.1.166a8 8 0 0 0 -.476.891c-.015.032-.032.064-.047.1a8.018 8.018 0 0 0 -.364 1.031c-.018.064-.033.128-.049.192a8.169 8.169 0 0 0 -.188.981c0 .04-.013.079-.018.12a8.143 8.143 0 0 0 -.052.875v64a8 8 0 0 0 8 8h96a8 8 0 0 0 8-8v-64a8.143 8.143 0 0 0 -.05-.875c-.005-.041-.013-.08-.018-.12zm-55.932-28.591 25.9 21.586h-51.8zm-8 85.586v-16h16v16zm48 0h-16v-24a8 8 0 0 0 -8-8h-32a8 8 0 0 0 -8 8v24h-16v-48h80z"/><path d="m303.056 199.492h17.888a8 8 0 0 0 6.929-4l8.944-15.492a8 8 0 0 0 0-8l-8.944-15.492a8 8 0 0 0 -6.929-4h-17.888a8 8 0 0 0 -6.929 4l-8.944 15.492a8 8 0 0 0 0 8l8.944 15.492a8 8 0 0 0 6.929 4zm4.618-30.984h8.652l4.325 7.492-4.325 7.492h-8.652l-4.325-7.492z"/></g></svg>