<svg height="512" viewBox="0 0 64 64" width="512" xmlns="http://www.w3.org/2000/svg"><g id="Layer_7" data-name="Layer 7"><path d="m32 36v1.085a10.522 10.522 0 0 0 1.5 5.415 10.522 10.522 0 0 1 1.5 5.415v7.085a7 7 0 0 1 -7 7 7 7 0 0 1 -7-7v-7.085a10.522 10.522 0 0 1 1.5-5.415 10.522 10.522 0 0 0 1.5-5.415v-1.085" fill="#f0ae42"/><path d="m22.5 42.5a10.522 10.522 0 0 0 -1.5 5.415v7.085a7 7 0 0 0 5.5 6.835 7 7 0 0 0 5.5-6.835v-7.085a10.522 10.522 0 0 0 -1.5-5.415 10.522 10.522 0 0 1 -1.5-5.415v-1.085h-5v1.085a10.522 10.522 0 0 1 -1.5 5.415z" fill="#f6b940"/><rect fill="#fbe1ca" height="16" rx="2" width="44" x="6" y="2"/><path d="m8 2a2 2 0 0 0 -2 2v10h38a2 2 0 0 0 2-2v-10z" fill="#fcece0"/><path d="m50 4h2a2 2 0 0 1 2 2v8a2 2 0 0 1 -2 2h-2" fill="#f0ae42"/><rect fill="#d5883e" height="4" rx="2" width="12" x="22" y="32"/><path d="m29 32h-2v-4.171a4 4 0 0 1 3.766-3.993l27.411-1.612a3 3 0 0 0 2.823-3v-5.224a3 3 0 0 0 -3-3h-4v-2h4a5.006 5.006 0 0 1 5 5v5.229a5.005 5.005 0 0 1 -4.706 4.991l-27.411 1.612a2 2 0 0 0 -1.883 2z" fill="#c8cded"/><path d="m6 6h-2a2 2 0 0 0 -2 2v4a2 2 0 0 0 2 2h2" fill="#f0ae42"/><circle cx="28" cy="55" fill="#d5883e" r="3"/><path d="m8 18v6a3 3 0 0 0 3 3 3 3 0 0 0 3-3 2 2 0 0 1 2-2 2 2 0 0 1 2 2v2a3 3 0 0 0 3 3 3 3 0 0 0 3-3v-8" fill="#5e87ca"/><rect fill="#78a0d4" height="10" rx="2" width="4" x="9" y="31"/><path d="m58 9h-3v-3a3 3 0 0 0 -3-3h-1.184a3 3 0 0 0 -2.816-2h-40a3 3 0 0 0 -3 3v1h-1a3 3 0 0 0 -3 3v4a3 3 0 0 0 3 3h1v1a3 3 0 0 0 2 2.816v5.184a4 4 0 0 0 8 0 1 1 0 0 1 2 0v2a4 4 0 0 0 8 0v-7h23a3 3 0 0 0 2.816-2h1.184a3 3 0 0 0 3-3v-3h3a3 3 0 0 1 3 3v5.229a3 3 0 0 1 -2.823 3l-27.411 1.607a4 4 0 0 0 -3.766 3.993v3.171h-3a2.993 2.993 0 0 0 -1 5.816v.268a9.535 9.535 0 0 1 -1.357 4.9 11.527 11.527 0 0 0 -1.643 5.932v7.084a8 8 0 0 0 16 0v-7.084a11.527 11.527 0 0 0 -1.643-5.931 9.535 9.535 0 0 1 -1.357-4.901v-.268a2.993 2.993 0 0 0 -1-5.816h-3v-3.171a2 2 0 0 1 1.883-2l27.411-1.609a5.005 5.005 0 0 0 4.706-4.991v-5.229a5.006 5.006 0 0 0 -5-5zm-54 4a1 1 0 0 1 -1-1v-4a1 1 0 0 1 1-1h1v6zm19 13a2 2 0 0 1 -4 0v-2a3 3 0 0 0 -6 0 2 2 0 0 1 -4 0v-5h14zm26-10a1 1 0 0 1 -1 1h-40a1 1 0 0 1 -1-1v-12a1 1 0 0 1 1-1h40a1 1 0 0 1 1 1zm4-2a1 1 0 0 1 -1 1h-1v-10h1a1 1 0 0 1 1 1zm-19 33.916v7.084a6 6 0 0 1 -12 0v-7.084a9.535 9.535 0 0 1 1.357-4.9 11.527 11.527 0 0 0 1.643-5.932v-.084h6v.084a11.527 11.527 0 0 0 1.643 5.931 9.535 9.535 0 0 1 1.357 4.901zm-1-13.916a1 1 0 0 1 -1 1h-8a1 1 0 0 1 0-2h8a1 1 0 0 1 1 1z"/><path d="m28 51a4 4 0 1 0 4 4 4 4 0 0 0 -4-4zm0 6a2 2 0 1 1 2-2 2 2 0 0 1 -2 2z"/><path d="m11 30a3 3 0 0 0 -3 3v6a3 3 0 0 0 6 0v-6a3 3 0 0 0 -3-3zm1 9a1 1 0 0 1 -2 0v-6a1 1 0 0 1 2 0z"/></g></svg>