<svg width="323" height="71" viewBox="0 0 323 71" fill="none" xmlns="http://www.w3.org/2000/svg">
<g filter="url(#filter0_i)">
<path d="M91.9439 11.1757C91.9439 11.1757 84.637 0 65.7313 0C46.8257 0 42.6877 6.56082 33.8656 15.4368C25.0434 24.305 0 48.9947 0 48.9947H35.8192L27.5816 40.8033L52.1405 16.1521C52.1405 16.1521 60.7934 5.5917 74.315 5.89166C87.8366 6.19932 91.9439 11.1757 91.9439 11.1757Z" fill="#5ACCF9"/>
<path d="M11.2607 59.8243C11.2607 59.8243 18.5676 71.0001 37.4733 71.0001C56.3789 71.0001 60.5169 64.4392 69.339 55.5633C78.1612 46.695 103.205 22.0054 103.205 22.0054H67.3854L75.623 30.1968L51.0641 54.848C51.0641 54.848 42.4112 65.4084 28.8896 65.1084C15.368 64.8007 11.2607 59.8243 11.2607 59.8243Z" fill="#01304E"/>
</g>
<path d="M135.757 30.2048V33.6278H130.531V48.795H126.227V33.6278H121V30.2048H135.757Z" fill="#01304E"/>
<path d="M155.125 41.9083V48.795H150.821V30.2048H156.868C158.22 30.2048 159.368 30.3483 160.311 30.6148C161.254 30.8812 162.033 31.2707 162.627 31.7626C163.222 32.2545 163.672 32.8489 163.939 33.5048C164.205 34.1811 164.349 34.8985 164.349 35.6979C164.349 36.2923 164.267 36.8662 164.103 37.3991C163.939 37.932 163.693 38.4239 163.385 38.8953C163.058 39.3462 162.668 39.7561 162.217 40.1046C161.746 40.453 161.213 40.7605 160.618 40.9859C160.905 41.1294 161.172 41.3139 161.438 41.5188C161.684 41.7238 161.91 41.9902 162.094 42.2977L166.05 48.7745H162.135C161.418 48.7745 160.885 48.5081 160.578 47.9547L157.483 42.5641C157.339 42.3182 157.196 42.1542 157.011 42.0517C156.827 41.9492 156.581 41.9083 156.232 41.9083H155.125ZM155.125 38.9363H156.868C157.462 38.9363 157.954 38.8543 158.364 38.7108C158.774 38.5673 159.122 38.3624 159.368 38.0959C159.635 37.8295 159.819 37.522 159.942 37.1736C160.065 36.8251 160.127 36.4357 160.127 36.0258C160.127 35.206 159.86 34.5706 159.327 34.1197C158.794 33.6687 157.974 33.4228 156.868 33.4228H155.125V38.9363Z" fill="#01304E"/>
<path d="M198.354 48.795H195.013C194.644 48.795 194.336 48.713 194.09 48.5286C193.844 48.3441 193.681 48.1391 193.578 47.8522L192.471 44.6138H185.421L184.314 47.8522C184.232 48.0981 184.068 48.3031 183.822 48.4876C183.576 48.6721 183.268 48.7745 182.92 48.7745H179.559L186.753 30.1844H191.159L198.354 48.795ZM186.425 41.6828H191.508L189.807 36.5998C189.704 36.2718 189.561 35.9029 189.417 35.452C189.274 35.0215 189.13 34.5297 188.987 34.0377C188.843 34.5502 188.72 35.0421 188.556 35.4725C188.413 35.9234 188.27 36.2923 188.147 36.6202L186.425 41.6828Z" fill="#01304E"/>
<path d="M215.876 30.2255C215.999 30.246 216.122 30.2665 216.225 30.328C216.327 30.369 216.43 30.451 216.512 30.5329C216.614 30.6149 216.717 30.7379 216.84 30.8814L225.674 42.0518C225.633 41.7034 225.612 41.355 225.592 41.0065C225.571 40.6786 225.571 40.3506 225.571 40.0637V30.2255H229.383V48.8156H227.129C226.801 48.8156 226.514 48.7746 226.288 48.6721C226.063 48.5696 225.838 48.3852 225.633 48.1187L216.86 37.0508C216.881 37.3787 216.901 37.6861 216.922 37.9935C216.942 38.301 216.942 38.588 216.942 38.8749V48.8361H213.13V30.246H215.405C215.589 30.205 215.753 30.205 215.876 30.2255Z" fill="#01304E"/>
<path d="M262.998 48.795H259.657C259.288 48.795 258.981 48.713 258.735 48.5286C258.489 48.3441 258.325 48.1391 258.223 47.8522L257.116 44.6138H250.045L248.938 47.8522C248.856 48.0981 248.692 48.3031 248.446 48.4876C248.2 48.6721 247.892 48.7745 247.544 48.7745H244.183L251.377 30.1844H255.784L262.998 48.795ZM251.069 41.6828H256.152L254.451 36.5998C254.349 36.2718 254.205 35.9029 254.062 35.452C253.918 35.0215 253.775 34.5297 253.631 34.0377C253.488 34.5502 253.365 35.0421 253.201 35.4725C253.057 35.9234 252.914 36.2923 252.791 36.6202L251.069 41.6828Z" fill="#01304E"/>
<path d="M282.101 41.9083V48.795H277.796V30.2048H283.843C285.196 30.2048 286.323 30.3483 287.286 30.6148C288.229 30.8812 289.008 31.2707 289.602 31.7626C290.197 32.2545 290.648 32.8489 290.914 33.5048C291.18 34.1811 291.324 34.8985 291.324 35.6979C291.324 36.2923 291.242 36.8662 291.078 37.3991C290.914 37.932 290.668 38.4239 290.361 38.8953C290.033 39.3462 289.643 39.7561 289.192 40.1046C288.721 40.453 288.188 40.7605 287.594 40.9859C287.881 41.1294 288.147 41.3139 288.413 41.5188C288.659 41.7238 288.885 41.9902 289.069 42.2977L293.025 48.7745H289.11C288.393 48.7745 287.86 48.5081 287.553 47.9547L284.458 42.5641C284.314 42.3182 284.171 42.1542 283.986 42.0517C283.802 41.9492 283.556 41.9083 283.207 41.9083H282.101ZM282.101 38.9363H283.843C284.437 38.9363 284.929 38.8543 285.339 38.7108C285.749 38.5673 286.097 38.3624 286.343 38.0959C286.61 37.8295 286.794 37.522 286.917 37.1736C287.04 36.8251 287.102 36.4357 287.102 36.0258C287.102 35.206 286.835 34.5706 286.302 34.1197C285.769 33.6687 284.95 33.4228 283.843 33.4228H282.101V38.9363Z" fill="#01304E"/>
<path d="M319.874 43.9784C319.977 43.9784 320.079 43.9989 320.182 44.0399C320.284 44.0809 320.387 44.1424 320.469 44.2448L322.17 46.0485C321.411 47.0323 320.489 47.7702 319.362 48.2621C318.234 48.754 316.902 49 315.365 49C313.951 49 312.68 48.754 311.573 48.2826C310.446 47.8112 309.503 47.1348 308.724 46.2945C307.945 45.4541 307.351 44.4498 306.941 43.2815C306.531 42.1133 306.306 40.863 306.306 39.4897C306.306 38.096 306.552 36.8253 307.023 35.6775C307.494 34.5092 308.171 33.5048 309.011 32.6645C309.872 31.8242 310.897 31.1683 312.086 30.6969C313.274 30.2255 314.586 30 316.021 30C316.718 30 317.374 30.0615 317.988 30.1845C318.603 30.3075 319.177 30.4714 319.71 30.6969C320.243 30.9224 320.735 31.1683 321.186 31.4758C321.637 31.7832 322.047 32.1111 322.395 32.4801L320.94 34.4272C320.837 34.5502 320.735 34.6527 320.612 34.7552C320.489 34.8576 320.305 34.8986 320.079 34.8986C319.936 34.8986 319.772 34.8576 319.649 34.7961C319.505 34.7346 319.362 34.6527 319.218 34.5502C319.075 34.4477 318.89 34.3452 318.706 34.2222C318.521 34.0993 318.296 33.9968 318.05 33.8943C317.804 33.7918 317.497 33.7098 317.169 33.6483C316.841 33.5868 316.431 33.5458 315.98 33.5458C315.201 33.5458 314.484 33.6893 313.828 33.9558C313.172 34.2222 312.618 34.6322 312.168 35.1446C311.696 35.657 311.348 36.2924 311.081 37.0097C310.815 37.7476 310.692 38.5674 310.692 39.4693C310.692 40.4121 310.815 41.2729 311.081 42.0108C311.348 42.7486 311.696 43.384 312.147 43.876C312.598 44.3884 313.11 44.7573 313.705 45.0237C314.299 45.2902 314.935 45.4132 315.611 45.4132C316 45.4132 316.369 45.3927 316.677 45.3517C317.005 45.3107 317.292 45.2492 317.579 45.1467C317.845 45.0442 318.111 44.9417 318.378 44.7778C318.624 44.6343 318.89 44.4498 319.136 44.2244C319.239 44.1424 319.341 44.0604 319.464 44.0194C319.628 43.9989 319.751 43.9784 319.874 43.9784Z" fill="#01304E"/>
<defs>
<filter id="filter0_i" x="0" y="0" width="103.205" height="75.0001" filterUnits="userSpaceOnUse" color-interpolation-filters="sRGB">
<feFlood flood-opacity="0" result="BackgroundImageFix"/>
<feBlend mode="normal" in="SourceGraphic" in2="BackgroundImageFix" result="shape"/>
<feColorMatrix in="SourceAlpha" type="matrix" values="0 0 0 0 0 0 0 0 0 0 0 0 0 0 0 0 0 0 127 0" result="hardAlpha"/>
<feOffset dy="4"/>
<feGaussianBlur stdDeviation="2"/>
<feComposite in2="hardAlpha" operator="arithmetic" k2="-1" k3="1"/>
<feColorMatrix type="matrix" values="0 0 0 0 0 0 0 0 0 0 0 0 0 0 0 0 0 0 0.25 0"/>
<feBlend mode="normal" in2="shape" result="effect1_innerShadow"/>
</filter>
</defs>
</svg>
