<svg width="414" height="400" viewBox="0 0 414 400" fill="none" xmlns="http://www.w3.org/2000/svg">
<path fill-rule="evenodd" clip-rule="evenodd" d="M270.714 308.275C328.836 350.899 462.023 353.91 501.441 409.731C546.242 473.178 514.293 591.634 501.44 635.021C488.693 678.053 417.139 663.982 364.137 666.108C320.271 667.868 276.643 673.726 221.08 646.268C168.415 620.241 126.65 565.183 76.9133 524.166C20.5805 477.708 -55.6494 446.443 -89.251 390.341C-122.711 334.476 -82.9958 306.978 -78.7083 264.336C-74.1668 219.168 -109.334 140.748 -63.4139 133.374C-16.8738 125.9 13.0016 230.881 76.9133 264.336C127.173 290.645 221.775 272.384 270.714 308.275Z" fill="url(#paint0_linear)" fill-opacity="0.7"/>
<defs>
<linearGradient id="paint0_linear" x1="282.934" y1="310.872" x2="72.8096" y2="544.947" gradientUnits="userSpaceOnUse">
<stop stop-color="#5ACCF9"/>
<stop offset="0.979167" stop-color="#01304E"/>
</linearGradient>
</defs>
</svg>
