<svg width="414" height="409" viewBox="0 0 414 409" fill="none" xmlns="http://www.w3.org/2000/svg">
    <defs>
        <linearGradient id="paint0_linear" x1="213.958" y1="311.14" x2="3.83382" y2="545.215" gradientUnits="userSpaceOnUse">
            <stop stop-color="#57839F"/>
            <stop offset="0.979167" stop-color="#A7E6FF"/>
        </linearGradient>
    </defs>
    <path fill-rule="evenodd" clip-rule="evenodd" d="M201.738 308.543C259.86 351.168 393.047 354.178 432.465 410C477.267 473.447 445.317 591.903 432.465 635.29C419.717 678.322 348.163 664.25 295.162 666.377C251.295 668.136 207.667 673.995 152.104 646.537C99.4392 620.51 57.6744 565.452 7.9375 524.434C-48.3954 477.977 -124.625 446.712 -158.227 390.61C-191.686 334.745 -151.972 307.246 -147.684 264.605C-143.143 219.437 -178.31 141.017 -132.39 133.643C-85.8496 126.169 -55.9742 231.15 7.93749 264.605C58.1967 290.913 152.799 272.653 201.738 308.543Z" fill="url(#paint0_linear)" fill-opacity="0.7"/>

</svg>
