<svg height="512pt" viewBox="0 0 512 512.09101" width="512pt" xmlns="http://www.w3.org/2000/svg"><path d="m298.710938 85.425781v79.785157l-2.046876 98.476562c-3.855468 22.125-12.761718 43.0625-26.027343 61.183594l-23.378907 25c-5.3125 4.457031-10.929687 8.535156-16.8125 12.203125-13.132812 8.308593-27.550781 14.394531-42.667968 18.007812h-68.265625c-65.070313-15.832031-110.886719-74.089843-110.933594-141.058593v-153.597657c.003906-42.414062 34.386719-76.796875 76.800781-76.800781h136.535156c42.414063.003906 76.792969 34.386719 76.796876 76.800781zm0 0" fill="#37474f"/><path d="m273.113281 85.425781v79.785157l-2.050781 98.476562c-3.851562 22.125-12.757812 43.0625-26.023438 61.183594l-23.382812 25c-5.3125 4.457031-10.929688 8.535156-16.8125 12.203125-13.132812 8.308593-27.550781 14.394531-42.664062 18.007812h-42.667969c-65.070313-15.832031-110.886719-74.089843-110.933594-141.058593v-153.597657c.003906-42.414062 34.386719-76.796875 76.800781-76.800781h110.933594c42.414062.003906 76.796875 34.386719 76.800781 76.800781zm0 0" fill="#607d8b"/><path d="m68.3125 76.890625h170.667969c4.710937 0 8.53125 3.820313 8.53125 8.535156v68.265625c0 4.710938-3.820313 8.53125-8.53125 8.53125h-170.667969c-4.714844 0-8.535156-3.820312-8.535156-8.53125v-68.265625c0-4.714843 3.820312-8.535156 8.535156-8.535156zm0 0" fill="#b0d3f0"/><path d="m278.714844 257.558594-13.574219 13.574218c-6.40625 6.402344-10.003906 15.082032-10.003906 24.136719 0 9.054688 3.597656 17.734375 10.003906 24.136719l12.007813 12.007812-9.867188 18.398438-14.269531 5.734375-12.007813-12.007813c-26.609375-26.679687-26.609375-69.863281 0-96.542968l28.660156-28.660156 13.3125 16.421874zm0 0" fill="#cfd8dc"/><path d="m396.078125 474.457031-24.066406 24.066407c-3.183594 3.234374-7.535157 5.054687-12.074219 5.054687s-8.886719-1.820313-12.074219-5.054687l-.683593-.769532-103.335938-103.933594c-1.59375-1.617187-2.480469-3.792968-2.476562-6.058593v-17.066407c-.023438-2.273437.871093-4.457031 2.476562-6.058593l43.945312-43.949219c1.199219-1.171875 2.710938-1.972656 4.351563-2.304688l6.316406-1.277343 16.894531-3.328125c2.785157-.589844 5.679688.277344 7.679688 2.304687l14.847656 14.847657c3.328125 3.351562 3.328125 8.761718 0 12.117187-1.589844 1.613281-2.480468 3.789063-2.472656 6.058594.027344 2.234375.910156 4.375 2.472656 5.972656l36.183594 36.179687c1.636719 1.59375 2.558594 3.777344 2.558594 6.058594 0 2.285156-.921875 4.46875-2.558594 6.058594l-5.972656 5.972656c-3.328125 3.355469-3.328125 8.765625 0 12.121094l27.988281 28.839844c3.234375 3.1875 5.054687 7.535156 5.054687 12.074218 0 4.542969-1.820312 8.890626-5.054687 12.074219zm0 0" fill="#0377bc"/><path d="m370.476562 474.457031-23.296874 23.296875-103.335938-103.933594c-1.59375-1.617187-2.480469-3.792968-2.476562-6.058593v-17.066407c-.023438-2.273437.871093-4.457031 2.476562-6.058593l43.945312-43.949219c1.199219-1.171875 2.710938-1.972656 4.351563-2.304688l6.316406-1.277343 13.824219 13.824219c3.328125 3.351562 3.328125 8.761718 0 12.117187-1.59375 1.613281-2.484375 3.789063-2.476562 6.058594.027343 2.234375.914062 4.375 2.476562 5.972656l36.179688 36.179687c1.636718 1.59375 2.5625 3.777344 2.5625 6.058594 0 2.285156-.925782 4.46875-2.5625 6.058594l-5.972657 5.972656c-3.328125 3.355469-3.328125 8.765625 0 12.121094l27.988281 28.839844c3.234376 3.1875 5.058594 7.535156 5.058594 12.074218 0 4.542969-1.824218 8.890626-5.058594 12.074219zm0 0" fill="#02a9f4"/><path d="m485.601562 10.289062c12.316407-5.65625 21.902344 3.925782 16.246094 16.242188-9.308594 19.492188-20.914062 37.796875-34.570312 54.53125-14.996094 14.996094-35.257813 19.046875-45.257813 9.054688-10-9.992188-5.945312-30.257813 9.050781-45.253907 16.734376-13.660156 35.039063-25.265625 54.53125-34.574219zm0 0" fill="#009688"/><path d="m301.441406 162.566406-.082031-.085937" fill="#e4c05c"/><path d="m415.960938 144.390625-66.304688 66.386719-17.921875-7.679688-15.957031-6.738281-4.863282-11.523437-9.472656-22.269532 1.453125-1.453125 64.851563-64.9375c3.1875-3.195312 7.519531-4.992187 12.03125-4.992187 4.515625 0 8.84375 1.796875 12.035156 4.992187l24.148438 24.148438c3.195312 3.191406 4.992187 7.519531 4.992187 12.035156 0 4.511719-1.796875 8.839844-4.992187 12.03125zm0 0" fill="#fec108"/><path d="m187.777344 273.15625v213.335938c-.027344 9.414062-7.652344 17.039062-17.066406 17.066406h-34.132813c-9.414063-.027344-17.039063-7.652344-17.066406-17.066406v-213.335938c-.023438-13.898438 8.429687-26.410156 21.332031-31.570312 4.046875-1.722657 8.40625-2.59375 12.800781-2.5625 9.054688 0 17.738281 3.59375 24.140625 9.996093 6.402344 6.402344 9.996094 15.085938 9.992188 24.136719zm0 0" fill="#dfc49c"/><path d="m162.179688 273.15625v213.335938c-.027344 9.414062-7.652344 17.039062-17.066407 17.066406h-8.535156c-9.414063-.027344-17.039063-7.652344-17.066406-17.066406v-213.335938c-.023438-13.898438 8.429687-26.410156 21.332031-31.570312 12.90625 5.160156 21.359375 17.671874 21.335938 31.570312zm0 0" fill="#ffe0b2"/><path d="m349.65625 210.777344-55.550781 55.46875c-2.183594 2.207031-5.398438 3.050781-8.382813 2.199218-2.984375-.851562-5.269531-3.265624-5.953125-6.296874l-1.792969-7.765626-11.777343-51.027343c-.699219-2.867188.179687-5.890625 2.304687-7.9375l29.183594-29.183594 3.753906-3.667969 31.832032 31.828125 3.582031 3.585938zm0 0" fill="#fdd834"/><path d="m404.609375 130.054688-66.300781 66.472656-5.035156-2.132813-22.359376-9.558593-6.484374-2.730469-6.742188-15.871094 3.753906-3.667969 1.453125-1.453125 64.851563-64.9375c3.1875-3.195312 7.519531-4.992187 12.03125-4.992187 4.515625 0 8.84375 1.796875 12.035156 4.992187l16.980469 16.980469c1.964843 5.96875.339843 12.535156-4.183594 16.898438zm0 0" fill="#ffdc00"/><path d="m338.308594 196.527344-55.46875 55.46875c-1.292969 1.339844-3.011719 2.183594-4.863282 2.386718l-11.777343-51.027343c-.699219-2.867188.179687-5.890625 2.304687-7.9375l29.183594-29.183594 3.753906-3.667969 1.453125-1.453125zm0 0" fill="#ffeb3a"/><path d="m253.011719 364.082031c-2.261719.003907-4.433594-.898437-6.03125-2.5l-12.011719-12.007812c-29.945312-30.011719-29.945312-78.597657 0-108.609375l28.65625-28.660156c2.144531-2.21875 5.316406-3.109376 8.300781-2.328126s5.3125 3.109376 6.09375 6.09375c.78125 2.984376-.109375 6.15625-2.328125 8.300782l-28.65625 28.660156c-23.292968 23.34375-23.292968 61.132812 0 84.476562l12.007813 12.007813c2.441406 2.441406 3.171875 6.109375 1.851562 9.300781-1.324219 3.1875-4.433593 5.265625-7.886719 5.265625zm0 0"/><path d="m277.144531 339.945312c-2.261719.003907-4.433593-.898437-6.03125-2.5l-12.007812-12.007812c-16.632813-16.675781-16.632813-43.664062 0-60.339844l13.574219-13.574218c3.34375-3.261719 8.6875-3.226563 11.988281.078124 3.304687 3.300782 3.339843 8.644532.078125 11.988282l-13.574219 13.578125c-9.976563 10.007812-9.976563 26.199219 0 36.203125l12.007813 12.011718c2.441406 2.4375 3.171874 6.109376 1.851562 9.296876-1.320312 3.191406-4.429688 5.269531-7.882812 5.269531zm0 0"/><path d="m359.914062 512.089844c-6.796874.019531-13.320312-2.683594-18.109374-7.503906l-104.007813-104.789063c-3.199219-3.191406-4.992187-7.53125-4.976563-12.050781v-17.066406c-.011718-4.527344 1.789063-8.875 5-12.066407l43.941407-43.945312c2.378906-2.382813 5.40625-4.003907 8.703125-4.664063l23.175781-4.632812c5.597656-1.125 11.386719.625 15.417969 4.667968l14.875 14.871094c6.65625 6.667969 6.65625 17.46875 0 24.136719l36.207031 36.203125c6.640625 6.671875 6.644531 17.453125.007813 24.125l-6.046876 6.046875 28.128907 28.914063c9.917969 10.011718 9.878906 26.15625-.085938 36.121093l-24.132812 24.132813c-4.789063 4.820312-11.304688 7.519531-18.097657 7.5zm-36.894531-196.015625-6.03125 6.03125-23.160156 4.632812-43.941406 43.945313v17.066406l104.015625 104.800781c3.378906 3.199219 8.675781 3.191407 12.042968-.023437l24.132813-24.132813c3.324219-3.335937 3.324219-8.734375 0-12.070312l-28.132813-28.917969c-6.574218-6.675781-6.542968-17.40625.074219-24.042969l6.050781-6.046875-36.210937-36.199218c-3.199219-3.203126-5-7.542969-5-12.070313s1.800781-8.867187 5-12.070313l-14.875-14.871093zm0 0"/><path d="m436.628906 104.164062c-7.679687.21875-15.125-2.671874-20.640625-8.019531-13.535156-13.53125-9.558593-38.710937 9.042969-57.320312 17.457031-14.371094 36.605469-26.558594 57.015625-36.289063 7.976563-4.296875 17.800781-3.050781 24.453125 3.101563 6.152344 6.652343 7.394531 16.476562 3.097656 24.453125-9.726562 20.410156-21.910156 39.550781-36.28125 57.003906-9.546875 10.242188-22.703125 16.367188-36.6875 17.070312zm56.007813-87.003906c-1.207031.046875-2.390625.347656-3.472657.886719-18.570312 8.890625-36.042968 19.914063-52.058593 32.851563-12.441407 12.441406-14.761719 27.476562-9.050781 33.183593 5.707031 5.707031 20.742187 3.402344 33.195312-9.050781 12.929688-16.015625 23.953125-33.484375 32.839844-52.054688 1.214844-2.636718 1.035156-4.578124.339844-5.261718-.503907-.40625-1.144532-.605469-1.792969-.554688zm0 0"/><path d="m349.613281 219.328125c-2.265625.003906-4.4375-.898437-6.035156-2.5l-48.265625-48.273437c-2.210938-2.144532-3.09375-5.3125-2.3125-8.292969s3.109375-5.304688 6.085938-6.085938c2.980468-.785156 6.148437.101563 8.292968 2.3125l48.265625 48.273438c2.441407 2.441406 3.171875 6.109375 1.851563 9.300781-1.320313 3.1875-4.433594 5.265625-7.882813 5.265625zm0 0"/><path d="m288.085938 277.3125c-7.945313.003906-14.839844-5.484375-16.625-13.226562l-13.574219-58.839844c-1.347657-5.738282.382812-11.761719 4.574219-15.90625l99.226562-99.222656c10.128906-9.671876 26.070312-9.671876 36.199219 0l24.132812 24.132812c9.984375 10.003906 9.984375 26.199219 0 36.203125l-121.855469 121.855469c-3.203124 3.203125-7.546874 5.003906-12.078124 5.003906zm91.703124-177.628906c-2.261718-.011719-4.433593.890625-6.027343 2.496094l-99.242188 99.238281 13.578125 58.832031 121.855469-121.863281c3.324219-3.335938 3.324219-8.734375 0-12.070313l-24.132813-24.132812c-1.597656-1.605469-3.769531-2.503906-6.03125-2.5zm0 0"/><path d="m119.503906 170.757812c-2.957031-.003906-5.699218-1.535156-7.253906-4.050781s-1.691406-5.65625-.371094-8.300781l42.667969-85.332031c1.363281-2.726563 4.078125-4.519531 7.121094-4.703125 3.042969-.179688 5.953125 1.273437 7.632812 3.816406 1.679688 2.546875 1.875 5.792969.511719 8.519531l-42.667969 85.335938c-1.445312 2.890625-4.40625 4.71875-7.640625 4.714843zm0 0"/><path d="m76.835938 170.757812c-2.957032-.003906-5.699219-1.535156-7.253907-4.050781-1.550781-2.515625-1.691406-5.65625-.371093-8.300781l42.667968-85.332031c1.363282-2.726563 4.078125-4.519531 7.121094-4.703125 3.042969-.179688 5.953125 1.273437 7.632812 3.816406 1.679688 2.546875 1.875 5.792969.511719 8.519531l-42.664062 85.335938c-1.449219 2.890625-4.40625 4.71875-7.644531 4.714843zm0 0"/><path d="m238.980469 170.757812h-170.667969c-9.421875-.011718-17.054688-7.644531-17.066406-17.066406v-68.265625c.011718-9.421875 7.644531-17.058593 17.066406-17.066406h170.667969c9.417969.007813 17.054687 7.644531 17.066406 17.066406v68.265625c-.011719 9.421875-7.648437 17.054688-17.066406 17.066406zm-170.667969-85.332031v68.265625h170.675781l-.007812-68.265625zm0 0"/><path d="m162.179688 315.824219c0 4.710937-3.820313 8.535156-8.535157 8.535156-4.710937 0-8.53125-3.824219-8.53125-8.535156 0-4.710938 3.820313-8.535157 8.53125-8.535157 4.714844 0 8.535157 3.824219 8.535157 8.535157zm0 0"/><path d="m286.089844 379.21875c0 4.710938-3.820313 8.53125-8.535156 8.53125-4.710938 0-8.53125-3.820312-8.53125-8.53125 0-4.714844 3.820312-8.535156 8.53125-8.535156 4.714843 0 8.535156 3.820312 8.535156 8.535156zm0 0"/><path d="m315.910156 216.828125c0 4.710937-3.820312 8.53125-8.535156 8.53125-4.710938 0-8.53125-3.820313-8.53125-8.53125 0-4.714844 3.820312-8.535156 8.53125-8.535156 4.714844 0 8.535156 3.820312 8.535156 8.535156zm0 0"/><path d="m162.179688 281.691406c0 4.710938-3.820313 8.53125-8.535157 8.53125-4.710937 0-8.53125-3.820312-8.53125-8.53125 0-4.714844 3.820313-8.535156 8.53125-8.535156 4.714844 0 8.535157 3.820312 8.535157 8.535156zm0 0"/><path d="m170.710938 512.089844h-34.132813c-14.132813-.015625-25.582031-11.46875-25.597656-25.597656v-213.335938c0-23.5625 19.101562-42.664062 42.664062-42.664062 23.566407 0 42.667969 19.101562 42.667969 42.664062v213.335938c-.015625 14.128906-11.46875 25.582031-25.601562 25.597656zm-17.066407-264.53125c-14.132812.015625-25.582031 11.46875-25.597656 25.597656v213.335938c.003906 4.710937 3.820313 8.527343 8.53125 8.53125h34.132813c4.710937-.003907 8.53125-3.820313 8.535156-8.53125v-213.335938c-.015625-14.128906-11.46875-25.582031-25.601563-25.597656zm0 0"/><path d="m119.519531 388.613281c-.679687 0-1.359375-.078125-2.023437-.242187-68.894532-16.761719-117.402344-78.445313-117.449219-149.347656v-153.597657c.0507812-47.109375 38.226563-85.28125 85.332031-85.3359372h136.535156c47.105469.0546872 85.277344 38.2265622 85.332032 85.3359372v79.785157c0 4.710937-3.820313 8.535156-8.535156 8.535156-4.710938 0-8.53125-3.824219-8.53125-8.535156v-79.785157c-.042969-37.6875-30.582032-68.226562-68.265626-68.269531h-136.535156c-37.683594.042969-68.222656 30.582031-68.265625 68.269531v153.597657c.046875 63.03125 43.171875 117.863281 104.414063 132.761718 4.203125 1.019532 6.976562 5.015625 6.464844 9.304688-.511719 4.292968-4.148438 7.523437-8.472657 7.523437zm0 0"/><path d="m187.769531 388.613281c-4.324219-.003906-7.964843-3.242187-8.46875-7.539062-.503906-4.296875 2.285157-8.289063 6.496094-9.292969 14.203125-3.390625 27.75-9.109375 40.089844-16.917969 5.558593-3.464843 10.867187-7.316406 15.882812-11.527343 3.613281-3.03125 8.996094-2.558594 12.027344 1.054687 3.027344 3.613281 2.554687 9-1.058594 12.027344-5.621093 4.710937-11.5625 9.023437-17.785156 12.902343-13.910156 8.800782-29.179687 15.238282-45.191406 19.058594-.652344.15625-1.320313.234375-1.992188.234375zm0 0"/><path d="m270.628906 333.402344c-3.210937-.007813-6.144531-1.8125-7.597656-4.675782-1.453125-2.863281-1.175781-6.296874.714844-8.890624 12.46875-17.074219 20.855468-36.78125 24.507812-57.605469.804688-4.644531 5.222656-7.753907 9.867188-6.949219 4.644531.804688 7.753906 5.222656 6.949218 9.867188-4.109374 23.40625-13.53125 45.558593-27.542968 64.753906-1.605469 2.203125-4.171875 3.503906-6.898438 3.5zm0 0"/></svg>