<svg id="Layer_1" enable-background="new 0 0 256 256" height="512" viewBox="0 0 256 256" width="512" xmlns="http://www.w3.org/2000/svg"><g><path d="m246.551 250.168h-79.045c-2.761 0-5-2.239-5-5v-181.137c0-2.761 2.239-5 5-5h79.045c2.761 0 5 2.239 5 5v181.136c0 2.762-2.238 5.001-5 5.001z" fill="#b76c6c"/><path d="m40.718 206.203-34.805-34.805c-1.953-1.953-1.953-5.118 0-7.071l29.117-29.117 38.341 38.341c1.953 1.953 1.953 5.118 0 7.071l-25.582 25.582c-1.952 1.952-5.118 1.952-7.071-.001z" fill="#b76c6c"/><path d="m161.42 31.057 29.399 1.196-2.483-2.491-23.929-23.929-129.377 129.376 29.98 29.981 24.519.982-9.144-27.98 29.408 1.188-9.145-27.98 29.408 1.188-9.162-27.964 29.416 1.197-9.144-27.98 29.399 1.196z" fill="#87828e"/><path d="m251.551 64.209v180.782c0 2.858-2.319 5.177-5.177 5.177h-15.531c2.858 0 5.177-2.319 5.177-5.177v-180.782c0-2.858-2.319-5.177-5.177-5.177h15.531c2.858-.001 5.177 2.319 5.177 5.177z" fill="#965959"/><path d="m183.215 250.168h-15.531c-2.858 0-5.177-2.319-5.177-5.177v-180.782c0-2.858 2.319-5.177 5.177-5.177h15.531c-2.858 0-5.177 2.319-5.177 5.177v180.782c0 2.857 2.319 5.177 5.177 5.177z" fill="#c98585"/><path d="m73.244 180.744-25.326 25.336c-2.029 2.019-5.301 2.019-7.32 0l-4.1-4.1 32.646-32.657 4.1 4.1c2.019 2.019 2.019 5.302 0 7.321z" fill="#965959"/><path d="m42.793 142.972-32.646 32.657-4.111-4.111c-2.019-2.019-2.019-5.291 0-7.32l28.991-28.991z" fill="#c98585"/><g fill="#796e84"><path d="m80.595 138.83 8.936 27.345-15.738-.631-8.936-27.356z"/><path d="m100.858 112.034 8.936 27.345-15.738-.642-8.936-27.335z"/><path d="m121.1 85.269 8.957 27.314-15.738-.632-8.957-27.324z"/><path d="m141.374 58.483 8.935 27.334-15.738-.641-8.935-27.335z"/><path d="m161.626 31.697 8.936 27.345-15.738-.642-8.936-27.345z"/></g><path d="m12.117 68.911h182.97v10.982h-182.97z" fill="#a4a4a5" transform="matrix(.707 -.707 .707 .707 -22.266 95.05)"/><g fill="#5f266d"><path d="m246.55 55.03h-73.08l-6.46-19.74 23.65.96c3.622.173 5.549-4.261 2.99-6.82l-26.42-26.43c-1.56-1.56-4.09-1.56-5.65 0-3.632 3.632-157.039 157.039-158.5 158.5-3.516 3.516-3.504 9.226 0 12.73l34.81 34.8c3.528 3.528 9.212 3.518 12.73 0l25.58-25.58c3.528-3.528 3.518-9.212 0-12.73l-1.12-1.12 14.29.57h.16c2.73 0 4.647-2.679 3.8-5.24l-7.35-22.51 23.65.96c2.79.106 4.83-2.609 3.96-5.24l-7.35-22.51 23.65.95c2.747.126 4.835-2.536 3.97-5.24l-7.37-22.48 23.66.96c2.791.107 4.829-2.613 3.96-5.24l-7.35-22.51 11.87.48c-.08.48-.12.98-.12 1.48v181.14c0 4.96 4.03 9 9 9h79.04c4.96 0 9-4.04 9-9v-181.14c0-4.96-4.04-9-9-9zm-176.01 122.76-25.58 25.59c-.384.384-1.018.392-1.41 0 0 0 0 0 0-.01l-34.81-34.8c-.375-.375-.401-1.009 0-1.41l26.29-26.29 35.51 35.51c.396.38.406 1.02 0 1.41zm70.79-123.95c-2.768-.125-4.824 2.592-3.97 5.24l7.36 22.51-23.66-.96c-2.745-.127-4.836 2.535-3.97 5.24l7.37 22.49-23.65-.96c-2.756-.126-4.835 2.593-3.96 5.24l7.35 22.51-23.65-.95c-2.754-.127-4.837 2.542-3.97 5.23l7.36 22.51-17.21-.69-26.04-26.04 123.72-123.72 16.35 16.35-19.18-.78c-2.752-.126-4.836 2.57-3.96 5.24l7.35 22.51zm106.22 191.33c0 .55-.45 1-1 1h-10.67v-34.93c0-5.285-8-5.293-8 0v34.93h-60.37c-.56 0-1-.45-1-1v-181.14c0-.55.44-1 1-1h12.48v65.85c0 5.285 8 5.293 8 0v-65.85h58.56c.55 0 1 .45 1 1z"/><path d="m201.73 94.86v70c0 5.281 8 5.294 8 0v-70c0-5.302-8-5.276-8 0z"/><path d="m201.73 179.86v27.28c0 5.278 8 5.294 8 0v-27.28c0-5.302-8-5.276-8 0z"/><path d="m38.79 156.89c-1.56-1.56-4.09-1.56-5.65 0l-9.08 9.08c-1.537 1.537-1.582 4.068 0 5.65l16.43 16.44c1.559 1.559 4.1 1.56 5.66 0l9.08-9.08c1.56-1.56 1.559-4.101 0-5.66zm4.53 22.68-10.78-10.77 3.42-3.42 10.78 10.77z"/></g></g></svg>