<svg id="Capa_1" enable-background="new 0 0 512 512" height="512" viewBox="0 0 512 512" width="512" xmlns="http://www.w3.org/2000/svg"><g><path d="m159.593 134.803c0 4.167-3.373 7.512-7.512 7.512s-7.484-3.345-7.484-7.512v-89.547c0-4.139 3.345-7.512 7.484-7.512h352.435c4.139 0 7.483 3.373 7.483 7.512v245.851c0 4.139-3.345 7.484-7.483 7.484h-123.677l7.172 31.635h3.345c6.435 0 12.303 2.636 16.527 6.86 4.252 4.252 6.859 10.091 6.859 16.555 0 6.435-2.607 12.274-6.859 16.526-4.224 4.224-10.092 6.86-16.527 6.86h-126.115c-6.435 0-12.274-2.637-16.526-6.86-4.224-4.252-6.859-10.091-6.859-16.526 0-6.463 2.636-12.303 6.859-16.555 4.252-4.224 10.092-6.86 16.526-6.86h3.345l7.2-31.635h-123.705c-4.139 0-7.484-3.345-7.484-7.484 0-40.451 0-80.902 0-121.352 0-4.167 3.345-7.512 7.484-7.512s7.512 3.345 7.512 7.512v82.064h337.412v-199.08h-337.412zm-128.637 155.114c-7.597-1.502-14.373-5.272-19.673-10.545-6.945-6.974-11.283-16.583-11.283-27.156v-26.278c0-4.139 3.374-7.512 7.513-7.512 4.138 0 7.483 3.373 7.483 7.512v26.278c0 6.435 2.664 12.302 6.916 16.554 2.523 2.523 5.612 4.479 9.043 5.641v-35.235c0-9.355 3.826-17.858 9.978-24.01s14.655-9.978 24.01-9.978c9.354 0 17.858 3.827 24.009 9.978 6.18 6.151 9.979 14.655 9.979 24.01v76.224h23.273c4.818 0 8.645 4.338 7.455 9.241l-11.197 46.036c-.538 3.6-3.656 6.35-7.398 6.35h-28.66c-4.139 0-7.483-3.374-7.483-7.512 0-4.139 3.345-7.484 7.483-7.484h22.791l7.682-31.635h-95.868l7.682 31.635h22.79c4.139 0 7.512 3.345 7.512 7.484 0 4.138-3.373 7.512-7.512 7.512h-28.659c-3.373 0-6.435-2.325-7.257-5.754l-11.168-46.007c-1.616-4.791 1.956-9.865 7.115-9.865h23.443v-25.484zm47.395-64.149c-3.43-3.458-8.191-5.585-13.407-5.585s-9.951 2.126-13.409 5.585c-3.43 3.458-5.584 8.192-5.584 13.408v76.224h37.985v-76.224c0-5.216-2.126-9.95-5.585-13.408zm396.147 193.921v7.115c0 4.167-3.374 7.512-7.513 7.512-4.138 0-7.483-3.345-7.483-7.512v-7.115c-5.272 1.361-9.978 4.139-13.692 7.852-5.442 5.471-8.844 12.955-8.844 21.204v10.517h60.039v-10.517c0-8.249-3.373-15.761-8.817-21.204-3.741-3.714-8.446-6.492-13.69-7.852zm-7.513-15.96c12.388 0 23.642 5.075 31.806 13.21 8.163 8.164 13.209 19.417 13.209 31.805v18c0 4.139-3.345 7.512-7.483 7.512h-75.034c-4.139 0-7.512-3.373-7.512-7.512v-18c0-12.388 5.074-23.642 13.209-31.805 8.164-8.135 19.418-13.21 31.805-13.21zm-155.681 15.449c4.139 0 7.513 3.374 7.513 7.512s-3.374 7.483-7.513 7.483h-296.308v25.087h368.848v-25.087h-38.551c-4.139 0-7.513-3.345-7.513-7.483 0-4.139 3.374-7.512 7.513-7.512h46.063c4.139 0 7.512 3.374 7.512 7.512v40.054c0 4.139-3.373 7.512-7.512 7.512h-383.843c-4.139 0-7.513-3.373-7.513-7.512v-40.054c0-4.139 3.374-7.512 7.513-7.512zm-46.063-73.956c-2.296 0-4.393.963-5.925 2.494-1.53 1.503-2.466 3.6-2.466 5.925 0 2.296.936 4.394 2.466 5.924 1.531 1.503 3.629 2.467 5.925 2.467h126.115c2.296 0 4.393-.964 5.925-2.467 1.53-1.53 2.466-3.628 2.466-5.924 0-2.325-.936-4.422-2.466-5.925-1.531-1.531-3.629-2.494-5.925-2.494-42.039 0-84.076 0-126.115 0zm100.263-46.631h-74.383l-7.199 31.635h88.753zm131.501-14.995v-16.781h-337.412v16.781z"/></g></svg>