<?xml version="1.0" standalone="no"?>
<!DOCTYPE svg PUBLIC "-//W3C//DTD SVG 20010904//EN"
 "http://www.w3.org/TR/2001/REC-SVG-20010904/DTD/svg10.dtd">
<svg version="1.0" xmlns="http://www.w3.org/2000/svg"
 width="512.000000pt" height="512.000000pt" viewBox="0 0 512.000000 512.000000"
 preserveAspectRatio="xMidYMid meet">

<g transform="translate(0.000000,512.000000) scale(0.100000,-0.100000)"
fill="#000000" stroke="none">
<path d="M1197 5106 c-50 -19 -103 -60 -132 -105 -33 -49 -45 -120 -45 -267
l0 -124 -138 0 c-177 0 -226 -13 -292 -80 -67 -66 -80 -115 -80 -291 l0 -137
-158 -4 c-169 -5 -200 -13 -260 -63 -18 -15 -45 -48 -60 -74 -23 -39 -27 -57
-27 -121 0 -64 4 -82 27 -121 15 -26 42 -59 60 -74 60 -50 91 -58 260 -63
l158 -4 0 -169 0 -169 -158 0 c-150 0 -161 -1 -210 -26 -188 -94 -187 -355 3
-457 35 -19 59 -22 202 -25 l163 -4 0 -168 0 -168 -163 -4 c-143 -3 -167 -6
-202 -25 -189 -101 -191 -364 -3 -457 49 -25 60 -26 210 -26 l158 0 0 -169 0
-169 -157 -4 c-170 -5 -201 -13 -261 -63 -18 -15 -45 -48 -60 -74 -23 -39 -27
-57 -27 -121 0 -64 4 -82 27 -121 15 -26 42 -59 60 -74 60 -50 91 -58 261 -63
l157 -4 0 -137 c0 -176 13 -225 80 -291 66 -67 115 -80 291 -80 l137 0 4 -157
c5 -170 13 -201 63 -261 15 -18 48 -45 74 -60 39 -23 57 -27 121 -27 64 0 82
4 121 27 26 15 59 42 74 60 50 60 58 91 63 261 l4 157 169 0 169 0 0 -158 c0
-150 1 -161 26 -210 93 -188 356 -186 457 3 19 35 22 59 25 203 l4 162 168 0
168 0 4 -163 c3 -143 6 -167 25 -202 98 -183 347 -192 451 -16 26 44 27 52 30
214 l4 167 168 0 168 0 4 -157 c5 -170 13 -201 63 -261 15 -18 48 -45 74 -60
39 -23 57 -27 121 -27 64 0 82 4 121 27 26 15 59 42 74 60 50 60 58 91 63 261
l4 157 137 0 c176 0 225 13 291 80 67 66 80 115 80 291 l0 137 158 4 c169 5
200 13 260 63 18 15 45 48 60 74 23 39 27 57 27 121 0 64 -4 82 -27 121 -15
26 -42 59 -60 74 -60 50 -91 58 -260 63 l-158 4 0 168 0 168 168 4 c161 3 169
4 213 30 176 104 167 353 -16 451 -35 19 -59 22 -202 25 l-163 4 0 168 0 168
163 4 c143 3 167 6 202 25 189 101 191 364 3 457 -49 25 -60 26 -210 26 l-158
0 0 169 0 169 158 4 c169 5 200 13 260 63 18 15 45 48 60 74 23 39 27 57 27
121 0 64 -4 82 -27 121 -15 26 -42 59 -60 74 -60 50 -91 58 -260 63 l-158 4 0
137 c0 176 -13 225 -80 291 -66 67 -115 80 -291 80 l-137 0 -4 158 c-5 169
-13 200 -63 260 -15 18 -48 45 -74 60 -39 23 -57 27 -121 27 -64 0 -82 -4
-121 -27 -26 -15 -59 -42 -74 -60 -50 -60 -58 -91 -63 -260 l-4 -158 -169 0
-169 0 0 158 c0 150 -1 161 -26 210 -78 157 -290 189 -410 60 -63 -66 -69 -87
-72 -265 l-4 -163 -168 0 -168 0 -4 163 c-3 178 -9 199 -72 265 -121 129 -331
98 -410 -60 -25 -49 -26 -60 -26 -210 l0 -158 -169 0 -169 0 -4 158 c-5 169
-13 200 -63 260 -64 76 -189 111 -278 78z m125 -167 c36 -19 48 -69 48 -204
l0 -125 -90 0 -90 0 0 125 c0 133 12 183 47 204 23 14 59 14 85 0z m869 -18
l29 -29 0 -141 0 -141 -85 0 -85 0 0 143 c1 147 4 162 45 185 33 19 65 13 96
-17z m832 17 c43 -22 46 -37 47 -185 l0 -143 -85 0 -85 0 0 141 0 141 29 29
c31 31 59 36 94 17z m859 1 c36 -19 48 -69 48 -204 l0 -125 -90 0 -90 0 0 125
c0 133 12 183 47 204 23 14 59 14 85 0z m530 -527 l23 -23 0 -1829 0 -1829
-23 -23 -23 -23 -1829 0 -1829 0 -23 23 -23 23 -2 1817 c-2 1445 0 1822 10
1842 7 13 24 30 37 37 20 10 397 12 1842 10 l1817 -2 23 -23z m-3902 -572 l0
-90 -127 0 c-102 0 -135 4 -163 18 -66 33 -66 111 0 144 28 14 61 18 163 18
l127 0 0 -90z m4390 72 c41 -20 58 -59 44 -99 -17 -49 -62 -63 -206 -63 l-128
0 0 90 0 90 128 0 c101 0 134 -4 162 -18z m-4390 -927 l0 -85 -141 0 -141 0
-29 29 c-31 31 -36 59 -17 94 22 43 37 46 186 47 l142 0 0 -85z m4401 72 c46
-35 50 -88 10 -128 l-29 -29 -141 0 -141 0 0 85 0 85 143 0 c96 -1 147 -5 158
-13z m-4401 -922 l0 -85 -142 0 c-149 1 -164 4 -186 47 -19 35 -14 63 17 94
l29 29 141 0 141 0 0 -85z m4411 56 c31 -31 36 -59 17 -94 -22 -43 -37 -46
-185 -47 l-143 0 0 85 0 85 141 0 141 0 29 -29z m-4411 -911 l0 -90 -127 0
c-145 0 -190 14 -207 63 -14 40 3 79 44 99 28 14 61 18 163 18 l127 0 0 -90z
m4390 72 c41 -20 58 -59 44 -99 -17 -49 -62 -63 -206 -63 l-128 0 0 90 0 90
128 0 c101 0 134 -4 162 -18z m-3530 -969 c0 -102 -4 -135 -18 -163 -33 -66
-111 -66 -144 0 -14 28 -18 61 -18 163 l0 127 90 0 90 0 0 -127z m850 -14 l0
-141 -29 -29 c-31 -31 -59 -36 -94 -17 -43 22 -46 37 -47 186 l0 142 85 0 85
0 0 -141z m850 -1 c-1 -149 -4 -164 -47 -186 -35 -19 -63 -14 -94 17 l-29 29
0 141 0 141 85 0 85 0 0 -142z m860 15 c0 -102 -4 -135 -18 -163 -33 -66 -111
-66 -144 0 -14 28 -18 61 -18 163 l0 127 90 0 90 0 0 -127z"/>
<path d="M1380 4089 c-178 -30 -322 -179 -350 -364 -7 -47 -10 -448 -8 -1210
4 -1283 -3 -1184 81 -1307 49 -72 139 -138 220 -164 69 -22 362 -31 467 -15
126 20 167 45 325 201 l142 140 303 0 303 0 142 -140 c158 -156 199 -181 325
-201 105 -16 398 -7 467 15 82 26 171 92 220 164 83 122 78 28 78 1352 0 1095
-1 1179 -18 1232 -26 85 -92 175 -165 225 -123 84 -22 78 -1322 79 -651 1
-1179 -2 -1210 -7z m2390 -185 c58 -26 108 -76 134 -134 21 -45 21 -50 21
-1210 0 -1160 0 -1165 -21 -1210 -26 -58 -76 -108 -134 -134 -41 -19 -63 -21
-240 -21 -139 0 -206 4 -233 14 -37 13 -177 134 -177 152 0 5 131 9 292 9 286
0 292 0 315 22 l23 21 0 1146 0 1145 -22 23 -21 23 -1146 0 -1145 0 -23 -22
-23 -21 0 -1146 0 -1145 22 -23 21 -23 294 0 c162 0 293 -4 293 -9 0 -18 -140
-139 -177 -152 -27 -10 -94 -14 -233 -14 -177 0 -199 2 -240 21 -58 26 -108
76 -134 134 -21 45 -21 50 -21 1210 0 1160 0 1165 21 1210 37 80 103 133 187
150 23 4 555 7 1182 7 1133 -2 1140 -2 1185 -23z m-190 -1344 l0 -1020 -1020
0 -1020 0 0 1020 0 1020 1020 0 1020 0 0 -1020z"/>
</g>
</svg>
