<svg height="512" viewBox="0 0 512 512" width="512" xmlns="http://www.w3.org/2000/svg"><g id="Outline"><path d="m72 328a24 24 0 1 0 24 24 24.027 24.027 0 0 0 -24-24zm0 32a8 8 0 1 1 8-8 8.009 8.009 0 0 1 -8 8z"/><path d="m376 328a24 24 0 1 0 24 24 24.027 24.027 0 0 0 -24-24zm0 32a8 8 0 1 1 8-8 8.009 8.009 0 0 1 -8 8z"/><path d="m432 352a56 56 0 0 0 -56.954-55.992c-30.352.507-55.046 25.979-55.046 56.782v26.875c-21.915-5.965-53.877-11.665-96-11.665s-74.085 5.7-96 11.665v-27.665a56 56 0 0 0 -58.174-55.958 56.2 56.2 0 0 0 -53.784 53.784 56.03 56.03 0 0 0 47.958 57.613v32.561a32.036 32.036 0 0 0 32 32v24a8 8 0 0 0 8 8h24a8 8 0 0 0 7.155-4.422l13.789-27.578h150.112l13.789 27.578a8 8 0 0 0 7.155 4.422h24a8 8 0 0 0 8-8v-24a32.036 32.036 0 0 0 32-32v-32.57a56.086 56.086 0 0 0 48-55.43zm-308.944 136h-11.056v-16h19.056zm212.944 0h-11.056l-8-16h19.056zm40-96a8 8 0 0 0 -8 8v40a16.019 16.019 0 0 1 -16 16h-256a16.019 16.019 0 0 1 -16-16v-40a8 8 0 0 0 -8-8 40 40 0 0 1 -39.97-41.566 40.127 40.127 0 0 1 38.4-38.4 40 40 0 0 1 41.57 39.966v32.6c-12.611 4.4-19.238 8.042-19.922 8.427l7.827 13.955c.413-.23 42.288-22.982 124.095-22.982s123.682 22.752 124.078 22.973l7.844-13.946c-.684-.385-7.311-4.031-19.922-8.427v-31.81c0-22.126 17.636-40.422 39.313-40.784a40 40 0 1 1 .687 79.994z"/><path d="m80 240a16.019 16.019 0 0 1 16-16h256a16.019 16.019 0 0 1 16 16v40h16v-40a32.036 32.036 0 0 0 -32-32h-256a32.036 32.036 0 0 0 -32 32v40h16z"/><path d="m176 256h16v16h-16z"/><path d="m216 296h16v16h-16z"/><path d="m136 296h16v16h-16z"/><path d="m176 336h16v16h-16z"/><path d="m256 256h16v16h-16z"/><path d="m296 296h16v16h-16z"/><path d="m256 336h16v16h-16z"/><path d="m464 8h-224a32.036 32.036 0 0 0 -32 32v8h16v-8a16.019 16.019 0 0 1 16-16h104v168h16v-168h104a16.019 16.019 0 0 1 16 16v400a16.019 16.019 0 0 1 -16 16h-72v16h19.056l13.789 27.578a8 8 0 0 0 7.155 4.422h24a8 8 0 0 0 8-8v-24a32.036 32.036 0 0 0 32-32v-400a32.036 32.036 0 0 0 -32-32zm-16 480h-11.056l-8-16h19.056z"/><path d="m72 176h72v16h16v-16h72a8 8 0 0 0 7.972-8.665l-8-96a8 8 0 0 0 -7.972-7.335h-64v-16h-16v16h-64a8 8 0 0 0 -7.972 7.335l-8 96a8 8 0 0 0 7.972 8.665zm15.361-96h129.278l6.667 80h-142.612z"/></g></svg>