<svg id="Repair_Service" height="512" viewBox="0 0 64 64" width="512" xmlns="http://www.w3.org/2000/svg" data-name="Repair Service"><path d="m61.99 54.86-1.99-13.93v-26.93a3.009 3.009 0 0 0 -3-3h-6v-6a3.009 3.009 0 0 0 -3-3h-32a3.009 3.009 0 0 0 -3 3v6h-6a3.009 3.009 0 0 0 -3 3v26.93l-1.99 13.93a.66.66 0 0 0 -.01.14v3a3.009 3.009 0 0 0 3 3h54a3.009 3.009 0 0 0 3-3v-3a.66.66 0 0 0 -.01-.14zm-10.99-41.86h6a1 1 0 0 1 1 1v26h-2v-23a2.006 2.006 0 0 0 -2-2h-3zm-36-8a1 1 0 0 1 1-1h32a1 1 0 0 1 1 1v28a1 1 0 0 1 -1 1h-32a1 1 0 0 1 -1-1zm1 31h32a3.009 3.009 0 0 0 3-3v-16h3v23h-44v-23h3v16a3.009 3.009 0 0 0 3 3zm-10-22a1 1 0 0 1 1-1h6v2h-3a2.006 2.006 0 0 0 -2 2v23h-2zm-.13 28h52.26l1.72 12h-55.7zm54.13 16a1 1 0 0 1 -1 1h-54a1 1 0 0 1 -1-1v-2h56z"/><path d="m38.08 19.58 6.23-6.24a4 4 0 1 0 -5.65-5.65l-6 6a2.906 2.906 0 0 1 -.15-.92 6.889 6.889 0 0 0 -2.05-5.04 7 7 0 0 0 -7.96-1.35 1 1 0 0 0 -.56.73 1.022 1.022 0 0 0 .28.88l3.56 3.55-.35 1.06-1.06.36-3.56-3.57a1 1 0 0 0 -1.61.28 7.058 7.058 0 0 0 .63 7.12 6.971 6.971 0 0 0 5.66 2.89 3.03 3.03 0 0 1 1.95.64l-1.93 1.92h-1a1.009 1.009 0 0 0 -.81.42l-3.53 4.95a1 1 0 0 0 .1 1.29l2.83 2.83a1.007 1.007 0 0 0 .71.29.981.981 0 0 0 .58-.19l4.95-3.53a1.009 1.009 0 0 0 .42-.81v-1l1.95-1.96 5.82 5.84a4.009 4.009 0 0 0 5.67-5.67zm1.99-10.48a2.041 2.041 0 0 1 2.83 0 1.992 1.992 0 0 1 0 2.83l-7.07 7.07-2.83-2.83zm-14.54 8.58h-.03a4.97 4.97 0 0 1 -4.93-5.7l2.82 2.83a1.007 1.007 0 0 0 1.03.24l2.12-.71a1.011 1.011 0 0 0 .63-.63l.71-2.12a1.028 1.028 0 0 0 -.24-1.03l-2.83-2.82a4.993 4.993 0 0 1 4.24 1.41 4.919 4.919 0 0 1 1.46 3.6 4.863 4.863 0 0 0 .63 2.45l-.26.26a1.008 1.008 0 0 0 0 1.42l-2.03 2.02a5.049 5.049 0 0 0 -3.32-1.22zm2.52 7.68a1.007 1.007 0 0 0 -.29.71v.9l-3.84 2.74-1.63-1.63 2.74-3.84h.9a1.007 1.007 0 0 0 .71-.29l5.65-5.66 1.42 1.42zm13.74 3.59a2.054 2.054 0 0 1 -2.84 0l-5.83-5.83 2-2a.99.99 0 0 0 .71.29 1.007 1.007 0 0 0 .71-.29l.12-.12 5.12 5.12a2.013 2.013 0 0 1 .01 2.83z"/><path d="m9 44h4v2h-4z"/><path d="m15 44h4v2h-4z"/><path d="m21 44h4v2h-4z"/><path d="m27 44h4v2h-4z"/><path d="m7 49h4v2h-4z"/><path d="m13 49h4v2h-4z"/><path d="m51 44h4v2h-4z"/><path d="m45 44h4v2h-4z"/><path d="m39 44h4v2h-4z"/><path d="m33 44h4v2h-4z"/><path d="m53 49h4v2h-4z"/><path d="m47 49h4v2h-4z"/><path d="m19 49h26v2h-26z"/></svg>