<svg height="512" viewBox="0 0 60 60" width="512" xmlns="http://www.w3.org/2000/svg"><g id="Page-1" fill="none" fill-rule="evenodd"><g id="020---Sink-Auger" fill="rgb(0,0,0)" fill-rule="nonzero"><path id="Shape" d="m14 60c7.7285595-.0082673 13.9917327-6.2714405 14-14v-23c0-1.6568542-1.3431458-3-3-3-1.6529917.0092882-2.9907118 1.3470083-3 3v11.527c-3.179057-2.2283277-7.1429486-3.0309824-10.9384635-2.2149467-3.79551496.8160357-7.07924383 3.1769288-9.0615365 6.5149467v-16.827c.00551113-4.9682782 4.03172183-8.9944889 9-9h9c0 1.1045695.8954305 2 2 2h4c0 .5522847.4477153 1 1 1h4c.447 0 .818.15.818 2 0 .258-.109.978-.224 1.739-.408943 2.3998833-.6379143 4.8269792-.685 7.261 0 1.184.078 2.132.142 2.893.2052073 1.1220246.1121009 2.2782684-.27 3.353-.2534252.6271877-.1784631 1.3393269.2 1.9.3478319.5275224.9351567.8476088 1.567.854h6.816c.9260386-.0167598 1.7101995-.6876995 1.87-1.6.4778414-2.4385386.7342185-4.9152882.766-7.4-.0210953-1.3579268-.1934931-2.7092707-.514-4.029-.3-1.4-.44-2.159-.082-2.832.3974458-.7834962.2675654-1.7313044-.326-2.379-.4257266-.5012952-.7049627-1.110286-.807-1.76h2.493l3.236 1.618v3.382c0 1.6568542 1.3431458 3 3 3h2c1.6568542 0 3-1.3431458 3-3v-13h3c1.6568542 0 3-1.34314575 3-3s-1.3431458-3-3-3h-3.184c-.4222546-1.19435086-1.5492146-1.99474861-2.816-2h-2c-1.6568542 0-3 1.34314575-3 3v3.382l-3.236 1.618h-15.764c-.5522847 0-1 .44771525-1 1h-1v-2c0-.55228475-.4477153-1-1-1s-1 .44771525-1 1v2h-1c-1.1045695 0-2 .8954305-2 2h-9c-6.07216255.0071635-10.9928365 4.9278374-11 11v24c.00826732 7.7285595 6.27144053 13.9917327 14 14zm25.584-40.911c.0265072.0323545.0453143.0703105.055.111-.718 1.348-.436 2.666-.109 4.191.2910156 1.1816612.4486664 2.3922182.47 3.609-.0312503 2.350453-.2745706 4.6932895-.727 7h-6.638c.5072335-1.3620701.6482611-2.833377.409-4.267-.064-.763-.135-1.627-.135-2.729.0486209-2.3334884.269892-4.6601777.662-6.961.1235137-.6753873.2059981-1.357637.247-2.043.0110373-.6756949-.0762082-1.3494059-.259-2h4.693c.1227685 1.1403163.587034 2.2169799 1.332 3.089zm18.416-14.089c0 .55228475-.4477153 1-1 1h-3v-2h3c.5522847 0 1 .44771525 1 1zm-10-2c0-.55228475.4477153-1 1-1h2c.5522847 0 1 .44771525 1 1v18c0 .5522847-.4477153 1-1 1h-2c-.5522847 0-1-.4477153-1-1zm-2 12.382-2-1v-4.764l2-1zm-4-5.382v4h-14v-4zm-20 1h4v2h-4zm2.306 11.288c.1823963-.1865985.4330776-.2906276.694-.288.5522847 0 1 .4477153 1 1v15.826c-.5626525-.9434551-1.233894-1.8177472-2-2.605v-13.221c-.0003954-.2693445.110308-.526929.306-.712zm-10.306 11.712c6.627417 0 12 5.372583 12 12s-5.372583 12-12 12-12-5.372583-12-12c.00716485-6.624447 5.37555305-11.9928352 12-12z"/><path id="Shape" d="m14 56c5.5228475 0 10-4.4771525 10-10s-4.4771525-10-10-10-10 4.4771525-10 10c.00606237 5.5203344 4.47966557 9.9939376 10 10zm0-18c4.418278 0 8 3.581722 8 8s-3.581722 8-8 8-8-3.581722-8-8c.00495988-4.4162219 3.58377808-7.9950401 8-8z"/></g></g></svg>