<?xml version="1.0" encoding="iso-8859-1"?>
<!-- Generator: Adobe Illustrator 19.0.0, SVG Export Plug-In . SVG Version: 6.00 Build 0)  -->
<svg version="1.1" id="Capa_1" xmlns="http://www.w3.org/2000/svg" xmlns:xlink="http://www.w3.org/1999/xlink" x="0px" y="0px"
	 viewBox="0 0 511.313 511.313" style="enable-background:new 0 0 511.313 511.313;" xml:space="preserve">
<g>
	<g>
		<path d="M424.511,91.4c-20.379-20.363-103.916-38.012-107.458-38.753c-1.319-0.266-2.692,0.125-3.644,1.084
			c-0.952,0.953-1.365,2.326-1.084,3.644c0.741,3.542,18.374,87.095,38.753,107.474c10.673,10.674,25.037,16.533,39.447,16.533
			c4.104,0,8.207-0.469,12.234-1.443c2.145-0.523,3.463-2.685,2.949-4.822c-0.514-2.137-2.653-3.432-4.821-2.949
			c-15.495,3.737-32.41-1.217-44.16-12.967c-15.744-15.745-30.771-77.67-35.242-97.394c19.724,4.471,81.633,19.506,97.378,35.242
			c11.742,11.742,16.719,28.665,12.982,44.16c-0.515,2.145,0.803,4.306,2.949,4.821c2.169,0.468,4.299-0.811,4.821-2.949
			C443.992,124.902,438.203,105.092,424.511,91.4z"/>
	</g>
</g>
<g>
	<g>
		<path d="M448.994,172.37l-39.557-39.541c-1.56-1.561-4.087-1.56-5.648,0c-1.561,1.56-1.561,4.088,0,5.648l39.557,39.541
			c0.779,0.78,1.802,1.171,2.824,1.171c1.021,0,2.044-0.39,2.824-1.171C450.555,176.459,450.555,173.931,448.994,172.37z"/>
	</g>
</g>
<g>
	<g>
		<path d="M437.68,183.668l-39.541-39.541c-1.559-1.561-4.087-1.56-5.648,0c-1.561,1.56-1.561,4.087,0,5.648l39.541,39.541
			c0.78,0.78,1.802,1.17,2.824,1.17c1.023,0,2.044-0.39,2.824-1.17C439.241,187.756,439.241,185.229,437.68,183.668z"/>
	</g>
</g>
<g>
	<g>
		<path d="M454.642,166.722c-1.56-1.561-4.087-1.561-5.648,0l-22.61,22.595c-1.561,1.56-1.561,4.087,0,5.648
			c0.78,0.78,1.802,1.171,2.824,1.171c1.022,0,2.044-0.391,2.824-1.171l22.61-22.595
			C456.203,170.81,456.202,168.283,454.642,166.722z"/>
	</g>
</g>
<g>
	<g>
		<path d="M505.48,217.56l-50.838-50.838c-1.56-1.561-4.087-1.56-5.648,0c-1.561,1.56-1.561,4.087,0,5.648l50.838,50.839
			c0.78,0.78,1.803,1.17,2.824,1.17c1.022,0,2.045-0.39,2.824-1.17C507.041,221.649,507.041,219.121,505.48,217.56z"/>
	</g>
</g>
<g>
	<g>
		<path d="M482.885,240.154l-50.854-50.838c-1.56-1.561-4.088-1.561-5.648,0c-1.561,1.56-1.561,4.087,0,5.648l50.854,50.839
			c0.78,0.78,1.803,1.17,2.824,1.17c1.023,0,2.044-0.389,2.824-1.17C484.445,244.243,484.445,241.715,482.885,240.154z"/>
	</g>
</g>
<g>
	<g>
		<path d="M505.479,217.561c-1.559-1.561-4.087-1.561-5.648,0c-1.561,1.552-1.561,4.081,0,5.649c4.666,4.673,4.666,12.28,0,16.945
			c-4.541,4.541-12.405,4.541-16.945,0c-1.56-1.56-4.088-1.56-5.649,0c-1.561,1.552-1.561,4.081,0,5.649
			c3.768,3.776,8.785,5.859,14.122,5.859c5.336,0,10.354-2.083,14.12-5.858C513.258,238.026,513.258,225.356,505.479,217.561z"/>
	</g>
</g>
<g>
	<g>
		<path d="M409.437,132.829c-4.666-4.665-12.28-4.665-16.946,0c-4.673,4.674-4.673,12.272,0,16.946c0.78,0.78,1.802,1.17,2.824,1.17
			c1.023,0,2.044-0.39,2.825-1.171c1.561-1.56,1.561-4.087,0-5.648c-1.56-1.56-1.56-4.088,0-5.649c1.56-1.56,4.088-1.56,5.649,0
			c1.56,1.561,4.087,1.561,5.648,0C410.998,136.918,410.998,134.39,409.437,132.829z"/>
	</g>
</g>
<g>
	<g>
		<path d="M163.797,331.556H4.01c-2.208,0-3.995,1.787-3.995,3.995v159.787c0,2.208,1.787,3.994,3.995,3.994h159.787
			c2.208,0,3.994-1.786,3.994-3.994V335.551C167.791,333.343,166.005,331.556,163.797,331.556z M159.802,491.343H8.005V339.546
			h151.797V491.343z"/>
	</g>
</g>
<g>
	<g>
		<path d="M30.801,348.705c-1.559-1.561-4.087-1.561-5.648,0l-7.989,7.989c-1.561,1.56-1.561,4.088,0,5.648
			c0.78,0.781,1.803,1.171,2.824,1.171c1.023,0,2.044-0.389,2.824-1.171l7.989-7.988C32.362,352.794,32.362,350.266,30.801,348.705z
			"/>
	</g>
</g>
<g>
	<g>
		<path d="M54.77,348.705c-1.56-1.561-4.088-1.561-5.649,0l-31.957,31.958c-1.561,1.559-1.561,4.087,0,5.648
			c0.78,0.78,1.803,1.17,2.824,1.17c1.023,0,2.044-0.389,2.824-1.17l31.958-31.957C56.331,352.794,56.33,350.266,54.77,348.705z"/>
	</g>
</g>
<g>
	<g>
		<path d="M483.37,331.556H323.583c-2.208,0-3.994,1.787-3.994,3.995v159.787c0,2.208,1.786,3.994,3.994,3.994H483.37
			c2.208,0,3.994-1.786,3.994-3.994V335.551C487.364,333.343,485.578,331.556,483.37,331.556z M479.375,491.343H327.578V339.546
			h151.797V491.343z"/>
	</g>
</g>
<g>
	<g>
		<path d="M350.374,348.705c-1.559-1.561-4.087-1.561-5.648,0l-7.989,7.989c-1.56,1.56-1.56,4.088,0,5.648
			c0.78,0.781,1.803,1.171,2.825,1.171c1.022,0,2.043-0.389,2.824-1.171l7.988-7.988
			C351.935,352.794,351.935,350.266,350.374,348.705z"/>
	</g>
</g>
<g>
	<g>
		<path d="M374.343,348.705c-1.56-1.561-4.087-1.561-5.648,0l-31.958,31.958c-1.56,1.559-1.56,4.087,0,5.648
			c0.78,0.78,1.803,1.17,2.825,1.17c1.022,0,2.043-0.389,2.824-1.17l31.957-31.957C375.904,352.794,375.903,350.266,374.343,348.705
			z"/>
	</g>
</g>
<g>
	<g>
		<path d="M323.583,171.769H163.797c-2.208,0-3.995,1.786-3.995,3.994v159.788c0,2.208,1.787,3.995,3.995,3.995h159.786
			c2.208,0,3.995-1.787,3.995-3.996V175.763C327.578,173.555,325.791,171.769,323.583,171.769z M319.589,331.555H167.791V179.759
			h151.798V331.555z"/>
	</g>
</g>
<g>
	<g>
		<path d="M190.588,188.918c-1.56-1.56-4.087-1.56-5.648,0l-7.989,7.99c-1.561,1.559-1.561,4.087,0,5.648
			c0.78,0.78,1.802,1.17,2.824,1.17c1.022,0,2.044-0.389,2.824-1.17l7.989-7.989C192.149,193.007,192.149,190.479,190.588,188.918z"
			/>
	</g>
</g>
<g>
	<g>
		<path d="M214.556,188.918c-1.56-1.56-4.087-1.56-5.648,0l-31.957,31.958c-1.561,1.56-1.561,4.087,0,5.648
			c0.78,0.78,1.802,1.17,2.824,1.17c1.022,0,2.044-0.39,2.824-1.17l31.957-31.957C216.117,193.007,216.117,190.479,214.556,188.918z
			"/>
	</g>
</g>
<g>
	<g>
		<path d="M163.781,11.982H3.994C1.786,11.982,0,13.769,0,15.977v159.787c0,2.208,1.786,3.995,3.994,3.995h159.787
			c2.208,0,3.994-1.788,3.994-3.996V15.977C167.775,13.769,165.989,11.982,163.781,11.982z M159.786,171.769H7.989V19.971h151.797
			V171.769z"/>
	</g>
</g>
<g>
	<g>
		<path d="M30.785,29.132c-1.559-1.561-4.087-1.561-5.648,0l-7.989,7.989c-1.561,1.56-1.561,4.087,0,5.648
			c0.78,0.78,1.803,1.171,2.824,1.171c1.023,0,2.044-0.39,2.824-1.171l7.989-7.989C32.346,33.22,32.346,30.693,30.785,29.132z"/>
	</g>
</g>
<g>
	<g>
		<path d="M54.754,29.132c-1.56-1.561-4.088-1.561-5.649,0L17.148,61.089c-1.561,1.56-1.561,4.088,0,5.649
			c0.78,0.779,1.803,1.17,2.824,1.17c1.023,0,2.044-0.391,2.825-1.17L54.754,34.78C56.315,33.22,56.314,30.693,54.754,29.132z"/>
	</g>
</g>
<g>
	<g>
		<path d="M323.583,331.556H163.797c-2.208,0-3.995,1.787-3.995,3.995v159.787c0,2.208,1.787,3.994,3.995,3.994h159.786
			c2.208,0,3.995-1.786,3.995-3.994V335.551C327.578,333.343,325.791,331.556,323.583,331.556z M319.589,491.343H167.791V339.546
			h151.798V491.343z"/>
	</g>
</g>
<g>
	<g>
		<path d="M285.119,419.728c-11.329-4.533-20.965-4.205-28.618,0.991c-16.618,11.242-16.806,41.382-16.806,42.661
			c0,2.208,1.786,3.995,3.994,3.995c2.2,0,3.995-1.787,3.996-3.994c0-0.265,0.196-27.198,13.303-36.053
			c5.353-3.606,12.476-3.652,21.167-0.188c2.043,0.819,4.369-0.181,5.188-2.224C288.162,422.873,287.171,420.547,285.119,419.728z"
			/>
	</g>
</g>
<g>
	<g>
		<path d="M230.879,420.718c-7.646-5.188-17.289-5.524-28.618-0.991c-2.052,0.819-3.043,3.144-2.224,5.188
			c0.819,2.044,3.152,3.043,5.188,2.224c8.699-3.463,15.822-3.417,21.167,0.188c13.108,8.856,13.303,35.788,13.303,36.053
			c0,2.208,1.794,3.995,3.994,3.995c2.208,0,3.995-1.787,3.996-3.996C247.685,462.1,247.497,431.96,230.879,420.718z"/>
	</g>
</g>
<g>
	<g>
		<path d="M237.197,389.432c-5.016-3.629-11.32-4.222-18.74-1.748c-2.09,0.702-3.222,2.965-2.528,5.056
			c0.702,2.09,2.981,3.229,5.056,2.528c4.9-1.646,8.677-1.428,11.532,0.631c5.852,4.206,7.162,15.542,7.178,19.553
			c0.008,2.2,1.794,3.986,3.994,3.986v0h0.007c2.2-0.008,3.987-1.794,3.987-3.994C247.683,414.687,247.566,396.898,237.197,389.432z
			"/>
	</g>
</g>
<g>
	<g>
		<path d="M268.921,387.684c-7.42-2.474-13.731-1.889-18.741,1.748c-10.368,7.466-10.485,25.255-10.485,26.012
			c0,2.208,1.786,3.994,3.994,3.994c2.208,0,3.995-1.786,3.994-3.994c0-3.995,1.287-15.3,7.162-19.537
			c2.871-2.059,6.655-2.285,11.548-0.639c2.098,0.709,4.362-0.437,5.055-2.528C272.144,390.649,271.012,388.386,268.921,387.684z"/>
	</g>
</g>
<g>
	<g>
		<path d="M211.732,443.408c-6.608,0-11.984,5.375-11.984,11.983c0,6.608,5.376,11.984,11.984,11.984
			c6.609,0,11.984-5.376,11.984-11.984C223.716,448.783,218.34,443.408,211.732,443.408z M211.732,459.385
			c-2.2,0-3.994-1.795-3.994-3.995c0-2.2,1.794-3.994,3.994-3.994s3.995,1.794,3.995,3.994
			C215.727,457.59,213.932,459.385,211.732,459.385z"/>
	</g>
</g>
<g>
	<g>
		<path d="M275.647,443.408c-6.608,0-11.984,5.375-11.984,11.983c0,6.608,5.376,11.984,11.984,11.984
			c6.609,0,11.983-5.376,11.983-11.984C287.63,448.783,282.255,443.408,275.647,443.408z M275.647,459.385
			c-2.2,0-3.995-1.795-3.995-3.995c0-2.2,1.795-3.994,3.995-3.994s3.994,1.794,3.994,3.994
			C279.641,457.59,277.847,459.385,275.647,459.385z"/>
	</g>
</g>
<g>
	<g>
		<path d="M243.689,363.513c-2.208,0-3.994,1.786-3.994,3.995v15.979c0,2.207,1.786,3.994,3.994,3.994
			c2.208,0,3.995-1.787,3.995-3.994v-15.979C247.684,365.299,245.897,363.513,243.689,363.513z"/>
	</g>
</g>
<g>
	<g>
		<path d="M190.588,348.705c-1.56-1.561-4.087-1.561-5.648,0l-7.989,7.989c-1.561,1.56-1.561,4.088,0,5.648
			c0.78,0.781,1.802,1.171,2.824,1.171c1.022,0,2.044-0.389,2.824-1.171l7.989-7.988
			C192.149,352.794,192.148,350.266,190.588,348.705z"/>
	</g>
</g>
<g>
	<g>
		<path d="M214.556,348.705c-1.56-1.561-4.087-1.561-5.648,0l-31.957,31.958c-1.561,1.559-1.561,4.087,0,5.648
			c0.78,0.78,1.802,1.17,2.824,1.17c1.022,0,2.044-0.389,2.824-1.17l31.957-31.957C216.117,352.794,216.116,350.266,214.556,348.705
			z"/>
	</g>
</g>
<g>
	<g>
		<path d="M163.797,171.769H4.01c-2.208,0-3.995,1.786-3.995,3.994v159.788c0,2.208,1.787,3.995,3.995,3.995h159.787
			c2.208,0,3.994-1.787,3.994-3.996V175.763C167.791,173.555,166.005,171.769,163.797,171.769z M159.802,331.555H8.005V179.759
			h151.797V331.555z"/>
	</g>
</g>
<g>
	<g>
		<path d="M125.332,259.941c-11.328-4.54-20.964-4.213-28.618,0.991c-16.618,11.243-16.806,41.382-16.806,42.662
			c0,2.208,1.787,3.994,3.995,3.994c2.2,0,3.994-1.786,3.995-3.993c0-0.266,0.196-27.199,13.303-36.054
			c5.353-3.605,12.476-3.652,21.167-0.188c2.043,0.827,4.369-0.18,5.188-2.223C128.375,263.086,127.384,260.761,125.332,259.941z"/>
	</g>
</g>
<g>
	<g>
		<path d="M71.092,260.931c-7.645-5.196-17.289-5.531-28.618-0.991c-2.052,0.82-3.042,3.144-2.224,5.189
			c0.811,2.043,3.136,3.042,5.188,2.223c8.699-3.463,15.823-3.416,21.167,0.188c13.109,8.856,13.303,35.788,13.303,36.054
			c0,2.208,1.795,3.994,3.995,3.994c2.208,0,3.994-1.786,3.995-3.995C87.898,302.313,87.711,272.174,71.092,260.931z"/>
	</g>
</g>
<g>
	<g>
		<path d="M77.411,229.645c-5.009-3.628-11.321-4.221-18.741-1.748c-2.09,0.702-3.221,2.965-2.527,5.056
			c0.702,2.09,2.957,3.238,5.056,2.528c4.899-1.639,8.683-1.42,11.531,0.632c5.852,4.205,7.162,15.542,7.178,19.552
			c0.008,2.2,1.795,3.987,3.995,3.987h0.008c2.2-0.008,3.986-1.795,3.986-3.995C87.897,254.9,87.781,237.112,77.411,229.645z"/>
	</g>
</g>
<g>
	<g>
		<path d="M109.134,227.897c-7.428-2.481-13.723-1.88-18.74,1.748c-10.369,7.467-10.486,25.255-10.486,26.012
			c0,2.208,1.787,3.995,3.995,3.995c2.208,0,3.994-1.787,3.994-3.995c0-3.994,1.288-15.3,7.162-19.536
			c2.871-2.06,6.647-2.279,11.547-0.64c2.107,0.71,4.354-0.429,5.056-2.528C112.357,230.862,111.225,228.599,109.134,227.897z"/>
	</g>
</g>
<g>
	<g>
		<path d="M51.945,283.621c-6.607,0-11.983,5.376-11.983,11.984c0,6.608,5.376,11.983,11.983,11.983
			c6.608,0,11.984-5.375,11.984-11.983C63.929,288.997,58.553,283.621,51.945,283.621z M51.945,299.598
			c-2.199,0-3.994-1.794-3.994-3.994c0-2.2,1.795-3.995,3.994-3.995c2.2,0,3.995,1.795,3.995,3.995
			C55.94,297.804,54.145,299.598,51.945,299.598z"/>
	</g>
</g>
<g>
	<g>
		<path d="M115.86,283.621c-6.608,0-11.984,5.376-11.984,11.984c0,6.608,5.376,11.983,11.984,11.983
			c6.609,0,11.984-5.375,11.984-11.983C127.844,288.997,122.468,283.621,115.86,283.621z M115.86,299.598
			c-2.2,0-3.994-1.794-3.994-3.994c0-2.2,1.794-3.995,3.994-3.995s3.995,1.795,3.995,3.995
			C119.855,297.804,118.06,299.598,115.86,299.598z"/>
	</g>
</g>
<g>
	<g>
		<path d="M83.903,203.726c-2.208,0-3.995,1.787-3.995,3.995V223.7c0,2.208,1.787,3.994,3.995,3.994
			c2.208,0,3.994-1.786,3.994-3.994v-15.979C87.897,205.513,86.111,203.726,83.903,203.726z"/>
	</g>
</g>
<g>
	<g>
		<path d="M30.801,188.918c-1.559-1.56-4.087-1.56-5.648,0l-7.989,7.99c-1.561,1.559-1.561,4.087,0,5.648
			c0.78,0.78,1.803,1.17,2.824,1.17c1.023,0,2.044-0.389,2.824-1.17l7.989-7.989C32.362,193.007,32.362,190.479,30.801,188.918z"/>
	</g>
</g>
<g>
	<g>
		<path d="M54.77,188.918c-1.56-1.56-4.088-1.56-5.649,0l-31.957,31.958c-1.561,1.56-1.561,4.087,0,5.648
			c0.78,0.78,1.803,1.17,2.824,1.17c1.023,0,2.044-0.39,2.824-1.17l31.958-31.957C56.331,193.007,56.331,190.479,54.77,188.918z"/>
	</g>
</g>
<g>
	<g>
		<path d="M307.604,27.962H179.775c-2.208,0-3.995,1.786-3.995,3.994s1.787,3.995,3.995,3.995h127.829
			c2.208,0,3.995-1.787,3.995-3.995S309.812,27.962,307.604,27.962z"/>
	</g>
</g>
<g>
	<g>
		<path d="M291.626,51.93H179.775c-2.208,0-3.995,1.786-3.995,3.994c0,2.208,1.787,3.995,3.995,3.995h111.851
			c2.208,0,3.995-1.787,3.995-3.995C295.621,53.716,293.834,51.93,291.626,51.93z"/>
	</g>
</g>
<g>
	<g>
		<path d="M299.615,75.897h-119.84c-2.208,0-3.995,1.787-3.995,3.995s1.787,3.994,3.995,3.994h119.84
			c2.208,0,3.994-1.786,3.994-3.994S301.823,75.897,299.615,75.897z"/>
	</g>
</g>
<g>
	<g>
		<path d="M307.604,99.865H179.775c-2.208,0-3.995,1.787-3.995,3.995s1.787,3.994,3.995,3.994h127.829
			c2.208,0,3.995-1.786,3.995-3.994S309.812,99.865,307.604,99.865z"/>
	</g>
</g>
<g>
	<g>
		<path d="M307.604,123.833H179.775c-2.208,0-3.995,1.787-3.995,3.995c0,2.208,1.787,3.995,3.995,3.995h127.829
			c2.208,0,3.995-1.787,3.995-3.995C311.599,125.62,309.812,123.833,307.604,123.833z"/>
	</g>
</g>
<g>
	<g>
		<path d="M307.604,147.802H179.775c-2.208,0-3.995,1.786-3.995,3.994c0,2.208,1.787,3.995,3.995,3.995h127.829
			c2.208,0,3.995-1.787,3.995-3.995S309.812,147.802,307.604,147.802z"/>
	</g>
</g>
<g>
</g>
<g>
</g>
<g>
</g>
<g>
</g>
<g>
</g>
<g>
</g>
<g>
</g>
<g>
</g>
<g>
</g>
<g>
</g>
<g>
</g>
<g>
</g>
<g>
</g>
<g>
</g>
<g>
</g>
</svg>
