<?xml version="1.0"?>
<svg xmlns="http://www.w3.org/2000/svg" viewBox="0 0 512 512" width="512" height="512"><g id="outline"><path d="M280.00012,16a208.25688,208.25688,0,0,0-176,97.08179V72a8.00008,8.00008,0,0,0-8-8V24a8.00008,8.00008,0,0,0-8-8h-48a8.00009,8.00009,0,0,0-8,8V64a8.00009,8.00009,0,0,0-8,8v80a8.00009,8.00009,0,0,0,8,8h8v40h-8a8.00009,8.00009,0,0,0-8,8v32a8.00009,8.00009,0,0,0,8,8h8v24A223.9999,223.9999,0,0,0,422.39221,430.3916,222.53294,222.53294,0,0,0,488.00012,272V224C488.00012,109.30859,394.69153,16,280.00012,16ZM87.94629,144H40.00012V80h48v63.87036ZM48.00012,32h32V64h-32Zm8,128h16v40h-16Zm-16,56h80v16h-80Zm48,32h16v24c0,88.22461,71.77588,160,160,160s160-71.77539,160-160V232a56.06322,56.06322,0,0,0-56-56h-24V160h24a72.08124,72.08124,0,0,1,72,72v40c0,97.04688-78.95312,176-176,176s-176-78.95312-176-176Zm280-104h-24v-8a8.00008,8.00008,0,0,0-8-8h-80a8.00009,8.00009,0,0,0-8,8h-40a8.00009,8.00009,0,0,0-8,8v48a8.00009,8.00009,0,0,0,8,8h40a8.00009,8.00009,0,0,0,8,8h80a8.00008,8.00008,0,0,0,8-8v-8h24a40.04552,40.04552,0,0,1,40,40v40c0,79.40234-64.59814,144-144,144s-144-64.59766-144-144V248h8a8.00008,8.00008,0,0,0,8-8V208a8.00008,8.00008,0,0,0-8-8h-6.20239A160.02378,160.02378,0,0,1,280.00012,64c69.41675,0,128.64063,44.44019,150.74048,106.36108A87.73269,87.73269,0,0,0,368.00012,144Zm-120,40h-32V152h32Zm16-40h64v48h-64Zm208,128c0,114.69141-93.30859,208-208,208s-208-93.30859-208-208V248h16v24c0,105.86914,86.13086,192,192,192s192-86.13086,192-192V224c0-97.04688-78.95312-176-176-176a176.02233,176.02233,0,0,0-174.368,152H89.48865A192.03193,192.03193,0,0,1,280.00012,32c105.86914,0,192,86.13086,192,192Z"/></g></svg>
