<svg height="504pt" viewBox="0 0 504.01594 504" width="504pt" xmlns="http://www.w3.org/2000/svg"><path d="m183.359375 315.726562c-2.613281-6.265624-8.75-10.339843-15.539063-10.320312-6.792968.019531-12.902343 4.128906-15.480468 10.410156l-21.765625 53.972656-6.40625 15.414063c-6.050781 14.683594-4.832031 31.355469 3.28125 45.007813 7.4375 12.78125 20.527343 21.242187 35.234375 22.773437 1.722656.179687 3.453125.269531 5.183594.269531 1.726562 0 3.453124-.089844 5.167968-.265625 14.714844-1.527343 27.816406-9.988281 35.253906-22.777343 8.117188-13.648438 9.332032-30.324219 3.28125-45.007813zm10.503906 105.890626c-4.742187 8.210937-13.121093 13.664062-22.546875 14.671874-2.296875.238282-4.613281.238282-6.910156 0-9.421875-1.011718-17.792969-6.464843-22.535156-14.671874-5.410156-9.085938-6.226563-20.191407-2.203125-29.972657l28.164062-69.550781 21.832031 54.140625 6.40625 15.410156c4.023438 9.78125 3.207032 20.886719-2.207031 29.972657zm0 0"/><path d="m50.359375 285.382812c-4.632813 0-8.390625 3.757813-8.390625 8.394532v8.394531c0 4.632813 3.757812 8.390625 8.390625 8.390625 4.636719 0 8.394531-3.757812 8.394531-8.390625v-8.394531c0-4.636719-3.757812-8.394532-8.394531-8.394532zm0 0"/><path d="m50.359375 327.351562c-4.632813 0-8.390625 3.757813-8.390625 8.394532v109.113281c0 4.636719 3.757812 8.394531 8.390625 8.394531 4.636719 0 8.394531-3.757812 8.394531-8.394531v-109.113281c0-4.636719-3.757812-8.394532-8.394531-8.394532zm0 0"/><path d="m456.6875 272.59375c-20.5625-10.578125-38.351562-19.957031-44.792969-40.609375l38.273438-38.273437c3.148437-3.148438 4.917969-7.417969 4.917969-11.871094s-1.769532-8.722656-4.917969-11.871094l-53.410157-53.417969c-3.914062-3.914062-9.507812-5.640625-14.949218-4.621093l-73.332032-104.757813c-2.847656-4.066406-7.34375-6.667969-12.289062-7.1015625-4.945312-.4296875-9.824219 1.3437495-13.335938 4.8554685l-95.277343 95.277344c-5.28125 5.308594-6.421875 13.46875-2.804688 20.023437l12.332031 22.203126-22.199218-12.339844c-6.558594-3.609375-14.710938-2.464844-20.027344 2.808594l-24.054688 24.058593c-1.039062 1.066407-1.933593 2.269531-2.652343 3.574219-36.519531 2.003906-128.167969 10.105469-128.167969 40.917969v33.574219c.273438 6.046874 3.386719 11.605468 8.394531 15.003906v213.195312c.050781.476563.144531.945313.285157 1.40625l.019531.113282c.113281.75.328125 1.480468.636719 2.167968 10.066406 28.800782 102.574218 36.703125 158.53125 36.703125 59.234374 0 159.476562-8.839843 159.476562-41.96875v-145.109375l30.535156-30.535156c20.648438 6.441406 30.03125 24.226562 40.609375 44.792969 5.523438 11.863281 12.425781 23.03125 20.5625 33.277343 7.390625 8.597657 18.054688 13.683594 29.382813 14.019532.515625.015625 1.03125.027344 1.546875.027344 11.242187-.011719 22.023437-4.472657 29.980469-12.414063l11.644531-11.636719c8.316406-8.339844 12.800781-19.753906 12.382812-31.527344-.332031-11.328124-5.421875-21.992187-14.015625-29.378906-10.25-8.140625-21.421875-15.042968-33.285156-20.566406zm-18.382812-90.761719-130.574219 130.578125-53.414063-53.417968 130.574219-130.570313zm-416.566407 57.089844c-1.90625-.941406-3.59375-2.277344-4.945312-3.917969l-.007813.003906v-13.132812c3.3125 1.625 6.722656 3.039062 10.210938 4.242188l.367187.125.027344.011718c29.667969 10.746094 82.117187 17.164063 140.476563 17.164063 16.683593 0 33.359374-.609375 49.671874-1.707031l20.292969 14.207031c-.046875.242187-.035156.492187-.070312.738281-23.222657 2.378906-46.550781 3.5625-69.894531 3.546875-65.066407 0-125.113282-8.730469-146.128907-21.28125zm150.347657-29.03125 23.144531 16.199219c-9.082031.34375-18.21875.539062-27.363281.539062-35.046876.304688-70.054688-2.503906-104.609376-8.394531 34.554688-5.886719 69.5625-8.695313 104.609376-8.390625 1.433593.023438 2.820312.035156 4.214843.046875zm-5.339844-65.125 47.882812 26.601563c3.277344 1.824218 7.363282 1.25 10.015625-1.398438 2.648438-2.652344 3.222657-6.742188 1.398438-10.015625l-26.597657-47.882813 36.503907-36.503906 53.464843 64.160156c1.894532 2.382813 4.933594 3.550782 7.933594 3.054688 3.003906-.496094 5.503906-2.578125 6.53125-5.441406 1.03125-2.863282.429688-6.0625-1.570312-8.355469l-54.441406-65.335937 46.855468-46.855469 73.3125 104.738281-120.613281 120.613281-104.734375-73.316406zm-38.496094 32.605469c1.214844 2.058594 2.855469 3.835937 4.8125 5.210937l15.332031 10.726563c-48.773437 1.21875-91.753906 6.992187-118.335937 16.003906-4.953125-1.480469-9.496094-4.085938-13.273438-7.617188v-.042968c2.558594-6.6875 37.738282-20.25 111.464844-24.28125zm39.617188 309.457031c-88.851563 0-140.027344-16.429687-142.6875-25.277344v-202.5625c28.945312 11.097657 82.339843 18 142.6875 18 25.578124.035157 51.132812-1.347656 76.554687-4.148437l51.4375 51.4375c3.140625 3.160156 7.414063 4.929687 11.871094 4.917968.949219-.011718 1.894531-.105468 2.828125-.277343v132.613281c-2.578125 8.84375-53.757813 25.296875-142.691406 25.296875zm311.867187-144.628906-11.640625 11.640625c-5.042969 5.011718-11.933594 7.714844-19.039062 7.472656-6.660157-.179688-12.9375-3.15625-17.292969-8.199219-7.253907-9.257812-13.410157-19.324219-18.347657-30-9.71875-18.898437-20.527343-39.914062-42.441406-50.207031l27.824219-27.828125c10.292969 21.917969 31.304687 32.722656 50.207031 42.445313 10.675782 4.9375 20.742188 11.09375 30 18.347656 5.042969 4.355468 8.019532 10.628906 8.203125 17.289062.25 7.109375-2.453125 14-7.472656 19.039063zm0 0"/><path d="m289.925781 247.121094-5.933593 5.933594c-2.175782 2.109374-3.042969 5.226562-2.273438 8.15625.769531 2.929687 3.054688 5.21875 5.984375 5.988281s6.046875-.101563 8.15625-2.273438l5.9375-5.933593c3.207031-3.292969 3.171875-8.546876-.074219-11.796876-3.25-3.246093-8.507812-3.28125-11.796875-.074218zm0 0"/><path d="m378.949219 158.097656-65.28125 65.285156c-2.175781 2.109376-3.042969 5.226563-2.273438 8.15625.769531 2.929688 3.058594 5.21875 5.988281 5.988282 2.929688.769531 6.046876-.101563 8.15625-2.273438l65.28125-65.289062c2.171876-2.109375 3.042969-5.226563 2.273438-8.15625-.769531-2.929688-3.058594-5.21875-5.988281-5.984375-2.929688-.769531-6.046875.097656-8.15625 2.273437zm0 0"/></svg>