<?xml version="1.0" standalone="no"?>
<!DOCTYPE svg PUBLIC "-//W3C//DTD SVG 20010904//EN"
 "http://www.w3.org/TR/2001/REC-SVG-20010904/DTD/svg10.dtd">
<svg version="1.0" xmlns="http://www.w3.org/2000/svg"
 width="512.000000pt" height="512.000000pt" viewBox="0 0 512.000000 512.000000"
 preserveAspectRatio="xMidYMid meet">

<g transform="translate(0.000000,512.000000) scale(0.100000,-0.100000)"
fill="#000000" stroke="none">
<path d="M1510 5109 c-14 -6 -36 -20 -48 -32 -46 -42 -56 -76 -62 -196 l-5
-113 -90 -32 c-49 -18 -118 -47 -152 -64 -34 -18 -68 -32 -74 -32 -7 0 -45 32
-85 70 -97 94 -156 117 -231 90 -37 -14 -291 -266 -309 -307 -33 -76 -11 -137
86 -237 38 -40 70 -78 70 -85 0 -6 -14 -40 -32 -74 -17 -34 -46 -102 -64 -152
l-32 -90 -113 -5 c-120 -6 -154 -16 -196 -62 -38 -40 -43 -73 -43 -262 0 -169
2 -185 22 -226 35 -69 71 -84 212 -90 l119 -5 28 -83 c15 -45 44 -116 63 -156
20 -41 36 -81 36 -88 0 -7 -32 -45 -71 -83 -99 -97 -118 -150 -84 -232 19 -44
245 -276 291 -298 37 -18 116 -20 147 -4 12 6 57 45 99 87 l77 76 98 -46 c54
-25 128 -55 164 -67 l67 -22 3 -118 c4 -107 6 -121 31 -158 44 -67 68 -73 296
-73 190 0 201 1 232 23 66 45 75 66 78 198 4 117 4 120 30 137 36 22 42 32 42
70 0 39 -30 72 -66 72 -38 0 -96 -36 -124 -77 -23 -33 -25 -48 -29 -155 l-3
-118 -167 2 -166 3 -5 122 c-5 117 -6 122 -36 160 -26 31 -48 44 -130 74 -55
20 -137 54 -184 77 -136 66 -174 59 -290 -53 -42 -41 -81 -75 -86 -75 -5 0
-61 52 -124 115 l-115 115 77 77 c90 93 98 106 98 173 0 38 -9 68 -37 123 -20
39 -53 118 -74 175 -57 159 -78 174 -249 182 l-115 5 0 165 0 165 125 6 c69 3
126 7 127 8 2 0 21 17 42 37 32 28 45 52 66 117 15 45 46 123 71 173 46 96 57
161 33 207 -7 12 -45 56 -85 98 -41 42 -74 81 -74 86 0 4 52 60 115 123 l115
114 42 -39 c23 -22 52 -50 65 -62 87 -88 150 -95 287 -29 50 24 128 56 173 71
65 21 89 34 117 66 20 21 37 40 37 42 1 1 5 58 8 127 l6 125 165 0 165 0 5
-115 c8 -171 23 -192 182 -249 57 -21 136 -54 175 -74 55 -28 85 -37 123 -37
67 0 80 8 172 97 l76 76 34 -27 c55 -41 105 -32 127 23 32 76 -89 166 -196
146 -28 -5 -56 -25 -118 -86 -45 -43 -87 -79 -94 -79 -7 0 -46 16 -88 36 -41
20 -112 49 -157 64 l-81 28 -5 118 c-6 141 -21 177 -90 212 -41 21 -57 22
-230 21 -102 0 -196 -5 -210 -10z"/>
<path d="M2808 4475 c-195 -37 -403 -153 -534 -298 -153 -170 -237 -375 -251
-608 l-6 -106 -33 -12 c-63 -23 -124 -115 -124 -186 0 -52 24 -102 69 -146
l48 -46 5 -99 c3 -55 12 -115 21 -135 21 -50 71 -96 128 -116 38 -14 51 -24
55 -43 35 -172 84 -282 174 -392 33 -40 86 -93 119 -118 l60 -45 -2 -94 -2
-94 -425 -83 c-456 -89 -561 -119 -698 -196 -110 -61 -227 -180 -275 -278 -72
-146 -72 -150 -72 -675 0 -461 0 -471 22 -517 30 -66 95 -132 156 -159 l52
-24 1735 0 1735 0 57 28 c66 33 112 80 145 154 l24 52 -3 493 -3 493 -29 75
c-64 167 -167 281 -337 373 -119 65 -227 94 -657 178 -229 44 -423 83 -429 85
-9 2 -13 31 -13 97 l0 94 39 27 c56 39 152 142 195 209 49 76 93 189 108 274
l12 70 42 11 c54 14 112 65 135 117 14 30 19 65 19 143 0 59 4 102 10 102 18
0 78 60 95 97 48 100 -13 255 -109 279 -22 5 -24 12 -30 110 -23 365 -222 668
-541 825 -152 74 -227 91 -435 95 -124 2 -197 -1 -252 -11z m144 -334 c3 -179
5 -201 22 -220 23 -26 81 -28 108 -4 16 15 18 35 18 221 l0 205 58 -7 c32 -4
80 -12 107 -19 l50 -12 3 -85 c3 -113 7 -125 42 -140 65 -27 110 18 110 110 0
22 4 40 8 40 16 0 97 -62 160 -124 149 -143 233 -328 248 -542 l7 -94 -862 0
-861 0 0 58 c0 259 141 523 358 671 l62 42 0 -61 c0 -51 4 -65 25 -85 30 -30
64 -32 99 -4 25 19 26 25 26 114 0 52 4 97 10 100 13 8 138 33 172 34 l27 1 3
-199z m1072 -834 c24 -18 24 -67 0 -84 -15 -11 -195 -13 -1003 -11 l-985 3
-15 26 c-13 24 -13 29 2 53 l17 26 983 0 c802 0 987 -2 1001 -13z m-104 -331
c0 -100 -6 -107 -93 -117 -78 -9 -92 -25 -100 -117 -15 -160 -77 -292 -187
-402 -240 -239 -572 -284 -870 -119 -104 58 -216 171 -264 268 -41 80 -76 202
-76 262 0 77 -33 109 -113 109 -23 0 -47 4 -54 8 -21 13 -33 61 -33 128 l0 64
895 0 895 0 0 -84z m-1136 -967 c170 -55 400 -45 569 26 15 6 17 -1 17 -89 0
-115 -11 -147 -75 -215 -48 -51 -160 -133 -230 -169 l-41 -20 -78 46 c-94 56
-210 160 -237 213 -15 30 -19 59 -19 140 0 92 2 101 18 94 9 -4 43 -16 76 -26z
m-215 -262 c39 -81 135 -179 249 -255 28 -19 52 -36 52 -37 0 -1 -27 -19 -61
-40 -51 -31 -67 -37 -100 -32 -22 3 -47 11 -55 18 -8 7 -54 69 -101 138 -47
69 -101 147 -120 172 l-33 47 73 15 c39 8 73 15 74 16 0 0 11 -18 22 -42z
m1079 8 c2 -2 -50 -82 -116 -177 -121 -175 -144 -198 -199 -198 -24 0 -127 52
-137 69 -3 4 28 31 69 60 95 68 185 162 218 228 l26 51 68 -14 c37 -8 69 -16
71 -19z m-1152 -397 c359 -518 398 -577 425 -644 22 -55 24 -75 27 -311 l4
-253 -556 0 -556 0 0 248 c0 501 -39 824 -139 1142 -11 35 -17 68 -13 72 5 5
130 32 278 62 148 30 270 54 271 55 0 0 117 -167 259 -371z m1608 312 c142
-28 262 -53 266 -55 4 -3 -6 -48 -21 -101 -62 -208 -116 -528 -121 -722 -3
-88 -2 -95 21 -113 30 -24 76 -24 100 0 14 14 21 40 25 98 14 169 38 353 61
461 36 170 78 312 91 312 23 0 163 -101 200 -143 19 -23 47 -63 60 -89 52
-101 54 -128 54 -611 0 -439 0 -450 -21 -484 -39 -63 -75 -73 -274 -73 l-175
0 0 155 c0 154 0 156 -26 182 -20 20 -31 24 -57 19 -61 -12 -67 -30 -67 -202
l0 -154 -560 0 -560 0 0 193 c0 217 10 305 43 387 14 33 153 244 327 496 364
527 347 504 363 499 6 -2 129 -27 271 -55z m-2531 -226 c82 -294 106 -494 114
-942 l6 -353 -189 3 c-179 3 -191 4 -222 26 -68 49 -67 38 -67 532 0 404 2
451 19 513 23 83 76 168 142 226 54 48 143 103 159 98 6 -2 22 -48 38 -103z
m1566 -137 c58 -35 116 -68 128 -73 20 -9 15 -19 -103 -188 -68 -98 -124 -182
-124 -187 0 -19 -17 -8 -35 24 -10 17 -68 101 -127 186 l-108 155 43 22 c23
11 80 44 127 73 47 28 87 51 89 51 2 0 51 -28 110 -63z"/>
<path d="M1648 4228 c-231 -22 -442 -165 -548 -369 -56 -107 -80 -208 -80
-332 0 -124 19 -205 73 -317 34 -70 57 -101 132 -175 135 -136 275 -200 460
-212 82 -5 92 -3 118 17 20 16 27 30 27 56 0 53 -28 74 -97 74 -153 1 -290 58
-398 165 -115 114 -165 234 -165 395 0 95 18 176 54 248 72 141 212 252 371
291 76 19 211 15 286 -9 81 -25 85 -25 114 5 31 30 33 77 5 105 -42 42 -220
71 -352 58z"/>
</g>
</svg>
